<svg xmlns="http://www.w3.org/2000/svg" xmlns:xlink="http://www.w3.org/1999/xlink" width="1024" zoomAndPan="magnify" viewBox="0 0 768 576" height="768" preserveAspectRatio="xMidYMid meet" version="1.0"><defs><clipPath id="f975000b8f"><path d="M 217.25 282 L 301 282 L 301 397 L 217.25 397 Z M 217.25 282 " clip-rule="nonzero"/></clipPath><clipPath id="a37ac0e856"><path d="M 350 160.019531 L 490 160.019531 L 490 299 L 350 299 Z M 350 160.019531 " clip-rule="nonzero"/></clipPath></defs><path fill="#b6cec4" d="M 449.476562 335.171875 C 449.089844 332.351562 447.769531 329.816406 445.84375 327.886719 C 443.527344 325.574219 440.339844 324.136719 436.839844 324.136719 L 381.550781 324.136719 C 379.914062 324.136719 378.304688 323.363281 377.292969 321.925781 L 377.300781 321.917969 C 377.226562 321.816406 360.578125 297.53125 323.289062 300.660156 C 323 300.707031 322.707031 300.734375 322.40625 300.734375 L 294.816406 300.734375 C 291.941406 300.734375 289.609375 298.402344 289.609375 295.527344 C 289.609375 292.648438 291.941406 290.320312 294.816406 290.320312 L 322.472656 290.320312 C 358.488281 287.304688 378.363281 306.972656 384.066406 313.722656 L 436.839844 313.722656 C 443.214844 313.722656 449.007812 316.328125 453.203125 320.523438 C 455.605469 322.921875 457.484375 325.84375 458.652344 329.097656 L 520.113281 314.125 C 530.386719 311.621094 538.355469 314.183594 543.617188 319.339844 C 546.417969 322.082031 548.386719 325.53125 549.476562 329.324219 C 550.523438 332.96875 550.753906 336.976562 550.117188 340.984375 C 548.664062 350.183594 542.625 359.382812 531.476562 364.175781 C 509.738281 373.535156 492.972656 381.21875 478.945312 387.652344 C 446.355469 402.59375 427.980469 411.015625 408.078125 413.171875 C 382.414062 415.953125 355.808594 408.144531 294.832031 390.25 L 293.351562 389.816406 C 290.601562 389.007812 289.023438 386.121094 289.835938 383.371094 C 290.644531 380.617188 293.53125 379.042969 296.28125 379.851562 L 297.761719 380.285156 C 357.34375 397.773438 383.34375 405.402344 406.980469 402.839844 C 425.234375 400.859375 443.042969 392.695312 474.632812 378.214844 C 489.230469 371.523438 506.675781 363.527344 527.367188 354.617188 C 534.878906 351.390625 538.917969 345.347656 539.867188 339.359375 C 540.257812 336.890625 540.113281 334.421875 539.46875 332.171875 C 538.863281 330.0625 537.808594 328.1875 536.335938 326.742188 C 533.503906 323.96875 528.882812 322.671875 522.554688 324.210938 L 459.859375 339.484375 C 458.542969 351.117188 448.617188 360.058594 436.839844 360.058594 L 376.652344 360.058594 C 373.777344 360.058594 371.445312 357.726562 371.445312 354.851562 C 371.445312 351.976562 373.777344 349.644531 376.652344 349.644531 L 436.839844 349.644531 C 443.855469 349.644531 449.476562 342.183594 449.476562 335.171875 Z M 449.476562 335.171875 " fill-opacity="1" fill-rule="nonzero"/><g clip-path="url(#f975000b8f)"><path fill="#b6cec4" d="M 289.609375 293.351562 L 227.664062 293.351562 L 227.664062 386.238281 L 289.609375 386.238281 Z M 222.457031 282.9375 L 294.816406 282.9375 C 297.691406 282.9375 300.023438 285.269531 300.023438 288.144531 L 300.023438 391.445312 C 300.023438 394.320312 297.691406 396.652344 294.816406 396.652344 L 222.457031 396.652344 C 219.582031 396.652344 217.25 394.320312 217.25 391.445312 L 217.25 288.144531 C 217.25 285.269531 219.582031 282.9375 222.457031 282.9375 Z M 222.457031 282.9375 " fill-opacity="1" fill-rule="nonzero"/></g><g clip-path="url(#a37ac0e856)"><path fill="#b6cec4" d="M 420.046875 178.625 C 422.988281 173.960938 426.140625 170.160156 429.824219 167.214844 C 435.796875 162.4375 442.832031 160.046875 452.082031 160.046875 C 462.359375 160.046875 471.667969 164.21875 478.410156 170.960938 C 485.148438 177.699219 489.320312 187.011719 489.320312 197.289062 C 489.320312 214.582031 480.890625 231.589844 468.242188 248.453125 C 455.925781 264.875 439.824219 280.972656 423.726562 297.070312 L 423.726562 297.074219 C 421.695312 299.105469 418.394531 299.105469 416.363281 297.070312 L 416.332031 297.039062 C 400.246094 280.953125 384.15625 264.863281 371.851562 248.453125 C 359.203125 231.589844 350.773438 214.582031 350.773438 197.289062 C 350.773438 187.011719 354.945312 177.699219 361.683594 170.960938 C 368.421875 164.21875 377.734375 160.046875 388.011719 160.046875 C 397.261719 160.046875 404.296875 162.4375 410.265625 167.214844 C 413.953125 170.164062 417.105469 173.960938 420.046875 178.625 Z M 436.292969 175.308594 C 432.042969 178.707031 428.507812 184.019531 424.894531 191.179688 C 424.441406 192.335938 423.574219 193.339844 422.375 193.9375 C 419.800781 195.222656 416.671875 194.179688 415.386719 191.609375 L 415.410156 191.597656 C 411.726562 184.230469 408.128906 178.773438 403.800781 175.308594 C 399.761719 172.078125 394.78125 170.460938 388.011719 170.460938 C 380.609375 170.460938 373.902344 173.46875 369.046875 178.324219 C 364.191406 183.175781 361.1875 189.886719 361.1875 197.289062 C 361.1875 212.03125 368.773438 227.058594 380.148438 242.226562 C 390.953125 256.636719 405.363281 271.320312 420.046875 286.027344 C 434.730469 271.320312 449.136719 256.636719 459.941406 242.226562 C 471.320312 227.058594 478.90625 212.027344 478.90625 197.289062 C 478.90625 189.886719 475.902344 183.175781 471.046875 178.324219 C 466.191406 173.46875 459.484375 170.460938 452.082031 170.460938 C 445.3125 170.460938 440.332031 172.078125 436.292969 175.308594 Z M 436.292969 175.308594 " fill-opacity="1" fill-rule="nonzero"/></g></svg>