<svg xmlns="http://www.w3.org/2000/svg" xmlns:xlink="http://www.w3.org/1999/xlink" width="1024" zoomAndPan="magnify" viewBox="0 0 768 576" height="768" preserveAspectRatio="xMidYMid meet" version="1.0"><defs><clipPath id="34dedcf404"><path d="M 227 149 L 541 149 L 541 435.246094 L 227 435.246094 Z M 227 149 " clip-rule="nonzero"/></clipPath></defs><g clip-path="url(#34dedcf404)"><path fill="#b6cec4" d="M 514.152344 343.1875 L 513.945312 343.433594 C 509.742188 348.394531 502.28125 349.011719 497.324219 344.804688 L 494.589844 342.492188 C 494.253906 342.167969 493.914062 341.851562 493.554688 341.546875 L 474.898438 325.734375 C 470.589844 321.449219 470.21875 314.476562 474.226562 309.746094 L 474.433594 309.5 C 476.765625 306.75 480.089844 305.339844 483.441406 305.339844 C 486.136719 305.339844 488.84375 306.253906 491.058594 308.132812 L 512.792969 326.550781 C 517.753906 330.753906 518.367188 338.210938 514.152344 343.1875 Z M 488.378906 365.894531 L 488.171875 366.140625 C 483.980469 371.089844 476.546875 371.714844 471.589844 367.542969 C 471.261719 367.230469 470.925781 366.921875 470.578125 366.625 L 451.871094 350.765625 C 447.601562 346.476562 447.253906 339.539062 451.234375 334.839844 L 451.453125 334.578125 C 453.492188 332.175781 456.34375 330.710938 459.484375 330.449219 C 462.609375 330.175781 465.640625 331.160156 468.035156 333.171875 C 468.363281 333.488281 468.699219 333.796875 469.050781 334.09375 L 487.738281 349.933594 C 489.710938 351.902344 490.914062 354.476562 491.144531 357.285156 C 491.40625 360.425781 490.425781 363.476562 488.378906 365.894531 Z M 465.414062 390.957031 L 465.191406 391.21875 C 460.988281 396.175781 453.535156 396.789062 448.570312 392.589844 L 445.039062 389.597656 C 444.703125 389.273438 444.359375 388.960938 444.003906 388.65625 L 428.910156 375.863281 C 426.941406 373.894531 425.734375 371.320312 425.5 368.511719 C 425.242188 365.371094 426.222656 362.316406 428.257812 359.917969 L 428.476562 359.65625 C 432.675781 354.710938 440.097656 354.089844 445.054688 358.246094 C 445.382812 358.566406 445.722656 358.875 446.070312 359.171875 L 464.777344 375.023438 C 466.738281 376.992188 467.9375 379.5625 468.171875 382.363281 C 468.429688 385.5 467.449219 388.554688 465.414062 390.957031 Z M 438.835938 412.988281 L 438.617188 413.246094 C 436.585938 415.652344 433.730469 417.117188 430.59375 417.375 C 427.4375 417.621094 424.402344 416.65625 421.996094 414.617188 L 406.652344 401.613281 C 401.691406 397.410156 401.074219 389.953125 405.292969 384.980469 L 405.5 384.734375 C 407.535156 382.328125 410.386719 380.863281 413.527344 380.605469 C 416.644531 380.347656 419.679688 381.316406 422.078125 383.328125 C 422.40625 383.640625 422.746094 383.953125 423.09375 384.246094 L 438.183594 397.039062 C 440.15625 399.007812 441.363281 401.582031 441.597656 404.394531 C 441.851562 407.53125 440.875 410.585938 438.835938 412.988281 Z M 393.292969 421.421875 C 388.484375 426.4375 380.417969 426.6875 375.292969 421.96875 L 375.042969 421.742188 C 369.882812 416.996094 369.503906 408.890625 374.199219 403.675781 L 389.9375 386.207031 C 391.800781 384.136719 391.636719 380.9375 389.558594 379.070312 C 387.488281 377.203125 384.292969 377.371094 382.425781 379.441406 L 359.96875 404.363281 C 355.410156 409.425781 347.566406 409.851562 342.488281 405.308594 L 342.222656 405.070312 C 339.71875 402.835938 338.253906 399.757812 338.09375 396.402344 C 337.9375 393.050781 339.109375 389.851562 341.386719 387.386719 L 363.617188 363.402344 C 365.507812 361.359375 365.390625 358.171875 363.359375 356.269531 C 361.320312 354.371094 358.132812 354.476562 356.222656 356.503906 L 332.691406 381.550781 C 326.921875 387.6875 317.472656 388.109375 311.179688 382.507812 L 310.871094 382.230469 C 307.722656 379.425781 305.890625 375.5625 305.714844 371.347656 C 305.539062 367.132812 307.046875 363.125 309.953125 360.066406 L 329.453125 339.570312 C 331.378906 337.546875 331.296875 334.34375 329.273438 332.421875 C 327.253906 330.5 324.054688 330.578125 322.125 332.601562 L 298.285156 357.664062 C 292.3125 363.941406 282.246094 364.296875 275.851562 358.464844 L 275.527344 358.171875 C 272.34375 355.265625 270.492188 351.296875 270.3125 346.988281 C 270.132812 342.683594 271.644531 338.570312 274.574219 335.40625 L 283.734375 325.527344 C 283.765625 325.492188 283.796875 325.457031 283.828125 325.425781 L 362.140625 240.9375 L 377.707031 253.292969 C 392.824219 265.285156 412.84375 269.035156 431.277344 263.320312 L 432.378906 262.980469 C 438.386719 261.117188 442.804688 256.339844 444.1875 250.203125 C 445.574219 244.058594 443.632812 237.851562 438.996094 233.589844 L 391.621094 190.023438 L 402.445312 179.78125 C 432.21875 151.605469 479.714844 152.558594 508.324219 181.914062 L 509.339844 182.957031 C 533.996094 208.253906 537.699219 247.964844 518.265625 277.203125 L 499.921875 302.390625 L 497.59375 300.417969 C 488.382812 292.613281 474.527344 293.753906 466.710938 302.976562 L 466.5 303.222656 C 462.71875 307.6875 460.902344 313.355469 461.382812 319.1875 C 461.414062 319.574219 461.457031 319.957031 461.507812 320.335938 C 454.945312 320.027344 448.3125 322.652344 443.742188 328.039062 L 443.523438 328.300781 C 439.351562 333.226562 437.738281 339.472656 438.542969 345.417969 C 431.976562 345.101562 425.335938 347.730469 420.765625 353.117188 L 420.546875 353.378906 C 416.765625 357.839844 414.945312 363.511719 415.425781 369.339844 C 415.457031 369.722656 415.5 370.101562 415.550781 370.476562 C 414.605469 370.4375 413.652344 370.445312 412.695312 370.527344 C 406.863281 371.011719 401.570312 373.730469 397.777344 378.207031 L 397.570312 378.457031 C 389.757812 387.667969 390.902344 401.519531 400.117188 409.328125 L 402.746094 411.558594 Z M 249.714844 277.167969 C 230.316406 247.773438 234.058594 208.191406 258.65625 182.957031 L 259.671875 181.914062 C 288.285156 152.558594 335.78125 151.605469 365.605469 179.832031 L 432.152344 241.03125 C 434.089844 242.8125 434.90625 245.410156 434.328125 247.976562 C 433.746094 250.546875 431.898438 252.542969 429.382812 253.324219 L 428.28125 253.664062 C 413.042969 258.386719 396.492188 255.285156 383.992188 245.375 L 364.753906 230.113281 C 362.6875 228.464844 359.703125 228.691406 357.90625 230.632812 L 280.296875 314.363281 Z M 519.328125 318.835938 L 507.65625 308.945312 L 526.5625 282.976562 C 548.742188 249.617188 544.542969 204.585938 516.582031 175.898438 L 515.566406 174.855469 C 483.117188 141.570312 429.253906 140.484375 395.492188 172.4375 L 384.164062 183.164062 L 372.5 172.4375 C 338.738281 140.484375 284.878906 141.566406 252.429688 174.855469 L 251.414062 175.898438 C 223.453125 204.585938 219.253906 249.617188 241.433594 282.976562 C 241.527344 283.117188 241.628906 283.257812 241.738281 283.386719 L 273.359375 321.84375 L 267.160156 328.535156 C 262.382812 333.6875 259.914062 340.394531 260.210938 347.414062 C 260.503906 354.433594 263.523438 360.90625 268.707031 365.636719 L 269.027344 365.929688 C 276.390625 372.644531 286.722656 374.335938 295.59375 371.152344 C 295.597656 371.359375 295.605469 371.558594 295.613281 371.769531 C 295.902344 378.742188 298.9375 385.144531 304.152344 389.789062 L 304.460938 390.058594 C 311.144531 396.007812 319.976562 397.855469 327.96875 395.726562 C 327.96875 396.109375 327.976562 396.496094 327.996094 396.878906 C 328.285156 402.964844 330.941406 408.550781 335.480469 412.609375 L 335.75 412.847656 C 342.898438 419.242188 353.0625 420.210938 361.121094 416.042969 C 361.929688 420.9375 364.304688 425.601562 368.214844 429.195312 L 368.460938 429.421875 C 372.832031 433.449219 378.417969 435.445312 383.996094 435.445312 C 390.0625 435.445312 396.117188 433.085938 400.589844 428.417969 L 410.476562 418.109375 L 415.460938 422.332031 C 419.570312 425.8125 424.597656 427.515625 429.605469 427.515625 C 435.824219 427.515625 442.007812 424.886719 446.332031 419.78125 L 446.550781 419.523438 C 450.015625 415.4375 451.824219 410.339844 451.738281 405.03125 C 453.203125 405.332031 454.691406 405.484375 456.179688 405.484375 C 462.398438 405.484375 468.578125 402.859375 472.90625 397.757812 L 473.125 397.492188 C 476.90625 393.03125 478.726562 387.363281 478.246094 381.53125 C 478.210938 381.144531 478.171875 380.765625 478.117188 380.382812 C 478.460938 380.398438 478.808594 380.40625 479.152344 380.40625 C 485.375 380.40625 491.558594 377.78125 495.894531 372.664062 L 496.101562 372.417969 C 499.683594 368.195312 501.5 362.894531 501.277344 357.394531 C 502.484375 357.601562 503.703125 357.699219 504.925781 357.699219 C 511.148438 357.699219 517.335938 355.070312 521.667969 349.957031 L 521.875 349.707031 C 529.683594 340.496094 528.542969 326.648438 519.328125 318.835938 " fill-opacity="1" fill-rule="nonzero"/></g></svg>