<svg xmlns="http://www.w3.org/2000/svg" xmlns:xlink="http://www.w3.org/1999/xlink" width="1024" zoomAndPan="magnify" viewBox="0 0 768 576" height="768" preserveAspectRatio="xMidYMid meet" version="1.0"><defs><clipPath id="22df602c3b"><path d="M 204.457031 184.320312 L 563.542969 184.320312 L 563.542969 391.683594 L 204.457031 391.683594 Z M 204.457031 184.320312 " clip-rule="nonzero"/></clipPath></defs><g clip-path="url(#22df602c3b)"><path fill="#b6cec4" d="M 233.796875 294.976562 C 242.144531 292.410156 242.144531 271.859375 242.144531 271.859375 C 245.996094 316.171875 292.234375 341.21875 292.234375 341.21875 C 281.34375 327.210938 280.296875 311.949219 280.296875 306.601562 C 280.296875 305.328125 280.355469 304.613281 280.355469 304.613281 C 311.183594 380.714844 441.226562 384.5625 441.226562 384.5625 C 427.402344 376.804688 414.25 359.519531 414.25 359.519531 C 466.175781 390.671875 556.441406 357.414062 556.429688 342.28125 C 556.429688 341.972656 556.390625 341.671875 556.316406 341.378906 C 552.519531 326.800781 448.289062 308.089844 448.289062 308.089844 C 454.710938 308.355469 466.910156 305.253906 466.910156 305.253906 C 444.4375 304.613281 409.757812 293.695312 409.757812 293.695312 C 425.171875 293.054688 434.164062 284.703125 434.164062 284.703125 C 411.683594 289.199219 397.910156 287.886719 342.972656 262.230469 C 319.261719 251.15625 303.792969 250.667969 303.792969 250.667969 C 317.28125 245.53125 332.050781 251.308594 332.050781 251.308594 C 307.5625 226.332031 263.289062 230.863281 243.644531 234.417969 L 244.601562 235.691406 L 245.675781 237 L 247.824219 239.609375 L 249.984375 242.21875 L 252.246094 244.746094 C 259.308594 252.726562 267.082031 260.125 275.34375 267.007812 C 276.3125 267.757812 277.28125 268.503906 278.246094 269.238281 C 282.253906 272.117188 286.183594 274.941406 290.039062 277.714844 C 294.003906 280.328125 297.890625 282.890625 301.699219 285.402344 C 305.589844 287.796875 309.441406 290.074219 313.183594 292.355469 C 328.351562 301.160156 342.851562 308.148438 356.28125 313.933594 C 383.265625 325.222656 405.921875 331.605469 423.117188 335.339844 C 423.746094 335.488281 424.363281 335.636719 424.980469 335.777344 C 425.601562 335.902344 426.21875 336.019531 426.832031 336.136719 C 428.050781 336.375 429.25 336.609375 430.429688 336.839844 C 432.792969 337.296875 435.066406 337.742188 437.265625 338.175781 C 439.460938 338.644531 441.601562 338.941406 443.664062 339.269531 C 445.722656 339.59375 447.714844 339.910156 449.636719 340.210938 C 450.597656 340.367188 451.542969 340.515625 452.472656 340.667969 C 453.402344 340.8125 454.3125 340.980469 455.214844 341.070312 C 457.015625 341.289062 458.75 341.5 460.433594 341.707031 C 462.113281 341.910156 463.738281 342.113281 465.308594 342.308594 C 466.097656 342.40625 466.871094 342.503906 467.628906 342.601562 C 468.390625 342.695312 469.136719 342.804688 469.878906 342.859375 C 472.835938 343.121094 475.601562 343.371094 478.21875 343.605469 C 479.527344 343.730469 480.800781 343.847656 482.042969 343.964844 C 482.664062 344.027344 483.28125 344.082031 483.882812 344.140625 C 484.492188 344.191406 485.089844 344.210938 485.6875 344.25 C 490.429688 344.519531 494.761719 344.792969 499.023438 345.070312 C 443.402344 346.476562 387.558594 334.984375 336.914062 311.988281 L 327.496094 307.507812 L 325.144531 306.390625 C 324.761719 306.203125 324.386719 306.007812 324.011719 305.8125 C 311.980469 300.464844 300.1875 294.480469 288.835938 287.640625 C 272.65625 277.878906 257.21875 266.535156 243.550781 253.054688 L 240.976562 250.542969 L 238.496094 247.929688 L 237.660156 247.046875 C 237.886719 251.808594 238.0625 256.804688 238.078125 260.824219 C 238.140625 278.140625 233.796875 294.976562 233.796875 294.976562 Z M 222.714844 199.898438 L 222.757812 199.984375 C 226.496094 208.054688 230.832031 215.882812 235.738281 223.386719 L 239.074219 228.265625 C 239.605469 228.023438 240.160156 227.832031 240.746094 227.722656 C 251.472656 225.675781 267.894531 223.535156 285.242188 224.957031 C 307.558594 226.78125 325.011719 233.96875 337.132812 246.328125 C 338.472656 247.699219 344.375 254.125 339.027344 252.71875 C 341.261719 253.644531 343.582031 254.660156 345.980469 255.785156 C 400.078125 281.050781 412.125 281.855469 432.765625 277.730469 C 435.886719 277.105469 445.144531 276.929688 446.59375 279.761719 C 447.445312 282.773438 440.488281 288.535156 439.003906 289.914062 C 438.84375 290.066406 437.386719 291.394531 434.765625 293.082031 C 445.253906 295.542969 457.476562 297.867188 467.113281 298.144531 C 483.363281 298.992188 474.015625 305.695312 474 305.910156 C 482.566406 307.703125 492.558594 309.90625 502.570312 312.359375 C 518.234375 316.199219 530.929688 319.898438 540.296875 323.355469 C 554.972656 328.773438 561.605469 333.476562 563.199219 339.582031 C 563.425781 340.457031 563.542969 341.363281 563.542969 342.285156 C 563.542969 348.5 558.460938 354.398438 548.003906 360.324219 C 532.351562 369.195312 508.367188 376.1875 485.417969 378.566406 C 473.417969 379.816406 458.367188 380.171875 443.09375 377.40625 C 443.628906 377.738281 444.171875 378.0625 444.707031 378.363281 C 446.992188 379.644531 456.40625 383.574219 455.867188 387.28125 C 455.320312 390.992188 444.285156 391.773438 441.015625 391.675781 C 439.652344 391.632812 407.183594 390.5625 370.378906 379.960938 C 348.5625 373.675781 329.773438 365.316406 314.539062 355.121094 C 308.910156 351.351562 303.761719 347.328125 299.105469 343.0625 C 300.015625 343.902344 300.367188 346.46875 300.226562 347.601562 C 299.929688 350.039062 297.441406 350.175781 295.457031 349.816406 C 290.019531 348.832031 285.378906 345.582031 280.890625 342.554688 C 277.191406 340.054688 273.667969 337.28125 270.292969 334.359375 C 268.015625 332.386719 265.804688 330.34375 263.65625 328.234375 C 254.085938 318.855469 246.773438 308.640625 241.898438 297.960938 C 236.878906 305.871094 228.46875 308.109375 226.609375 306.332031 C 225.175781 304.972656 230.988281 276.992188 230.964844 260.824219 C 230.953125 252.851562 230.5625 243.992188 230.21875 238.699219 C 229.773438 238.179688 229.328125 237.664062 228.886719 237.144531 L 224.40625 231.449219 C 218.570312 223.738281 213.285156 215.566406 208.609375 207.011719 C 208.527344 206.867188 208.457031 206.6875 208.371094 206.542969 C 204.554688 200.164062 202.238281 185.445312 207.636719 184.367188 C 211.914062 183.507812 220.082031 193.90625 222.714844 199.898438 " fill-opacity="1" fill-rule="nonzero"/></g></svg>