<svg xmlns="http://www.w3.org/2000/svg" xmlns:xlink="http://www.w3.org/1999/xlink" width="1024" zoomAndPan="magnify" viewBox="0 0 768 576" height="768" preserveAspectRatio="xMidYMid meet" version="1.0"><defs><clipPath id="8a779f75b2"><path d="M 298 306 L 399 306 L 399 460.550781 L 298 460.550781 Z M 298 306 " clip-rule="nonzero"/></clipPath><clipPath id="16de92da45"><path d="M 384 319 L 471 319 L 471 460.550781 L 384 460.550781 Z M 384 319 " clip-rule="nonzero"/></clipPath><clipPath id="700d2d0767"><path d="M 277.945312 115.550781 L 490.195312 115.550781 L 490.195312 330 L 277.945312 330 Z M 277.945312 115.550781 " clip-rule="nonzero"/></clipPath></defs><g clip-path="url(#8a779f75b2)"><path fill="#b6cec4" d="M 355.410156 460.222656 C 353.1875 460.222656 351.113281 459.058594 349.953125 457.109375 L 333.480469 433.582031 L 307.140625 445.847656 C 304.832031 446.867188 302.261719 446.511719 300.394531 444.9375 C 298.460938 443.3125 297.632812 440.789062 298.234375 438.347656 L 331.667969 311.96875 C 332.027344 310.609375 333.148438 309.585938 334.539062 309.363281 C 335.191406 309.257812 336.179688 308.804688 337.238281 308.328125 C 340.125 307 344.515625 305.003906 349.617188 307.183594 C 354.671875 309.242188 356.308594 313.785156 357.394531 316.789062 C 357.742188 317.738281 358.261719 319.179688 358.605469 319.488281 C 358.746094 319.308594 359.925781 318.328125 360.707031 317.679688 C 363.144531 315.644531 366.773438 312.550781 372.273438 313.339844 C 377.738281 313.988281 380.523438 317.972656 382.367188 320.609375 C 382.949219 321.4375 383.8125 322.679688 384.21875 322.886719 C 384.351562 322.667969 385.269531 321.363281 385.871094 320.492188 C 387.4375 318.25 389.589844 315.183594 393.402344 313.800781 C 394.636719 313.355469 396.042969 313.621094 397.015625 314.519531 C 397.996094 315.417969 398.398438 316.777344 398.058594 318.058594 L 361.679688 455.351562 C 360.960938 457.949219 358.832031 459.824219 356.253906 460.167969 C 355.972656 460.207031 355.6875 460.222656 355.410156 460.222656 Z M 334.683594 425.53125 C 335.816406 425.53125 336.914062 426.070312 337.597656 427.050781 L 355.457031 452.570312 L 387.875 328.800781 C 386.816406 329.507812 385.566406 329.972656 384.039062 329.972656 C 380.222656 329.972656 378.175781 327.042969 376.53125 324.695312 C 374.796875 322.207031 373.613281 320.671875 371.355469 320.402344 C 369.085938 320.117188 367.566406 321.238281 365.257812 323.152344 C 363.042969 324.996094 360.257812 327.265625 356.597656 326.285156 C 352.902344 325.292969 351.683594 321.921875 350.703125 319.214844 C 349.667969 316.371094 348.898438 314.582031 346.875 313.753906 C 344.722656 312.839844 342.921875 313.558594 340.175781 314.8125 C 339.484375 315.128906 338.765625 315.453125 338.03125 315.734375 L 305.488281 438.757812 L 333.179688 425.867188 C 333.664062 425.640625 334.171875 425.53125 334.683594 425.53125 Z M 334.683594 425.53125 " fill-opacity="1" fill-rule="nonzero"/></g><g clip-path="url(#16de92da45)"><path fill="#b6cec4" d="M 412.71875 460.226562 C 412.324219 460.226562 411.921875 460.1875 411.527344 460.113281 C 408.996094 459.644531 407.066406 457.765625 406.503906 455.207031 L 384.964844 374.320312 C 384.464844 372.421875 385.59375 370.46875 387.488281 369.964844 C 389.417969 369.46875 391.347656 370.59375 391.851562 372.492188 L 413.179688 452.601562 L 430.613281 427.050781 C 431.609375 425.632812 433.476562 425.128906 435.042969 425.867188 L 462.59375 438.761719 L 431.925781 323.476562 C 431.421875 321.574219 432.550781 319.625 434.457031 319.121094 C 436.347656 318.617188 438.300781 319.753906 438.808594 321.648438 L 469.683594 437.863281 C 470.535156 440.554688 469.808594 443.097656 467.902344 444.789062 C 465.988281 446.492188 463.332031 446.90625 460.996094 445.878906 L 434.734375 433.589844 L 418.121094 457.335938 C 416.921875 459.144531 414.878906 460.226562 412.71875 460.226562 Z M 413.425781 453.519531 L 413.425781 453.527344 C 413.425781 453.523438 413.425781 453.523438 413.425781 453.519531 Z M 462.976562 440.207031 C 462.976562 440.21875 462.976562 440.234375 462.984375 440.25 Z M 462.976562 440.207031 " fill-opacity="1" fill-rule="nonzero"/></g><g clip-path="url(#700d2d0767)"><path fill="#b6cec4" d="M 384.042969 329.96875 C 380.222656 329.96875 378.175781 327.042969 376.53125 324.691406 C 374.796875 322.207031 373.617188 320.671875 371.355469 320.402344 C 369.085938 320.117188 367.566406 321.238281 365.257812 323.152344 C 363.042969 324.996094 360.257812 327.265625 356.597656 326.285156 C 352.902344 325.289062 351.683594 321.921875 350.703125 319.210938 C 349.671875 316.371094 348.898438 314.582031 346.875 313.753906 C 344.699219 312.824219 342.933594 313.566406 340.199219 314.84375 C 337.625 316.042969 334.40625 317.542969 331.109375 315.695312 C 327.761719 313.695312 327.429688 310.144531 327.167969 307.289062 C 326.882812 304.234375 326.582031 302.277344 324.765625 300.894531 C 322.960938 299.484375 321.054688 299.730469 318.113281 300.230469 C 315.273438 300.714844 311.742188 301.3125 309.03125 298.578125 C 306.332031 295.847656 306.941406 292.28125 307.433594 289.410156 C 307.953125 286.382812 308.167969 284.425781 306.863281 282.667969 C 305.535156 280.9375 303.578125 280.632812 300.511719 280.347656 C 297.664062 280.078125 294.125 279.742188 292.253906 276.480469 C 290.308594 273.164062 291.808594 269.871094 293.011719 267.21875 C 294.285156 264.433594 294.996094 262.59375 294.160156 260.507812 C 293.296875 258.460938 291.492188 257.644531 288.621094 256.550781 C 285.933594 255.527344 282.585938 254.253906 281.613281 250.550781 C 280.632812 246.855469 282.910156 244.074219 284.746094 241.847656 C 286.683594 239.488281 287.839844 237.898438 287.578125 235.679688 C 287.277344 233.53125 285.742188 232.28125 283.242188 230.488281 C 280.894531 228.800781 277.96875 226.699219 277.96875 222.871094 C 277.96875 219.042969 280.878906 216.972656 283.226562 215.316406 C 285.726562 213.535156 287.269531 212.292969 287.585938 210.003906 C 287.839844 207.839844 286.683594 206.25 284.746094 203.894531 C 282.910156 201.664062 280.632812 198.886719 281.613281 195.179688 C 282.59375 191.457031 285.957031 190.222656 288.660156 189.230469 C 291.507812 188.1875 293.304688 187.398438 294.183594 185.3125 C 294.996094 183.289062 294.285156 181.449219 293.011719 178.664062 C 291.808594 176.011719 290.308594 172.714844 292.269531 169.371094 C 294.09375 166.074219 297.664062 165.734375 300.535156 165.464844 C 303.574219 165.175781 305.519531 164.871094 306.871094 163.054688 C 308.167969 161.316406 307.953125 159.351562 307.433594 156.328125 C 306.941406 153.457031 306.332031 149.890625 309.03125 147.164062 C 311.761719 144.410156 315.320312 145.03125 318.183594 145.535156 C 321.125 146.050781 323.0625 146.277344 324.773438 144.976562 C 326.574219 143.605469 326.882812 141.628906 327.167969 138.542969 C 327.429688 135.65625 327.761719 132.058594 331.109375 130.179688 C 334.375 128.230469 337.660156 129.757812 340.308594 130.976562 C 343.050781 132.242188 344.855469 132.945312 346.875 132.128906 C 348.875 131.269531 349.65625 129.449219 350.695312 126.566406 C 351.675781 123.839844 352.894531 120.453125 356.601562 119.453125 C 360.34375 118.464844 363.089844 120.777344 365.296875 122.632812 C 367.621094 124.582031 369.140625 125.730469 371.347656 125.480469 C 373.523438 125.175781 374.757812 123.621094 376.511719 121.09375 C 378.152344 118.722656 380.207031 115.769531 384.042969 115.769531 C 387.871094 115.769531 389.953125 118.730469 391.628906 121.113281 C 393.402344 123.632812 394.636719 125.183594 396.804688 125.488281 C 398.789062 125.722656 400.457031 124.582031 402.78125 122.628906 C 404.996094 120.777344 407.757812 118.449219 411.476562 119.453125 C 415.15625 120.445312 416.414062 123.820312 417.425781 126.53125 C 418.515625 129.433594 419.324219 131.261719 421.402344 132.152344 C 423.367188 132.953125 425.167969 132.246094 427.914062 130.980469 C 430.554688 129.746094 433.839844 128.226562 437.199219 130.230469 C 440.394531 132.09375 440.714844 135.65625 440.980469 138.515625 C 441.273438 141.632812 441.574219 143.625 443.339844 145.007812 C 445.007812 146.265625 446.929688 146.054688 449.902344 145.535156 C 452.765625 145.03125 456.316406 144.410156 459.046875 147.164062 C 461.730469 149.871094 461.136719 153.417969 460.667969 156.265625 C 460.164062 159.289062 459.964844 161.257812 461.3125 163.019531 C 462.734375 164.910156 464.640625 165.179688 467.632812 165.464844 C 470.472656 165.734375 474.007812 166.070312 475.945312 169.367188 C 477.804688 172.746094 476.332031 175.96875 475.148438 178.558594 C 473.871094 181.359375 473.160156 183.210938 474.039062 185.316406 C 474.902344 187.46875 476.660156 188.210938 479.457031 189.242188 C 482.140625 190.230469 485.484375 191.464844 486.46875 195.183594 C 487.441406 198.871094 485.1875 201.632812 483.382812 203.847656 C 481.460938 206.199219 480.320312 207.785156 480.628906 209.992188 C 480.628906 210.019531 480.636719 210.042969 480.636719 210.070312 C 480.90625 212.382812 482.433594 213.578125 484.894531 215.339844 C 487.21875 216.996094 490.105469 219.054688 490.105469 222.871094 C 490.105469 226.683594 487.210938 228.78125 484.878906 230.464844 C 482.410156 232.246094 480.898438 233.488281 480.636719 235.683594 C 480.320312 237.957031 481.460938 239.542969 483.382812 241.894531 C 485.1875 244.109375 487.441406 246.871094 486.46875 250.554688 C 485.488281 254.25 482.164062 255.523438 479.492188 256.546875 C 476.667969 257.625 474.894531 258.429688 474.058594 260.511719 C 473.15625 262.671875 473.867188 264.523438 475.148438 267.324219 C 476.328125 269.914062 477.804688 273.136719 475.988281 276.429688 C 473.972656 279.75 470.472656 280.078125 467.65625 280.34375 C 464.621094 280.632812 462.675781 280.933594 461.3125 282.71875 C 459.960938 284.484375 460.160156 286.449219 460.664062 289.476562 C 461.132812 292.324219 461.71875 295.871094 459.042969 298.578125 C 456.335938 301.316406 452.800781 300.714844 449.96875 300.230469 C 447.003906 299.730469 445.105469 299.488281 443.339844 300.871094 C 441.5625 302.261719 441.261719 304.234375 440.976562 307.320312 C 440.714844 310.148438 440.390625 313.664062 437.242188 315.617188 C 433.808594 317.566406 430.597656 316.054688 428.011719 314.847656 C 425.28125 313.570312 423.503906 312.824219 421.398438 313.730469 C 419.292969 314.59375 418.488281 316.390625 417.417969 319.25 C 416.40625 321.941406 415.148438 325.300781 411.476562 326.289062 C 407.761719 327.277344 405.023438 324.992188 402.824219 323.15625 C 400.515625 321.234375 398.964844 320.105469 396.804688 320.394531 C 394.589844 320.660156 393.363281 322.191406 391.605469 324.675781 C 389.9375 327.035156 387.851562 329.96875 384.042969 329.96875 Z M 370.582031 313.222656 C 371.121094 313.222656 371.6875 313.261719 372.273438 313.339844 C 377.734375 313.988281 380.523438 317.976562 382.367188 320.609375 C 382.945312 321.4375 383.808594 322.679688 384.21875 322.886719 C 384.296875 322.675781 385.199219 321.402344 385.792969 320.554688 C 387.644531 317.945312 390.445312 313.988281 395.878906 313.332031 C 401.179688 312.554688 404.929688 315.648438 407.378906 317.683594 C 408.15625 318.328125 409.335938 319.308594 409.785156 319.402344 C 409.839844 319.171875 410.386719 317.710938 410.75 316.742188 C 411.875 313.753906 413.574219 309.234375 418.652344 307.164062 C 423.722656 304.988281 428.113281 307.035156 431.023438 308.390625 C 431.933594 308.820312 433.453125 309.324219 433.777344 309.4375 C 433.644531 309.273438 433.792969 307.699219 433.886719 306.660156 C 434.1875 303.46875 434.632812 298.648438 438.957031 295.261719 C 443.285156 291.875 448.039062 292.683594 451.15625 293.207031 C 452.167969 293.378906 453.710938 293.628906 454.105469 293.488281 C 454.074219 293.234375 453.8125 291.675781 453.640625 290.640625 C 453.117188 287.488281 452.328125 282.726562 455.664062 278.382812 C 459.019531 274.007812 463.8125 273.554688 466.984375 273.253906 C 468.003906 273.15625 469.539062 273.011719 469.921875 272.757812 C 469.746094 272.648438 469.097656 271.222656 468.671875 270.28125 C 467.332031 267.359375 465.316406 262.941406 467.476562 257.804688 C 469.5 252.746094 473.984375 251.03125 476.945312 249.890625 C 477.902344 249.527344 479.347656 248.972656 479.640625 248.621094 C 479.5 248.398438 478.511719 247.191406 477.863281 246.394531 C 475.851562 243.933594 472.816406 240.214844 473.574219 234.769531 C 474.214844 229.382812 478.117188 226.5625 480.703125 224.695312 C 481.542969 224.085938 482.8125 223.167969 483.011719 222.746094 C 482.820312 222.597656 481.574219 221.71875 480.757812 221.132812 C 478.15625 219.277344 474.238281 216.476562 473.566406 210.9375 C 472.832031 205.511719 475.859375 201.800781 477.863281 199.34375 C 478.511719 198.550781 479.5 197.34375 479.578125 196.886719 C 479.351562 196.792969 477.925781 196.269531 476.984375 195.921875 C 474.011719 194.820312 469.507812 193.160156 467.453125 188.019531 C 465.316406 182.941406 467.332031 178.523438 468.667969 175.597656 C 469.097656 174.652344 469.753906 173.230469 469.714844 172.765625 C 469.460938 172.746094 467.980469 172.648438 466.960938 172.554688 C 463.789062 172.253906 458.988281 171.796875 455.640625 167.320312 C 452.328125 163.011719 453.117188 158.25 453.640625 155.097656 C 453.8125 154.066406 454.074219 152.503906 453.910156 152.0625 C 453.664062 152.105469 452.136719 152.371094 451.125 152.546875 C 448.007812 153.089844 443.316406 153.914062 438.992188 150.652344 C 434.632812 147.238281 434.1875 142.378906 433.894531 139.167969 C 433.792969 138.148438 433.652344 136.609375 433.40625 136.207031 C 433.21875 136.363281 431.824219 137.011719 430.90625 137.4375 C 428.027344 138.769531 423.667969 140.785156 418.652344 138.71875 C 413.558594 136.535156 411.875 132.011719 410.757812 129.019531 C 410.394531 128.042969 409.839844 126.570312 409.484375 126.261719 C 409.328125 126.433594 408.140625 127.429688 407.355469 128.089844 C 404.929688 130.121094 401.226562 133.230469 395.878906 132.550781 C 390.429688 131.78125 387.644531 127.828125 385.808594 125.210938 C 385.207031 124.359375 384.296875 123.070312 383.871094 122.859375 C 383.808594 123.066406 382.9375 124.324219 382.359375 125.15625 C 380.523438 127.796875 377.757812 131.78125 372.257812 132.542969 C 366.816406 133.195312 363.140625 130.125 360.71875 128.089844 C 359.933594 127.429688 358.746094 126.433594 358.289062 126.339844 C 358.257812 126.5625 357.742188 128.011719 357.394531 128.972656 C 356.3125 131.984375 354.679688 136.523438 349.621094 138.695312 C 344.539062 140.773438 340.1875 138.769531 337.3125 137.4375 C 336.394531 137.011719 334.804688 136.515625 334.535156 136.390625 C 334.488281 136.652344 334.351562 138.183594 334.257812 139.199219 C 333.957031 142.414062 333.507812 147.269531 329.089844 150.648438 C 324.765625 153.914062 320.050781 153.09375 316.957031 152.550781 C 315.9375 152.375 314.410156 152.105469 313.960938 152.257812 C 314 152.511719 314.269531 154.089844 314.449219 155.132812 C 315.019531 158.449219 315.792969 162.992188 312.582031 167.3125 C 309.230469 171.800781 304.398438 172.253906 301.207031 172.554688 C 300.210938 172.648438 298.714844 172.789062 298.328125 173.035156 C 298.410156 173.324219 299.058594 174.765625 299.492188 175.71875 C 300.8125 178.605469 302.796875 182.964844 300.765625 188.023438 C 298.597656 193.167969 294.089844 194.824219 291.113281 195.921875 C 290.164062 196.265625 288.734375 196.792969 288.425781 197.136719 C 288.582031 197.351562 289.582031 198.566406 290.246094 199.375 C 292.253906 201.816406 295.285156 205.507812 294.644531 210.902344 C 293.890625 216.484375 289.945312 219.277344 287.339844 221.125 C 286.511719 221.714844 285.261719 222.601562 285.054688 223.011719 C 285.261719 223.171875 286.542969 224.09375 287.398438 224.707031 C 289.984375 226.5625 293.890625 229.371094 294.636719 234.773438 C 295.285156 240.234375 292.253906 243.929688 290.246094 246.371094 C 289.582031 247.175781 288.578125 248.390625 288.503906 248.851562 C 288.734375 248.980469 290.191406 249.535156 291.15625 249.902344 C 294.121094 251.03125 298.605469 252.738281 300.742188 257.804688 C 302.792969 262.925781 300.804688 267.285156 299.492188 270.171875 C 299.058594 271.125 298.410156 272.558594 298.449219 273.027344 L 298.457031 273.027344 C 298.703125 273.027344 300.191406 273.164062 301.179688 273.257812 C 304.367188 273.558594 309.199219 274.011719 312.546875 278.382812 C 315.789062 282.753906 315.015625 287.296875 314.445312 290.609375 C 314.269531 291.65625 314 293.234375 314.160156 293.679688 C 314.398438 293.640625 315.914062 293.382812 316.914062 293.210938 C 320.078125 292.6875 324.808594 291.882812 329.125 295.269531 C 333.507812 298.617188 333.957031 303.441406 334.257812 306.632812 C 334.347656 307.667969 334.496094 309.230469 334.757812 309.613281 C 334.898438 309.464844 336.277344 308.824219 337.1875 308.394531 C 340.113281 307.035156 344.527344 305 349.621094 307.191406 C 354.667969 309.246094 356.3125 313.789062 357.390625 316.792969 C 357.738281 317.742188 358.253906 319.183594 358.601562 319.492188 C 358.742188 319.3125 359.921875 318.332031 360.703125 317.683594 C 362.878906 315.863281 366.058594 313.222656 370.582031 313.222656 Z M 370.582031 313.222656 " fill-opacity="1" fill-rule="nonzero"/></g><path fill="#b6cec4" d="M 384.117188 305.972656 C 362.148438 305.972656 341.488281 297.328125 325.949219 281.628906 C 293.914062 249.269531 293.914062 196.613281 325.949219 164.253906 C 341.488281 148.554688 362.148438 139.910156 384.109375 139.910156 C 384.109375 139.910156 384.109375 139.910156 384.117188 139.910156 C 406.074219 139.910156 426.722656 148.554688 442.265625 164.253906 C 474.300781 196.613281 474.300781 249.269531 442.265625 281.628906 C 426.722656 297.324219 406.074219 305.972656 384.117188 305.972656 Z M 384.109375 147.03125 C 364.0625 147.03125 345.199219 154.925781 331.007812 169.257812 C 301.707031 198.863281 301.707031 247.019531 331.007812 276.621094 C 345.207031 290.957031 364.0625 298.851562 384.109375 298.847656 C 404.160156 298.847656 423.011719 290.953125 437.203125 276.621094 C 466.503906 247.019531 466.503906 198.863281 437.203125 169.257812 C 423.011719 154.929688 404.160156 147.035156 384.109375 147.03125 Z M 384.109375 147.03125 " fill-opacity="1" fill-rule="nonzero"/><path fill="#b6cec4" d="M 384.109375 293.261719 C 384.101562 293.261719 384.101562 293.261719 384.101562 293.261719 C 365.480469 293.261719 347.988281 285.941406 334.835938 272.65625 C 307.695312 245.242188 307.695312 200.636719 334.835938 173.226562 C 347.988281 159.941406 365.480469 152.621094 384.101562 152.621094 C 402.722656 152.621094 420.226562 159.9375 433.382812 173.226562 C 460.523438 200.636719 460.523438 245.242188 433.382812 272.65625 C 420.226562 285.945312 402.722656 293.261719 384.109375 293.261719 Z M 384.101562 159.746094 C 367.402344 159.746094 351.699219 166.3125 339.898438 178.234375 C 315.492188 202.882812 315.492188 242.996094 339.898438 267.648438 C 351.699219 279.570312 367.402344 286.140625 384.101562 286.140625 L 384.109375 286.140625 C 400.808594 286.140625 416.511719 279.574219 428.320312 267.648438 C 452.730469 242.996094 452.730469 202.882812 428.320312 178.234375 C 416.511719 166.308594 400.808594 159.742188 384.101562 159.746094 Z M 384.101562 159.746094 " fill-opacity="1" fill-rule="nonzero"/><path fill="#b6cec4" d="M 354.683594 270.996094 C 353.914062 270.996094 353.132812 270.875 352.386719 270.625 C 350.472656 269.988281 348.914062 268.609375 347.992188 266.746094 C 347.324219 265.644531 347.074219 264.015625 347.390625 262.144531 L 351.234375 233.347656 L 331.117188 212.222656 C 328.324219 209.109375 328.5 204.28125 331.433594 201.589844 C 332.464844 200.535156 333.800781 199.847656 335.5 199.5625 L 363.796875 194.464844 L 377.511719 168.648438 C 378.382812 166.871094 380.042969 165.480469 382.015625 164.917969 C 383.945312 164.375 386.046875 164.664062 387.75 165.730469 C 388.601562 166.011719 389.789062 167.074219 390.628906 168.523438 C 390.660156 168.5625 390.683594 168.601562 390.699219 168.644531 L 404.421875 194.472656 L 432.90625 199.710938 C 434.695312 199.949219 436.421875 200.996094 437.597656 202.632812 C 438.792969 204.308594 439.253906 206.429688 438.863281 208.453125 C 438.546875 210.003906 437.890625 211.277344 436.910156 212.265625 L 416.976562 233.339844 L 420.84375 262.417969 C 421.375 266.515625 418.488281 270.28125 414.40625 270.832031 C 413.09375 271.066406 411.742188 270.886719 410.332031 270.316406 L 384.039062 257.453125 L 357.964844 270.21875 C 356.9375 270.734375 355.820312 270.996094 354.683594 270.996094 Z M 384.042969 249.929688 C 384.574219 249.929688 385.113281 250.054688 385.605469 250.292969 L 413.242188 263.820312 L 409.699219 232.597656 C 409.554688 231.53125 409.898438 230.460938 410.640625 229.679688 L 431.792969 207.320312 L 401.441406 201.167969 C 400.371094 200.96875 399.453125 200.296875 398.941406 199.335938 L 384.457031 172.070312 C 384.410156 171.992188 384.378906 171.957031 384.378906 171.957031 L 369.269531 199.332031 C 368.761719 200.296875 367.835938 200.972656 366.761719 201.164062 L 336.726562 206.574219 L 333.695312 209.765625 L 336.269531 207.3125 L 357.570312 229.671875 C 358.320312 230.453125 358.667969 231.527344 358.519531 232.597656 L 354.429688 263.21875 L 382.472656 250.292969 C 382.96875 250.054688 383.507812 249.929688 384.042969 249.929688 Z M 384.042969 249.929688 " fill-opacity="1" fill-rule="nonzero"/></svg>