<svg xmlns="http://www.w3.org/2000/svg" xmlns:xlink="http://www.w3.org/1999/xlink" width="1024" zoomAndPan="magnify" viewBox="0 0 768 576" height="768" preserveAspectRatio="xMidYMid meet" version="1.0"><defs><clipPath id="97a2c0dc32"><path d="M 139 144.71875 L 628.734375 144.71875 L 628.734375 431.21875 L 139 431.21875 Z M 139 144.71875 " clip-rule="nonzero"/></clipPath></defs><g clip-path="url(#97a2c0dc32)"><path fill="#000000" d="M 140.769531 330.828125 C 141.136719 330.59375 149.933594 325.066406 164.328125 318.679688 C 176.941406 313.078125 196.257812 305.8125 218.09375 302.210938 C 210.296875 281.492188 206.921875 261.125 205.46875 247.398438 C 203.800781 231.730469 204.191406 221.347656 204.207031 220.910156 C 204.265625 219.457031 205.433594 218.289062 206.886719 218.230469 C 207.597656 218.203125 224.558594 217.585938 247.824219 221.460938 C 261.5 223.738281 274.492188 227.113281 286.441406 231.484375 C 299.847656 236.386719 311.972656 242.570312 322.550781 249.886719 C 324.859375 237.226562 329.066406 224.28125 335.074219 211.332031 C 340.4375 199.789062 347.238281 188.214844 355.296875 176.929688 C 369.007812 157.726562 381.441406 146.164062 381.960938 145.683594 C 383.03125 144.695312 384.679688 144.695312 385.75 145.683594 C 386.269531 146.164062 398.703125 157.726562 412.414062 176.929688 C 420.472656 188.214844 427.273438 199.785156 432.636719 211.332031 C 438.652344 224.28125 442.851562 237.226562 445.160156 249.886719 C 455.742188 242.570312 467.863281 236.386719 481.269531 231.484375 C 493.21875 227.117188 506.210938 223.746094 519.882812 221.460938 C 543.15625 217.578125 560.113281 218.203125 560.824219 218.230469 C 562.277344 218.289062 563.445312 219.457031 563.503906 220.910156 C 563.519531 221.347656 563.910156 231.726562 562.242188 247.398438 C 560.785156 261.125 557.414062 281.492188 549.617188 302.210938 C 571.453125 305.820312 590.769531 313.078125 603.382812 318.679688 C 617.777344 325.066406 626.574219 330.597656 626.941406 330.828125 C 628.171875 331.605469 628.601562 333.199219 627.917969 334.484375 C 627.519531 335.242188 617.960938 353.289062 600.011719 373.800781 C 589.457031 385.867188 578.199219 396.25 566.542969 404.664062 C 551.914062 415.21875 536.609375 422.6875 521.0625 426.855469 C 510.234375 429.757812 498.707031 431.210938 486.640625 431.210938 C 481.386719 431.210938 476.03125 430.9375 470.589844 430.382812 C 456.289062 428.925781 441.347656 425.566406 426.179688 420.394531 C 404.363281 412.957031 388.628906 404.0625 383.847656 401.210938 C 379.074219 404.054688 363.335938 412.957031 341.519531 420.394531 C 326.347656 425.566406 311.40625 428.925781 297.109375 430.382812 C 291.667969 430.9375 286.308594 431.210938 281.054688 431.210938 C 268.992188 431.210938 257.464844 429.757812 246.636719 426.855469 C 231.089844 422.6875 215.785156 415.21875 201.15625 404.664062 C 189.5 396.25 178.242188 385.871094 167.6875 373.800781 C 149.75 353.289062 140.191406 335.246094 139.789062 334.484375 C 139.113281 333.199219 139.539062 331.605469 140.769531 330.828125 Z M 425.390625 348.4375 C 416.308594 364.523438 406.085938 377.617188 399.078125 385.796875 C 395.761719 389.679688 392.859375 392.824219 390.613281 395.160156 C 398.730469 394.988281 413.535156 394.144531 430.792969 390.714844 C 454.75 385.964844 488.492188 375.109375 513.191406 350.402344 C 524.871094 338.722656 534.484375 324.042969 541.8125 306.722656 C 523.152344 304.410156 505.636719 305.402344 489.6875 309.679688 C 467.238281 315.695312 445.609375 328.738281 425.390625 348.445312 Z M 342.324219 348.4375 C 322.105469 328.730469 300.476562 315.695312 278.027344 309.679688 C 262.078125 305.402344 244.5625 304.410156 225.90625 306.722656 C 233.230469 324.042969 242.847656 338.722656 254.523438 350.402344 C 279.21875 375.109375 312.964844 385.964844 336.921875 390.714844 C 354.183594 394.140625 368.984375 394.980469 377.105469 395.160156 C 374.816406 392.777344 371.847656 389.554688 368.460938 385.585938 C 361.511719 377.449219 351.355469 364.417969 342.332031 348.4375 Z M 247.042969 226.996094 C 229.515625 224.066406 215.378906 223.757812 209.746094 223.773438 C 209.738281 227.796875 209.886719 236.140625 211.035156 246.921875 C 212.488281 260.542969 215.871094 280.863281 223.753906 301.371094 C 243.675781 298.730469 262.414062 299.703125 279.480469 304.285156 C 298.757812 309.449219 317.398438 319.542969 335.074219 334.34375 C 325.355469 313.433594 320.4375 292.804688 320.4375 272.847656 C 320.4375 267.328125 320.824219 261.679688 321.585938 256.042969 C 296.960938 238.253906 267.554688 230.433594 247.046875 226.996094 Z M 407.957031 180.289062 C 397.636719 165.820312 387.855469 155.605469 383.859375 151.628906 C 379.867188 155.601562 370.085938 165.820312 359.765625 180.289062 C 347.476562 197.523438 331.875 224.5 327.34375 255.160156 C 327.34375 255.160156 327.34375 255.171875 327.34375 255.175781 C 326.464844 261.101562 326.019531 267.046875 326.019531 272.839844 C 326.019531 296.1875 333.078125 320.585938 346.996094 345.339844 C 347 345.351562 347.007812 345.363281 347.019531 345.382812 C 347.019531 345.382812 347.019531 345.382812 347.019531 345.386719 C 355.867188 361.113281 365.871094 373.953125 372.707031 381.957031 C 377.652344 387.742188 381.644531 391.867188 383.859375 394.066406 C 386.074219 391.867188 390.066406 387.753906 394.90625 382.085938 C 401.773438 374.058594 411.820312 361.183594 420.703125 345.386719 C 420.707031 345.375 420.71875 345.359375 420.726562 345.347656 C 434.644531 320.589844 441.703125 296.199219 441.703125 272.847656 C 441.703125 267.050781 441.253906 261.109375 440.378906 255.183594 C 440.378906 255.175781 440.378906 255.171875 440.378906 255.167969 C 435.847656 224.507812 420.246094 197.527344 407.957031 180.292969 Z M 557.980469 223.773438 C 552.339844 223.757812 538.203125 224.066406 520.683594 226.996094 C 500.179688 230.425781 470.769531 238.246094 446.148438 256.042969 C 446.910156 261.679688 447.292969 267.328125 447.292969 272.847656 C 447.292969 292.804688 442.378906 313.433594 432.660156 334.34375 C 450.332031 319.535156 468.980469 309.449219 488.25 304.285156 C 505.316406 299.710938 524.054688 298.730469 543.980469 301.371094 C 551.859375 280.863281 555.242188 260.542969 556.695312 246.921875 C 557.847656 236.140625 557.996094 227.796875 557.984375 223.773438 Z M 428.125 415.164062 C 451.25 423.03125 485.898438 430.507812 519.636719 421.460938 C 553.378906 412.414062 579.640625 388.613281 595.738281 370.234375 C 609.628906 354.375 618.550781 339.707031 621.710938 334.195312 C 618.253906 332.179688 611.007812 328.164062 601.132812 323.785156 C 588.59375 318.214844 569.273438 310.964844 547.535156 307.53125 C 539.859375 326.109375 529.640625 341.855469 517.148438 354.351562 C 505.769531 365.734375 491.65625 375.261719 475.195312 382.660156 C 462.089844 388.550781 447.464844 393.113281 431.742188 396.230469 C 416.328125 399.28125 403.015625 400.324219 394.347656 400.65625 C 401.894531 404.621094 413.730469 410.273438 428.121094 415.164062 Z M 171.898438 370.125 C 188.011719 388.546875 214.304688 412.402344 248.089844 421.460938 C 281.828125 430.507812 316.472656 423.023438 339.59375 415.164062 C 353.984375 410.269531 365.828125 404.621094 373.371094 400.65625 C 364.699219 400.324219 351.390625 399.273438 335.972656 396.230469 C 320.25 393.121094 305.632812 388.558594 292.519531 382.660156 C 276.066406 375.261719 261.953125 365.742188 250.566406 354.351562 C 238.074219 341.855469 227.855469 326.109375 220.183594 307.53125 C 198.484375 310.960938 179.203125 318.1875 166.683594 323.738281 C 156.777344 328.128906 149.480469 332.171875 146.007812 334.199219 C 149.152344 339.695312 158.03125 354.289062 171.886719 370.132812 Z M 171.898438 370.125 " fill-opacity="1" fill-rule="nonzero"/></g></svg>