<svg xmlns="http://www.w3.org/2000/svg" xmlns:xlink="http://www.w3.org/1999/xlink" width="1024" zoomAndPan="magnify" viewBox="0 0 768 576" height="768" preserveAspectRatio="xMidYMid meet" version="1.0"><defs><clipPath id="0c8160f105"><path d="M 183.792969 130.382812 L 584.292969 130.382812 L 584.292969 445.382812 L 183.792969 445.382812 Z M 183.792969 130.382812 " clip-rule="nonzero"/></clipPath></defs><g clip-path="url(#0c8160f105)"><path fill="#000000" d="M 455.953125 399.035156 L 455.074219 399.035156 L 454.570312 399.789062 C 454.445312 400.039062 441.875 422.019531 416.226562 425.539062 C 416.226562 425.160156 416.226562 424.910156 416.226562 424.53125 C 416.226562 424.40625 416.226562 424.40625 416.226562 424.28125 C 416.226562 423.90625 416.226562 423.402344 416.226562 423.023438 C 416.226562 421.015625 416.101562 419.132812 415.976562 417.121094 L 415.976562 416.871094 L 415.847656 415.488281 C 413.335938 382.332031 400.511719 356.332031 396.109375 348.292969 C 397.367188 348.167969 398.625 347.792969 399.757812 347.289062 C 411.574219 342.515625 412.078125 330.207031 412.203125 329.707031 L 408.808594 329.582031 C 408.808594 329.957031 408.304688 340.257812 398.5 344.148438 C 394.601562 345.78125 390.078125 344.902344 386.933594 342.015625 C 383.664062 339 382.535156 334.730469 383.789062 330.585938 L 383.917969 330.207031 C 384.417969 328.828125 385.171875 327.445312 386.179688 325.6875 C 391.710938 317.273438 400.386719 312.121094 410.066406 311.621094 C 433.199219 310.363281 454.695312 330.460938 454.949219 330.585938 L 455.324219 330.960938 L 455.953125 330.960938 C 458.972656 331.214844 461.988281 331.339844 465.132812 331.339844 C 518.5625 331.339844 583.5625 300.316406 584.191406 300.066406 L 582.679688 297.050781 C 581.925781 297.425781 510.515625 331.464844 456.707031 327.695312 C 453.3125 324.683594 432.820312 306.972656 409.816406 308.230469 C 404.28125 308.480469 399.003906 310.238281 394.351562 313 C 394.226562 311.996094 393.972656 310.992188 393.722656 309.859375 C 397.492188 308.855469 399.378906 305.589844 399.757812 303.707031 C 403.277344 291.902344 396.992188 261.757812 396.738281 260.5 C 390.328125 222.570312 381.777344 215.035156 362.921875 198.332031 C 356.382812 192.550781 349.089844 186.023438 339.914062 176.726562 C 306.597656 142.691406 311.753906 132.390625 311.753906 132.265625 L 310.371094 131.386719 L 308.988281 130.382812 C 308.105469 131.636719 302.070312 142.941406 337.777344 179.492188 C 346.953125 188.910156 354.625 195.691406 360.910156 201.21875 C 379.640625 217.796875 387.4375 224.707031 393.722656 261.507812 C 393.847656 261.757812 400.132812 292.152344 396.867188 303.078125 C 396.867188 303.203125 395.984375 306.09375 393.21875 306.847656 C 389.070312 290.015625 379.640625 269.671875 379.140625 268.664062 L 376.121094 270.046875 C 376.246094 270.296875 389.195312 298.304688 391.460938 315.386719 C 388.441406 317.773438 385.675781 320.664062 383.414062 324.179688 C 382.28125 325.9375 381.527344 327.445312 380.898438 328.828125 C 372.601562 314.257812 352.359375 281.601562 352.234375 281.226562 L 349.34375 282.984375 C 349.59375 283.359375 373.480469 322.042969 379.894531 333.976562 C 379.765625 337.996094 381.402344 342.015625 384.542969 344.902344 C 386.683594 346.914062 389.320312 348.167969 392.089844 348.546875 C 393.847656 351.558594 400.636719 363.992188 405.917969 382.082031 C 401.265625 378.0625 392.339844 377.683594 387.8125 377.808594 C 389.320312 373.164062 389.070312 369.019531 386.933594 365.5 C 383.035156 359.097656 373.859375 357.085938 369.082031 356.457031 C 370.714844 353.570312 371.34375 350.804688 370.714844 347.917969 C 369.082031 340.632812 360.53125 336.363281 360.15625 336.238281 L 359.902344 336.109375 L 359.652344 336.109375 C 351.605469 334.980469 344.3125 335.734375 342.050781 335.984375 C 336.519531 316.015625 307.855469 298.179688 306.722656 297.425781 L 303.582031 295.542969 L 304.210938 299.183594 C 304.210938 299.5625 309.613281 331.714844 314.015625 361.609375 C 315.273438 370.148438 313.765625 376.804688 309.613281 381.453125 C 304.082031 387.730469 295.03125 388.863281 291.386719 389.113281 C 290.757812 359.976562 274.414062 325.6875 261.085938 297.929688 C 255.179688 285.621094 250.148438 275.070312 247.507812 267.03125 C 238.707031 240.78125 239.589844 197.449219 239.589844 197.074219 L 239.589844 196.445312 L 186.535156 130.382812 L 183.894531 132.515625 L 236.320312 197.703125 C 236.195312 203.355469 235.941406 242.792969 244.492188 268.164062 C 247.257812 276.453125 252.410156 287.128906 258.320312 299.4375 C 271.648438 327.320312 288.242188 362.109375 288.242188 390.871094 L 288.242188 392.503906 L 289.875 392.503906 C 289.875 392.503906 290.003906 392.503906 290.253906 392.503906 C 292.644531 392.503906 304.835938 392.128906 312.253906 383.714844 C 317.160156 378.3125 318.917969 370.652344 317.535156 361.105469 C 314.015625 337.117188 309.867188 311.746094 308.359375 302.324219 C 316.027344 307.601562 335.011719 321.917969 339.160156 336.863281 C 335.765625 338.246094 333.25 340.507812 331.617188 343.523438 C 328.097656 349.925781 329.605469 358.089844 330.234375 360.855469 L 324.449219 367.132812 C 320.050781 371.90625 317.535156 377.683594 317.160156 383.460938 C 316.53125 395.269531 324.574219 399.414062 327.96875 400.667969 C 326.335938 416.996094 332.746094 421.140625 333.878906 421.769531 C 337.023438 423.777344 340.289062 424.15625 343.433594 423.152344 C 350.851562 420.765625 355.378906 410.84375 356.257812 408.707031 C 356.632812 408.957031 357.136719 409.335938 357.515625 409.585938 C 358.019531 413.730469 361.035156 431.566406 377.628906 434.328125 L 378.132812 434.453125 L 378.511719 434.328125 C 381.148438 433.324219 388.945312 431.316406 392.339844 434.707031 C 397.746094 440.984375 402.898438 444.503906 407.929688 445.257812 L 409.058594 445.382812 C 409.3125 445.382812 409.5625 445.382812 409.816406 445.382812 C 410.945312 445.382812 411.953125 445.257812 412.707031 445.003906 C 414.59375 444.503906 415.722656 443.625 415.847656 443.371094 L 416.351562 442.871094 L 416.351562 431.441406 C 416.351562 430.5625 416.351562 429.683594 416.351562 428.929688 C 441.496094 425.789062 454.570312 406.570312 457.210938 402.300781 C 497.191406 399.789062 577.402344 402.300781 578.15625 402.300781 L 578.28125 398.910156 C 577.273438 399.035156 495.808594 396.398438 455.953125 399.035156 Z M 412.453125 441.488281 C 412.453125 441.488281 412.328125 441.488281 412.328125 441.488281 C 412.203125 441.613281 411.953125 441.613281 411.828125 441.738281 C 411.828125 441.738281 411.699219 441.738281 411.699219 441.738281 C 411.574219 441.738281 411.324219 441.863281 411.199219 441.863281 C 411.070312 441.863281 411.070312 441.863281 410.945312 441.863281 C 410.695312 441.863281 410.441406 441.992188 410.191406 441.992188 C 410.191406 441.992188 410.066406 441.992188 410.066406 441.992188 C 407.300781 433.199219 405.792969 426.039062 406.167969 422.523438 C 406.292969 421.265625 406.671875 420.386719 407.550781 419.757812 C 408.558594 419.007812 410.066406 418.753906 411.574219 418.753906 C 411.953125 418.753906 412.328125 418.753906 412.707031 418.753906 C 412.707031 419.257812 412.707031 419.886719 412.832031 420.386719 C 412.832031 420.890625 412.832031 421.390625 412.957031 421.894531 C 412.957031 422.773438 412.957031 423.527344 413.082031 424.40625 C 413.082031 424.65625 413.082031 424.785156 413.082031 425.035156 C 413.082031 427.167969 413.082031 429.304688 413.082031 431.441406 L 413.082031 441.238281 C 412.707031 441.363281 412.582031 441.488281 412.453125 441.488281 Z M 384.167969 367.257812 C 385.925781 370.148438 385.925781 373.917969 384.042969 378.3125 C 370.839844 384.089844 352.109375 387.355469 348.460938 387.984375 C 338.65625 381.578125 339.664062 370.777344 340.289062 367.386719 C 344.1875 366.882812 356.507812 364.875 366.566406 359.597656 C 368.957031 359.722656 380.269531 360.980469 384.167969 367.257812 Z M 334.257812 345.28125 C 335.765625 342.390625 338.40625 340.382812 341.925781 339.375 C 342.929688 339.25 350.601562 338.246094 358.898438 339.375 C 360.15625 340.003906 366.316406 343.523438 367.445312 348.671875 C 367.949219 351.183594 367.195312 353.820312 364.933594 356.582031 C 354.496094 362.109375 340.917969 363.992188 338.90625 364.246094 C 336.394531 363.742188 333.878906 361.355469 333.125 360.601562 C 332.875 358.84375 331.113281 351.058594 334.257812 345.28125 Z M 320.175781 383.714844 C 320.425781 378.6875 322.691406 373.664062 326.585938 369.519531 L 331.867188 363.867188 C 333 364.875 334.886719 366.378906 337.023438 367.132812 C 336.644531 369.519531 336.269531 374.417969 337.902344 379.441406 L 337.523438 379.191406 C 337.398438 379.316406 331.363281 391.875 328.726562 397.527344 C 325.957031 396.523438 319.671875 393.382812 320.175781 383.714844 Z M 352.988281 407.199219 C 352.988281 407.324219 348.589844 417.875 342.050781 420.011719 C 339.789062 420.765625 337.652344 420.386719 335.261719 418.878906 L 335.136719 418.753906 C 335.136719 418.753906 329.226562 415.488281 331.113281 399.914062 C 332.875 396.148438 337.273438 387.105469 339.285156 382.832031 C 340.792969 385.597656 342.929688 388.234375 346.199219 390.496094 C 346.074219 393.382812 346.453125 401.171875 354.75 407.953125 Z M 349.71875 391.125 C 354.75 390.242188 372.726562 386.980469 385.800781 381.199219 C 390.578125 380.824219 402.648438 381.199219 405.164062 386.097656 C 406.796875 389.363281 403.65625 394.390625 400.511719 398.15625 C 381.652344 407.199219 365.433594 409.082031 360.53125 409.460938 C 360.53125 409.082031 360.53125 408.707031 360.40625 408.707031 L 360.40625 407.828125 L 359.652344 407.324219 C 350.347656 401.421875 349.59375 394.011719 349.71875 391.125 Z M 397.242188 406.570312 C 397.492188 406.699219 397.871094 406.949219 397.996094 407.324219 C 398.121094 407.953125 397.242188 408.957031 395.609375 409.335938 C 394.855469 409.460938 393.972656 409.460938 393.34375 409.210938 C 393.09375 409.082031 392.714844 408.832031 392.589844 408.457031 C 392.464844 408.078125 392.84375 407.703125 392.96875 407.449219 C 393.472656 406.949219 394.097656 406.570312 394.980469 406.445312 C 395.230469 406.445312 395.609375 406.320312 395.859375 406.320312 C 396.363281 406.320312 396.867188 406.445312 397.242188 406.570312 Z M 361.160156 412.726562 C 365.433594 412.347656 376.121094 411.09375 389.824219 406.195312 C 389.320312 407.074219 389.195312 408.078125 389.320312 409.082031 C 389.574219 410.464844 390.578125 411.597656 391.960938 412.222656 C 392.714844 412.601562 393.722656 412.726562 394.601562 412.726562 C 395.105469 412.726562 395.609375 412.726562 396.109375 412.601562 C 399.503906 411.972656 401.644531 409.335938 401.140625 406.699219 C 400.886719 405.316406 399.882812 404.183594 398.5 403.558594 C 398.121094 403.433594 397.871094 403.304688 397.492188 403.179688 C 398.75 402.679688 399.882812 402.050781 401.140625 401.546875 C 402.144531 402.679688 403.90625 405.191406 403.65625 408.203125 C 403.277344 412.347656 399.378906 416.621094 392.339844 420.640625 C 379.140625 428.050781 374.488281 429.683594 373.355469 429.933594 C 365.183594 426.417969 362.167969 417.875 361.160156 412.726562 Z M 392.214844 429.683594 L 391.332031 430.433594 C 388.316406 429.179688 384.796875 429.429688 381.90625 429.933594 C 384.921875 428.550781 388.820312 426.417969 393.972656 423.527344 C 402.144531 418.878906 406.546875 413.855469 407.050781 408.457031 C 407.425781 404.183594 405.289062 401.046875 403.78125 399.414062 C 406.167969 396.398438 407.675781 393.636719 408.433594 391.25 C 410.191406 398.660156 411.574219 406.824219 412.328125 415.488281 C 410.316406 415.363281 407.550781 415.613281 405.414062 417.121094 C 403.90625 418.253906 402.898438 420.011719 402.773438 422.273438 C 402.269531 427.171875 404.535156 435.585938 406.421875 441.488281 C 402.898438 440.484375 398.121094 437.34375 392.214844 429.683594 Z M 392.214844 429.683594 " fill-opacity="1" fill-rule="nonzero"/></g><path fill="#000000" d="M 356.257812 354.199219 C 356.886719 354.199219 357.515625 354.070312 358.269531 353.945312 C 360.15625 353.570312 361.789062 352.691406 362.921875 351.433594 C 364.179688 350.050781 364.804688 348.292969 364.429688 346.660156 C 363.800781 343.394531 360.027344 341.636719 355.878906 342.390625 C 353.996094 342.769531 352.359375 343.648438 351.230469 344.902344 C 349.972656 346.285156 349.34375 348.042969 349.71875 349.675781 C 350.222656 352.4375 352.988281 354.199219 356.257812 354.199219 Z M 353.617188 347.289062 C 354.246094 346.535156 355.378906 346.035156 356.507812 345.78125 C 357.011719 345.65625 357.390625 345.65625 357.765625 345.65625 C 359.527344 345.65625 360.910156 346.410156 361.035156 347.414062 C 361.160156 348.167969 360.65625 348.796875 360.40625 349.171875 C 359.777344 349.925781 358.644531 350.429688 357.515625 350.679688 C 355.125 351.183594 353.113281 350.179688 352.863281 349.046875 C 352.738281 348.421875 353.242188 347.667969 353.617188 347.289062 Z M 353.617188 347.289062 " fill-opacity="1" fill-rule="nonzero"/><path fill="#000000" d="M 390.707031 331.085938 C 387.183594 333.472656 386.054688 337.492188 387.9375 340.257812 C 388.945312 341.636719 390.453125 342.390625 392.339844 342.390625 C 392.339844 342.390625 392.339844 342.390625 392.464844 342.390625 C 394.097656 342.390625 395.984375 341.761719 397.492188 340.757812 C 401.015625 338.371094 402.144531 334.351562 400.261719 331.589844 C 398.375 328.953125 394.097656 328.699219 390.707031 331.085938 Z M 395.484375 337.996094 C 394.476562 338.625 393.34375 339 392.339844 339 C 391.835938 339 391.082031 338.875 390.578125 338.246094 C 389.949219 337.242188 390.578125 335.230469 392.589844 333.851562 C 393.597656 333.097656 394.726562 332.847656 395.609375 332.847656 C 396.488281 332.847656 397.117188 333.097656 397.367188 333.597656 C 398.121094 334.480469 397.492188 336.613281 395.484375 337.996094 Z M 395.484375 337.996094 " fill-opacity="1" fill-rule="nonzero"/><path fill="#000000" d="M 366.191406 367.761719 C 364.933594 369.144531 364.304688 370.902344 364.679688 372.535156 C 365.183594 375.171875 367.949219 376.929688 371.21875 376.929688 C 371.847656 376.929688 372.476562 376.804688 373.230469 376.679688 C 375.117188 376.300781 376.75 375.421875 377.882812 374.167969 C 379.140625 372.785156 379.765625 371.027344 379.390625 369.394531 C 378.761719 366.128906 374.988281 364.371094 370.839844 365.125 C 368.957031 365.5 367.320312 366.507812 366.191406 367.761719 Z M 372.851562 368.265625 C 374.613281 368.265625 375.996094 369.019531 376.121094 370.023438 C 376.246094 370.777344 375.746094 371.40625 375.492188 371.78125 C 374.863281 372.535156 373.734375 373.039062 372.601562 373.289062 C 370.210938 373.789062 368.199219 372.785156 367.949219 371.65625 C 367.824219 370.902344 368.328125 370.273438 368.578125 369.898438 C 369.207031 369.144531 370.339844 368.640625 371.46875 368.390625 C 371.972656 368.390625 372.351562 368.265625 372.851562 368.265625 Z M 372.851562 368.265625 " fill-opacity="1" fill-rule="nonzero"/><path fill="#000000" d="M 392.339844 395.644531 C 392.96875 395.644531 393.597656 395.519531 394.351562 395.394531 C 398.5 394.515625 401.265625 391.375 400.511719 388.109375 C 400.132812 386.476562 399.003906 385.09375 397.242188 384.339844 C 395.734375 383.585938 393.847656 383.460938 391.960938 383.839844 C 390.078125 384.214844 388.441406 385.09375 387.3125 386.351562 C 386.054688 387.730469 385.425781 389.492188 385.800781 391.125 C 386.304688 393.886719 389.070312 395.644531 392.339844 395.644531 Z M 389.824219 388.738281 C 390.453125 387.984375 391.585938 387.480469 392.714844 387.230469 C 393.09375 387.105469 393.597656 387.105469 393.972656 387.105469 C 394.726562 387.105469 395.355469 387.230469 395.984375 387.480469 C 396.363281 387.730469 397.117188 388.109375 397.242188 388.863281 C 397.492188 389.992188 396.109375 391.625 393.597656 392.128906 C 391.207031 392.628906 389.195312 391.625 388.945312 390.496094 C 388.945312 389.742188 389.449219 389.113281 389.824219 388.738281 Z M 389.824219 388.738281 " fill-opacity="1" fill-rule="nonzero"/></svg>