<svg xmlns="http://www.w3.org/2000/svg" xmlns:xlink="http://www.w3.org/1999/xlink" width="1024" zoomAndPan="magnify" viewBox="0 0 768 576" height="768" preserveAspectRatio="xMidYMid meet" version="1.0"><defs><clipPath id="7ecd6631de"><path d="M 250.324219 140.960938 L 517 140.960938 L 517 434.960938 L 250.324219 434.960938 Z M 250.324219 140.960938 " clip-rule="nonzero"/></clipPath></defs><g clip-path="url(#7ecd6631de)"><path fill="#000000" d="M 375.355469 54.328125 C 377.699219 54.597656 380.042969 55.066406 382.320312 55.804688 C 383.457031 56.207031 384.527344 56.539062 385.597656 56.941406 C 389.082031 58.214844 391.757812 60.496094 394.234375 63.242188 C 397.382812 66.664062 399.257812 70.753906 401.265625 74.839844 C 403.007812 78.328125 405.015625 81.679688 406.957031 85.097656 C 409.03125 88.71875 412.113281 91.265625 415.859375 93.140625 C 418.339844 94.347656 421.015625 95.289062 423.558594 96.292969 C 430.792969 99.242188 437.753906 102.796875 444.582031 106.617188 C 451.144531 110.238281 455.898438 115.667969 459.847656 121.832031 C 461.65625 124.648438 462.257812 127.800781 462.527344 131.019531 C 462.792969 134.167969 462.859375 137.386719 462.726562 140.535156 C 462.59375 144.292969 461.453125 147.84375 459.78125 151.195312 C 458.375 154.078125 456.632812 156.828125 454.828125 159.507812 C 453.421875 161.585938 452.015625 163.597656 450.609375 165.675781 C 450.40625 166.011719 450.074219 166.277344 450.074219 166.882812 C 452.148438 166.679688 454.222656 166.679688 456.300781 166.613281 C 460.183594 166.480469 464 166.882812 467.882812 166.75 C 471.230469 166.679688 474.644531 166.75 477.992188 167.152344 C 478.726562 167.21875 479.464844 167.285156 480.203125 167.082031 C 484.753906 166.078125 488.570312 167.621094 491.515625 170.90625 C 493.992188 173.585938 496 176.738281 496.871094 180.355469 C 497.675781 183.707031 497.339844 187.058594 496.46875 190.34375 C 496 192.222656 495.332031 194.097656 494.597656 195.910156 C 494.527344 196.109375 494.460938 196.378906 494.261719 196.578125 C 492.789062 198.324219 491.71875 200.265625 490.3125 202.007812 C 489.105469 203.484375 488.503906 205.226562 487.5 206.769531 C 486.695312 208.109375 486.894531 209.046875 487.832031 210.253906 C 489.84375 212.734375 491.648438 215.417969 493.457031 218.164062 C 495.332031 221.046875 497.40625 223.863281 499.417969 226.679688 C 505.105469 234.65625 509.460938 243.304688 512.136719 252.757812 C 513.410156 257.246094 514.816406 261.671875 515.617188 266.230469 C 516.554688 271.324219 516.621094 276.421875 516.824219 281.582031 C 517.226562 291.035156 515.484375 300.285156 513.273438 309.402344 C 510.730469 319.726562 507.046875 329.648438 501.757812 338.898438 C 496.46875 348.082031 489.773438 356.261719 482.074219 363.5 C 478.996094 366.382812 475.847656 369.132812 472.5 371.746094 C 471.964844 372.148438 471.964844 372.484375 472.167969 373.085938 C 472.703125 374.425781 472.902344 375.835938 472.636719 377.242188 C 472.101562 379.925781 470.089844 381.199219 467.414062 380.527344 C 466.140625 380.191406 465.136719 379.457031 464 378.785156 C 463.933594 379.253906 464.199219 379.523438 464.402344 379.859375 C 465.203125 381.265625 465.941406 382.671875 466.277344 384.28125 C 466.542969 385.421875 466.609375 386.628906 466.074219 387.699219 C 465.269531 389.445312 462.929688 390.515625 460.984375 389.644531 C 459.980469 389.175781 459.914062 389.175781 459.246094 390.113281 C 458.441406 391.320312 457.238281 391.789062 455.964844 392.125 C 454.222656 392.59375 452.886719 394.003906 452.683594 395.746094 C 452.417969 398.292969 452.214844 400.773438 451.8125 403.320312 C 451.277344 407.140625 450.609375 410.960938 449.9375 414.714844 C 449.804688 415.386719 449.871094 415.921875 450.140625 416.527344 C 451.414062 419.746094 452.550781 423.027344 453.621094 426.3125 C 453.753906 426.714844 453.890625 427.183594 453.957031 427.585938 C 454.023438 427.855469 453.890625 428.058594 453.621094 428.191406 C 453.285156 428.324219 453.019531 428.257812 452.816406 427.988281 C 452.617188 427.65625 452.417969 427.320312 452.347656 426.917969 C 449.671875 418.539062 446.125 410.492188 442.707031 402.382812 C 441.503906 399.566406 440.03125 396.816406 438.421875 394.203125 C 436.949219 391.855469 435.007812 390.179688 432.398438 389.042969 C 428.449219 387.296875 424.363281 385.757812 420.214844 384.484375 C 415.324219 383.007812 411.242188 380.261719 407.492188 376.90625 C 405.015625 374.761719 402.804688 372.347656 400.664062 369.871094 C 399.054688 368.058594 397.183594 366.449219 395.375 364.839844 C 392.5625 362.359375 389.214844 360.753906 385.867188 359.144531 C 371.273438 352.171875 356.675781 345.199219 341.746094 338.832031 C 334.582031 335.816406 327.6875 332.261719 320.789062 328.777344 C 320.320312 328.507812 319.851562 328.304688 319.316406 328.039062 C 318.914062 329.246094 318.515625 330.453125 318.046875 331.523438 C 316.035156 336.21875 313.894531 340.773438 311.417969 345.199219 C 309.207031 349.089844 306.929688 352.976562 304.65625 356.863281 C 299.230469 365.980469 295.953125 375.835938 294.8125 386.359375 C 294.476562 389.644531 294.144531 392.996094 294.210938 396.28125 C 294.34375 402.515625 295.550781 408.617188 297.089844 414.648438 C 297.894531 417.933594 298.898438 421.152344 300.101562 424.304688 C 301.242188 427.320312 302.644531 430.203125 304.386719 432.949219 C 304.589844 433.285156 304.789062 433.621094 304.988281 433.957031 C 305.125 434.222656 305.125 434.558594 304.855469 434.761719 C 304.519531 435.027344 304.1875 434.960938 303.917969 434.625 C 303.652344 434.292969 303.382812 433.957031 303.113281 433.554688 C 300.703125 430.066406 299.097656 426.179688 297.757812 422.15625 C 295.347656 414.851562 293.609375 407.410156 292.871094 399.699219 C 292.46875 395.746094 292.671875 391.789062 293.074219 387.835938 C 293.675781 382.605469 294.546875 377.378906 296.085938 372.351562 C 297.691406 366.917969 300.101562 361.890625 302.847656 357 C 305.257812 352.773438 307.734375 348.6875 310.144531 344.460938 C 312.488281 340.375 314.363281 336.082031 316.371094 331.859375 C 316.90625 330.785156 317.242188 329.714844 317.578125 328.574219 C 317.976562 327.367188 317.910156 327.367188 316.839844 326.765625 C 316.238281 326.429688 315.636719 326.09375 315.03125 325.828125 C 308.941406 322.875 303.449219 318.921875 298.09375 314.832031 C 292.136719 310.273438 286.175781 305.847656 279.882812 301.761719 C 278.746094 301.023438 277.605469 300.21875 276.46875 299.546875 C 270.84375 296.261719 265.621094 292.441406 260.332031 288.621094 C 257.988281 286.945312 255.980469 284.800781 253.90625 282.855469 C 253.570312 282.519531 253.371094 282.183594 253.167969 281.785156 C 252.03125 278.96875 251.226562 276.085938 250.757812 273.070312 C 250.425781 270.65625 250.691406 268.308594 250.894531 265.960938 C 251.5625 258.1875 251.761719 250.476562 251.761719 242.699219 C 251.761719 227.015625 251.832031 211.328125 252.03125 195.640625 C 252.164062 184.246094 252.632812 172.847656 253.304688 161.519531 C 253.636719 156.023438 253.773438 150.457031 254.039062 144.960938 C 254.105469 143.152344 254.308594 141.339844 254.441406 139.53125 C 254.777344 135.039062 254.574219 130.617188 253.570312 126.257812 C 252.902344 123.308594 251.964844 120.425781 251.496094 117.410156 C 250.558594 111.308594 250.492188 105.140625 250.894531 98.976562 C 251.160156 95.488281 251.628906 92.003906 252.367188 88.515625 C 253.4375 83.222656 255.378906 78.328125 257.988281 73.636719 C 259.730469 70.550781 261.40625 67.402344 263.414062 64.449219 C 263.949219 63.714844 264.351562 62.84375 264.683594 61.96875 C 270.507812 49.5 275.464844 36.765625 279.214844 23.492188 C 281.089844 16.722656 282.226562 9.816406 282.695312 2.84375 C 283.699219 -11.300781 286.042969 -25.175781 289.121094 -38.988281 C 292 -51.992188 296.152344 -64.460938 301.710938 -76.527344 C 304.722656 -83.03125 308.402344 -89.128906 313.15625 -94.492188 C 320.722656 -103.007812 329.960938 -108.371094 341.210938 -110.582031 C 344.222656 -111.183594 347.234375 -111.519531 350.316406 -111.585938 C 354.867188 -111.722656 359.21875 -110.78125 363.570312 -109.710938 C 374.820312 -107.09375 384.996094 -102 394.839844 -96.234375 C 399.992188 -93.21875 405.148438 -90.269531 409.769531 -86.515625 C 414.121094 -83.03125 418.070312 -79.140625 420.613281 -74.046875 C 423.628906 -68.011719 425.902344 -61.777344 426.90625 -55.074219 C 428.046875 -47.230469 427.710938 -39.390625 425.570312 -31.679688 C 424.027344 -26.046875 422.355469 -20.550781 420.011719 -15.1875 C 419.007812 -12.910156 417.9375 -10.765625 416.53125 -8.753906 C 415.792969 -7.679688 415.257812 -6.472656 414.65625 -5.265625 C 414.320312 -4.597656 414.253906 -3.992188 414.65625 -3.324219 C 415.125 -2.453125 415.59375 -1.511719 416.0625 -0.574219 C 417.265625 1.773438 416.796875 4.722656 414.921875 6.597656 C 413.785156 7.738281 412.445312 8.476562 411.039062 9.144531 C 409.367188 9.949219 407.691406 10.6875 406.019531 11.492188 C 404.414062 12.230469 404.078125 13.367188 404.949219 14.976562 C 405.082031 15.246094 405.28125 15.582031 405.484375 15.847656 C 406.488281 17.257812 406.421875 18.664062 405.617188 20.074219 C 404.949219 21.144531 404.210938 22.21875 403.140625 22.957031 C 402.402344 23.492188 402.203125 24.09375 402.136719 24.898438 C 402.136719 25.503906 401.933594 26.171875 401.800781 26.777344 C 401.464844 28.519531 400.460938 29.726562 398.722656 30.128906 C 397.851562 30.328125 397.648438 30.730469 397.71875 31.535156 C 397.785156 32.40625 397.71875 33.277344 397.785156 34.148438 C 398.585938 40.25 394.503906 45.414062 388.410156 46.015625 C 387.140625 46.148438 385.867188 46.351562 384.59375 46.21875 C 384.058594 46.148438 383.65625 46.351562 383.324219 46.753906 C 382.785156 47.355469 382.25 47.894531 381.714844 48.496094 C 380.042969 50.507812 378.035156 52.117188 375.691406 53.390625 C 375.757812 53.792969 375.421875 53.859375 375.355469 54.328125 Z M 426.574219 192.019531 C 426.371094 191.753906 426.304688 191.6875 426.171875 191.550781 C 424.832031 190.210938 424.699219 189.136719 425.769531 187.53125 C 426.574219 186.257812 427.710938 185.25 428.917969 184.3125 C 430.1875 183.304688 431.394531 182.234375 432.664062 181.226562 C 438.089844 176.9375 442.308594 171.441406 447.261719 166.679688 C 447.527344 166.414062 447.730469 166.078125 447.996094 165.808594 C 449.9375 163.664062 451.480469 161.183594 453.085938 158.839844 C 454.894531 156.15625 456.632812 153.476562 458.105469 150.59375 C 459.582031 147.710938 460.71875 144.695312 460.851562 141.410156 C 461.054688 137.585938 461.054688 133.765625 460.585938 130.011719 C 460.316406 127.667969 459.847656 125.320312 458.574219 123.308594 C 455.09375 117.746094 451.011719 112.648438 445.1875 109.230469 C 439.359375 105.8125 433.402344 102.796875 427.242188 99.980469 C 424.296875 98.640625 421.21875 97.367188 418.136719 96.292969 C 415.058594 95.152344 412.378906 93.140625 409.234375 92.203125 C 408.832031 92.070312 408.429688 91.867188 408.027344 91.601562 C 403.273438 88.785156 398.65625 85.835938 394.304688 82.417969 C 391.890625 80.539062 389.480469 78.796875 387.003906 77.054688 C 385.0625 75.644531 383.121094 74.238281 381.179688 72.898438 C 376.894531 69.8125 372.8125 66.460938 368.660156 63.242188 C 366.652344 61.703125 364.441406 60.628906 362.167969 59.488281 C 362.03125 60.292969 362.097656 60.964844 362.636719 61.433594 C 364.441406 62.976562 366.117188 64.71875 367.925781 66.261719 C 370.335938 68.339844 373.078125 70.015625 375.691406 71.757812 C 382.652344 76.515625 389.683594 81.210938 396.644531 85.96875 C 399.925781 88.179688 403.339844 90.191406 406.6875 92.335938 C 411.375 95.289062 415.792969 98.570312 420.414062 101.589844 C 426.90625 105.8125 431.996094 111.441406 436.949219 117.277344 C 437.285156 117.675781 437.621094 118.148438 437.886719 118.550781 C 442.84375 126.125 444.25 134.570312 443.980469 143.488281 C 443.980469 144.023438 443.914062 144.558594 443.847656 145.09375 C 443.78125 145.566406 443.511719 145.765625 443.042969 145.832031 C 442.640625 145.898438 442.375 145.632812 442.308594 145.230469 C 442.238281 144.828125 441.972656 144.558594 441.769531 144.222656 C 438.15625 138.929688 434.472656 133.699219 430.589844 128.605469 C 427.914062 125.117188 425.035156 121.832031 421.550781 119.085938 C 417.9375 116.269531 414.320312 113.453125 410.707031 110.640625 C 407.292969 108.023438 403.609375 105.878906 399.523438 104.335938 C 396.578125 103.199219 393.566406 102.394531 390.6875 101.1875 C 386.46875 99.445312 382.117188 97.96875 377.699219 96.695312 C 368.527344 94.082031 359.757812 90.394531 351.1875 86.304688 C 347.4375 84.496094 343.753906 82.417969 340.070312 80.40625 C 331.570312 75.847656 322.933594 71.691406 314.027344 68.070312 C 310.679688 66.730469 307.265625 65.792969 303.652344 65.65625 C 300.101562 65.523438 296.753906 66.597656 293.40625 67.667969 C 293.273438 67.734375 293.207031 67.734375 293.273438 67.9375 C 293.472656 67.9375 293.609375 68.003906 293.808594 68.003906 C 300.4375 68.070312 306.730469 69.546875 312.890625 71.957031 C 320.589844 74.976562 328.019531 78.527344 335.320312 82.28125 C 342.414062 85.902344 348.441406 90.796875 353.394531 97.097656 C 358.484375 103.601562 359.824219 110.839844 358.417969 118.816406 C 357.746094 122.773438 356.007812 126.460938 354.332031 130.078125 C 352.125 134.90625 349.3125 139.464844 346.902344 144.222656 C 345.628906 146.769531 344.15625 149.183594 342.414062 151.464844 C 338.464844 156.828125 333.980469 161.585938 328.890625 165.875 C 323.667969 170.367188 318.113281 174.257812 311.820312 177.070312 C 311.214844 177.339844 310.613281 177.742188 310.011719 178.011719 C 309.273438 178.34375 308.941406 178.882812 308.804688 179.6875 C 308.269531 182.300781 307.734375 184.980469 307.132812 187.597656 C 306.394531 191.148438 305.59375 194.636719 304.789062 198.1875 C 304.65625 198.859375 304.386719 199.460938 304.921875 200.132812 C 306.730469 202.480469 308.269531 205.09375 310.144531 207.371094 C 312.6875 210.523438 314.964844 213.808594 317.109375 217.160156 C 320.121094 221.785156 322.867188 226.613281 324.539062 231.90625 C 325.410156 234.65625 326.28125 237.40625 327.21875 240.085938 C 330.363281 249.269531 331.636719 258.789062 331.503906 268.511719 C 331.433594 274.34375 331.167969 280.105469 330.964844 285.9375 C 330.964844 286.476562 330.964844 286.945312 331.433594 287.414062 C 335.183594 291.101562 338.933594 294.789062 343.285156 297.871094 C 356.074219 306.921875 369.53125 314.832031 383.457031 321.804688 C 387.070312 323.613281 390.886719 325.023438 394.703125 326.296875 C 400.394531 328.238281 406.152344 328.574219 411.976562 327.167969 C 412.847656 326.964844 413.785156 326.832031 414.722656 326.699219 C 417.667969 326.363281 420.613281 326.09375 423.558594 325.691406 C 428.851562 325.023438 434.140625 325.089844 439.429688 326.226562 C 444.515625 327.367188 449.539062 328.910156 454.625 329.847656 C 458.507812 330.585938 462.390625 330.652344 466.277344 330.453125 C 467.28125 330.382812 468.285156 330.316406 469.289062 330.382812 C 471.363281 330.453125 473.4375 332.796875 473.839844 334.609375 C 474.042969 335.546875 474.175781 336.484375 473.707031 337.355469 C 472.703125 339.234375 471.566406 340.910156 469.554688 341.914062 C 466.34375 343.589844 462.929688 344.195312 459.445312 344.527344 C 455.628906 344.863281 451.949219 344.128906 448.265625 343.457031 C 447.929688 343.390625 447.527344 343.253906 447.058594 343.523438 C 447.527344 344.195312 447.996094 344.730469 448.398438 345.332031 C 451.414062 349.222656 454.761719 352.839844 458.175781 356.394531 C 462.460938 360.886719 465.941406 366.046875 470.292969 370.472656 C 470.492188 370.671875 470.628906 371.074219 471.027344 371.074219 C 471.429688 370.742188 471.898438 370.40625 472.300781 370.070312 C 477.054688 366.183594 481.675781 362.09375 485.890625 357.601562 C 496.136719 346.742188 503.769531 334.207031 508.453125 319.992188 C 512.671875 307.121094 515.683594 294.050781 515.148438 280.375 C 514.882812 272.800781 513.945312 265.359375 511.9375 257.984375 C 509.460938 249.203125 506.246094 240.757812 501.492188 232.914062 C 499.550781 229.761719 497.273438 226.8125 495.132812 223.730469 C 492.320312 219.707031 489.707031 215.484375 486.761719 211.527344 C 486.429688 211.125 486.226562 210.589844 485.691406 210.390625 C 484.621094 212.066406 483.550781 213.742188 482.476562 215.351562 C 481.605469 216.625 480.671875 217.832031 479.332031 218.632812 C 477.925781 219.507812 476.585938 220.511719 475.179688 221.382812 C 467.414062 225.941406 459.113281 229.09375 450.140625 230.5 C 449.003906 230.703125 447.796875 230.835938 446.660156 230.566406 C 445.253906 230.230469 444.113281 229.496094 443.644531 228.085938 C 443.175781 226.679688 443.78125 225.539062 444.785156 224.535156 C 445.855469 223.460938 447.128906 222.789062 448.601562 222.457031 C 453.621094 221.113281 458.105469 218.632812 462.390625 215.886719 C 462.792969 215.617188 463.328125 215.417969 463.664062 214.679688 C 462.191406 215.148438 460.984375 215.550781 459.714844 215.953125 C 454.625 217.496094 449.605469 219.238281 444.851562 221.652344 C 443.246094 222.457031 441.636719 223.261719 439.964844 223.996094 C 437.019531 225.40625 433.9375 226.277344 430.65625 226.34375 C 426.507812 226.476562 422.625 225.539062 419.542969 222.457031 C 419.007812 221.917969 418.539062 221.851562 417.871094 221.988281 C 414.921875 222.457031 412.246094 221.851562 409.96875 219.839844 C 408.09375 218.234375 407.691406 216.152344 408.628906 213.875 C 408.964844 213.136719 409.300781 212.46875 409.632812 211.796875 C 409.5 211.664062 409.367188 211.527344 409.300781 211.460938 C 407.222656 210.320312 406.824219 207.574219 407.691406 205.628906 C 408.296875 204.289062 409.097656 203.082031 410.171875 202.078125 C 411.644531 200.667969 413.316406 199.460938 414.992188 198.324219 C 418.875 195.574219 422.625 193.695312 426.574219 192.019531 Z M 309.542969 176.335938 C 314.765625 173.921875 319.585938 171.375 323.871094 167.953125 C 326.011719 166.277344 328.15625 164.535156 330.164062 162.726562 C 335.453125 158.035156 340.003906 152.671875 343.886719 146.773438 C 344.355469 146.101562 344.960938 145.363281 345.09375 144.625 C 345.292969 143.621094 345.828125 142.816406 346.296875 142.011719 C 349.714844 136.378906 352.792969 130.546875 355.269531 124.382812 C 357.011719 120.089844 357.949219 115.597656 357.480469 110.90625 C 357.078125 106.816406 356.007812 102.929688 353.53125 99.578125 C 349.714844 94.347656 345.292969 89.65625 339.671875 86.304688 C 331.636719 81.476562 323.066406 77.65625 314.429688 74.035156 C 310.347656 72.292969 306.128906 70.886719 301.777344 70.082031 C 297.824219 69.410156 293.808594 69.277344 289.859375 69.144531 C 289.390625 69.144531 288.988281 69.210938 288.585938 69.34375 C 283.296875 71.488281 278.410156 74.304688 274.527344 78.59375 C 270.644531 82.820312 267.765625 87.78125 265.019531 92.808594 C 263.746094 95.152344 262.945312 97.632812 262.410156 100.25 C 262.007812 102.527344 261.671875 104.875 261.671875 107.21875 C 261.671875 110.972656 261.136719 114.726562 260.398438 118.414062 C 259.730469 121.699219 258.726562 124.851562 258.058594 128.066406 C 256.71875 134.234375 256.316406 140.539062 255.980469 146.839844 C 255.578125 153.808594 255.445312 160.78125 255.042969 167.753906 C 254.375 178.613281 254.105469 189.40625 254.039062 200.265625 C 253.90625 215.351562 253.90625 230.433594 253.839844 245.582031 C 253.839844 251.414062 253.636719 257.179688 253.167969 263.011719 C 252.902344 266.164062 252.632812 269.3125 252.769531 272.53125 C 252.902344 275.28125 253.503906 277.894531 254.777344 280.242188 C 255.914062 282.453125 257.65625 284.261719 259.664062 285.804688 C 264.148438 289.292969 268.835938 292.644531 273.65625 295.660156 C 275.597656 296.867188 277.671875 297.738281 279.480469 299.011719 C 286.710938 304.105469 293.808594 309.335938 300.839844 314.699219 C 304.386719 317.378906 307.933594 320.0625 311.820312 322.207031 C 321.59375 327.433594 331.503906 332.53125 341.746094 336.953125 C 356.542969 343.390625 371.203125 350.226562 385.734375 357.199219 C 389.816406 359.144531 393.96875 360.953125 397.25 364.304688 C 398.789062 365.847656 400.527344 367.1875 402.003906 368.796875 C 404.078125 371.074219 406.152344 373.355469 408.429688 375.433594 C 412.113281 378.71875 416.128906 381.464844 420.882812 382.941406 C 425.167969 384.28125 429.386719 385.824219 433.46875 387.699219 C 435.34375 388.574219 437.351562 389.308594 439.292969 390.046875 C 441.167969 390.785156 442.976562 390.582031 444.851562 389.511719 C 444.179688 388.90625 443.378906 388.707031 442.640625 388.304688 C 438.421875 386.292969 434.339844 384.015625 429.855469 382.539062 C 429.652344 382.472656 429.386719 382.339844 429.183594 382.203125 C 428.917969 382.003906 428.714844 381.667969 428.851562 381.332031 C 428.984375 380.996094 429.316406 380.796875 429.652344 380.863281 C 430.1875 380.996094 430.722656 381.132812 431.191406 381.265625 C 434.539062 382.40625 437.6875 383.878906 440.832031 385.488281 C 443.914062 387.03125 446.992188 388.371094 450.207031 389.578125 C 451.277344 389.980469 452.417969 390.316406 453.554688 390.515625 C 455.160156 390.785156 456.566406 390.449219 457.773438 389.308594 C 458.507812 388.640625 458.507812 388.371094 457.707031 387.769531 C 456.566406 386.964844 455.429688 386.226562 454.359375 385.355469 C 449.738281 381.867188 445.050781 378.382812 439.898438 375.632812 C 439.695312 375.566406 439.5625 375.433594 439.429688 375.300781 C 439.027344 375.03125 438.757812 374.628906 439.027344 374.160156 C 439.359375 373.625 439.828125 373.691406 440.296875 373.890625 C 440.5 374.027344 440.699219 374.160156 440.96875 374.226562 C 445.253906 376.4375 449.203125 379.121094 453.019531 382.003906 C 455.226562 383.679688 457.503906 385.355469 459.78125 386.894531 C 460.316406 387.296875 460.917969 387.632812 461.523438 387.902344 C 463.0625 388.574219 464.535156 387.632812 464.601562 385.957031 C 464.667969 385.21875 464.402344 384.484375 464.199219 383.8125 C 463.597656 382.070312 462.726562 380.527344 461.589844 379.121094 C 456.96875 373.554688 452.015625 368.328125 446.125 364.035156 C 445.789062 363.835938 445.453125 363.632812 445.253906 363.234375 C 445.050781 362.964844 445.050781 362.695312 445.253906 362.429688 C 445.453125 362.160156 445.722656 362.027344 445.988281 362.09375 C 446.324219 362.160156 446.589844 362.359375 446.859375 362.5625 C 448.464844 363.632812 450.074219 364.773438 451.480469 366.113281 C 455.695312 370.136719 460.449219 373.488281 464.871094 377.242188 C 465.738281 377.980469 466.675781 378.582031 467.816406 378.851562 C 469.421875 379.253906 470.492188 378.515625 470.761719 376.90625 C 470.960938 375.5 470.628906 374.226562 469.957031 372.953125 C 469.289062 371.746094 468.351562 370.742188 467.414062 369.734375 C 466.140625 368.394531 464.871094 367.054688 463.730469 365.578125 C 460.851562 361.824219 457.707031 358.273438 454.425781 354.851562 C 450.007812 350.226562 445.988281 345.265625 442.507812 339.835938 C 441.972656 339.03125 441.4375 338.160156 441.101562 337.289062 C 440.902344 336.820312 440.832031 336.285156 441.371094 336.015625 C 441.90625 335.746094 442.308594 336.015625 442.574219 336.484375 C 442.976562 337.15625 443.378906 337.824219 443.78125 338.496094 C 445.855469 341.648438 444.917969 341.042969 448.535156 341.714844 C 451.8125 342.316406 455.160156 342.921875 458.574219 342.71875 C 461.992188 342.519531 465.339844 341.980469 468.484375 340.441406 C 470.023438 339.703125 471.164062 338.496094 471.898438 336.953125 C 473.039062 334.742188 471.496094 332.128906 468.953125 332.058594 C 467.882812 332.058594 466.8125 332.128906 465.738281 332.195312 C 462.460938 332.261719 459.179688 332.394531 455.964844 331.726562 C 452.347656 331.054688 448.667969 330.316406 445.117188 329.3125 C 443.511719 328.84375 441.839844 328.441406 440.164062 328.105469 C 436.816406 327.433594 433.46875 326.699219 430.054688 326.832031 C 427.109375 326.964844 424.097656 327.300781 421.148438 327.636719 C 417.46875 328.039062 413.785156 328.375 410.101562 329.042969 C 406.824219 329.648438 403.476562 329.78125 400.195312 329.179688 C 394.4375 328.171875 388.945312 326.226562 383.722656 323.679688 C 376.292969 319.992188 368.996094 316.105469 361.832031 311.816406 C 355.136719 307.792969 348.574219 303.570312 342.214844 299.078125 C 336.65625 295.125 331.902344 290.230469 327.152344 285.46875 C 320.121094 278.429688 312.824219 271.792969 304.722656 265.960938 C 301.777344 263.882812 298.964844 261.605469 296.351562 259.058594 C 295.484375 258.1875 294.945312 257.113281 294.945312 255.90625 C 294.878906 252.355469 294.8125 248.800781 295.148438 245.25 C 295.617188 240.21875 296.753906 235.328125 297.558594 230.367188 C 298.292969 225.605469 299.230469 220.914062 300.035156 216.222656 C 301.039062 209.988281 302.042969 203.683594 303.449219 197.519531 C 305.257812 189.339844 307.066406 181.09375 308.605469 172.847656 C 309.609375 167.417969 310.546875 161.988281 311.683594 156.558594 C 312.621094 152.269531 313.960938 148.046875 314.765625 143.753906 C 314.898438 143.21875 314.964844 142.683594 315.097656 142.214844 C 315.234375 141.742188 315.367188 141.140625 316.035156 141.339844 C 316.570312 141.476562 316.4375 142.011719 316.371094 142.480469 C 316.105469 143.820312 315.902344 145.164062 315.566406 146.503906 C 314.027344 153.140625 312.355469 159.710938 311.214844 166.414062 C 310.816406 169.5625 310.210938 172.847656 309.542969 176.335938 Z M 258.058594 120.15625 C 258.457031 119.488281 258.527344 118.683594 258.660156 117.945312 C 259.394531 115.0625 259.664062 112.179688 259.597656 109.230469 C 259.53125 107.21875 259.394531 105.140625 259.664062 103.128906 C 260.199219 97.566406 261.605469 92.269531 263.816406 87.175781 C 266.425781 81.144531 269.972656 75.644531 274.527344 70.820312 C 279.949219 65.054688 286.242188 60.5625 293.074219 56.675781 C 299.300781 53.121094 305.390625 49.570312 311.214844 45.414062 C 315.96875 41.992188 320.386719 38.304688 324.941406 34.6875 C 333.445312 28.050781 341.210938 20.675781 347.773438 12.09375 C 351.453125 7.203125 355.269531 2.308594 358.28125 -3.054688 C 358.550781 -3.523438 358.820312 -4.0625 359.488281 -3.859375 C 360.023438 -3.726562 360.15625 -3.121094 359.824219 -2.386719 C 359.421875 -1.3125 358.820312 -0.375 358.214844 0.566406 C 356.339844 3.515625 354.265625 6.398438 352.191406 9.210938 C 347.636719 15.378906 342.816406 21.210938 337.261719 26.507812 C 333.308594 30.261719 328.957031 33.613281 324.742188 37.101562 C 316.640625 43.738281 308.269531 49.972656 299.164062 55.199219 C 295.617188 57.210938 292.136719 59.15625 288.71875 61.367188 C 279.28125 67.46875 271.582031 75.242188 266.558594 85.433594 C 266.292969 85.902344 265.957031 86.4375 265.957031 87.042969 C 266.828125 85.835938 267.632812 84.5625 268.5 83.289062 C 270.777344 79.867188 273.320312 76.785156 276.46875 74.171875 C 281.890625 69.8125 288.117188 67.132812 294.746094 65.253906 C 297.625 64.449219 300.570312 64.046875 303.382812 63.109375 C 307.800781 61.636719 312.152344 60.09375 316.371094 58.214844 C 328.019531 53.1875 339.203125 47.492188 348.707031 38.777344 C 354.464844 33.546875 360.359375 28.316406 365.980469 22.886719 C 374.953125 14.242188 383.457031 5.125 390.957031 -4.863281 C 393.03125 -7.613281 394.90625 -10.429688 397.113281 -13.042969 C 402.203125 -19.078125 406.488281 -25.644531 410.371094 -32.484375 C 412.246094 -35.703125 413.71875 -39.121094 414.722656 -42.671875 C 415.726562 -46.160156 416.867188 -49.578125 417.335938 -53.199219 C 417.871094 -57.488281 418.941406 -61.644531 419.878906 -65.800781 C 420.347656 -67.945312 420.414062 -70.089844 419.476562 -72.101562 C 418.136719 -75.050781 416.328125 -77.734375 414.054688 -80.011719 C 409.234375 -84.839844 403.476562 -88.324219 397.71875 -91.878906 C 393.367188 -94.558594 388.8125 -96.773438 384.191406 -98.917969 C 377.632812 -101.933594 371.070312 -104.949219 364.175781 -107.097656 C 358.886719 -108.773438 353.394531 -109.441406 347.90625 -109.242188 C 345.828125 -109.175781 343.753906 -108.773438 341.679688 -108.371094 C 332.640625 -106.695312 324.808594 -102.804688 318.113281 -96.503906 C 312.621094 -91.34375 308.402344 -85.175781 304.988281 -78.472656 C 301.242188 -71.03125 298.226562 -63.320312 295.617188 -55.410156 C 292 -44.484375 289.859375 -33.222656 287.714844 -21.960938 C 286.042969 -13.175781 285.304688 -4.261719 284.503906 4.652344 C 283.898438 11.289062 282.894531 17.859375 281.089844 24.230469 C 278.277344 34.351562 274.59375 44.207031 270.507812 53.859375 C 267.898438 60.027344 265.152344 66.058594 261.40625 71.691406 C 258.324219 76.382812 256.046875 81.410156 254.640625 86.90625 C 253.570312 91.265625 252.96875 95.757812 252.632812 100.25 C 252.300781 105.945312 252.433594 111.578125 253.234375 117.207031 C 253.703125 120.425781 254.640625 123.511719 255.246094 126.660156 C 255.3125 127.128906 255.246094 127.734375 255.648438 128.269531 C 256.113281 127.597656 256.046875 126.996094 256.046875 126.390625 C 256.046875 122.707031 255.648438 119.085938 255.578125 115.398438 C 255.511719 110.4375 255.511719 105.410156 256.046875 100.449219 C 256.652344 94.683594 258.058594 89.054688 261.003906 84.023438 C 266.023438 75.378906 272.117188 67.601562 280.015625 61.367188 C 285.574219 57.007812 291.199219 52.652344 296.554688 48.027344 C 306.460938 39.445312 315.835938 30.328125 324.875 20.808594 C 330.097656 15.246094 335.320312 9.683594 339.871094 3.582031 C 344.15625 -2.183594 348.171875 -8.082031 351.65625 -14.453125 C 351.921875 -14.988281 352.191406 -15.589844 352.726562 -15.992188 C 352.992188 -16.195312 353.328125 -16.328125 353.664062 -16.058594 C 353.996094 -15.859375 354.066406 -15.523438 353.929688 -15.121094 C 353.863281 -14.921875 353.796875 -14.785156 353.664062 -14.585938 C 348.777344 -5.199219 342.816406 3.378906 335.988281 11.425781 C 331.035156 17.257812 325.746094 22.6875 320.457031 28.183594 C 310.679688 38.238281 300.4375 47.625 289.523438 56.339844 C 285.839844 59.289062 282.023438 62.105469 278.410156 65.1875 C 272.652344 70.214844 268.097656 76.25 264.015625 82.617188 C 260.265625 88.449219 258.457031 94.816406 257.855469 101.65625 C 257.320312 107.488281 257.589844 113.253906 257.65625 119.085938 C 257.722656 119.421875 257.589844 119.890625 258.058594 120.15625 Z M 421.285156 221.046875 C 421.617188 221.585938 422.15625 221.917969 422.691406 222.253906 C 424.964844 223.730469 427.445312 224.132812 430.054688 224.199219 C 433.46875 224.265625 436.617188 223.328125 439.628906 221.917969 C 443.644531 220.109375 447.527344 217.898438 451.746094 216.421875 C 457.773438 214.277344 463.933594 212.535156 469.957031 210.523438 C 470.160156 210.457031 470.359375 210.457031 470.558594 210.390625 C 470.894531 210.320312 471.230469 210.457031 471.429688 210.792969 C 471.632812 211.195312 471.496094 211.597656 471.097656 211.796875 C 470.695312 212.066406 470.226562 212.265625 469.757812 212.46875 C 469.019531 212.800781 468.21875 213.070312 467.613281 213.675781 C 464.199219 217.226562 459.914062 219.507812 455.5625 221.585938 C 453.554688 222.523438 451.546875 223.261719 449.402344 223.863281 C 448.199219 224.199219 446.992188 224.734375 446.125 225.742188 C 445.253906 226.746094 445.453125 227.617188 446.589844 228.222656 C 447.058594 228.488281 447.527344 228.554688 447.996094 228.554688 C 448.800781 228.554688 449.671875 228.488281 450.476562 228.355469 C 456.03125 227.617188 461.253906 225.742188 466.410156 223.59375 C 470.089844 222.054688 473.507812 220.175781 476.855469 218.03125 C 479.265625 216.488281 481.070312 214.476562 482.542969 212.132812 C 484.152344 209.585938 485.558594 206.902344 486.828125 204.15625 C 487.363281 203.082031 487.832031 202.007812 488.636719 201.136719 C 489.777344 199.929688 490.578125 198.457031 491.71875 197.25 C 492.253906 196.648438 492.65625 196.042969 492.988281 195.304688 C 493.792969 193.226562 494.527344 191.082031 494.996094 188.871094 C 495.734375 185.382812 495.800781 181.898438 494.261719 178.546875 C 493.257812 176.265625 491.851562 174.1875 490.242188 172.3125 C 488.769531 170.570312 486.898438 169.496094 484.6875 168.894531 C 483.683594 168.625 482.613281 168.355469 481.539062 168.691406 C 480.269531 169.09375 479.0625 169.027344 477.792969 168.960938 C 475.246094 168.757812 472.769531 168.625 470.160156 168.691406 C 467.75 168.757812 465.40625 168.691406 462.996094 168.625 C 458.574219 168.425781 454.222656 168.425781 449.804688 168.828125 C 448.066406 168.960938 446.660156 169.699219 445.519531 171.039062 C 440.902344 176.601562 435.613281 181.496094 429.855469 185.988281 C 429.050781 186.589844 428.382812 187.261719 427.710938 188 C 426.4375 189.472656 426.371094 190.277344 428.851562 190.949219 C 429.386719 191.082031 429.855469 190.949219 430.253906 190.746094 C 434.40625 189.070312 438.421875 187.261719 442.039062 184.578125 C 444.71875 182.570312 447.328125 180.421875 449.671875 177.945312 C 449.9375 177.609375 450.273438 177.339844 450.609375 177.003906 C 450.945312 176.667969 451.414062 176.535156 451.8125 176.871094 C 452.28125 177.273438 452.148438 177.742188 451.746094 178.144531 C 451.546875 178.34375 451.34375 178.546875 451.144531 178.816406 C 449.003906 181.09375 446.726562 183.238281 444.25 185.183594 C 441.839844 187.058594 439.359375 188.804688 436.550781 190.011719 C 433.601562 191.285156 430.65625 192.558594 427.644531 193.695312 C 424.429688 194.972656 421.351562 196.378906 418.472656 198.1875 C 416.195312 199.597656 413.917969 201.070312 411.976562 202.882812 C 410.839844 203.886719 409.902344 205.09375 409.433594 206.566406 C 408.832031 208.644531 409.96875 209.988281 412.042969 209.652344 C 412.78125 209.519531 413.449219 209.382812 414.1875 209.117188 C 417 208.242188 419.675781 207.105469 422.355469 205.898438 C 427.84375 203.417969 433.335938 200.804688 438.960938 198.589844 C 441.972656 197.382812 444.851562 195.976562 447.664062 194.5 C 450.945312 192.757812 454.292969 191.214844 457.773438 189.808594 C 458.039062 189.675781 458.308594 189.609375 458.574219 189.472656 C 458.976562 189.339844 459.378906 189.40625 459.582031 189.808594 C 459.847656 190.210938 459.714844 190.546875 459.445312 190.882812 C 459.042969 191.285156 458.574219 191.484375 458.039062 191.6875 C 454.425781 193.160156 450.875 194.835938 447.460938 196.648438 C 445.453125 197.652344 443.511719 198.726562 441.4375 199.597656 C 435.144531 202.144531 428.984375 204.960938 422.824219 207.773438 C 419.878906 209.117188 416.867188 210.457031 413.652344 211.195312 C 412.113281 211.527344 411.242188 212.265625 410.773438 213.675781 C 410.707031 213.875 410.640625 214.007812 410.503906 214.210938 C 409.703125 216.019531 410.035156 217.429688 411.710938 218.566406 C 413.519531 219.839844 415.460938 220.378906 417.667969 220.042969 C 419.074219 219.839844 420.414062 219.371094 421.753906 218.902344 C 427.84375 216.757812 433.671875 214.078125 439.5625 211.527344 C 444.316406 209.449219 449.003906 207.039062 453.753906 204.890625 C 458.308594 202.8125 462.929688 201.003906 467.816406 199.929688 C 468.148438 199.863281 468.484375 199.796875 468.820312 199.796875 C 469.15625 199.796875 469.488281 199.929688 469.625 200.332031 C 469.757812 200.734375 469.625 201.136719 469.222656 201.339844 C 468.753906 201.539062 468.285156 201.675781 467.816406 201.808594 C 462.390625 203.148438 457.238281 205.292969 452.214844 207.640625 C 446.523438 210.320312 440.96875 213.203125 435.078125 215.484375 C 430.589844 217.226562 426.304688 219.507812 421.617188 220.847656 C 421.484375 220.710938 421.351562 220.78125 421.285156 221.046875 Z M 442.640625 142.28125 C 442.910156 140.203125 442.574219 138.257812 442.441406 136.3125 C 442.171875 132.558594 441.300781 128.871094 439.964844 125.320312 C 438.625 121.832031 436.75 118.683594 434.207031 115.867188 C 430.253906 111.511719 426.304688 107.019531 421.351562 103.734375 C 414.921875 99.375 408.628906 94.816406 402.003906 90.796875 C 398.855469 88.917969 395.84375 86.839844 392.761719 84.828125 C 386.335938 80.472656 379.976562 76.046875 373.480469 71.757812 C 370.066406 69.476562 366.917969 67.066406 363.972656 64.183594 C 363.773438 64.046875 363.707031 63.644531 363.304688 63.847656 C 363.304688 63.980469 363.304688 64.117188 363.371094 64.25 C 364.910156 68.136719 366.785156 71.824219 369.796875 74.839844 C 370.199219 75.242188 370.535156 75.578125 370.871094 76.046875 C 371.203125 76.382812 371.273438 76.851562 370.9375 77.253906 C 370.535156 77.65625 370.132812 77.589844 369.730469 77.253906 C 369.195312 76.785156 368.59375 76.316406 368.125 75.78125 C 365.445312 73.097656 363.707031 69.8125 362.234375 66.394531 C 359.488281 59.824219 359.355469 52.921875 360.292969 45.949219 C 360.625 43.601562 361.296875 41.257812 361.964844 38.976562 C 362.097656 38.375 362.097656 38.039062 361.496094 37.636719 C 360.15625 36.832031 358.886719 35.960938 357.613281 35.023438 C 357.011719 34.621094 356.609375 34.621094 356.074219 35.15625 C 354.601562 36.496094 353.128906 37.703125 351.65625 38.976562 C 346.835938 43.132812 341.8125 46.953125 336.324219 50.238281 C 327.21875 55.667969 317.644531 59.960938 307.734375 63.511719 C 307.199219 63.714844 306.597656 63.78125 306.128906 64.25 C 306.53125 64.316406 306.863281 64.449219 307.199219 64.519531 C 310.144531 64.988281 312.957031 65.992188 315.703125 67.066406 C 320.054688 68.808594 324.203125 70.953125 328.488281 72.832031 C 334.449219 75.511719 340.207031 78.59375 345.964844 81.746094 C 351.253906 84.628906 356.675781 87.109375 362.234375 89.457031 C 364.976562 90.59375 367.65625 91.800781 370.535156 92.738281 C 374.753906 94.082031 378.972656 95.488281 383.257812 96.761719 C 387.539062 98.035156 391.625 99.980469 395.910156 101.253906 C 402.203125 103.199219 407.960938 106.28125 413.117188 110.4375 C 415.726562 112.515625 418.339844 114.527344 420.949219 116.539062 C 424.632812 119.355469 427.84375 122.570312 430.722656 126.191406 C 434.539062 131.019531 438.023438 136.113281 441.570312 141.140625 C 441.839844 141.542969 442.039062 142.011719 442.640625 142.28125 Z M 419.878906 -56.550781 C 419.746094 -56.148438 419.675781 -55.8125 419.542969 -55.410156 C 418.671875 -51.859375 417.800781 -48.304688 416.867188 -44.75 C 415.058594 -38.117188 412.582031 -31.746094 408.832031 -25.980469 C 403.542969 -18.003906 397.851562 -10.296875 391.691406 -2.921875 C 385.734375 4.25 379.574219 11.222656 373.214844 18.0625 C 368.527344 23.15625 363.90625 28.316406 358.683594 32.945312 C 358.617188 33.011719 358.550781 33.144531 358.417969 33.34375 C 358.550781 33.480469 358.617188 33.613281 358.683594 33.679688 C 363.4375 37.101562 368.460938 39.914062 373.816406 42.261719 C 378.367188 44.273438 383.1875 45.144531 388.210938 44.742188 C 393.433594 44.339844 396.847656 39.578125 396.246094 34.886719 C 396.109375 34.148438 396.109375 33.34375 396.175781 32.542969 C 396.246094 30.730469 396.175781 30.796875 394.769531 30.597656 C 394.503906 30.53125 394.234375 30.394531 393.96875 30.261719 C 393.433594 29.992188 393.097656 29.589844 393.296875 28.988281 C 393.433594 28.316406 393.902344 27.984375 394.570312 27.984375 C 395.375 27.984375 396.175781 28.117188 396.78125 28.652344 C 397.25 29.054688 397.71875 29.054688 398.253906 28.921875 C 399.324219 28.652344 400.0625 28.050781 400.394531 26.910156 C 400.597656 26.171875 400.730469 25.503906 400.796875 24.765625 C 400.863281 23.894531 400.796875 23.757812 399.859375 23.691406 C 398.988281 23.691406 398.117188 23.691406 397.25 23.355469 C 395.910156 22.886719 394.636719 22.820312 393.230469 22.953125 C 391.355469 23.222656 389.816406 22.484375 388.277344 21.480469 C 387.875 21.210938 387.609375 20.875 387.875 20.40625 C 388.144531 19.9375 388.613281 19.9375 389.011719 20.074219 C 389.214844 20.140625 389.414062 20.207031 389.550781 20.339844 C 391.089844 21.414062 392.761719 21.414062 394.4375 21.144531 C 394.90625 21.078125 395.375 21.011719 395.910156 21.144531 C 397.582031 21.75 399.324219 21.882812 401.066406 21.882812 C 401.933594 21.882812 402.539062 21.679688 403.074219 21.011719 C 403.339844 20.675781 403.609375 20.339844 403.875 20.003906 C 404.679688 19 404.882812 17.925781 404.011719 16.789062 C 402.871094 15.246094 402.671875 13.636719 403.476562 11.828125 C 403.808594 11.089844 404.210938 10.621094 404.949219 10.351562 C 406.957031 9.546875 408.832031 8.609375 410.839844 7.671875 C 412.042969 7.132812 413.183594 6.53125 414.121094 5.527344 C 415.257812 4.25 415.660156 2.308594 414.855469 0.898438 C 412.378906 -3.324219 411.308594 -8.082031 410.304688 -12.777344 C 410.035156 -13.980469 409.96875 -15.324219 410.101562 -16.597656 C 410.503906 -21.355469 412.378906 -25.578125 414.925781 -29.46875 C 415.460938 -30.273438 415.929688 -31.144531 416.328125 -32.015625 C 417.9375 -35.96875 418.738281 -40.125 419.542969 -44.351562 C 420.347656 -48.371094 420.347656 -52.460938 419.878906 -56.550781 Z M 329.292969 285.136719 C 329.425781 285.066406 329.5625 284.933594 329.695312 284.867188 C 329.828125 284.195312 329.828125 283.527344 329.828125 282.855469 C 329.960938 279.101562 329.960938 275.347656 330.164062 271.59375 C 330.566406 264.421875 329.960938 257.316406 328.691406 250.277344 C 327.753906 244.914062 325.746094 239.886719 324.203125 234.65625 C 322.195312 227.886719 318.914062 221.785156 314.964844 215.953125 C 311.683594 211.058594 307.867188 206.636719 304.789062 201.605469 C 304.65625 201.40625 304.519531 201.339844 304.320312 201.339844 C 304.050781 201.742188 304.050781 202.277344 303.917969 202.746094 C 302.847656 208.175781 302.042969 213.605469 301.105469 219.035156 C 299.835938 226.476562 298.496094 233.851562 297.222656 241.226562 C 296.488281 245.785156 296.285156 250.34375 296.554688 254.96875 C 296.621094 256.109375 296.957031 256.914062 297.757812 257.648438 C 299.96875 259.726562 302.246094 261.738281 304.722656 263.480469 C 312.554688 269.113281 319.851562 275.347656 326.683594 282.183594 C 327.550781 283.191406 328.421875 284.195312 329.292969 285.136719 Z M 407.425781 89.121094 C 406.355469 87.578125 405.417969 85.96875 404.480469 84.359375 C 402.136719 80.339844 399.792969 76.25 397.917969 71.957031 C 396.378906 68.605469 394.167969 65.859375 391.757812 63.109375 C 390.285156 61.5 388.613281 60.226562 386.601562 59.355469 C 380.644531 56.675781 374.417969 55.535156 367.992188 55.871094 C 365.980469 56.003906 364.039062 56.339844 362.03125 55.9375 C 361.832031 56.808594 361.964844 57.34375 362.636719 57.679688 C 363.371094 58.082031 364.039062 58.617188 364.777344 58.953125 C 366.988281 59.960938 369.0625 61.300781 370.9375 62.839844 C 372.945312 64.449219 374.953125 66.125 377.03125 67.667969 C 385.597656 74.105469 394.234375 80.339844 402.941406 86.503906 C 404.277344 87.511719 405.75 88.382812 407.425781 89.121094 Z M 422.289062 -67.34375 C 421.617188 -65.132812 421.285156 -63.1875 421.550781 -61.109375 C 422.488281 -53.867188 422.222656 -46.695312 420.546875 -39.589844 C 419.542969 -35.300781 418.003906 -31.210938 415.660156 -27.457031 C 414.1875 -25.042969 413.25 -22.429688 412.511719 -19.746094 C 411.242188 -15.1875 412.445312 -10.765625 413.988281 -6.339844 C 414.523438 -7.277344 415.058594 -8.148438 415.59375 -9.019531 C 417 -11.167969 418.203125 -13.378906 419.207031 -15.726562 C 421.6875 -21.558594 423.492188 -27.523438 425.035156 -33.691406 C 425.769531 -36.507812 426.171875 -39.457031 426.371094 -42.339844 C 426.839844 -49.445312 425.972656 -56.347656 423.894531 -63.1875 C 423.359375 -64.460938 423.023438 -65.867188 422.289062 -67.34375 Z M 382.183594 46.351562 C 375.222656 45.613281 369.597656 42.128906 363.640625 39.042969 C 363.171875 41.054688 362.703125 42.796875 362.367188 44.609375 C 361.832031 47.289062 361.5625 50.039062 361.628906 52.785156 C 361.628906 53.992188 361.898438 54.195312 363.035156 54.394531 C 363.773438 54.527344 364.507812 54.527344 365.246094 54.394531 C 367.253906 54.128906 369.328125 53.992188 371.339844 53.992188 C 371.808594 53.992188 372.207031 53.992188 372.609375 53.792969 C 376.425781 52.25 379.574219 49.835938 382.183594 46.351562 Z M 443.445312 400.304688 C 446.859375 397.757812 450.140625 395.207031 453.152344 392.191406 C 451.144531 391.722656 449.402344 391.121094 447.664062 390.382812 C 447.058594 390.113281 446.792969 390.449219 446.324219 390.652344 C 444.179688 391.925781 441.90625 392.59375 439.359375 391.855469 C 439.09375 391.789062 438.824219 391.65625 438.421875 391.855469 C 440.296875 394.472656 441.90625 397.21875 443.445312 400.304688 Z M 451.277344 396.148438 C 450.875 396.082031 450.742188 396.28125 450.542969 396.414062 C 448.734375 398.023438 446.859375 399.5 444.984375 400.90625 C 444.046875 401.644531 444.046875 401.644531 444.515625 402.71875 C 445.789062 405.800781 447.128906 408.816406 448.398438 411.832031 C 448.464844 412.035156 448.601562 412.304688 449.003906 412.503906 C 449.9375 407.074219 450.808594 401.644531 451.277344 396.148438 Z M 451.277344 396.148438 " fill-opacity="1" fill-rule="nonzero"/></g></svg>