<svg xmlns="http://www.w3.org/2000/svg" xmlns:xlink="http://www.w3.org/1999/xlink" width="1024" zoomAndPan="magnify" viewBox="0 0 768 576" height="768" preserveAspectRatio="xMidYMid meet" version="1.0"><path fill="#000000" d="M 392.203125 192.742188 C 393.761719 192.738281 395.316406 192.664062 396.867188 192.515625 C 398.417969 192.367188 399.960938 192.144531 401.492188 191.855469 C 403.023438 191.5625 404.535156 191.203125 406.035156 190.769531 C 407.53125 190.339844 409.007812 189.839844 410.457031 189.269531 C 411.910156 188.703125 413.332031 188.066406 414.726562 187.367188 C 416.117188 186.667969 417.476562 185.902344 418.800781 185.078125 C 420.121094 184.25 421.402344 183.367188 422.644531 182.421875 C 423.886719 181.476562 425.078125 180.476562 426.226562 179.417969 C 427.375 178.363281 428.472656 177.257812 429.519531 176.097656 C 430.566406 174.941406 431.554688 173.738281 432.492188 172.488281 C 433.425781 171.238281 434.300781 169.949219 435.117188 168.617188 C 435.933594 167.289062 436.6875 165.921875 437.378906 164.523438 C 438.066406 163.121094 438.691406 161.691406 439.25 160.234375 C 439.804688 158.777344 440.296875 157.292969 440.71875 155.792969 C 441.136719 154.289062 441.488281 152.765625 441.769531 151.230469 C 442.050781 149.695312 442.261719 148.148438 442.398438 146.59375 C 442.429688 146.09375 442.410156 145.59375 442.339844 145.097656 C 442.265625 144.601562 442.140625 144.121094 441.964844 143.648438 C 441.789062 143.179688 441.566406 142.734375 441.292969 142.3125 C 441.023438 141.890625 440.710938 141.503906 440.355469 141.148438 C 440.003906 140.792969 439.613281 140.480469 439.195312 140.210938 C 438.773438 139.9375 438.328125 139.714844 437.859375 139.539062 C 437.390625 139.359375 436.910156 139.238281 436.414062 139.164062 C 435.917969 139.089844 435.421875 139.070312 434.921875 139.101562 L 434.75 139.113281 C 433.9375 139.171875 433.15625 139.367188 432.410156 139.691406 C 431.664062 140.019531 430.992188 140.460938 430.398438 141.019531 C 429.800781 141.574219 429.316406 142.214844 428.9375 142.9375 C 428.5625 143.664062 428.316406 144.429688 428.203125 145.238281 C 427.425781 149.882812 424.363281 156.28125 413.855469 168.046875 C 412.472656 169.679688 410.933594 171.144531 409.238281 172.441406 C 407.542969 173.742188 405.726562 174.847656 403.792969 175.753906 C 401.859375 176.664062 399.851562 177.355469 397.769531 177.832031 C 395.6875 178.308594 393.582031 178.558594 391.445312 178.578125 C 390.699219 178.5625 389.957031 178.527344 389.214844 178.464844 C 388.472656 178.40625 387.730469 178.320312 386.996094 178.214844 C 386.257812 178.109375 385.523438 177.980469 384.792969 177.828125 C 384.066406 177.675781 383.339844 177.503906 382.621094 177.308594 C 381.902344 177.109375 381.191406 176.890625 380.488281 176.652344 C 379.78125 176.410156 379.085938 176.148438 378.394531 175.867188 C 377.707031 175.582031 377.027344 175.28125 376.355469 174.953125 C 375.6875 174.628906 375.027344 174.285156 374.375 173.917969 C 373.726562 173.550781 373.089844 173.167969 372.464844 172.761719 C 371.839844 172.355469 371.226562 171.929688 370.628906 171.488281 C 370.027344 171.046875 369.441406 170.582031 368.871094 170.105469 C 368.300781 169.625 367.746094 169.128906 367.203125 168.617188 C 366.664062 168.101562 366.140625 167.570312 365.632812 167.027344 C 365.125 166.480469 364.632812 165.917969 364.160156 165.34375 C 363.6875 164.765625 363.230469 164.175781 362.792969 163.570312 C 362.355469 162.96875 361.9375 162.351562 361.539062 161.71875 C 361.140625 161.089844 360.761719 160.449219 360.402344 159.792969 C 360.042969 159.140625 359.703125 158.476562 359.382812 157.800781 C 359.0625 157.128906 358.765625 156.445312 358.488281 155.75 C 358.210938 155.058594 357.957031 154.359375 357.722656 153.648438 C 357.488281 152.941406 357.277344 152.226562 357.089844 151.503906 C 356.898438 150.78125 356.730469 150.054688 356.585938 149.324219 C 356.441406 148.589844 356.316406 147.855469 356.21875 147.113281 C 356.117188 146.375 356.042969 145.632812 355.988281 144.890625 C 355.933594 144.144531 355.902344 143.398438 355.894531 142.652344 C 355.882812 141.90625 355.898438 141.160156 355.9375 140.414062 C 355.972656 139.667969 356.035156 138.925781 356.117188 138.183594 C 356.199219 137.441406 356.304688 136.703125 356.433594 135.96875 C 356.5625 135.234375 356.714844 134.503906 356.886719 133.777344 C 357.0625 133.050781 357.257812 132.332031 357.476562 131.617188 C 357.691406 130.902344 357.933594 130.199219 358.195312 129.5 C 358.453125 128.800781 358.738281 128.109375 359.039062 127.425781 C 359.34375 126.746094 359.667969 126.074219 360.011719 125.414062 C 360.359375 124.75 360.722656 124.101562 361.109375 123.460938 C 361.492188 122.824219 361.898438 122.195312 362.320312 121.582031 C 362.742188 120.96875 363.1875 120.367188 363.644531 119.78125 C 364.105469 119.195312 364.585938 118.621094 365.078125 118.066406 C 365.574219 117.507812 366.085938 116.964844 366.617188 116.441406 C 367.144531 115.914062 367.691406 115.40625 368.25 114.914062 C 368.808594 114.421875 369.382812 113.949219 369.972656 113.492188 C 370.5625 113.035156 371.164062 112.597656 371.78125 112.175781 C 372.398438 111.757812 373.027344 111.359375 373.667969 110.976562 C 374.308594 110.597656 374.960938 110.238281 375.621094 109.894531 C 376.285156 109.554688 376.957031 109.234375 377.640625 108.9375 C 378.324219 108.640625 379.015625 108.359375 379.714844 108.105469 C 380.414062 107.847656 381.121094 107.613281 381.835938 107.402344 C 382.550781 107.191406 383.269531 107 383.996094 106.832031 C 384.71875 106.664062 385.449219 106.519531 386.183594 106.394531 C 386.921875 106.273438 387.65625 106.171875 388.398438 106.09375 C 389.140625 106.015625 389.882812 105.960938 390.625 105.929688 C 391.371094 105.898438 392.113281 105.890625 392.859375 105.90625 C 393.605469 105.917969 394.347656 105.957031 395.089844 106.019531 C 395.832031 106.078125 396.574219 106.160156 397.308594 106.265625 C 398.046875 106.375 398.78125 106.5 399.511719 106.652344 C 400.238281 106.804688 400.964844 106.976562 401.683594 107.175781 C 402.402344 107.371094 403.113281 107.585938 403.816406 107.828125 C 404.523438 108.066406 405.21875 108.328125 405.910156 108.613281 C 406.597656 108.894531 407.277344 109.199219 407.949219 109.523438 C 408.621094 109.847656 409.28125 110.195312 409.929688 110.558594 C 410.578125 110.925781 411.214844 111.3125 411.84375 111.714844 C 412.46875 112.121094 413.078125 112.546875 413.679688 112.988281 C 414.277344 113.429688 414.863281 113.890625 415.4375 114.371094 C 416.007812 114.851562 416.5625 115.347656 417.105469 115.859375 C 417.644531 116.371094 418.167969 116.902344 418.675781 117.449219 C 418.996094 117.777344 419.34375 118.074219 419.71875 118.335938 C 420.097656 118.597656 420.496094 118.820312 420.914062 119.007812 C 421.332031 119.191406 421.765625 119.332031 422.214844 119.433594 C 422.664062 119.535156 423.113281 119.589844 423.574219 119.601562 C 424.03125 119.613281 424.488281 119.578125 424.9375 119.503906 C 425.390625 119.425781 425.832031 119.304688 426.257812 119.144531 C 426.6875 118.980469 427.097656 118.777344 427.484375 118.535156 C 427.875 118.292969 428.238281 118.011719 428.574219 117.699219 C 428.90625 117.386719 429.210938 117.042969 429.480469 116.671875 C 429.746094 116.300781 429.976562 115.90625 430.167969 115.488281 C 430.363281 115.070312 430.511719 114.640625 430.621094 114.191406 C 430.726562 113.746094 430.792969 113.292969 430.8125 112.835938 C 430.832031 112.375 430.808594 111.917969 430.738281 111.464844 C 430.671875 111.011719 430.558594 110.566406 430.40625 110.136719 C 430.25 109.703125 430.054688 109.289062 429.820312 108.894531 C 429.585938 108.5 429.316406 108.132812 429.007812 107.789062 C 428.300781 107.027344 427.566406 106.289062 426.8125 105.570312 C 426.054688 104.855469 425.28125 104.160156 424.480469 103.492188 C 423.683594 102.824219 422.863281 102.179688 422.027344 101.5625 C 421.1875 100.945312 420.332031 100.355469 419.457031 99.789062 C 418.582031 99.226562 417.691406 98.6875 416.785156 98.179688 C 415.875 97.667969 414.953125 97.1875 414.015625 96.738281 C 413.078125 96.285156 412.128906 95.863281 411.164062 95.46875 C 410.199219 95.074219 409.226562 94.710938 408.238281 94.378906 C 407.253906 94.046875 406.257812 93.746094 405.253906 93.476562 C 404.25 93.203125 403.238281 92.964844 402.21875 92.757812 C 401.199219 92.546875 400.171875 92.371094 399.144531 92.226562 C 398.113281 92.082031 397.078125 91.972656 396.042969 91.890625 C 395.003906 91.808594 393.964844 91.761719 392.925781 91.746094 C 391.882812 91.730469 390.84375 91.746094 389.804688 91.796875 C 388.765625 91.84375 387.730469 91.925781 386.695312 92.039062 C 385.660156 92.152344 384.632812 92.296875 383.605469 92.472656 C 382.582031 92.652344 381.5625 92.859375 380.550781 93.097656 C 379.535156 93.339844 378.53125 93.609375 377.539062 93.914062 C 376.542969 94.214844 375.554688 94.550781 374.582031 94.914062 C 373.605469 95.277344 372.644531 95.667969 371.691406 96.09375 C 370.742188 96.515625 369.804688 96.96875 368.882812 97.449219 C 367.960938 97.933594 367.050781 98.441406 366.160156 98.980469 C 365.269531 99.519531 364.394531 100.082031 363.539062 100.675781 C 362.683594 101.265625 361.847656 101.886719 361.027344 102.527344 C 360.210938 103.171875 359.414062 103.84375 358.636719 104.535156 C 357.859375 105.230469 357.105469 105.945312 356.371094 106.6875 C 355.640625 107.425781 354.929688 108.1875 354.246094 108.972656 C 353.558594 109.757812 352.898438 110.5625 352.261719 111.386719 C 351.628906 112.214844 351.019531 113.058594 350.433594 113.921875 C 349.851562 114.785156 349.292969 115.664062 348.765625 116.5625 C 348.238281 117.460938 347.734375 118.375 347.261719 119.300781 C 346.789062 120.230469 346.347656 121.171875 345.933594 122.128906 C 345.519531 123.085938 345.132812 124.054688 344.78125 125.035156 C 344.425781 126.015625 344.101562 127.003906 343.808594 128.003906 C 343.515625 129.003906 343.253906 130.015625 343.023438 131.03125 C 342.789062 132.046875 342.589844 133.070312 342.421875 134.097656 C 342.253906 135.128906 342.121094 136.160156 342.015625 137.199219 C 341.910156 138.234375 341.839844 139.273438 341.800781 140.316406 C 341.761719 141.359375 341.753906 142.402344 341.777344 143.441406 C 341.804688 144.484375 341.859375 145.527344 341.949219 146.5625 C 342.039062 147.601562 342.160156 148.636719 342.3125 149.667969 C 342.464844 150.699219 342.648438 151.726562 342.867188 152.746094 C 343.082031 153.765625 343.332031 154.777344 343.609375 155.78125 C 343.886719 156.785156 344.199219 157.78125 344.539062 158.765625 C 344.878906 159.75 345.25 160.726562 345.648438 161.6875 C 346.050781 162.648438 346.480469 163.597656 346.941406 164.535156 C 347.398438 165.46875 347.886719 166.390625 348.402344 167.292969 C 348.917969 168.199219 349.460938 169.089844 350.035156 169.960938 C 350.605469 170.832031 351.203125 171.683594 351.824219 172.519531 C 352.449219 173.351562 353.097656 174.167969 353.773438 174.960938 C 354.445312 175.753906 355.144531 176.527344 355.867188 177.277344 C 356.589844 178.03125 357.332031 178.757812 358.097656 179.460938 C 358.867188 180.167969 359.652344 180.847656 360.460938 181.503906 C 361.273438 182.160156 362.101562 182.789062 362.949219 183.394531 C 363.796875 183.996094 364.660156 184.574219 365.542969 185.125 C 366.429688 185.675781 367.328125 186.199219 368.242188 186.695312 C 369.160156 187.1875 370.089844 187.652344 371.035156 188.089844 C 371.976562 188.527344 372.9375 188.9375 373.90625 189.3125 C 374.875 189.691406 375.855469 190.039062 376.847656 190.355469 C 377.839844 190.671875 378.839844 190.957031 379.847656 191.210938 C 380.855469 191.46875 381.871094 191.691406 382.894531 191.882812 C 383.917969 192.074219 384.945312 192.234375 385.976562 192.363281 C 387.007812 192.488281 388.046875 192.585938 389.082031 192.648438 C 390.121094 192.710938 391.160156 192.742188 392.203125 192.742188 Z M 392.203125 192.742188 " fill-opacity="1" fill-rule="nonzero"/><path fill="#000000" d="M 486.792969 306.335938 C 486.558594 305.492188 486.277344 304.664062 485.960938 303.847656 C 485.640625 303.03125 485.28125 302.230469 484.886719 301.449219 C 484.488281 300.667969 484.054688 299.910156 483.582031 299.171875 C 483.109375 298.433594 482.605469 297.71875 482.0625 297.03125 C 481.523438 296.339844 480.949219 295.679688 480.339844 295.046875 C 479.734375 294.417969 479.101562 293.816406 478.433594 293.246094 C 477.769531 292.675781 477.078125 292.140625 476.359375 291.640625 C 475.644531 291.136719 474.902344 290.671875 474.140625 290.242188 C 473.375 289.816406 472.59375 289.425781 471.792969 289.074219 C 470.992188 288.722656 470.175781 288.410156 469.34375 288.136719 C 468.511719 287.867188 467.667969 287.636719 466.8125 287.449219 C 465.957031 287.257812 465.097656 287.113281 464.226562 287.011719 C 463.359375 286.90625 462.488281 286.84375 461.613281 286.828125 C 460.738281 286.808594 459.863281 286.835938 458.992188 286.902344 C 458.121094 286.96875 457.253906 287.082031 456.390625 287.234375 C 455.53125 287.386719 454.679688 287.582031 453.835938 287.820312 C 452.992188 286.066406 451.945312 284.441406 450.703125 282.945312 C 449.460938 281.449219 448.054688 280.125 446.488281 278.972656 C 444.921875 277.820312 443.238281 276.875 441.441406 276.136719 C 439.644531 275.398438 437.78125 274.886719 435.859375 274.605469 C 433.257812 274.140625 430.6875 273.550781 428.144531 272.835938 C 425.601562 272.117188 423.101562 271.277344 420.644531 270.316406 C 418.183594 269.351562 415.777344 268.269531 413.421875 267.066406 C 411.070312 265.867188 408.78125 264.550781 406.558594 263.125 C 404.332031 261.695312 402.183594 260.164062 400.113281 258.523438 C 398.039062 256.886719 396.050781 255.148438 394.148438 253.3125 C 392.246094 251.476562 390.4375 249.550781 388.726562 247.535156 C 387.011719 245.523438 385.402344 243.429688 383.894531 241.253906 C 384.023438 237.648438 384.160156 230.464844 384.144531 226.761719 C 384.175781 224.976562 384.070312 223.195312 383.820312 221.425781 C 383.574219 219.65625 383.191406 217.917969 382.667969 216.210938 C 382.148438 214.5 381.496094 212.84375 380.714844 211.238281 C 379.933594 209.632812 379.03125 208.097656 378.007812 206.636719 C 376.984375 205.171875 375.851562 203.796875 374.613281 202.511719 C 373.375 201.226562 372.042969 200.046875 370.617188 198.972656 C 369.195312 197.898438 367.695312 196.945312 366.117188 196.105469 C 364.542969 195.269531 362.914062 194.558594 361.226562 193.980469 C 359.539062 193.398438 357.820312 192.957031 356.0625 192.648438 C 354.308594 192.339844 352.539062 192.171875 350.753906 192.140625 C 348.972656 192.113281 347.199219 192.222656 345.433594 192.476562 C 343.667969 192.726562 341.933594 193.113281 340.226562 193.640625 C 338.523438 194.164062 336.871094 194.820312 335.269531 195.605469 C 333.667969 196.394531 332.140625 197.300781 330.679688 198.328125 C 329.222656 199.355469 327.851562 200.492188 326.574219 201.734375 C 325.292969 202.980469 324.117188 204.316406 323.050781 205.746094 C 319.6875 209.890625 315.796875 215.445312 321.265625 219.859375 C 327.054688 224.207031 331.777344 218.570312 334.527344 213.996094 C 335.160156 213.167969 335.855469 212.394531 336.609375 211.675781 C 337.363281 210.957031 338.167969 210.300781 339.027344 209.710938 C 339.882812 209.121094 340.78125 208.601562 341.722656 208.152344 C 342.660156 207.703125 343.628906 207.328125 344.628906 207.035156 C 345.625 206.738281 346.640625 206.523438 347.671875 206.386719 C 348.703125 206.253906 349.738281 206.199219 350.78125 206.226562 C 351.820312 206.257812 352.851562 206.367188 353.875 206.558594 C 354.898438 206.75 355.898438 207.019531 356.878906 207.371094 C 357.859375 207.71875 358.808594 208.144531 359.722656 208.644531 C 360.632812 209.144531 361.503906 209.714844 362.328125 210.351562 C 363.152344 210.988281 363.921875 211.683594 364.632812 212.445312 C 365.347656 213.203125 366 214.011719 366.585938 214.875 C 367.171875 215.734375 367.6875 216.636719 368.132812 217.582031 C 368.574219 218.523438 368.945312 219.496094 369.234375 220.496094 C 369.527344 221.496094 369.738281 222.515625 369.871094 223.550781 C 370 224.585938 370.050781 225.625 370.019531 226.664062 C 370.105469 231.742188 369.757812 238.71875 369.734375 243.636719 C 369.914062 245.117188 370.371094 246.511719 371.109375 247.808594 C 372.882812 250.488281 374.792969 253.070312 376.832031 255.550781 C 378.871094 258.035156 381.03125 260.40625 383.3125 262.667969 C 385.59375 264.929688 387.988281 267.070312 390.488281 269.085938 C 392.988281 271.101562 395.582031 272.988281 398.277344 274.738281 C 400.96875 276.488281 403.742188 278.097656 406.597656 279.5625 C 409.457031 281.027344 412.378906 282.34375 415.371094 283.511719 C 418.363281 284.675781 421.402344 285.6875 424.5 286.542969 C 427.59375 287.394531 430.722656 288.089844 433.886719 288.625 C 434.496094 288.710938 435.089844 288.859375 435.671875 289.0625 C 436.253906 289.265625 436.808594 289.523438 437.339844 289.835938 C 437.871094 290.148438 438.367188 290.507812 438.832031 290.917969 C 439.292969 291.328125 439.710938 291.773438 440.085938 292.265625 C 440.460938 292.753906 440.785156 293.273438 441.058594 293.828125 C 441.335938 294.378906 441.554688 294.953125 441.714844 295.546875 C 441.878906 296.144531 441.984375 296.746094 442.03125 297.363281 C 442.078125 297.976562 442.066406 298.59375 441.996094 299.207031 C 441.925781 299.816406 441.792969 300.417969 441.605469 301.007812 C 441.417969 301.59375 441.175781 302.160156 440.878906 302.699219 C 440.585938 303.238281 440.238281 303.746094 439.84375 304.222656 C 439.449219 304.695312 439.011719 305.125 438.535156 305.515625 C 438.058594 305.90625 437.546875 306.246094 437.003906 306.535156 C 436.460938 306.824219 435.894531 307.0625 435.304688 307.242188 C 434.71875 307.421875 434.117188 307.542969 433.503906 307.609375 C 432.890625 307.671875 432.277344 307.675781 431.664062 307.621094 C 408.121094 305.492188 366.144531 296.472656 349.484375 259.972656 C 349.292969 259.550781 349.058594 259.152344 348.785156 258.777344 C 348.515625 258.402344 348.210938 258.058594 347.871094 257.742188 C 347.53125 257.425781 347.164062 257.148438 346.769531 256.90625 C 346.375 256.664062 345.960938 256.460938 345.527344 256.300781 C 345.089844 256.140625 344.644531 256.023438 344.1875 255.949219 C 343.730469 255.875 343.273438 255.847656 342.808594 255.863281 C 342.347656 255.882812 341.890625 255.945312 341.441406 256.050781 C 340.988281 256.160156 340.554688 256.308594 340.132812 256.5 C 339.710938 256.695312 339.316406 256.925781 338.9375 257.199219 C 338.5625 257.46875 338.21875 257.773438 337.902344 258.113281 C 337.585938 258.453125 337.308594 258.820312 337.066406 259.214844 C 336.820312 259.609375 336.617188 260.023438 336.457031 260.457031 C 336.292969 260.890625 336.175781 261.339844 336.101562 261.796875 C 336.027344 262.253906 335.996094 262.714844 336.011719 263.175781 C 336.027344 263.640625 336.089844 264.097656 336.195312 264.550781 C 336.300781 265 336.449219 265.4375 336.636719 265.863281 C 338.632812 270.15625 340.964844 274.261719 343.636719 278.171875 C 346.308594 282.082031 349.28125 285.746094 352.554688 289.164062 C 355.828125 292.585938 359.355469 295.710938 363.144531 298.546875 C 366.933594 301.382812 370.925781 303.890625 375.128906 306.066406 C 380.863281 337.605469 389.816406 368.203125 401.976562 397.855469 C 402.304688 398.652344 402.421875 399.476562 402.328125 400.335938 C 402.234375 401.191406 401.9375 401.972656 401.445312 402.675781 C 400.925781 403.386719 400.277344 403.941406 399.496094 404.34375 C 398.714844 404.742188 397.886719 404.945312 397.011719 404.949219 L 312.847656 402.332031 C 311.921875 402.296875 311.007812 402.179688 310.105469 401.976562 C 309.203125 401.777344 308.328125 401.492188 307.476562 401.132812 C 306.625 400.769531 305.816406 400.332031 305.042969 399.820312 C 304.273438 399.308594 303.554688 398.730469 302.890625 398.085938 C 302.222656 397.441406 301.625 396.742188 301.085938 395.988281 C 300.546875 395.234375 300.085938 394.4375 299.691406 393.597656 C 299.300781 392.757812 298.988281 391.890625 298.757812 390.992188 C 298.523438 390.097656 298.375 389.183594 298.308594 388.261719 C 295.007812 372.8125 293.34375 357.183594 293.308594 341.386719 C 293.300781 332.757812 293.804688 324.15625 294.820312 315.589844 C 295.832031 307.019531 297.351562 298.542969 299.375 290.152344 C 301.394531 281.765625 303.90625 273.527344 306.90625 265.441406 C 309.90625 257.351562 313.375 249.46875 317.3125 241.796875 C 317.519531 241.382812 317.683594 240.957031 317.804688 240.511719 C 317.925781 240.070312 318.003906 239.617188 318.035156 239.15625 C 318.070312 238.699219 318.058594 238.242188 318.003906 237.785156 C 317.949219 237.328125 317.851562 236.878906 317.707031 236.441406 C 317.566406 236.003906 317.382812 235.585938 317.15625 235.183594 C 316.933594 234.78125 316.671875 234.402344 316.375 234.054688 C 316.078125 233.703125 315.75 233.382812 315.390625 233.097656 C 315.03125 232.808594 314.648438 232.5625 314.238281 232.347656 C 313.832031 232.136719 313.40625 231.96875 312.964844 231.839844 C 312.523438 231.710938 312.074219 231.625 311.617188 231.585938 C 311.160156 231.542969 310.703125 231.546875 310.246094 231.59375 C 309.789062 231.644531 309.339844 231.734375 308.902344 231.871094 C 308.464844 232.007812 308.042969 232.183594 307.636719 232.402344 C 307.234375 232.621094 306.851562 232.878906 306.5 233.171875 C 306.144531 233.464844 305.820312 233.789062 305.53125 234.144531 C 305.238281 234.5 304.984375 234.878906 304.765625 235.285156 C 300.570312 243.460938 296.875 251.855469 293.675781 260.472656 C 290.480469 269.089844 287.804688 277.867188 285.648438 286.804688 C 283.492188 295.738281 281.875 304.773438 280.792969 313.902344 C 279.710938 323.03125 279.175781 332.191406 279.179688 341.386719 C 279.214844 358.0625 280.960938 374.558594 284.425781 390.875 C 284.53125 391.730469 284.671875 392.578125 284.855469 393.421875 C 285.035156 394.265625 285.253906 395.097656 285.507812 395.921875 C 285.761719 396.746094 286.050781 397.558594 286.378906 398.355469 C 286.703125 399.15625 287.066406 399.9375 287.460938 400.703125 C 287.855469 401.46875 288.285156 402.214844 288.746094 402.945312 C 289.207031 403.671875 289.699219 404.378906 290.222656 405.0625 C 290.75 405.746094 291.300781 406.40625 291.882812 407.042969 C 292.464844 407.675781 293.074219 408.285156 293.710938 408.867188 C 294.347656 409.449219 295.007812 410 295.691406 410.523438 C 296.375 411.046875 297.082031 411.535156 297.8125 411.996094 C 298.539062 412.457031 299.285156 412.882812 300.050781 413.277344 C 300.816406 413.667969 301.601562 414.027344 302.398438 414.351562 C 303.195312 414.675781 304.003906 414.964844 304.828125 415.21875 C 305.652344 415.46875 306.484375 415.683594 307.328125 415.863281 C 308.167969 416.042969 309.015625 416.183594 309.871094 416.285156 C 310.726562 416.390625 311.582031 416.453125 312.445312 416.480469 L 322.890625 416.804688 C 325.9375 435.8125 330.667969 454.386719 337.082031 472.53125 C 337.605469 473.851562 338.234375 475.121094 338.972656 476.332031 C 339.714844 477.546875 340.550781 478.683594 341.488281 479.753906 C 342.425781 480.820312 343.445312 481.800781 344.550781 482.691406 C 345.65625 483.578125 346.832031 484.367188 348.074219 485.054688 C 349.316406 485.742188 350.605469 486.316406 351.949219 486.777344 C 353.289062 487.242188 354.660156 487.582031 356.0625 487.808594 C 357.460938 488.03125 358.871094 488.132812 360.289062 488.113281 C 361.707031 488.09375 363.113281 487.953125 364.507812 487.6875 C 365.902344 487.421875 367.261719 487.039062 368.589844 486.539062 C 369.917969 486.039062 371.195312 485.429688 372.414062 484.707031 C 373.636719 483.984375 374.789062 483.164062 375.867188 482.242188 C 376.949219 481.320312 377.941406 480.3125 378.847656 479.21875 C 379.753906 478.125 380.558594 476.960938 381.261719 475.726562 C 381.96875 474.496094 382.5625 473.210938 383.042969 471.875 C 383.527344 470.535156 383.890625 469.167969 384.136719 467.769531 C 384.382812 466.367188 384.507812 464.957031 384.511719 463.535156 L 384.511719 418.722656 L 396.625 419.101562 C 396.78125 419.105469 396.933594 419.109375 397.09375 419.109375 C 397.878906 419.101562 398.664062 419.050781 399.441406 418.949219 C 400.222656 418.851562 400.996094 418.703125 401.757812 418.511719 C 402.519531 418.316406 403.265625 418.078125 404 417.792969 C 404.734375 417.507812 405.449219 417.179688 406.140625 416.804688 C 406.835938 416.433594 407.503906 416.023438 408.148438 415.570312 C 408.789062 415.117188 409.40625 414.625 409.988281 414.097656 C 410.574219 413.570312 411.121094 413.007812 411.640625 412.414062 C 412.15625 411.820312 412.632812 411.195312 413.074219 410.542969 C 413.515625 409.886719 413.914062 409.210938 414.273438 408.507812 C 414.628906 407.808594 414.945312 407.085938 415.214844 406.347656 C 415.488281 405.605469 415.710938 404.855469 415.890625 404.085938 C 416.070312 403.320312 416.203125 402.542969 416.289062 401.761719 C 416.375 400.976562 416.414062 400.191406 416.40625 399.402344 C 416.394531 398.613281 416.335938 397.828125 416.234375 397.046875 C 416.128906 396.265625 415.976562 395.496094 415.777344 394.730469 C 415.582031 393.96875 415.335938 393.222656 415.046875 392.488281 C 404.550781 366.761719 396.472656 340.292969 390.816406 313.082031 C 403.640625 317.664062 416.832031 320.542969 430.394531 321.722656 C 431.136719 321.796875 431.878906 321.832031 432.621094 321.832031 C 433.363281 321.835938 434.105469 321.800781 434.84375 321.730469 C 435.582031 321.664062 436.316406 321.558594 437.046875 321.421875 C 437.777344 321.28125 438.5 321.109375 439.214844 320.902344 C 439.925781 320.695312 440.628906 320.453125 441.320312 320.179688 C 442.011719 319.90625 442.6875 319.601562 443.347656 319.261719 C 444.011719 318.921875 444.65625 318.554688 445.28125 318.15625 C 445.910156 317.757812 446.515625 317.328125 447.101562 316.871094 C 447.6875 316.414062 448.25 315.929688 448.792969 315.421875 C 449.332031 314.910156 449.847656 314.375 450.339844 313.816406 C 450.828125 313.253906 451.289062 312.675781 451.726562 312.070312 C 452.160156 311.46875 452.566406 310.84375 452.941406 310.203125 C 453.320312 309.5625 453.664062 308.902344 453.976562 308.226562 C 454.292969 307.554688 454.574219 306.867188 454.824219 306.164062 C 455.070312 305.464844 455.285156 304.75 455.46875 304.03125 C 455.648438 303.308594 455.796875 302.578125 455.910156 301.84375 C 457.339844 301.265625 458.820312 300.945312 460.359375 300.882812 C 461.898438 300.824219 463.402344 301.023438 464.871094 301.488281 C 465.339844 301.648438 465.800781 301.835938 466.246094 302.046875 C 466.695312 302.261719 467.128906 302.5 467.550781 302.761719 C 467.96875 303.023438 468.375 303.3125 468.761719 303.621094 C 469.148438 303.929688 469.515625 304.261719 469.867188 304.613281 C 470.214844 304.964844 470.542969 305.335938 470.851562 305.722656 C 471.160156 306.113281 471.441406 306.519531 471.703125 306.941406 C 471.964844 307.363281 472.199219 307.796875 472.410156 308.246094 C 472.621094 308.695312 472.808594 309.15625 472.964844 309.628906 C 473.125 310.097656 473.253906 310.574219 473.359375 311.0625 C 473.460938 311.546875 473.539062 312.035156 473.585938 312.53125 C 473.632812 313.023438 473.652344 313.519531 473.644531 314.015625 C 473.632812 314.511719 473.597656 315.007812 473.53125 315.5 C 473.464844 315.992188 473.371094 316.476562 473.25 316.957031 C 473.128906 317.441406 472.980469 317.914062 472.804688 318.378906 C 472.628906 318.839844 472.429688 319.292969 472.203125 319.734375 C 471.972656 320.175781 471.722656 320.601562 471.445312 321.015625 C 468.710938 324.761719 466.273438 328.695312 464.128906 332.808594 C 461.988281 336.925781 460.164062 341.179688 458.664062 345.570312 C 457.160156 349.960938 455.996094 354.441406 455.171875 359.011719 C 454.34375 363.578125 453.863281 368.183594 453.734375 372.824219 L 453.734375 460.46875 C 453.738281 460.929688 453.792969 461.386719 453.886719 461.835938 C 453.984375 462.285156 454.121094 462.722656 454.300781 463.144531 C 454.480469 463.570312 454.703125 463.96875 454.960938 464.351562 C 455.21875 464.730469 455.511719 465.082031 455.839844 465.40625 C 456.167969 465.726562 456.523438 466.015625 456.90625 466.269531 C 457.289062 466.523438 457.691406 466.738281 458.117188 466.910156 C 458.542969 467.085938 458.980469 467.21875 459.429688 467.304688 C 459.882812 467.394531 460.335938 467.441406 460.796875 467.441406 C 461.253906 467.441406 461.710938 467.394531 462.160156 467.304688 C 462.613281 467.21875 463.050781 467.085938 463.472656 466.910156 C 463.898438 466.738281 464.304688 466.523438 464.6875 466.269531 C 465.070312 466.015625 465.425781 465.726562 465.753906 465.40625 C 466.078125 465.082031 466.371094 464.730469 466.632812 464.351562 C 466.890625 463.96875 467.109375 463.570312 467.292969 463.144531 C 467.472656 462.722656 467.609375 462.285156 467.707031 461.835938 C 467.800781 461.386719 467.851562 460.929688 467.859375 460.46875 L 467.859375 372.824219 C 468 368.890625 468.429688 364.988281 469.15625 361.117188 C 469.878906 357.25 470.886719 353.457031 472.183594 349.742188 C 473.476562 346.023438 475.042969 342.425781 476.878906 338.945312 C 478.710938 335.464844 480.796875 332.144531 483.132812 328.976562 C 484.234375 327.335938 485.148438 325.59375 485.875 323.753906 C 486.605469 321.910156 487.125 320.015625 487.441406 318.058594 C 487.757812 316.105469 487.859375 314.140625 487.75 312.164062 C 487.644531 310.1875 487.324219 308.242188 486.792969 306.335938 Z M 370.382812 463.535156 C 370.378906 464.222656 370.308594 464.902344 370.167969 465.574219 C 370.03125 466.246094 369.828125 466.898438 369.5625 467.53125 C 369.296875 468.164062 368.972656 468.765625 368.589844 469.332031 C 368.207031 469.902344 367.773438 470.429688 367.285156 470.914062 C 366.800781 471.394531 366.273438 471.828125 365.699219 472.207031 C 365.128906 472.585938 364.527344 472.90625 363.894531 473.167969 C 363.261719 473.429688 362.609375 473.628906 361.9375 473.761719 C 361.265625 473.894531 360.585938 473.960938 359.902344 473.960938 C 358.863281 473.964844 357.84375 473.8125 356.851562 473.511719 C 355.855469 473.207031 354.925781 472.761719 354.066406 472.179688 C 353.207031 471.59375 352.449219 470.894531 351.800781 470.082031 C 351.148438 469.269531 350.632812 468.375 350.25 467.40625 C 344.457031 451.074219 340.144531 434.355469 337.308594 417.253906 L 370.382812 418.285156 Z M 370.382812 463.535156 " fill-opacity="1" fill-rule="nonzero"/></svg>