<svg xmlns="http://www.w3.org/2000/svg" xmlns:xlink="http://www.w3.org/1999/xlink" width="1024" zoomAndPan="magnify" viewBox="0 0 768 576" height="768" preserveAspectRatio="xMidYMid meet" version="1.0"><defs><clipPath id="7cee23d912"><path d="M 216 117 L 554.699219 117 L 554.699219 459 L 216 459 Z M 216 117 " clip-rule="nonzero"/></clipPath></defs><g clip-path="url(#7cee23d912)"><path fill="#000000" d="M 386.605469 211.859375 C 373.320312 204.96875 361.242188 197.425781 352.6875 187.695312 C 344.300781 178.125 339.925781 166.207031 340.449219 150.074219 C 342.308594 136.457031 348.835938 127.414062 362.773438 124.210938 C 374.199219 121.699219 383.925781 123.199219 391.664062 128.066406 C 399.5625 132.929688 405.078125 141.324219 407.789062 152.589844 C 408.472656 155.105469 408.964844 157.617188 409.453125 160.328125 C 412.652344 175.773438 416.015625 192.59375 432.957031 197.621094 C 434.621094 198.109375 436.644531 198.632812 438.667969 199.125 C 451.921875 202.8125 463.507812 207.351562 470.558594 225.671875 C 483.484375 259.109375 492.722656 307.800781 524.449219 325.757812 C 494.910156 298.394531 490.535156 255.0625 477.773438 222.144531 C 469.710938 201.3125 454.761719 197.785156 440.167969 193.769531 C 438.308594 193.277344 436.644531 192.753906 434.621094 192.101562 C 420.84375 188.085938 417.84375 172.964844 414.96875 159.347656 C 414.480469 156.507812 413.957031 153.960938 413.304688 151.285156 C 410.269531 138.679688 403.742188 128.949219 394.667969 123.234375 C 385.753906 117.679688 374.363281 116.015625 361.601562 118.855469 C 347.007812 122.058594 335.0625 134.628906 333.070312 149.421875 C 331.894531 164.542969 338.621094 180.152344 348.511719 191.417969 C 357.585938 201.996094 370.347656 209.734375 384.089844 216.953125 L 384.253906 216.953125 C 403.902344 225.867188 412.292969 209.898438 414.152344 193.769531 C 409.09375 205.164062 403.871094 219.433594 386.605469 211.859375 Z M 387.777344 303.585938 C 374.851562 319.71875 355.367188 335 348.675781 357.011719 C 356.410156 343.753906 377.367188 323.410156 391.140625 307.960938 C 405.40625 292.191406 408.441406 278.738281 410.792969 260.9375 C 413.632812 238.765625 412.457031 218.453125 433.804688 208.363281 C 414.511719 210.390625 408.636719 234.390625 404.425781 256.726562 C 400.707031 276.1875 400.347656 287.78125 387.777344 303.585938 Z M 524.582031 374.9375 C 509.46875 386.53125 488.804688 391.234375 473.527344 390.710938 C 433.738281 389.046875 412.097656 359.980469 378.671875 357.46875 C 364.570312 356.292969 352.65625 360.308594 344.921875 368.046875 C 339.371094 372.75 335.847656 375.789062 332.484375 375.265625 C 329.285156 374.9375 325.921875 371.410156 321.058594 363.671875 C 316.195312 355.933594 308.132812 351.589844 299.417969 349.890625 C 277.9375 346.039062 258.289062 353.253906 254.078125 376.605469 C 251.238281 393.0625 261.8125 406.320312 273.890625 414.90625 C 263.316406 402.824219 257.601562 389.371094 259.628906 377.453125 C 262.824219 360.503906 282.800781 352.601562 298.40625 355.441406 C 305.621094 356.78125 312.34375 360.308594 316.359375 366.710938 C 322.070312 375.949219 326.609375 380.328125 331.796875 380.980469 C 336.988281 381.664062 341.527344 377.617188 348.574219 371.902344 C 357.128906 364 366.886719 364.160156 378.117188 365.011719 C 416.894531 368.046875 435.371094 394.238281 472.648438 395.902344 C 490.339844 396.621094 515.179688 386.695312 524.582031 374.9375 Z M 256.984375 402.5 C 235.667969 413.242188 223.230469 432.738281 219.054688 441.621094 C 213.503906 453.210938 217.878906 460.265625 235.996094 457.914062 C 256.984375 455.402344 275.949219 447.824219 294.261719 441.945312 C 323.800781 432.378906 348.476562 422.8125 381.542969 431.039062 C 358.042969 416.246094 319.261719 428.6875 292.890625 437.246094 C 274.9375 443.121094 257.113281 447.660156 236.648438 450.175781 C 225.746094 451.515625 222.21875 449.164062 224.894531 443.613281 C 233.15625 424.507812 242.554688 414.582031 256.984375 402.5 Z M 332.550781 429.539062 C 341.101562 429.863281 344.625 434.730469 350.011719 437.929688 C 358.566406 442.957031 368.8125 446.320312 392.316406 446.84375 C 416.308594 447.171875 442.191406 445.667969 467.523438 444.984375 C 496.214844 444.132812 532.675781 443.972656 554.644531 435.742188 C 531.140625 439.953125 493.210938 439.757812 467.359375 440.445312 C 441.996094 441.128906 415.980469 440.117188 391.988281 439.59375 C 369.824219 439.105469 360.425781 437.40625 352.199219 433.03125 C 343.289062 428.523438 339.925781 427.023438 332.550781 429.539062 Z M 446.011719 243.796875 C 442.648438 287.292969 419.472656 319.554688 391.109375 348.585938 C 426.71875 321.710938 451.070312 299.046875 446.011719 243.796875 Z M 437.296875 369.257812 C 448.558594 352.960938 449.210938 330.136719 434.785156 316.519531 C 444.511719 331.113281 439.484375 357.988281 437.296875 369.257812 Z M 365.777344 311.292969 C 388.59375 287.945312 385.265625 246.964844 403.21875 225.640625 C 380.890625 239.746094 380.371094 285.265625 365.777344 311.292969 Z M 350.5 389.40625 C 331.210938 391.753906 307.675781 404 293.085938 412.230469 C 282.671875 418.109375 272.945312 422.320312 261.683594 426.664062 C 242.390625 434.402344 252.609375 417.421875 260.019531 407.527344 C 245.753906 416.933594 232.828125 445.148438 262.207031 433.554688 C 273.957031 428.851562 284.859375 421.960938 295.273438 416.246094 C 313.910156 405.699219 331.699219 395.773438 350.5 389.40625 Z M 350.5 389.40625 " fill-opacity="1" fill-rule="nonzero"/></g></svg>