<svg xmlns="http://www.w3.org/2000/svg" xmlns:xlink="http://www.w3.org/1999/xlink" width="1024" zoomAndPan="magnify" viewBox="0 0 768 576" height="768" preserveAspectRatio="xMidYMid meet" version="1.0"><defs><clipPath id="fab89dfc60"><path d="M 470 431 L 507 431 L 507 445.152344 L 470 445.152344 Z M 470 431 " clip-rule="nonzero"/></clipPath></defs><path fill="#b3b3b3" d="M 487.902344 409.539062 C 488.621094 409.539062 489.292969 409.085938 489.539062 408.371094 C 489.847656 407.464844 489.367188 406.480469 488.464844 406.171875 C 451.261719 393.382812 416.328125 375.078125 384.640625 351.765625 C 380.628906 348.816406 376.59375 345.730469 372.691406 342.742188 C 360.636719 333.515625 348.167969 323.976562 334.390625 316.925781 C 330.539062 314.957031 326.546875 313.160156 322.6875 311.429688 C 319.316406 309.914062 315.832031 308.347656 312.480469 306.679688 C 302.015625 301.476562 292.078125 294.910156 282.46875 288.558594 L 256.585938 271.460938 C 255.792969 270.933594 254.714844 271.152344 254.1875 271.949219 C 253.660156 272.75 253.882812 273.820312 254.675781 274.347656 L 280.558594 291.445312 C 290.253906 297.855469 300.285156 304.480469 310.941406 309.78125 C 314.351562 311.476562 317.867188 313.058594 321.265625 314.585938 C 325.085938 316.300781 329.039062 318.078125 332.808594 320.007812 C 346.3125 326.914062 358.652344 336.355469 370.585938 345.488281 C 374.5 348.484375 378.550781 351.585938 382.589844 354.554688 C 414.558594 378.074219 449.804688 396.539062 487.339844 409.441406 C 487.523438 409.507812 487.714844 409.539062 487.902344 409.539062 Z M 487.902344 409.539062 " fill-opacity="1" fill-rule="nonzero"/><path fill="#b3b3b3" d="M 314.53125 294.609375 C 314.5625 294.609375 314.59375 294.609375 314.628906 294.605469 C 315.582031 294.554688 316.3125 293.738281 316.261719 292.785156 C 314.542969 261.230469 302.300781 230.609375 281.785156 206.566406 C 281.164062 205.839844 280.070312 205.753906 279.34375 206.375 C 278.613281 206.996094 278.527344 208.085938 279.148438 208.816406 C 299.175781 232.285156 311.128906 262.171875 312.804688 292.972656 C 312.855469 293.894531 313.617188 294.609375 314.53125 294.609375 Z M 314.53125 294.609375 " fill-opacity="1" fill-rule="nonzero"/><path fill="#b3b3b3" d="M 303.890625 247.320312 C 304.03125 247.320312 304.171875 247.304688 304.3125 247.269531 C 326.890625 241.605469 350.136719 238.921875 373.417969 239.261719 C 374.351562 239.296875 375.160156 238.511719 375.175781 237.554688 C 375.191406 236.601562 374.425781 235.816406 373.46875 235.800781 C 349.871094 235.441406 326.34375 238.175781 303.472656 243.914062 C 302.542969 244.144531 301.980469 245.085938 302.214844 246.011719 C 302.410156 246.796875 303.117188 247.320312 303.890625 247.320312 Z M 303.890625 247.320312 " fill-opacity="1" fill-rule="nonzero"/><path fill="#b3b3b3" d="M 507.578125 394.511719 C 508.941406 394.511719 510.289062 394.480469 511.636719 394.410156 C 512.589844 394.359375 513.324219 393.546875 513.273438 392.59375 C 513.222656 391.636719 512.417969 390.894531 511.457031 390.953125 C 493.128906 391.929688 473.195312 386.089844 452.199219 373.691406 C 440.027344 366.5 428.5 357.8125 417.355469 349.410156 C 411.863281 345.269531 406.1875 340.988281 400.488281 336.925781 C 375.808594 319.347656 349.273438 304.777344 323.613281 290.6875 L 319.339844 288.34375 L 271.234375 258.953125 C 267.363281 256.589844 263.503906 253.960938 262.5625 250.148438 C 262.335938 249.222656 261.390625 248.644531 260.46875 248.882812 C 259.542969 249.109375 258.972656 250.046875 259.203125 250.976562 C 260.460938 256.066406 264.941406 259.167969 269.429688 261.90625 L 317.601562 291.335938 L 321.945312 293.722656 C 347.519531 307.765625 373.964844 322.285156 398.476562 339.746094 C 404.140625 343.78125 409.796875 348.042969 415.269531 352.171875 C 426.492188 360.632812 438.097656 369.378906 450.4375 376.671875 C 470.503906 388.519531 489.703125 394.511719 507.578125 394.511719 Z M 507.578125 394.511719 " fill-opacity="1" fill-rule="nonzero"/><path fill="#b3b3b3" d="M 307.703125 254.316406 C 307.773438 254.316406 307.851562 254.308594 307.925781 254.300781 L 349.214844 249.019531 C 350.160156 248.898438 350.832031 248.03125 350.710938 247.082031 C 350.589844 246.136719 349.726562 245.484375 348.773438 245.585938 L 307.484375 250.867188 C 306.535156 250.988281 305.863281 251.855469 305.988281 252.804688 C 306.097656 253.679688 306.84375 254.316406 307.703125 254.316406 Z M 307.703125 254.316406 " fill-opacity="1" fill-rule="nonzero"/><path fill="#b3b3b3" d="M 387.8125 225.839844 C 387.707031 223.3125 387.601562 220.785156 387.5 218.257812 C 386.933594 221.089844 383.175781 221.65625 380.285156 221.578125 C 368.324219 221.238281 356.007812 220.746094 345.125 215.78125 C 334.238281 210.816406 325.035156 200.21875 325.429688 188.269531 C 324.058594 189.871094 323.640625 192.054688 323.273438 194.132812 C 322.027344 201.175781 320.992188 209.160156 325.34375 214.839844 C 327.519531 217.679688 330.757812 219.484375 333.996094 221.003906 C 351.066406 228.992188 370.914062 230.898438 387.8125 225.839844 Z M 387.8125 225.839844 " fill-opacity="1" fill-rule="nonzero"/><path fill="#b3b3b3" d="M 367.949219 230.394531 C 374.949219 230.394531 381.824219 229.441406 388.308594 227.5 C 389.066406 227.273438 389.570312 226.5625 389.539062 225.769531 L 389.226562 218.183594 C 389.191406 217.308594 388.503906 216.597656 387.632812 216.53125 C 386.765625 216.457031 385.972656 217.058594 385.800781 217.917969 C 385.496094 219.445312 382.761719 219.925781 380.332031 219.847656 C 369.277344 219.535156 356.746094 219.179688 345.84375 214.207031 C 336.261719 209.835938 326.769531 200.140625 327.160156 188.328125 C 327.183594 187.589844 326.742188 186.921875 326.054688 186.65625 C 325.371094 186.394531 324.589844 186.585938 324.113281 187.144531 C 322.394531 189.152344 321.9375 191.746094 321.570312 193.832031 C 320.253906 201.273438 319.242188 209.726562 323.96875 215.890625 C 326.421875 219.09375 330.042969 221.0625 333.261719 222.570312 C 344.332031 227.75 356.308594 230.394531 367.949219 230.394531 Z M 386.023438 224.554688 C 369.863281 229.015625 351.257812 227.167969 334.730469 219.4375 C 331.890625 218.105469 328.71875 216.398438 326.71875 213.785156 C 323.144531 209.125 323.625 202.5625 324.699219 196.054688 C 327.546875 205.800781 335.941406 213.496094 344.40625 217.355469 C 355.945312 222.621094 369.414062 223 380.234375 223.308594 C 382.527344 223.378906 384.457031 223.054688 385.933594 222.398438 Z M 386.023438 224.554688 " fill-opacity="1" fill-rule="nonzero"/><path fill="#000000" d="M 500.886719 402.882812 C 506.21875 402.882812 510.921875 401.738281 514.742188 399.144531 C 516.191406 398.164062 517.675781 397.027344 518.734375 395.386719 C 523.027344 388.707031 516.792969 380.824219 514.746094 378.238281 C 512.597656 375.523438 510.371094 372.722656 508.078125 369.839844 C 475.019531 328.273438 429.742188 271.347656 420.515625 220.59375 C 420.367188 219.796875 419.859375 219.113281 419.136719 218.746094 C 418.417969 218.378906 417.5625 218.367188 416.828125 218.722656 C 394.03125 229.742188 350.878906 226.929688 346.65625 225.460938 C 318.578125 215.691406 322.179688 201.835938 325.667969 188.433594 C 326.695312 184.492188 327.664062 180.765625 327.832031 177.199219 C 327.890625 175.988281 327.289062 167.625 322.992188 166.160156 C 319.226562 164.886719 317.574219 166.40625 316.925781 167.429688 C 306.117188 184.480469 301.34375 187.902344 287.167969 198.042969 L 286.765625 198.332031 C 275.328125 206.515625 260.496094 220.4375 254.773438 240.289062 C 253 246.433594 252.839844 251.265625 254.265625 255.492188 C 256.558594 262.292969 262.570312 266.5 268.535156 270.222656 C 283.851562 279.785156 299.847656 288.78125 315.320312 297.480469 C 340.332031 311.542969 366.195312 326.082031 389.625 343.304688 C 390.949219 344.277344 392.546875 345.472656 394.382812 346.839844 C 416.371094 363.246094 469.488281 402.882812 500.886719 402.882812 Z M 416.039062 224.753906 C 426.753906 275.929688 471.300781 331.941406 504.011719 373.070312 C 506.300781 375.949219 508.527344 378.746094 510.671875 381.457031 C 514.640625 386.476562 515.882812 390.214844 514.367188 392.578125 C 513.84375 393.386719 512.972656 394.070312 511.828125 394.847656 C 508.78125 396.917969 504.957031 397.835938 500.570312 397.835938 C 471.410156 397.839844 417.070312 357.289062 397.492188 342.679688 C 395.644531 341.300781 394.035156 340.101562 392.703125 339.125 C 369.019531 321.710938 343.015625 307.09375 317.863281 292.953125 C 302.445312 284.285156 286.5 275.320312 271.285156 265.816406 C 266.121094 262.59375 260.933594 259.011719 259.191406 253.835938 C 258.117188 250.65625 258.296875 246.804688 259.761719 241.726562 C 265.074219 223.308594 279.019531 210.257812 289.785156 202.554688 L 290.191406 202.265625 C 304.382812 192.109375 309.816406 188.222656 320.851562 170.9375 C 320.933594 170.957031 321.023438 170.980469 321.128906 171.015625 C 321.898438 171.898438 322.707031 175.589844 322.644531 176.953125 C 322.5 179.980469 321.597656 183.453125 320.640625 187.128906 C 317.140625 200.585938 312.34375 219.019531 344.949219 230.363281 C 349.988281 232.117188 390.90625 235.089844 416.039062 224.753906 Z M 416.039062 224.753906 " fill-opacity="1" fill-rule="nonzero"/><path fill="#000000" d="M 418.789062 222.769531 C 419.167969 222.769531 419.550781 222.6875 419.910156 222.515625 C 421.203125 221.894531 421.75 220.34375 421.128906 219.050781 C 419.296875 215.230469 415.199219 212.777344 409.59375 212.140625 C 408.1875 211.960938 406.882812 213 406.71875 214.425781 C 406.558594 215.847656 407.582031 217.132812 409.007812 217.296875 C 411.671875 217.597656 415.125 218.539062 416.445312 221.296875 C 416.894531 222.226562 417.824219 222.769531 418.789062 222.769531 Z M 418.789062 222.769531 " fill-opacity="1" fill-rule="nonzero"/><path fill="#000000" d="M 389.355469 215.820312 C 390.652344 215.820312 391.773438 214.855469 391.933594 213.535156 C 392.105469 212.113281 391.089844 210.820312 389.664062 210.648438 C 384.980469 210.085938 379.824219 210.199219 374.363281 210.324219 C 362.824219 210.589844 350.886719 210.863281 343.832031 204.421875 C 340.917969 201.761719 338.523438 192.304688 336.9375 186.046875 C 336.3125 183.578125 335.769531 181.449219 335.261719 179.875 C 333.5625 174.640625 331 166.730469 322.980469 166.292969 C 321.523438 166.21875 320.324219 167.308594 320.246094 168.742188 C 320.167969 170.171875 321.265625 171.398438 322.695312 171.476562 C 326.828125 171.699219 328.527344 175.945312 330.320312 181.472656 C 330.777344 182.886719 331.300781 184.941406 331.902344 187.320312 C 333.847656 194.996094 336.269531 204.542969 340.332031 208.253906 C 348.925781 216.101562 362.503906 215.785156 374.484375 215.515625 C 379.75 215.398438 384.726562 215.28125 389.042969 215.804688 C 389.148438 215.816406 389.253906 215.820312 389.355469 215.820312 Z M 389.355469 215.820312 " fill-opacity="1" fill-rule="nonzero"/><path fill="#000000" d="M 476.4375 332.890625 C 476.867188 332.890625 477.304688 332.785156 477.707031 332.558594 C 478.957031 331.859375 479.402344 330.277344 478.699219 329.027344 C 477.199219 326.34375 475.324219 323.003906 472.09375 320.976562 C 468.9375 319.003906 464.746094 318.527344 460.601562 319.664062 C 457 320.652344 454.359375 322.675781 453.171875 325.367188 C 452.589844 326.679688 453.183594 328.214844 454.496094 328.792969 C 455.808594 329.371094 457.339844 328.777344 457.921875 327.46875 C 458.460938 326.246094 459.9375 325.226562 461.976562 324.667969 C 464.726562 323.914062 467.410156 324.175781 469.335938 325.378906 C 471.441406 326.699219 472.890625 329.28125 474.171875 331.5625 C 474.644531 332.414062 475.53125 332.890625 476.4375 332.890625 Z M 476.4375 332.890625 " fill-opacity="1" fill-rule="nonzero"/><path fill="#000000" d="M 462.226562 311.199219 C 462.726562 311.199219 463.226562 311.058594 463.671875 310.757812 C 464.863281 309.960938 465.179688 308.347656 464.382812 307.15625 C 461.230469 302.464844 457.78125 299.449219 453.84375 297.945312 C 448.539062 295.925781 442.570312 297.207031 439.332031 301.066406 C 438.410156 302.167969 438.554688 303.800781 439.652344 304.722656 C 440.753906 305.644531 442.390625 305.5 443.3125 304.402344 C 445.363281 301.953125 449.230469 301.742188 451.992188 302.796875 C 454.894531 303.90625 457.535156 306.277344 460.070312 310.050781 C 460.570312 310.796875 461.390625 311.199219 462.226562 311.199219 Z M 462.226562 311.199219 " fill-opacity="1" fill-rule="nonzero"/><path fill="#000000" d="M 449.464844 292.347656 C 449.601562 292.347656 449.738281 292.335938 449.878906 292.316406 C 451.292969 292.089844 452.257812 290.757812 452.03125 289.34375 C 451.320312 284.878906 447.734375 280.933594 442.191406 278.523438 C 439.339844 277.289062 436.757812 276.6875 434.285156 276.683594 L 434.265625 276.683594 C 431.394531 276.683594 428.730469 277.496094 426.375 278.210938 C 425.003906 278.628906 424.230469 280.078125 424.648438 281.449219 C 425.066406 282.824219 426.523438 283.597656 427.886719 283.175781 C 429.992188 282.539062 432.167969 281.875 434.265625 281.875 L 434.28125 281.875 C 436.027344 281.875 437.9375 282.339844 440.121094 283.285156 C 441.957031 284.085938 446.296875 286.355469 446.902344 290.160156 C 447.105469 291.4375 448.210938 292.347656 449.464844 292.347656 Z M 449.464844 292.347656 " fill-opacity="1" fill-rule="nonzero"/><path fill="#000000" d="M 437.03125 266.820312 C 437.679688 266.820312 438.328125 266.578125 438.832031 266.09375 C 439.867188 265.097656 439.894531 263.453125 438.898438 262.421875 C 435.4375 258.828125 431.1875 255.863281 426.621094 253.851562 C 422.519531 252.046875 416.414062 250.34375 410.59375 252.464844 C 409.246094 252.957031 408.554688 254.445312 409.046875 255.792969 C 409.539062 257.140625 411.027344 257.832031 412.378906 257.339844 C 416.570312 255.808594 421.296875 257.179688 424.523438 258.601562 C 428.480469 260.34375 432.160156 262.910156 435.160156 266.023438 C 435.667969 266.554688 436.351562 266.820312 437.03125 266.820312 Z M 437.03125 266.820312 " fill-opacity="1" fill-rule="nonzero"/><path fill="#000000" d="M 388.367188 231.066406 C 389.734375 231.066406 390.878906 230.003906 390.957031 228.621094 C 391.269531 223.390625 392.417969 210.492188 396.429688 203.777344 C 396.949219 202.910156 397.214844 202.691406 397.304688 202.632812 C 397.28125 202.683594 397.699219 202.882812 398.546875 203.957031 C 403.429688 210.144531 407.660156 216.875 411.125 223.96875 C 411.753906 225.253906 413.308594 225.789062 414.597656 225.160156 C 415.886719 224.53125 416.417969 222.980469 415.789062 221.691406 C 412.167969 214.265625 407.738281 207.21875 402.625 200.742188 C 401.890625 199.816406 399.664062 196.988281 396.414062 197.519531 C 393.867188 197.941406 392.539062 200.167969 391.972656 201.117188 C 387.539062 208.539062 386.1875 221.34375 385.773438 228.316406 C 385.691406 229.746094 386.78125 230.976562 388.214844 231.058594 C 388.265625 231.0625 388.316406 231.066406 388.367188 231.066406 Z M 388.367188 231.066406 " fill-opacity="1" fill-rule="nonzero"/><path fill="#000000" d="M 459.851562 413.992188 C 460.269531 413.992188 460.699219 413.957031 461.140625 413.867188 C 463.015625 413.488281 464.660156 412.222656 466.035156 410.101562 C 466.277344 409.730469 466.503906 409.351562 466.730469 408.96875 C 467.144531 408.265625 467.542969 407.601562 467.984375 407.128906 C 468.679688 406.6875 469.945312 406.996094 471.742188 407.632812 C 481.65625 411.160156 490.171875 412.210938 497.78125 410.851562 C 507.710938 409.074219 515.824219 402.875 518.949219 394.671875 C 519.460938 393.332031 518.785156 391.835938 517.449219 391.324219 C 516.109375 390.8125 514.605469 391.484375 514.097656 392.824219 C 511.652344 399.234375 504.890625 404.304688 496.867188 405.742188 C 490.171875 406.9375 482.519531 405.953125 473.480469 402.742188 C 471.46875 402.027344 467.726562 400.699219 464.664062 403.125 C 464.59375 403.183594 464.523438 403.242188 464.460938 403.304688 C 463.484375 404.257812 462.835938 405.351562 462.261719 406.320312 C 462.070312 406.640625 461.882812 406.964844 461.679688 407.277344 C 461.117188 408.144531 460.542969 408.691406 460.105469 408.78125 C 459.789062 408.847656 459.203125 408.75 458.890625 408.695312 C 455.128906 408.0625 451.480469 406.585938 448.335938 404.425781 C 447.039062 403.53125 446.785156 403.023438 446.75 402.800781 C 446.714844 402.566406 446.800781 402.074219 446.871094 401.675781 C 447.328125 399.117188 447.792969 396.492188 447.746094 392.714844 C 447.730469 391.667969 447.089844 390.730469 446.117188 390.339844 C 440.003906 387.875 434.011719 384.699219 427.664062 381.339844 L 424.777344 379.8125 C 424.148438 379.484375 423.414062 379.421875 422.746094 379.648438 C 422.074219 379.871094 421.523438 380.359375 421.222656 381 C 420.40625 382.722656 419.410156 384.359375 418.257812 385.875 C 413.214844 383.734375 408.414062 381.035156 403.957031 377.839844 C 404.667969 374.921875 405.421875 371.691406 406.339844 366.945312 C 406.550781 365.871094 406.0625 364.785156 405.128906 364.226562 C 399.902344 361.09375 394.519531 357.863281 388.519531 355.238281 C 387.355469 354.734375 386.003906 355.136719 385.308594 356.191406 L 381.398438 362.136719 L 370.652344 354.960938 C 370.667969 354.863281 370.683594 354.765625 370.699219 354.667969 C 371.214844 351.5 371.796875 347.910156 371.679688 342.851562 C 371.65625 342.046875 371.265625 341.296875 370.617188 340.820312 C 353 327.882812 334.601562 317.585938 314.367188 309.335938 C 313.335938 308.910156 312.140625 309.199219 311.414062 310.050781 L 305.496094 316.949219 C 305.492188 316.949219 305.492188 316.949219 305.488281 316.945312 L 291.71875 309.171875 C 291.617188 309.113281 291.40625 308.996094 291.25 308.894531 C 291.265625 308.746094 291.292969 308.566406 291.308594 308.460938 C 291.886719 304.675781 292.488281 300.761719 292.125 296.027344 C 292.050781 295.070312 291.453125 294.230469 290.570312 293.84375 C 287.320312 292.433594 284.089844 290.796875 280.96875 289.21875 C 278.914062 288.175781 276.878906 287.148438 274.863281 286.1875 C 273.675781 285.625 272.257812 286.035156 271.554688 287.140625 C 269.828125 289.867188 268.1875 292.449219 266.386719 294.894531 C 261.769531 291.996094 257.027344 288.992188 252.175781 285.671875 C 253.519531 283.054688 254.664062 280.308594 255.714844 277.195312 C 256.09375 276.070312 255.660156 274.832031 254.664062 274.1875 C 252.179688 272.578125 250.484375 269.359375 250.234375 265.785156 C 250.019531 262.679688 250.761719 259.183594 252.507812 255.097656 C 253.320312 253.199219 255.027344 249.96875 256.683594 246.84375 C 258.210938 243.953125 259.65625 241.222656 260.472656 239.40625 C 261.0625 238.097656 260.476562 236.5625 259.171875 235.972656 C 257.859375 235.382812 256.324219 235.96875 255.738281 237.277344 C 254.988281 238.945312 253.515625 241.726562 252.09375 244.414062 C 250.386719 247.632812 248.628906 250.964844 247.730469 253.058594 C 245.65625 257.917969 244.78125 262.195312 245.054688 266.144531 C 245.363281 270.605469 247.242188 274.621094 250.183594 277.273438 C 249.113281 280.183594 247.960938 282.683594 246.527344 285.203125 C 245.867188 286.367188 246.199219 287.84375 247.300781 288.613281 C 253.628906 293.027344 259.730469 296.851562 265.632812 300.546875 C 266.75 301.246094 268.214844 301 269.039062 299.96875 C 271.109375 297.378906 272.945312 294.613281 274.695312 291.875 C 275.996094 292.519531 277.304688 293.179688 278.621094 293.847656 C 281.34375 295.230469 284.148438 296.652344 287.027344 297.953125 C 287.128906 301.4375 286.664062 304.480469 286.175781 307.679688 C 286.058594 308.441406 285.867188 309.714844 286.425781 311.003906 C 287.082031 312.519531 288.4375 313.28125 289.164062 313.691406 L 302.933594 321.46875 C 303.621094 321.855469 305.042969 322.660156 306.730469 322.238281 C 308.09375 321.898438 308.917969 320.9375 309.359375 320.421875 L 314.136719 314.851562 C 332.894531 322.652344 350.054688 332.285156 366.5 344.242188 C 366.496094 348.15625 366.027344 351.039062 365.574219 353.835938 C 365.464844 354.5 365.359375 355.152344 365.261719 355.808594 C 365.113281 356.804688 365.550781 357.796875 366.386719 358.351562 L 378.894531 366.707031 C 379.53125 367.132812 381.222656 368.273438 383.199219 367.5 C 384.390625 367.035156 385.011719 366.09375 385.34375 365.585938 L 388.425781 360.898438 C 392.792969 362.957031 396.90625 365.355469 400.890625 367.738281 C 399.980469 372.273438 399.230469 375.324219 398.5 378.289062 C 398.253906 379.292969 398.628906 380.355469 399.460938 380.980469 C 404.820312 385.015625 410.683594 388.359375 416.882812 390.925781 C 417.375 391.128906 418.394531 391.546875 419.605469 391.246094 C 420.878906 390.9375 421.609375 390.011719 421.921875 389.621094 C 422.925781 388.363281 423.839844 387.023438 424.65625 385.621094 L 425.234375 385.925781 C 431.144531 389.058594 436.753906 392.027344 442.535156 394.472656 C 442.445312 396.894531 442.113281 398.777344 441.761719 400.75 C 441.628906 401.503906 441.449219 402.511719 441.621094 403.609375 C 442.015625 406.117188 443.964844 407.71875 445.390625 408.699219 C 449.15625 411.289062 453.527344 413.058594 458.03125 413.816406 C 458.609375 413.914062 459.214844 413.992188 459.851562 413.992188 Z M 459.851562 413.992188 " fill-opacity="1" fill-rule="nonzero"/><path fill="#000000" d="M 278.46875 166.800781 C 279.449219 166.800781 280.390625 166.242188 280.828125 165.292969 C 286.0625 153.945312 293.953125 143.773438 303.640625 135.871094 C 304.753906 134.96875 304.917969 133.332031 304.011719 132.222656 C 303.109375 131.113281 301.46875 130.945312 300.359375 131.851562 C 290.0625 140.246094 281.675781 151.058594 276.109375 163.121094 C 275.511719 164.421875 276.078125 165.964844 277.382812 166.5625 C 277.734375 166.726562 278.105469 166.800781 278.46875 166.800781 Z M 278.46875 166.800781 " fill-opacity="1" fill-rule="nonzero"/><path fill="#000000" d="M 263.417969 162.964844 C 264.371094 162.964844 265.289062 162.4375 265.742188 161.527344 C 269.386719 154.21875 273.585938 147.101562 278.222656 140.378906 C 279.039062 139.199219 278.738281 137.582031 277.558594 136.769531 C 276.378906 135.957031 274.761719 136.253906 273.949219 137.433594 C 269.171875 144.355469 264.847656 151.683594 261.09375 159.210938 C 260.453125 160.496094 260.976562 162.054688 262.261719 162.695312 C 262.632812 162.878906 263.027344 162.964844 263.417969 162.964844 Z M 263.417969 162.964844 " fill-opacity="1" fill-rule="nonzero"/><g clip-path="url(#fab89dfc60)"><path fill="#000000" d="M 480.824219 445.085938 C 489.75 445.085938 498.625 442.125 505.710938 436.589844 C 506.839844 435.703125 507.039062 434.074219 506.15625 432.945312 C 505.269531 431.8125 503.640625 431.613281 502.511719 432.5 C 494.308594 438.90625 483.351562 441.359375 473.191406 439.046875 C 471.792969 438.730469 470.402344 439.601562 470.082031 441 C 469.765625 442.398438 470.640625 443.789062 472.039062 444.109375 C 474.929688 444.765625 477.882812 445.085938 480.824219 445.085938 Z M 480.824219 445.085938 " fill-opacity="1" fill-rule="nonzero"/></g></svg>