<svg xmlns="http://www.w3.org/2000/svg" xmlns:xlink="http://www.w3.org/1999/xlink" width="1024" zoomAndPan="magnify" viewBox="0 0 768 576" height="768" preserveAspectRatio="xMidYMid meet" version="1.0"><defs><clipPath id="033f5c18d3"><path d="M 240.28125 141 L 525 141 L 525 436.085938 L 240.28125 436.085938 Z M 240.28125 141 " clip-rule="nonzero"/></clipPath><clipPath id="8834cf6e4a"><path d="M 320 237 L 439 237 L 439 436.085938 L 320 436.085938 Z M 320 237 " clip-rule="nonzero"/></clipPath></defs><g clip-path="url(#033f5c18d3)"><path fill="#efad89" d="M 518.949219 335.847656 C 518.023438 336.125 517.066406 336.324219 516.125 336.519531 C 507.921875 338.226562 499.578125 340.570312 491.277344 341.617188 C 489.5625 338.785156 489.820312 334.085938 488.410156 330.808594 C 486.707031 326.847656 484.496094 323.117188 481.980469 319.621094 C 473.082031 307.332031 460.085938 297.394531 448.703125 287.28125 C 444.773438 288.003906 441.082031 291.734375 439.210938 295.265625 C 438.769531 296.105469 438.382812 296.96875 438.050781 297.855469 C 436.976562 300.695312 436.398438 303.730469 435.839844 306.726562 C 433.226562 320.554688 431.46875 335.054688 427.371094 348.441406 C 424.007812 359.4375 425.28125 372.847656 428.90625 388.8125 C 430.675781 396.59375 432.503906 400.402344 434.289062 410.640625 C 435.757812 419.058594 436.457031 427.539062 436.394531 436.085938 L 320.726562 436.085938 C 320.921875 426.902344 322.058594 417.835938 324.128906 408.886719 C 327.8125 393.03125 331.40625 390.839844 334.308594 376.539062 C 336.589844 365.277344 336.371094 356.730469 335.957031 340.695312 C 335.773438 333.546875 338.210938 337.945312 332.996094 309.792969 C 332.039062 304.644531 331.0625 299.296875 329.402344 294.316406 C 329.332031 294.105469 329.257812 293.894531 329.171875 293.691406 C 327.742188 290.132812 324.632812 287.632812 322.96875 284 C 318.808594 284.089844 315.972656 286.925781 312.832031 289.246094 C 303.570312 296.085938 294.25 302.976562 286.34375 311.351562 C 278.4375 319.726562 271.433594 329.933594 268.890625 341.167969 C 264.675781 338.714844 259.480469 339.0625 254.613281 338.800781 C 249.746094 338.535156 244.257812 337.128906 242 332.800781 C 240.339844 329.621094 240.9375 325.726562 242.074219 322.335938 C 248.066406 304.351562 268.582031 290.367188 281.710938 277.339844 C 290.640625 268.480469 296.003906 257.617188 305.945312 249.683594 C 310.859375 245.757812 316.429688 242.539062 322.449219 240.636719 C 326.347656 239.40625 330.257812 239.261719 334.175781 238.898438 C 335.796875 238.753906 337.417969 238.566406 339.035156 238.25 C 340.464844 237.972656 341.878906 237.652344 343.285156 237.285156 C 347.453125 236.1875 351.367188 234.460938 355.394531 233.039062 C 359.511719 231.585938 363.683594 229.355469 367.363281 227.023438 C 368.359375 226.390625 369.367188 225.6875 369.96875 224.667969 C 370.304688 224.101562 370.835938 222.851562 370.664062 222.207031 C 370.539062 221.726562 370.222656 221.320312 369.917969 220.9375 C 366.941406 217.085938 365.203125 212.949219 363.890625 208.347656 C 363.71875 207.761719 361.863281 201.433594 361.699219 201.527344 C 360.199219 202.371094 358.269531 202.574219 357.324219 201.035156 C 356.339844 199.433594 355.734375 197.628906 355.328125 195.800781 C 355.128906 194.898438 355.257812 193.953125 355.003906 193.046875 C 354.667969 191.867188 354.171875 190.730469 353.710938 189.589844 C 352.910156 187.617188 352.191406 185.476562 352.613281 183.386719 C 352.777344 182.566406 353.203125 181.699219 354.007812 181.449219 C 355.304688 181.042969 355.808594 182.34375 356.785156 182.667969 C 356.84375 182.5 356.878906 182.328125 356.886719 182.152344 C 356.941406 181.425781 356.738281 180.488281 356.710938 179.84375 C 356.664062 178.835938 356.640625 177.832031 356.632812 176.824219 C 356.617188 174.875 356.675781 172.921875 356.839844 170.976562 C 357.167969 167.113281 357.90625 163.265625 359.253906 159.625 C 363.988281 146.832031 376.152344 139.839844 389.617188 141.511719 C 394.332031 142.101562 398.976562 143.382812 403.238281 145.511719 C 408.027344 147.90625 410.515625 150.21875 412.789062 155.066406 C 417.027344 164.101562 418.449219 174.457031 416.675781 184.289062 C 417.027344 183.5625 417.589844 183.035156 418.183594 182.488281 C 418.445312 182.261719 418.734375 182.082031 419.054688 181.949219 C 419.507812 181.757812 420.007812 181.679688 420.335938 181.941406 C 420.890625 182.375 420.953125 183.996094 420.976562 184.632812 C 421.054688 186.636719 420.441406 188.621094 419.71875 190.464844 C 419.117188 191.992188 418.742188 193.636719 418.113281 195.140625 C 417.5 196.601562 417.03125 197.75 416.933594 199.386719 C 416.859375 200.730469 416.824219 202.121094 416.261719 203.339844 C 415.695312 204.558594 414.429688 205.574219 413.101562 205.375 C 413.085938 212.574219 409.839844 220.347656 405.25 225.886719 C 407.457031 229.96875 409.070312 231.734375 413.367188 233.238281 L 427.480469 238.175781 L 428.84375 238.652344 L 437.175781 241.570312 L 455.707031 248.054688 C 465.433594 251.460938 470 260.613281 476.617188 268.527344 C 491.175781 285.949219 508.816406 299.945312 520.445312 319.726562 C 522.949219 323.980469 527.476562 330.992188 521.734375 334.632812 C 520.863281 335.167969 519.933594 335.570312 518.949219 335.847656 Z M 518.949219 335.847656 " fill-opacity="1" fill-rule="nonzero"/></g><g clip-path="url(#8834cf6e4a)"><path fill="#3b7b8c" d="M 434.285156 410.648438 C 435.75 419.066406 436.457031 427.542969 436.394531 436.085938 L 320.726562 436.085938 C 320.921875 426.902344 322.058594 417.835938 324.128906 408.886719 C 327.8125 393.03125 331.40625 390.839844 334.308594 376.539062 C 336.589844 365.277344 336.371094 356.730469 335.957031 340.695312 C 335.773438 333.546875 338.210938 337.945312 332.996094 309.792969 C 332.039062 304.644531 331.0625 299.296875 329.402344 294.316406 C 329.332031 294.105469 329.257812 293.894531 329.171875 293.691406 C 328.757812 292.660156 330.425781 289.15625 330.753906 287.90625 C 331.5 285.042969 332.261719 282.195312 332.855469 279.296875 C 334.019531 273.628906 334.738281 267.898438 335.003906 262.117188 C 335.082031 260.496094 334.433594 238.941406 334.296875 238.964844 C 335.859375 238.6875 337.464844 238.558594 339.039062 238.253906 C 340.433594 237.984375 341.820312 237.667969 343.195312 237.304688 C 344.214844 243.421875 343.65625 249.6875 344.066406 255.964844 C 344.535156 263.074219 345.664062 270.078125 347.453125 276.972656 C 350.230469 287.65625 357.304688 295.703125 368.773438 297.207031 C 377.632812 298.40625 386.523438 298.824219 395.453125 298.457031 C 402.074219 298.203125 409.359375 296.699219 414.417969 292.117188 C 421.417969 285.777344 421.660156 276.457031 422.867188 267.730469 C 424.222656 257.929688 425.347656 247.964844 428.863281 238.648438 L 437.195312 241.5625 C 433.894531 253.722656 432.332031 266.335938 431.816406 278.9375 C 431.652344 283.011719 431.65625 287.191406 433.011719 291.039062 C 433.964844 293.746094 435.664062 296.261719 438.0625 297.855469 C 436.988281 300.691406 436.410156 303.726562 435.851562 306.722656 C 433.238281 320.550781 431.480469 335.054688 427.382812 348.441406 C 424.019531 359.4375 425.292969 372.847656 428.917969 388.808594 C 430.667969 396.601562 432.496094 400.414062 434.285156 410.648438 Z M 434.285156 410.648438 " fill-opacity="1" fill-rule="nonzero"/></g><path fill="#6e5042" d="M 417.007812 181.738281 C 416.914062 182.652344 416.84375 183.5625 416.835938 184.480469 C 416.835938 184.566406 415.464844 184.460938 415.285156 184.386719 C 414.453125 184.03125 414.0625 183.070312 413.339844 182.523438 C 412.617188 181.976562 411.140625 182.445312 411.496094 183.28125 C 411.679688 183.722656 412.515625 183.765625 412.671875 184.597656 C 412.820312 185.375 412.855469 185.980469 413.050781 186.785156 C 413.460938 188.464844 412.738281 190.304688 411.761719 191.660156 C 410.492188 193.429688 408.734375 194.820312 407.617188 196.6875 C 406.953125 197.800781 406.539062 199.046875 405.878906 200.167969 C 405.21875 201.289062 404.226562 202.3125 402.949219 202.539062 C 402.441406 202.621094 401.953125 202.554688 401.484375 202.347656 C 401.019531 202.136719 400.644531 201.816406 400.371094 201.382812 C 400.03125 200.875 400.046875 200.644531 399.617188 200.1875 C 399.1875 199.726562 398.660156 199.347656 398.21875 198.882812 C 397.601562 198.238281 396.929688 197.652344 396.207031 197.128906 C 395.480469 196.605469 394.714844 196.148438 393.910156 195.765625 C 393.101562 195.382812 392.269531 195.074219 391.40625 194.839844 C 390.542969 194.609375 389.667969 194.453125 388.777344 194.382812 C 387.886719 194.308594 386.996094 194.316406 386.105469 194.40625 C 385.21875 194.496094 384.34375 194.664062 383.484375 194.914062 C 382.628906 195.160156 381.796875 195.484375 381 195.882812 C 380.199219 196.285156 379.441406 196.753906 378.726562 197.289062 C 376.894531 198.652344 375.363281 200.652344 372.816406 199.175781 C 372.375 198.925781 372.089844 198.453125 371.648438 198.261719 C 371.074219 198.007812 370.175781 198.125 369.566406 198.148438 C 368.566406 198.191406 367.535156 198.257812 366.59375 197.917969 C 365.316406 197.457031 364.382812 196.304688 363.882812 195.042969 C 363.386719 193.785156 363.113281 192.375 362.792969 191.0625 C 361.925781 187.515625 359.53125 184.78125 356.886719 182.167969 C 356.941406 181.4375 356.738281 180.503906 356.710938 179.855469 C 356.664062 178.851562 356.640625 177.84375 356.632812 176.839844 C 356.617188 174.886719 356.675781 172.933594 356.839844 170.988281 C 357.167969 167.125 357.90625 163.28125 359.253906 159.640625 C 363.988281 146.832031 376.152344 139.839844 389.617188 141.511719 C 394.332031 142.101562 398.976562 143.382812 403.238281 145.511719 C 408.027344 147.90625 410.515625 150.21875 412.789062 155.066406 C 414.40625 158.523438 415.601562 162.117188 416.382812 165.855469 C 417.164062 169.589844 417.503906 173.363281 417.40625 177.179688 C 417.363281 178.707031 417.160156 180.222656 417.007812 181.738281 Z M 417.007812 181.738281 " fill-opacity="1" fill-rule="nonzero"/><path fill="#634539" d="M 362.035156 191.136719 C 361.082031 189.660156 360.726562 187.9375 360.21875 186.285156 C 359.65625 184.449219 359.386719 182.574219 359.40625 180.652344 C 361.5625 181.265625 362.972656 182.589844 365.285156 182.738281 C 362.644531 178.714844 360.976562 174.324219 360.277344 169.5625 C 361.398438 170.921875 362.722656 172.03125 364.257812 172.898438 C 365.792969 173.765625 367.429688 174.324219 369.171875 174.582031 C 367.089844 170.035156 365.964844 165.265625 365.792969 160.269531 C 365.972656 161.097656 366.308594 161.859375 366.804688 162.546875 C 367.300781 163.234375 367.914062 163.796875 368.644531 164.230469 L 368.777344 153.664062 L 370.910156 156.957031 L 373.726562 150.785156 L 375.429688 155.652344 C 376.746094 154.851562 377.90625 153.875 378.917969 152.71875 C 379.929688 151.5625 380.746094 150.277344 381.363281 148.871094 C 382.335938 151.535156 382.84375 154.285156 382.890625 157.125 C 384.207031 156 385.3125 154.699219 386.207031 153.214844 C 387.097656 151.730469 387.730469 150.140625 388.105469 148.449219 L 388.289062 153.078125 C 389.792969 152.089844 390.84375 150.75 391.449219 149.054688 C 392.039062 149.871094 391.761719 150.992188 391.621094 151.992188 C 391.476562 152.988281 391.699219 154.277344 392.667969 154.542969 C 393.140625 154.675781 393.640625 154.503906 394.089844 154.308594 C 396.128906 153.433594 397.847656 152.132812 399.246094 150.40625 C 398.785156 152.070312 398.089844 153.632812 397.167969 155.09375 C 396.242188 156.554688 395.128906 157.851562 393.824219 158.988281 C 397.433594 157.71875 400.746094 155.902344 403.753906 153.539062 C 402.777344 155.78125 401.53125 157.859375 400.019531 159.78125 C 398.507812 161.699219 396.777344 163.398438 394.828125 164.875 C 397.21875 164.808594 399.523438 164.34375 401.753906 163.476562 C 403.980469 162.613281 406 161.402344 407.808594 159.839844 C 407.253906 162.566406 406.242188 165.113281 404.773438 167.472656 C 403.300781 169.835938 401.464844 171.863281 399.261719 173.5625 C 402.542969 172.890625 405.585938 171.640625 408.398438 169.820312 C 406.351562 173.511719 405.648438 177.222656 402.394531 180.300781 C 403.582031 180.320312 404.742188 180.144531 405.871094 179.777344 C 407 179.40625 408.039062 178.863281 408.988281 178.144531 C 408.414062 179.820312 407.617188 181.382812 406.589844 182.828125 C 405.566406 184.269531 404.355469 185.539062 402.960938 186.632812 C 405.570312 186.351562 408.175781 185.945312 410.78125 185.613281 C 409.71875 187.625 408.273438 189.304688 406.445312 190.65625 C 405.519531 191.339844 404.414062 192.058594 404.25 193.203125 C 404.148438 193.90625 404.445312 194.601562 404.648438 195.28125 C 404.933594 196.230469 405.046875 197.199219 404.992188 198.183594 C 404.933594 199.171875 404.714844 200.121094 404.332031 201.03125 C 403.65625 202.613281 402.25 204.089844 400.53125 204.042969 C 399.269531 204.011719 398.191406 203.1875 397.117188 202.519531 C 394.273438 200.75 391.226562 200.25 387.933594 200.140625 C 383.507812 199.996094 379.019531 199.839844 374.789062 198.519531 C 373.546875 198.136719 372.546875 197.5 371.414062 196.949219 C 370.304688 196.40625 369.03125 196.132812 367.898438 195.636719 C 365.613281 194.636719 363.410156 193.265625 362.035156 191.136719 Z M 362.035156 191.136719 " fill-opacity="1" fill-rule="nonzero"/><path fill="#a87159" d="M 356.394531 182.949219 C 357.160156 184.695312 357.804688 186.484375 358.332031 188.320312 C 358.863281 190.160156 359.265625 192.027344 359.546875 193.921875 C 359.707031 194.980469 359.820312 196.042969 359.894531 197.113281 C 359.902344 197.296875 359.996094 197.390625 360.175781 197.398438 C 360.253906 197.394531 360.320312 197.367188 360.375 197.3125 C 360.429688 197.257812 360.460938 197.191406 360.460938 197.113281 C 360.1875 193.214844 359.402344 189.425781 358.101562 185.742188 C 357.734375 184.699219 357.328125 183.671875 356.882812 182.660156 C 356.839844 182.59375 356.785156 182.546875 356.707031 182.527344 C 356.632812 182.507812 356.5625 182.519531 356.492188 182.558594 C 356.339844 182.65625 356.308594 182.785156 356.390625 182.945312 Z M 356.394531 182.949219 " fill-opacity="1" fill-rule="nonzero"/><path fill="#a87159" d="M 416.546875 185.015625 C 415.824219 187.367188 415.210938 189.746094 414.710938 192.15625 C 414.210938 194.566406 413.820312 196.996094 413.542969 199.441406 C 413.386719 200.8125 413.265625 202.191406 413.183594 203.570312 C 413.183594 203.648438 413.210938 203.714844 413.265625 203.769531 C 413.324219 203.824219 413.390625 203.855469 413.46875 203.855469 C 413.546875 203.855469 413.613281 203.824219 413.667969 203.769531 C 413.722656 203.714844 413.75 203.648438 413.75 203.570312 C 413.898438 201.144531 414.15625 198.726562 414.527344 196.316406 C 414.898438 193.90625 415.382812 191.515625 415.980469 189.136719 C 416.316406 187.804688 416.683594 186.484375 417.089844 185.171875 C 417.195312 184.824219 416.648438 184.675781 416.542969 185.023438 Z M 416.546875 185.015625 " fill-opacity="1" fill-rule="nonzero"/><path fill="#6e5042" d="M 405.4375 261.476562 C 407.691406 262.507812 411.015625 262.449219 412.714844 260.378906 C 413.097656 259.90625 413.367188 259.371094 413.523438 258.78125 C 413.679688 258.1875 413.707031 257.59375 413.605469 256.988281 C 412.898438 257.75 411.746094 258 410.734375 257.773438 C 409.71875 257.550781 408.835938 256.90625 408.144531 256.132812 C 406.851562 254.679688 406.558594 253.3125 406.042969 251.523438 C 405.09375 248.175781 404.417969 244.777344 404.011719 241.324219 C 403.152344 234.339844 403.179688 227.277344 403.355469 220.246094 C 403.667969 207.6875 404.324219 194.691406 400.484375 182.550781 C 398.152344 175.179688 396.886719 162.722656 388.734375 159.128906 C 379.441406 155.03125 371.613281 172.371094 368.515625 178.253906 C 362.414062 189.871094 360.523438 205.066406 359.714844 218.015625 C 358.589844 236.03125 362.710938 253.011719 364.535156 270.671875 C 364.828125 273.574219 364.535156 276.953125 362.644531 279.308594 C 361.863281 280.265625 360.925781 281.019531 359.820312 281.570312 C 358.71875 282.125 357.550781 282.425781 356.316406 282.476562 C 358.191406 285.21875 362.222656 285.921875 365.257812 284.570312 C 368.425781 283.15625 371.476562 279.523438 372.515625 276.246094 C 372.199219 277.246094 372.324219 278.800781 372.136719 279.871094 C 371.914062 281.125 371.988281 282.460938 372.136719 283.726562 C 372.453125 286.546875 373.375 289.148438 374.910156 291.539062 C 377.390625 295.371094 381.402344 300.25 386.527344 299.4375 C 385.867188 299.542969 385.675781 296.855469 385.703125 296.507812 C 385.820312 295.296875 386.046875 294.105469 386.382812 292.9375 C 389.082031 297.667969 395.300781 299.640625 400.351562 297.484375 C 400.820312 297.28125 401.359375 296.882812 401.234375 296.386719 C 401.109375 295.890625 400.457031 295.8125 399.960938 295.6875 C 398.574219 295.332031 397.683594 293.886719 397.523438 292.464844 C 397.324219 290.679688 398.113281 289.023438 398.167969 287.265625 C 401.800781 291.617188 409.972656 295.757812 415.5 292.710938 C 416.195312 292.355469 416.769531 291.859375 417.222656 291.226562 C 417.929688 290.164062 417.679688 288.730469 417.707031 287.515625 C 417.328125 288.207031 416.445312 288.5 415.664062 288.382812 C 414.886719 288.265625 414.203125 287.8125 413.601562 287.308594 C 411.671875 285.703125 410.851562 283.6875 409.738281 281.535156 C 408.457031 279.050781 407.273438 276.523438 406.203125 273.941406 C 405.167969 271.449219 404.222656 268.917969 403.363281 266.351562 C 402.5625 263.964844 401.265625 261.144531 401.074219 258.640625 C 401.796875 258.460938 402.398438 259.367188 402.902344 259.792969 C 403.667969 260.472656 404.515625 261.03125 405.4375 261.476562 Z M 405.4375 261.476562 " fill-opacity="1" fill-rule="nonzero"/><path fill="#634539" d="M 384.609375 162.683594 C 369.925781 176.558594 364.273438 197.941406 364.753906 217.65625 C 365.171875 235.863281 370.097656 253.917969 368.109375 272.179688 C 367.984375 273.367188 367.785156 274.699219 367.609375 275.855469 C 367.707031 275.0625 367.886719 273.824219 367.945312 273.09375 C 368.351562 269.089844 368.484375 265.082031 368.335938 261.058594 C 367.875 246.53125 364.625 232.203125 364.28125 217.667969 C 363.816406 197.859375 369.585938 176.378906 384.609375 162.683594 Z M 384.609375 162.683594 " fill-opacity="1" fill-rule="nonzero"/><path fill="#634539" d="M 385.683594 167.820312 C 380.429688 179.578125 376.671875 191.792969 374.402344 204.46875 C 372.066406 217.101562 372.488281 230 372.699219 242.785156 C 372.882812 253.710938 374.191406 264.5 376.628906 275.152344 C 377.378906 278.503906 378.34375 282.078125 379.316406 285.375 C 379.59375 286.28125 379.90625 287.292969 380.167969 288.132812 C 379.8125 287.046875 379.304688 285.539062 378.992188 284.472656 C 378.066406 281.503906 377.160156 278.21875 376.4375 275.199219 C 375.683594 272.136719 375.035156 268.882812 374.484375 265.777344 C 372.644531 255.675781 372.179688 245.355469 372.125 235.101562 C 371.921875 224.203125 372.148438 213.214844 374.367188 202.503906 C 376.734375 190.484375 380.511719 178.921875 385.691406 167.820312 Z M 385.683594 167.820312 " fill-opacity="1" fill-rule="nonzero"/><path fill="#634539" d="M 387.152344 166.976562 C 380.714844 191.277344 378.277344 216.65625 380.113281 241.738281 C 380.296875 244.242188 380.460938 246.738281 381.046875 249.1875 C 381.585938 251.644531 382.265625 254.089844 382.519531 256.605469 C 383.214844 264.101562 384.253906 271.644531 386.792969 278.761719 L 387.457031 280.527344 L 388.183594 282.269531 L 388.972656 283.984375 L 389.828125 285.664062 L 388.945312 283.996094 L 388.125 282.296875 L 387.367188 280.570312 L 386.679688 278.800781 C 384.027344 271.703125 382.917969 264.140625 382.160156 256.644531 C 382.011719 255.398438 381.792969 254.167969 381.503906 252.949219 C 380.949219 250.492188 380.257812 248.050781 379.996094 245.53125 C 379.867188 244.273438 379.769531 243.027344 379.671875 241.765625 C 379.339844 237.375 379.128906 232.960938 379.082031 228.554688 C 378.769531 207.636719 381.460938 187.109375 387.15625 166.972656 Z M 387.152344 166.976562 " fill-opacity="1" fill-rule="nonzero"/><path fill="#634539" d="M 392.402344 169.035156 L 393.074219 170.195312 L 393.707031 171.375 C 394.011719 171.980469 394.574219 173.179688 394.839844 173.800781 C 404.828125 197.8125 391.769531 225.082031 402.058594 249.023438 C 402.316406 249.601562 402.921875 250.863281 403.21875 251.433594 L 403.859375 252.613281 L 403.183594 251.457031 L 402.554688 250.277344 L 401.964844 249.070312 C 393.429688 230.246094 399.804688 209.246094 398.144531 189.449219 C 397.589844 182.371094 395.941406 175.25 392.394531 169.042969 Z M 392.402344 169.035156 " fill-opacity="1" fill-rule="nonzero"/><path fill="#634539" d="M 389.273438 166.539062 C 398.410156 203.996094 386.449219 245.804688 406.25 280.667969 C 406.695312 281.445312 407.726562 283.113281 408.21875 283.871094 C 407.683594 283.089844 406.679688 281.511719 406.191406 280.707031 C 401.019531 272.085938 397.886719 262.386719 396.003906 252.550781 C 390.550781 224.179688 395.640625 194.789062 389.273438 166.535156 Z M 389.273438 166.539062 " fill-opacity="1" fill-rule="nonzero"/><path fill="#ce3838" d="M 354.160156 381.585938 C 354.160156 382.679688 354.222656 383.769531 354.347656 384.855469 C 354.472656 385.941406 354.660156 387.015625 354.90625 388.078125 C 355.15625 389.144531 355.464844 390.191406 355.832031 391.21875 C 356.199219 392.25 356.625 393.253906 357.109375 394.234375 C 357.59375 395.214844 358.128906 396.164062 358.722656 397.082031 C 359.3125 398 359.957031 398.882812 360.648438 399.726562 C 361.34375 400.574219 362.082031 401.375 362.867188 402.136719 C 363.652344 402.894531 364.476562 403.609375 365.34375 404.273438 C 366.210938 404.9375 367.113281 405.550781 368.050781 406.113281 C 368.988281 406.675781 369.953125 407.183594 370.949219 407.632812 C 371.945312 408.085938 372.960938 408.476562 374.003906 408.8125 C 375.042969 409.148438 376.097656 409.421875 377.171875 409.632812 C 378.242188 409.847656 379.320312 410 380.410156 410.085938 C 381.5 410.175781 382.589844 410.203125 383.683594 410.167969 C 384.773438 410.132812 385.859375 410.035156 386.941406 409.875 C 388.023438 409.714844 389.089844 409.492188 390.144531 409.207031 C 391.199219 408.925781 392.238281 408.582031 393.253906 408.179688 C 394.269531 407.78125 395.257812 407.320312 396.222656 406.804688 C 397.1875 406.289062 398.117188 405.722656 399.015625 405.101562 C 399.914062 404.476562 400.773438 403.808594 401.59375 403.085938 C 402.417969 402.367188 403.195312 401.601562 403.925781 400.789062 C 404.660156 399.980469 405.347656 399.132812 405.984375 398.242188 C 406.617188 397.355469 407.203125 396.433594 407.734375 395.476562 C 408.265625 394.519531 408.738281 393.539062 409.15625 392.527344 C 409.574219 391.519531 409.933594 390.488281 410.234375 389.4375 C 410.535156 388.386719 410.773438 387.320312 410.949219 386.242188 C 411.128906 385.164062 411.246094 384.082031 411.296875 382.988281 C 411.351562 381.898438 411.34375 380.804688 411.269531 379.714844 C 411.199219 378.625 411.066406 377.542969 410.871094 376.464844 C 410.675781 375.390625 410.417969 374.328125 410.101562 373.285156 C 409.785156 372.238281 409.410156 371.214844 408.972656 370.210938 C 408.539062 369.207031 408.046875 368.234375 407.503906 367.285156 C 406.957031 366.339844 406.359375 365.425781 405.707031 364.550781 C 405.054688 363.671875 404.355469 362.832031 403.609375 362.035156 C 402.863281 361.238281 402.074219 360.484375 401.238281 359.777344 C 400.40625 359.070312 399.535156 358.414062 398.628906 357.808594 C 397.71875 357.199219 396.777344 356.648438 395.808594 356.148438 C 394.835938 355.648438 393.839844 355.207031 392.816406 354.820312 C 391.792969 354.4375 390.75 354.109375 389.691406 353.84375 C 388.632812 353.578125 387.5625 353.375 386.476562 353.234375 C 385.394531 353.089844 384.304688 353.007812 383.214844 352.992188 C 382.121094 352.972656 381.03125 353.019531 379.945312 353.125 C 378.855469 353.234375 377.78125 353.402344 376.710938 353.632812 C 375.644531 353.863281 374.59375 354.15625 373.558594 354.503906 C 372.523438 354.855469 371.511719 355.265625 370.523438 355.734375 C 369.535156 356.199219 368.578125 356.722656 367.652344 357.300781 C 366.722656 357.878906 365.832031 358.507812 364.976562 359.1875 C 364.121094 359.863281 363.304688 360.589844 362.535156 361.363281 C 361.203125 362.6875 360.011719 364.132812 358.96875 365.691406 C 357.921875 367.253906 357.042969 368.902344 356.324219 370.636719 C 355.605469 372.371094 355.0625 374.160156 354.699219 376.003906 C 354.335938 377.847656 354.15625 379.707031 354.160156 381.585938 Z M 355.691406 381.585938 C 355.691406 366.660156 367.828125 354.519531 382.746094 354.519531 C 397.664062 354.519531 409.800781 366.660156 409.800781 381.585938 C 409.800781 396.507812 397.664062 408.648438 382.746094 408.648438 C 367.828125 408.648438 355.691406 396.507812 355.691406 381.585938 Z M 355.691406 381.585938 " fill-opacity="1" fill-rule="nonzero"/><path fill="#ce3838" d="M 361.984375 381.585938 C 361.984375 393.039062 371.296875 402.359375 382.746094 402.359375 C 394.195312 402.359375 403.507812 393.039062 403.507812 381.585938 C 403.507812 370.132812 394.195312 360.8125 382.746094 360.8125 C 371.296875 360.8125 361.984375 370.132812 361.984375 381.585938 Z M 363.898438 381.585938 C 363.898438 380.96875 363.929688 380.351562 363.988281 379.738281 C 364.050781 379.121094 364.140625 378.511719 364.261719 377.90625 C 364.382812 377.296875 364.53125 376.699219 364.710938 376.109375 C 364.890625 375.515625 365.097656 374.9375 365.335938 374.363281 C 365.570312 373.792969 365.835938 373.234375 366.125 372.691406 C 366.417969 372.144531 366.734375 371.617188 367.078125 371.101562 C 367.421875 370.589844 367.789062 370.09375 368.179688 369.617188 C 368.570312 369.136719 368.988281 368.679688 369.421875 368.242188 C 369.859375 367.808594 370.316406 367.390625 370.792969 367 C 371.273438 366.609375 371.769531 366.242188 372.28125 365.898438 C 372.796875 365.554688 373.324219 365.238281 373.867188 364.945312 C 374.414062 364.652344 374.972656 364.390625 375.542969 364.152344 C 376.113281 363.917969 376.695312 363.710938 377.285156 363.53125 C 377.875 363.351562 378.472656 363.199219 379.082031 363.078125 C 379.6875 362.960938 380.296875 362.867188 380.910156 362.808594 C 381.527344 362.746094 382.140625 362.71875 382.761719 362.71875 C 383.378906 362.71875 383.992188 362.746094 384.609375 362.808594 C 385.222656 362.867188 385.832031 362.960938 386.4375 363.078125 C 387.046875 363.199219 387.644531 363.351562 388.234375 363.53125 C 388.824219 363.710938 389.40625 363.917969 389.976562 364.152344 C 390.546875 364.390625 391.105469 364.652344 391.652344 364.945312 C 392.195312 365.238281 392.726562 365.554688 393.238281 365.898438 C 393.75 366.242188 394.246094 366.609375 394.726562 367 C 395.203125 367.390625 395.660156 367.808594 396.097656 368.242188 C 396.53125 368.679688 396.949219 369.136719 397.339844 369.617188 C 397.730469 370.09375 398.097656 370.589844 398.441406 371.101562 C 398.785156 371.617188 399.101562 372.144531 399.394531 372.691406 C 399.683594 373.234375 399.949219 373.792969 400.183594 374.363281 C 400.421875 374.9375 400.628906 375.515625 400.808594 376.109375 C 400.988281 376.699219 401.136719 377.296875 401.257812 377.90625 C 401.378906 378.511719 401.46875 379.121094 401.53125 379.738281 C 401.589844 380.351562 401.621094 380.96875 401.621094 381.585938 C 401.621094 382.203125 401.589844 382.820312 401.53125 383.433594 C 401.46875 384.050781 401.378906 384.660156 401.257812 385.265625 C 401.136719 385.871094 400.988281 386.472656 400.808594 387.0625 C 400.628906 387.65625 400.421875 388.234375 400.183594 388.804688 C 399.949219 389.378906 399.683594 389.933594 399.394531 390.480469 C 399.101562 391.027344 398.785156 391.554688 398.441406 392.070312 C 398.097656 392.582031 397.730469 393.078125 397.339844 393.554688 C 396.949219 394.035156 396.53125 394.492188 396.097656 394.929688 C 395.660156 395.363281 395.203125 395.78125 394.726562 396.171875 C 394.246094 396.5625 393.75 396.929688 393.238281 397.273438 C 392.726562 397.617188 392.195312 397.933594 391.652344 398.226562 C 391.105469 398.519531 390.546875 398.78125 389.976562 399.019531 C 389.40625 399.253906 388.824219 399.460938 388.234375 399.640625 C 387.644531 399.820312 387.046875 399.972656 386.4375 400.089844 C 385.832031 400.210938 385.222656 400.304688 384.609375 400.363281 C 383.992188 400.425781 383.378906 400.453125 382.761719 400.453125 C 382.140625 400.453125 381.527344 400.421875 380.910156 400.363281 C 380.296875 400.300781 379.6875 400.210938 379.082031 400.089844 C 378.476562 399.96875 377.875 399.820312 377.285156 399.640625 C 376.695312 399.460938 376.113281 399.253906 375.542969 399.015625 C 374.972656 398.777344 374.414062 398.515625 373.871094 398.222656 C 373.324219 397.933594 372.796875 397.617188 372.28125 397.273438 C 371.769531 396.929688 371.273438 396.5625 370.796875 396.167969 C 370.316406 395.777344 369.859375 395.363281 369.425781 394.925781 C 368.988281 394.488281 368.574219 394.03125 368.179688 393.554688 C 367.789062 393.078125 367.421875 392.582031 367.078125 392.066406 C 366.734375 391.554688 366.417969 391.023438 366.125 390.480469 C 365.835938 389.933594 365.570312 389.375 365.332031 388.804688 C 365.097656 388.234375 364.890625 387.652344 364.710938 387.0625 C 364.53125 386.472656 364.378906 385.871094 364.257812 385.265625 C 364.136719 384.660156 364.046875 384.050781 363.984375 383.433594 C 363.925781 382.820312 363.894531 382.203125 363.894531 381.585938 Z M 363.898438 381.585938 " fill-opacity="1" fill-rule="nonzero"/><path fill="#ce3838" d="M 395.632812 381.585938 C 395.632812 382.433594 395.550781 383.269531 395.382812 384.101562 C 395.21875 384.929688 394.976562 385.738281 394.652344 386.519531 C 394.328125 387.300781 393.929688 388.042969 393.460938 388.746094 C 392.992188 389.453125 392.457031 390.101562 391.859375 390.699219 C 391.261719 391.300781 390.609375 391.835938 389.90625 392.304688 C 389.203125 392.773438 388.460938 393.171875 387.675781 393.496094 C 386.894531 393.820312 386.089844 394.0625 385.261719 394.230469 C 384.429688 394.394531 383.59375 394.476562 382.746094 394.476562 C 381.902344 394.476562 381.0625 394.394531 380.234375 394.230469 C 379.402344 394.0625 378.597656 393.820312 377.816406 393.496094 C 377.035156 393.171875 376.292969 392.773438 375.585938 392.304688 C 374.882812 391.835938 374.234375 391.300781 373.636719 390.699219 C 373.035156 390.101562 372.503906 389.453125 372.03125 388.746094 C 371.5625 388.042969 371.164062 387.300781 370.839844 386.519531 C 370.519531 385.738281 370.273438 384.929688 370.109375 384.101562 C 369.945312 383.269531 369.859375 382.433594 369.859375 381.585938 C 369.859375 380.738281 369.945312 379.902344 370.109375 379.070312 C 370.273438 378.242188 370.519531 377.433594 370.839844 376.652344 C 371.164062 375.871094 371.5625 375.128906 372.03125 374.425781 C 372.503906 373.71875 373.035156 373.070312 373.636719 372.46875 C 374.234375 371.871094 374.882812 371.335938 375.585938 370.867188 C 376.292969 370.398438 377.035156 370 377.816406 369.675781 C 378.597656 369.351562 379.402344 369.109375 380.234375 368.941406 C 381.0625 368.777344 381.902344 368.695312 382.746094 368.695312 C 383.59375 368.695312 384.429688 368.777344 385.261719 368.941406 C 386.089844 369.109375 386.894531 369.351562 387.675781 369.675781 C 388.460938 370 389.203125 370.398438 389.90625 370.867188 C 390.609375 371.335938 391.261719 371.871094 391.859375 372.46875 C 392.457031 373.070312 392.992188 373.71875 393.460938 374.425781 C 393.929688 375.128906 394.328125 375.871094 394.652344 376.652344 C 394.976562 377.433594 395.21875 378.242188 395.382812 379.070312 C 395.550781 379.902344 395.632812 380.738281 395.632812 381.585938 Z M 395.632812 381.585938 " fill-opacity="1" fill-rule="nonzero"/><path fill="#efad89" d="M 370.636719 377.59375 C 371.984375 377.917969 373.339844 378.371094 374.40625 379.253906 C 375.476562 380.136719 376.214844 381.527344 376 382.894531 C 375.785156 384.265625 374.585938 385.472656 373.230469 385.195312 C 373.589844 385.738281 373.953125 386.292969 374.148438 386.914062 C 374.347656 387.535156 374.359375 388.242188 374.035156 388.8125 C 373.410156 389.902344 371.871094 390.019531 370.660156 389.699219 C 368.320312 389.0625 366.082031 387.542969 363.6875 387.921875 C 364.503906 388.363281 364.230469 389.730469 363.421875 390.1875 C 362.617188 390.644531 361.613281 390.472656 360.707031 390.269531 C 356.199219 389.273438 351.679688 387.871094 347.914062 385.203125 C 344.144531 382.53125 341.019531 378.257812 340.664062 373.652344 C 337.6875 370.53125 335.28125 367.023438 333.441406 363.121094 C 332.621094 361.382812 332.21875 359.460938 331.429688 357.761719 C 330.617188 356.011719 328.972656 354.269531 327.625 352.914062 C 321.558594 346.828125 312.019531 348.296875 304.105469 347.449219 C 295.015625 346.472656 286.003906 345.007812 277.074219 343.050781 C 269.804688 341.460938 262.632812 339.714844 255.332031 338.273438 C 254.9375 338.195312 254.511719 338.101562 254.261719 337.789062 C 253.835938 337.277344 254.113281 336.507812 254.417969 335.914062 C 256.695312 331.492188 259.820312 327.957031 262.898438 324.15625 C 266.273438 319.984375 272.269531 319.753906 277.363281 319.746094 C 281.019531 319.746094 283.824219 320.828125 286.921875 322.769531 C 292.921875 326.539062 299.632812 329.074219 306.496094 330.75 C 309.953125 331.589844 313.445312 332.160156 316.960938 332.675781 C 318.351562 332.878906 319.566406 333.421875 320.976562 333.578125 C 322.734375 333.769531 324.488281 334.019531 326.183594 334.53125 C 327.261719 334.847656 328.292969 335.277344 329.277344 335.824219 C 330.761719 336.664062 332.09375 337.804688 333.699219 338.390625 C 334.9375 338.847656 336.28125 338.945312 337.539062 339.347656 C 338.746094 339.746094 339.804688 340.382812 340.722656 341.261719 C 341.636719 342.144531 342.316406 343.179688 342.761719 344.367188 C 343.90625 347.488281 347.035156 350.105469 349.0625 352.769531 C 351.207031 355.582031 352.910156 359.003906 355.289062 361.601562 C 356.847656 363.3125 358.917969 364.441406 360.785156 365.765625 C 362.625 367.070312 364.273438 368.566406 366.152344 369.828125 C 367.453125 370.699219 368.769531 371.589844 369.78125 372.777344 C 370.457031 373.550781 370.925781 374.429688 371.1875 375.421875 C 371.308594 375.941406 371.574219 377.519531 370.636719 377.59375 Z M 370.636719 377.59375 " fill-opacity="1" fill-rule="nonzero"/><path fill="#a87159" d="M 348.414062 366.199219 C 349.753906 367.203125 351.167969 368.085938 352.65625 368.851562 C 353.402344 369.234375 354.167969 369.589844 354.945312 369.910156 C 355.710938 370.226562 356.492188 370.488281 357.269531 370.769531 C 358.765625 371.332031 360.203125 372.011719 361.585938 372.816406 C 362.984375 373.609375 364.339844 374.46875 365.710938 375.3125 C 367.082031 376.160156 368.453125 376.988281 369.898438 377.710938 C 370.078125 377.804688 370.261719 377.890625 370.445312 377.980469 C 370.605469 378.066406 370.734375 378.03125 370.832031 377.878906 C 370.871094 377.8125 370.878906 377.738281 370.859375 377.664062 C 370.839844 377.589844 370.796875 377.53125 370.730469 377.492188 C 369.277344 376.777344 367.867188 375.992188 366.496094 375.132812 C 365.125 374.292969 363.773438 373.425781 362.382812 372.625 C 360.992188 371.800781 359.546875 371.078125 358.046875 370.46875 C 357.285156 370.171875 356.503906 369.925781 355.742188 369.628906 C 354.980469 369.332031 354.222656 369.003906 353.484375 368.640625 C 351.988281 367.910156 350.566406 367.058594 349.214844 366.085938 C 349.042969 365.964844 348.875 365.839844 348.707031 365.714844 C 348.640625 365.671875 348.566406 365.660156 348.488281 365.679688 C 348.410156 365.695312 348.351562 365.742188 348.308594 365.8125 C 348.269531 365.878906 348.261719 365.953125 348.28125 366.03125 C 348.304688 366.109375 348.351562 366.164062 348.421875 366.203125 Z M 348.414062 366.199219 " fill-opacity="1" fill-rule="nonzero"/><path fill="#a87159" d="M 347.585938 372.757812 C 349.367188 373.546875 351.097656 374.433594 352.824219 375.328125 C 353.671875 375.769531 354.515625 376.210938 355.367188 376.65625 C 355.789062 376.867188 356.210938 377.070312 356.648438 377.246094 C 357.082031 377.417969 357.503906 377.539062 357.925781 377.699219 C 358.6875 378.003906 359.328125 378.542969 360.011719 378.992188 C 360.746094 379.457031 361.527344 379.828125 362.351562 380.105469 C 363.152344 380.390625 363.972656 380.625 364.777344 380.90625 C 365.167969 381.042969 365.554688 381.203125 365.929688 381.371094 C 366.34375 381.5625 366.746094 381.789062 367.15625 381.992188 C 368.875 382.855469 370.644531 383.613281 372.394531 384.402344 C 372.609375 384.5 372.824219 384.59375 373.039062 384.695312 C 373.199219 384.78125 373.328125 384.746094 373.421875 384.59375 C 373.464844 384.527344 373.472656 384.457031 373.453125 384.378906 C 373.433594 384.304688 373.390625 384.246094 373.320312 384.207031 C 371.574219 383.40625 369.804688 382.65625 368.070312 381.820312 C 367.246094 381.417969 366.453125 380.960938 365.59375 380.617188 C 364.804688 380.296875 363.984375 380.054688 363.175781 379.789062 C 362.371094 379.546875 361.597656 379.230469 360.851562 378.84375 C 360.117188 378.4375 359.46875 377.882812 358.730469 377.46875 C 358.34375 377.261719 357.941406 377.097656 357.523438 376.972656 C 357.09375 376.828125 356.671875 376.660156 356.265625 376.464844 C 355.410156 376.058594 354.582031 375.605469 353.742188 375.171875 C 352.019531 374.273438 350.292969 373.375 348.523438 372.5625 C 348.308594 372.464844 348.089844 372.367188 347.875 372.269531 C 347.714844 372.183594 347.582031 372.214844 347.484375 372.371094 C 347.449219 372.4375 347.4375 372.507812 347.457031 372.582031 C 347.476562 372.660156 347.519531 372.714844 347.585938 372.757812 Z M 347.585938 372.757812 " fill-opacity="1" fill-rule="nonzero"/><path fill="#a87159" d="M 344.703125 376.0625 C 346.035156 376.710938 347.015625 377.847656 347.960938 378.960938 C 348.445312 379.527344 348.925781 380.097656 349.457031 380.625 C 349.988281 381.152344 350.566406 381.621094 351.1875 382.039062 C 352.402344 382.863281 353.75 383.472656 355.113281 383.996094 C 356.503906 384.535156 357.925781 384.984375 359.328125 385.492188 C 360.730469 386.003906 362.070312 386.554688 363.339844 387.308594 C 363.488281 387.398438 363.644531 387.492188 363.796875 387.589844 C 363.863281 387.636719 363.9375 387.648438 364.015625 387.632812 C 364.097656 387.613281 364.15625 387.570312 364.199219 387.496094 C 364.238281 387.425781 364.25 387.351562 364.226562 387.273438 C 364.203125 387.195312 364.152344 387.136719 364.082031 387.101562 C 362.824219 386.292969 361.449219 385.691406 360.054688 385.160156 C 358.664062 384.632812 357.238281 384.183594 355.835938 383.667969 C 354.480469 383.167969 353.148438 382.605469 351.914062 381.839844 C 351.300781 381.460938 350.730469 381.03125 350.195312 380.546875 C 349.652344 380.039062 349.144531 379.5 348.667969 378.925781 C 347.707031 377.800781 346.753906 376.609375 345.460938 375.832031 C 345.3125 375.738281 345.148438 375.652344 344.988281 375.574219 C 344.828125 375.488281 344.699219 375.523438 344.601562 375.675781 C 344.5625 375.746094 344.554688 375.816406 344.574219 375.890625 C 344.59375 375.96875 344.636719 376.023438 344.703125 376.0625 Z M 344.703125 376.0625 " fill-opacity="1" fill-rule="nonzero"/><path fill="#efad89" d="M 391.109375 377.59375 C 389.761719 377.917969 388.40625 378.371094 387.339844 379.253906 C 386.269531 380.136719 385.53125 381.527344 385.746094 382.894531 C 385.960938 384.265625 387.160156 385.472656 388.519531 385.195312 C 388.160156 385.738281 387.792969 386.292969 387.597656 386.914062 C 387.398438 387.535156 387.386719 388.242188 387.710938 388.8125 C 388.335938 389.902344 389.875 390.019531 391.085938 389.699219 C 393.429688 389.0625 395.664062 387.542969 398.058594 387.921875 C 397.242188 388.363281 397.515625 389.730469 398.324219 390.1875 C 399.132812 390.644531 400.132812 390.472656 401.039062 390.269531 C 405.550781 389.273438 410.066406 387.871094 413.832031 385.203125 C 417.601562 382.53125 420.726562 378.257812 421.082031 373.652344 C 424.058594 370.53125 426.464844 367.023438 428.304688 363.121094 C 429.125 361.382812 429.527344 359.460938 430.316406 357.761719 C 431.128906 356.011719 432.773438 354.269531 434.121094 352.914062 C 440.1875 346.828125 449.726562 348.296875 457.640625 347.449219 C 466.730469 346.472656 475.742188 345.007812 484.671875 343.050781 C 491.941406 341.460938 499.113281 339.714844 506.417969 338.273438 C 506.808594 338.195312 507.234375 338.101562 507.488281 337.789062 C 507.910156 337.277344 507.636719 336.507812 507.328125 335.914062 C 505.050781 331.492188 501.925781 327.957031 498.847656 324.15625 C 495.472656 319.984375 489.476562 319.753906 484.382812 319.746094 C 480.726562 319.746094 477.921875 320.828125 474.828125 322.769531 C 468.824219 326.539062 462.113281 329.074219 455.25 330.75 C 451.792969 331.589844 448.300781 332.160156 444.785156 332.675781 C 443.394531 332.878906 442.179688 333.421875 440.769531 333.578125 C 439.015625 333.769531 437.257812 334.019531 435.5625 334.53125 C 434.484375 334.847656 433.453125 335.28125 432.46875 335.824219 C 430.984375 336.664062 429.652344 337.804688 428.046875 338.390625 C 426.808594 338.847656 425.464844 338.945312 424.207031 339.347656 C 423 339.746094 421.941406 340.382812 421.023438 341.261719 C 420.109375 342.144531 419.429688 343.179688 418.984375 344.367188 C 417.839844 347.488281 414.710938 350.105469 412.683594 352.769531 C 410.539062 355.582031 408.835938 359.003906 406.457031 361.601562 C 404.898438 363.3125 402.828125 364.441406 400.960938 365.765625 C 399.121094 367.070312 397.472656 368.566406 395.59375 369.828125 C 394.292969 370.699219 392.976562 371.589844 391.964844 372.777344 C 391.289062 373.550781 390.820312 374.429688 390.558594 375.421875 C 390.4375 375.941406 390.171875 377.519531 391.109375 377.59375 Z M 391.109375 377.59375 " fill-opacity="1" fill-rule="nonzero"/><path fill="#a87159" d="M 413.332031 366.199219 C 411.992188 367.203125 410.578125 368.085938 409.089844 368.851562 C 408.339844 369.234375 407.574219 369.589844 406.796875 369.910156 C 406.023438 370.230469 405.25 370.488281 404.476562 370.769531 C 402.976562 371.332031 401.539062 372.011719 400.15625 372.816406 C 398.757812 373.609375 397.402344 374.46875 396.03125 375.3125 C 394.660156 376.160156 393.28125 376.988281 391.84375 377.707031 C 391.660156 377.800781 391.480469 377.890625 391.296875 377.976562 C 391.136719 378.0625 391.007812 378.027344 390.910156 377.875 C 390.871094 377.808594 390.859375 377.738281 390.878906 377.660156 C 390.898438 377.585938 390.941406 377.527344 391.011719 377.488281 C 392.460938 376.773438 393.875 375.988281 395.246094 375.128906 C 396.613281 374.289062 397.96875 373.421875 399.359375 372.625 C 400.75 371.796875 402.195312 371.074219 403.695312 370.464844 C 404.457031 370.171875 405.238281 369.921875 406 369.625 C 406.761719 369.328125 407.515625 369 408.253906 368.640625 C 409.75 367.90625 411.175781 367.054688 412.527344 366.085938 C 412.695312 365.960938 412.867188 365.839844 413.035156 365.710938 C 413.101562 365.671875 413.171875 365.664062 413.25 365.683594 C 413.324219 365.703125 413.378906 365.746094 413.421875 365.816406 C 413.503906 365.972656 413.472656 366.101562 413.320312 366.199219 Z M 413.332031 366.199219 " fill-opacity="1" fill-rule="nonzero"/><path fill="#a87159" d="M 414.160156 372.757812 C 412.382812 373.546875 410.648438 374.433594 408.921875 375.328125 C 408.074219 375.769531 407.230469 376.210938 406.378906 376.65625 C 405.960938 376.867188 405.535156 377.070312 405.097656 377.246094 C 404.664062 377.417969 404.242188 377.539062 403.820312 377.699219 C 403.058594 378.003906 402.417969 378.542969 401.734375 378.992188 C 401 379.457031 400.21875 379.828125 399.394531 380.105469 C 398.59375 380.390625 397.773438 380.625 396.96875 380.90625 C 396.578125 381.042969 396.191406 381.203125 395.816406 381.371094 C 395.402344 381.5625 395 381.789062 394.59375 381.992188 C 392.871094 382.855469 391.101562 383.613281 389.351562 384.402344 L 388.710938 384.695312 C 388.550781 384.78125 388.421875 384.75 388.324219 384.59375 C 388.285156 384.527344 388.273438 384.457031 388.292969 384.378906 C 388.3125 384.304688 388.355469 384.246094 388.425781 384.207031 C 390.171875 383.40625 391.945312 382.65625 393.675781 381.820312 C 394.5 381.417969 395.292969 380.960938 396.152344 380.617188 C 396.941406 380.296875 397.761719 380.054688 398.570312 379.789062 C 399.375 379.546875 400.148438 379.230469 400.894531 378.84375 C 401.628906 378.4375 402.277344 377.882812 403.015625 377.46875 C 403.402344 377.261719 403.804688 377.097656 404.222656 376.972656 C 404.652344 376.828125 405.074219 376.660156 405.480469 376.464844 C 406.335938 376.058594 407.164062 375.605469 408.003906 375.171875 C 409.726562 374.273438 411.453125 373.375 413.222656 372.5625 C 413.4375 372.464844 413.65625 372.367188 413.871094 372.269531 C 414.03125 372.183594 414.164062 372.214844 414.261719 372.371094 C 414.296875 372.4375 414.308594 372.507812 414.289062 372.582031 C 414.269531 372.660156 414.226562 372.714844 414.160156 372.757812 Z M 414.160156 372.757812 " fill-opacity="1" fill-rule="nonzero"/><path fill="#a87159" d="M 417.042969 376.0625 C 415.71875 376.710938 414.730469 377.847656 413.785156 378.960938 C 413.300781 379.527344 412.820312 380.097656 412.289062 380.625 C 411.757812 381.152344 411.179688 381.621094 410.558594 382.039062 C 409.34375 382.863281 407.996094 383.472656 406.632812 383.996094 C 405.242188 384.535156 403.820312 384.984375 402.417969 385.492188 C 401.015625 386.003906 399.675781 386.554688 398.40625 387.308594 C 398.257812 387.398438 398.101562 387.492188 397.953125 387.589844 C 397.882812 387.632812 397.8125 387.644531 397.734375 387.628906 C 397.65625 387.609375 397.59375 387.5625 397.554688 387.496094 C 397.511719 387.425781 397.503906 387.351562 397.527344 387.273438 C 397.546875 387.199219 397.59375 387.140625 397.664062 387.101562 C 398.921875 386.292969 400.296875 385.691406 401.691406 385.160156 C 403.082031 384.632812 404.507812 384.183594 405.910156 383.667969 C 407.265625 383.167969 408.597656 382.605469 409.832031 381.839844 C 410.445312 381.460938 411.019531 381.03125 411.550781 380.546875 C 412.09375 380.039062 412.601562 379.5 413.078125 378.925781 C 414.039062 377.800781 414.992188 376.609375 416.285156 375.832031 C 416.433594 375.738281 416.597656 375.652344 416.757812 375.574219 C 416.917969 375.492188 417.046875 375.523438 417.144531 375.675781 C 417.183594 375.746094 417.195312 375.816406 417.175781 375.890625 C 417.152344 375.96875 417.109375 376.023438 417.042969 376.0625 Z M 417.042969 376.0625 " fill-opacity="1" fill-rule="nonzero"/></svg>