<svg xmlns="http://www.w3.org/2000/svg" xmlns:xlink="http://www.w3.org/1999/xlink" width="1024" zoomAndPan="magnify" viewBox="0 0 768 576" height="768" preserveAspectRatio="xMidYMid meet" version="1.0"><defs><clipPath id="70fd6c9288"><path d="M 225.15625 367 L 263 367 L 263 384 L 225.15625 384 Z M 225.15625 367 " clip-rule="nonzero"/></clipPath><clipPath id="ae4cb8aea6"><path d="M 303 263 L 509 263 L 509 460.292969 L 303 460.292969 Z M 303 263 " clip-rule="nonzero"/></clipPath></defs><path fill="#cc4710" d="M 253.625 416.925781 C 253.492188 416.925781 253.355469 416.910156 253.222656 416.886719 L 229.753906 412.167969 C 228.660156 411.949219 227.945312 410.886719 228.175781 409.78125 C 228.390625 408.6875 229.457031 407.972656 230.5625 408.191406 L 251.429688 412.382812 L 250.699219 401.800781 C 250.660156 401.167969 250.917969 400.558594 251.386719 400.140625 C 251.859375 399.722656 252.507812 399.5625 253.128906 399.683594 L 278.578125 404.886719 C 279.671875 405.117188 280.382812 406.179688 280.15625 407.273438 C 279.925781 408.367188 278.859375 409.066406 277.769531 408.851562 L 254.921875 404.171875 L 255.648438 414.742188 C 255.6875 415.375 255.433594 415.980469 254.960938 416.398438 C 254.582031 416.75 254.113281 416.925781 253.625 416.925781 Z M 253.625 416.925781 " fill-opacity="1" fill-rule="nonzero"/><path fill="#cc4710" d="M 296.65625 380.015625 C 296.035156 380.015625 295.414062 379.734375 295.011719 379.179688 L 277.40625 354.917969 L 268.671875 365.863281 C 268.277344 366.359375 267.671875 366.644531 267.050781 366.617188 C 266.417969 366.605469 265.839844 366.292969 265.460938 365.78125 L 247.722656 341.476562 C 247.0625 340.574219 247.261719 339.304688 248.167969 338.644531 C 249.070312 337.984375 250.335938 338.1875 250.996094 339.089844 L 267.175781 361.253906 L 275.910156 350.304688 C 276.300781 349.808594 276.90625 349.539062 277.539062 349.550781 C 278.171875 349.566406 278.753906 349.875 279.132812 350.386719 L 298.300781 376.808594 C 298.960938 377.710938 298.757812 378.976562 297.855469 379.640625 C 297.476562 379.894531 297.074219 380.015625 296.65625 380.015625 Z M 296.65625 380.015625 " fill-opacity="1" fill-rule="nonzero"/><g clip-path="url(#70fd6c9288)"><path fill="#cc4710" d="M 260.648438 383.871094 C 260.246094 383.871094 259.828125 383.75 259.464844 383.496094 L 246.132812 373.855469 L 243.664062 380.515625 C 243.449219 381.109375 242.964844 381.566406 242.355469 381.742188 C 241.75 381.929688 241.101562 381.824219 240.589844 381.445312 L 226.273438 371.171875 C 225.371094 370.527344 225.15625 369.257812 225.816406 368.355469 C 226.464844 367.453125 227.730469 367.238281 228.632812 367.898438 L 240.792969 376.621094 L 243.273438 369.945312 C 243.488281 369.355469 243.972656 368.894531 244.582031 368.71875 C 245.1875 368.53125 245.835938 368.640625 246.347656 369.015625 L 261.835938 380.207031 C 262.738281 380.867188 262.941406 382.121094 262.292969 383.023438 C 261.890625 383.574219 261.269531 383.871094 260.648438 383.871094 Z M 260.648438 383.871094 " fill-opacity="1" fill-rule="nonzero"/></g><path fill="#000000" d="M 358.125 183.691406 C 360.242188 134.542969 388.335938 116.167969 433.386719 128.707031 C 449.265625 133.125 457.40625 143.9375 462.328125 157.175781 C 469.3125 175.953125 479.824219 180.980469 479.152344 200.648438 C 478.101562 231.4375 509.871094 232.328125 504.320312 273.941406 C 502.742188 285.734375 502.796875 286.613281 504.9375 291.679688 C 543.15625 382.011719 513.566406 376.082031 456.074219 379.410156 C 394.210938 382.980469 314.339844 392.945312 306.039062 335.855469 C 300.253906 296.128906 343.5 278.078125 336.503906 259.289062 C 330.894531 244.21875 335.800781 227.433594 342.097656 215.125 C 348.554688 202.507812 357.207031 191.386719 358.125 183.691406 Z M 358.125 183.691406 " fill-opacity="1" fill-rule="nonzero"/><g clip-path="url(#ae4cb8aea6)"><path fill="#517ec4" d="M 493.792969 460.144531 C 498.414062 375.367188 519.714844 322.511719 500.113281 286.273438 C 489.652344 266.945312 450.574219 264.652344 450.574219 264.652344 L 382.617188 263.414062 C 382.617188 263.414062 361.402344 265.515625 348.417969 271.691406 C 322.457031 282.984375 327.808594 359.929688 310.082031 405.953125 C 308.371094 410.414062 305.550781 427.84375 305.523438 431.445312 C 305.28125 454.078125 303.867188 460.167969 303.867188 460.167969 " fill-opacity="1" fill-rule="nonzero"/></g><path fill="#f3cabe" d="M 324.140625 339.375 C 331.988281 340.289062 338.605469 340.574219 346.503906 340.800781 C 346.222656 350.523438 346.398438 349.539062 347.476562 359.257812 C 347.597656 360.308594 347.679688 361.453125 347.113281 362.34375 C 346.667969 363.042969 345.898438 363.449219 345.171875 363.855469 C 332.417969 370.714844 320.785156 383.964844 312.695312 395.992188 C 314.140625 387.765625 317.050781 372.953125 319.464844 362.800781 " fill-opacity="1" fill-rule="nonzero"/><path fill="#f3cabe" d="M 450.574219 264.652344 C 433.738281 259.515625 426.632812 210.085938 438.65625 210.152344 C 446.636719 210.652344 448.714844 193.4375 445.03125 191.96875 C 432.550781 188.8125 433.0625 180.753906 425.5 164.628906 C 419.152344 151.097656 409.632812 156.636719 395.492188 159.386719 C 370.351562 164.28125 367.574219 196.78125 372.199219 214.628906 C 376.632812 230.292969 383.644531 233.757812 396.34375 241.035156 C 398.351562 259.476562 388.242188 261.578125 382.617188 263.414062 C 396.046875 281.460938 434.074219 286.195312 450.574219 264.652344 Z M 450.574219 264.652344 " fill-opacity="1" fill-rule="nonzero"/><path fill="#021b23" d="M 303.90625 459.804688 C 303.894531 459.804688 303.878906 459.804688 303.867188 459.804688 C 303.289062 459.792969 302.828125 459.292969 302.855469 458.714844 C 303.664062 435.515625 304.757812 416.507812 310.769531 400.613281 C 316.917969 384.355469 327.929688 372.171875 346.453125 361.183594 C 345.386719 351.398438 344.808594 343.808594 346.476562 336.246094 C 348.296875 328.035156 352.746094 320.378906 360.875 311.402344 C 361.265625 310.972656 361.925781 310.945312 362.359375 311.335938 C 362.789062 311.726562 362.816406 312.386719 362.425781 312.816406 C 354.554688 321.5 350.265625 328.871094 348.527344 336.703125 C 346.882812 344.132812 347.515625 351.722656 348.609375 361.628906 C 348.648438 362.046875 348.445312 362.4375 348.097656 362.652344 C 329.667969 373.480469 318.75 385.410156 312.722656 401.355469 C 306.832031 416.9375 305.753906 435.785156 304.945312 458.78125 C 304.933594 459.359375 304.472656 459.804688 303.90625 459.804688 Z M 303.90625 459.804688 " fill-opacity="1" fill-rule="nonzero"/><path fill="#000000" d="M 395.976562 240.996094 C 399.429688 241.492188 403.6875 240.683594 406.9375 239.726562 C 411.441406 238.40625 412.007812 238.246094 413.730469 237.371094 C 415.429688 236.492188 419.339844 235.496094 424.113281 231.398438 C 422.667969 234.523438 419.960938 237.734375 416.792969 239.824219 C 412.71875 242.503906 410.65625 243.503906 405.84375 245.121094 C 404.011719 245.742188 402.515625 245.929688 398.5 246.523438 C 397.824219 246.617188 396.261719 246.765625 396.261719 246.765625 C 396.261719 246.765625 396.167969 242.9375 395.976562 240.996094 " fill-opacity="1" fill-rule="nonzero"/><path fill="#ea0f01" d="M 309.285156 182.179688 L 307.480469 182.179688 C 303.515625 182.179688 300.28125 178.945312 300.28125 174.984375 L 300.28125 140.769531 C 300.28125 136.808594 303.515625 133.570312 307.480469 133.570312 L 309.300781 133.570312 C 313.261719 133.570312 316.5 136.808594 316.5 140.769531 L 316.5 174.984375 C 316.484375 178.933594 313.25 182.179688 309.285156 182.179688 Z M 309.285156 182.179688 " fill-opacity="1" fill-rule="nonzero"/><path fill="#ea0f01" d="M 308.382812 203.574219 C 303.90625 203.574219 300.28125 199.949219 300.28125 195.472656 L 300.28125 194.933594 C 300.28125 190.457031 303.90625 186.832031 308.382812 186.832031 C 312.859375 186.832031 316.484375 190.457031 316.484375 194.933594 L 316.484375 195.472656 C 316.484375 199.949219 312.859375 203.574219 308.382812 203.574219 Z M 308.382812 203.574219 " fill-opacity="1" fill-rule="nonzero"/><path fill="#f3cabe" d="M 506.042969 354.96875 C 488.507812 354.539062 470.199219 353.40625 470.199219 353.40625 C 470.199219 353.40625 462.636719 397.21875 462.234375 399.644531 C 439.828125 398.523438 420.1875 395.894531 420.175781 395.992188 C 401.304688 391.664062 416.886719 389.140625 378.910156 368.570312 C 378.910156 368.570312 372.777344 365.28125 372.117188 367.101562 C 370.648438 371.148438 377.605469 376.351562 381.757812 378.816406 C 381.757812 378.816406 375.449219 378.734375 369.785156 374.503906 C 367.992188 373.15625 366.292969 371.441406 364.675781 370.929688 C 361.402344 369.878906 357.519531 370.417969 360.335938 374.664062 C 360.335938 374.664062 356.9375 374.246094 356.414062 377.578125 C 356.414062 377.589844 353.339844 379.25 353.339844 379.25 C 350.738281 384.371094 350.617188 394.628906 361.226562 401.140625 C 365.296875 403.6875 368.410156 404.457031 372.0625 405.738281 C 375.621094 406.976562 392.269531 411.777344 405.011719 415.347656 C 404.996094 415.363281 404.996094 415.386719 404.984375 415.402344 C 405.523438 415.523438 417.359375 419.972656 421.523438 421.347656 C 481.429688 441.191406 500.519531 456.125 506.042969 354.96875 Z M 506.042969 354.96875 " fill-opacity="1" fill-rule="nonzero"/></svg>