<svg xmlns="http://www.w3.org/2000/svg" xmlns:xlink="http://www.w3.org/1999/xlink" width="1024" zoomAndPan="magnify" viewBox="0 0 768 576" height="768" preserveAspectRatio="xMidYMid meet" version="1.0"><defs><clipPath id="8554600bcb"><path d="M 269.296875 382 L 302 382 L 302 427 L 269.296875 427 Z M 269.296875 382 " clip-rule="nonzero"/></clipPath><clipPath id="7492a3676b"><path d="M 272 101.113281 L 326 101.113281 L 326 211 L 272 211 Z M 272 101.113281 " clip-rule="nonzero"/></clipPath><clipPath id="5a5aed99b5"><path d="M 463 454 L 498 454 L 498 474.613281 L 463 474.613281 Z M 463 454 " clip-rule="nonzero"/></clipPath></defs><path fill="#c5815c" d="M 296.539062 143.457031 C 296.753906 146.835938 294.121094 150.085938 291.613281 152.09375 C 290.222656 153.207031 288.664062 153.992188 287.371094 155.269531 C 286.082031 156.546875 284.964844 158.015625 284.082031 159.621094 C 283.535156 160.605469 283.078125 161.683594 283.128906 162.808594 C 283.179688 163.894531 283.699219 164.882812 284.207031 165.84375 C 288.359375 173.683594 291.90625 182.324219 298.324219 188.660156 C 302.984375 193.261719 309.441406 196.476562 315.964844 195.792969 C 320.269531 195.335938 324.230469 193.273438 328.421875 192.199219 C 332.703125 191.113281 337.375 191.011719 341.148438 188.710938 C 344.882812 186.421875 347.203125 181.980469 346.949219 177.605469 C 348.972656 177.832031 351.011719 176.492188 352.265625 174.886719 C 353.101562 173.8125 353.519531 172.496094 353.722656 171.15625 C 353.835938 170.359375 353.746094 169.546875 353.734375 168.738281 C 353.722656 168.257812 353.746094 166.132812 354.722656 167.296875 C 354.875 167.472656 354.886719 167.753906 354.988281 167.953125 C 355.191406 168.359375 355.535156 168.6875 355.824219 169.03125 C 356.457031 169.789062 357.101562 170.558594 357.738281 171.320312 C 360.28125 174.378906 362.828125 177.441406 365.371094 180.5 C 371.042969 187.332031 376.386719 193.589844 374.628906 203.191406 C 374.425781 204.316406 374.121094 205.453125 374.148438 206.59375 C 374.183594 207.742188 374.617188 208.957031 375.578125 209.578125 C 376.539062 210.210938 377.792969 210.121094 378.921875 209.929688 C 383.882812 209.097656 388.390625 206.617188 392.785156 204.164062 C 393.507812 203.773438 394.253906 203.328125 394.632812 202.609375 C 395.128906 201.671875 394.863281 200.523438 394.546875 199.496094 C 392.734375 193.769531 389.40625 188.660156 385.402344 184.21875 C 382.238281 180.714844 379.492188 176.820312 377.199219 172.699219 C 375.402344 169.460938 374.03125 165.917969 371.511719 163.210938 C 369.652344 161.226562 367.941406 159.027344 366.804688 156.558594 C 366.09375 155.03125 365.6875 153.371094 365.09375 151.792969 C 363.964844 148.757812 362.179688 145.960938 359.902344 143.660156 C 357.738281 141.457031 355.519531 139.207031 352.863281 137.589844 C 348.65625 135.035156 343.628906 133.808594 338.71875 134.261719 C 331.5625 133.910156 324.347656 133.554688 317.191406 133.199219 C 316.40625 133.164062 315.597656 133.125 314.835938 133.3125 C 313.316406 133.707031 312.191406 134.933594 310.976562 135.933594 C 309.65625 137.019531 308.089844 137.90625 306.367188 138.042969 C 305.265625 138.132812 304.148438 137.90625 303.046875 137.992188 C 300.074219 138.246094 296.351562 140.511719 296.539062 143.457031 Z M 296.539062 143.457031 " fill-opacity="1" fill-rule="nonzero"/><g clip-path="url(#8554600bcb)"><path fill="#c5815c" d="M 288.371094 382.453125 C 286.195312 384.464844 285.015625 387.347656 284.398438 390.242188 C 283.777344 393.140625 283.636719 396.113281 283.144531 399.035156 C 282.613281 402.207031 281.660156 405.320312 280.34375 408.253906 C 279.648438 409.796875 279.179688 411.429688 278.320312 412.882812 C 277.457031 414.335938 276.242188 415.628906 274.683594 416.296875 C 273.898438 416.640625 273.0625 416.804688 272.253906 417.070312 C 271.445312 417.335938 270.644531 417.726562 270.113281 418.382812 C 269.582031 419.042969 269.390625 420.039062 269.847656 420.761719 C 269.59375 421.128906 269.570312 421.660156 269.695312 422.089844 C 269.808594 422.519531 270.125 422.886719 270.519531 423.078125 C 270.417969 423.378906 270.558594 423.707031 270.746094 423.960938 C 270.9375 424.214844 271.265625 424.355469 271.582031 424.339844 C 271.519531 424.796875 271.835938 425.316406 272.226562 425.554688 C 272.621094 425.796875 273.113281 425.847656 273.570312 425.769531 C 274.027344 425.695312 274.457031 425.53125 274.886719 425.351562 C 277.851562 426.769531 281.585938 426.492188 284.320312 424.667969 C 285.851562 423.644531 288.132812 424.367188 289.195312 422.570312 C 290.625 420.140625 289.941406 416.980469 290.375 414.300781 C 290.703125 412.300781 291.375 410.316406 292.613281 408.710938 C 293.765625 407.214844 295.335938 406.128906 296.832031 404.976562 C 298.324219 403.828125 299.792969 402.539062 300.605469 400.84375 C 301.414062 399.136719 301.402344 396.921875 300.125 395.542969 C 298.921875 394.253906 299.085938 392.292969 299.1875 390.535156 C 299.289062 388.777344 299.441406 386.941406 298.730469 385.324219 C 295.527344 383.84375 291.867188 382.921875 288.371094 382.453125 Z M 288.371094 382.453125 " fill-opacity="1" fill-rule="nonzero"/></g><path stroke-linecap="butt" transform="matrix(0.126622, 0, 0, 0.126473, 269.594725, 101.771735)" fill-opacity="1" fill="#c5815c" fill-rule="nonzero" stroke-linejoin="miter" d="M 112.500753 262.112445 C 117.99198 274.312433 125.395881 285.400524 132.892331 296.395956 C 148.810719 319.591376 165.685444 342.385278 186.015324 361.905259 C 206.314353 381.394354 230.500431 397.485983 257.493821 405.392811 C 275.386583 410.612553 292.90915 418.797355 311.511452 417.098622 C 346.402337 413.793816 358.988969 382.815112 365.189737 352.701217 C 371.791549 320.795932 372.007496 287.902293 371.205407 255.502832 C 370.495866 226.099316 371.791549 199.104912 357.014596 172.203166 C 344.613061 149.501923 324.591678 131.09384 300.899193 120.685242 C 273.011165 108.392596 241.513734 107.311584 211.003491 108.485254 C 190.210868 109.288291 169.510794 110.987024 148.903268 113.612338 C 139.401595 114.786007 129.498877 116.299424 121.385435 121.488279 C 111.791212 127.696375 106.207437 138.012314 101.795946 148.297367 C 96.798312 160.003178 97.908897 172.110508 98.186544 184.712015 C 98.896084 210.99604 101.610848 237.897785 112.500753 262.112445 Z M 112.500753 262.112445 " stroke="#ffffff" stroke-width="1" stroke-opacity="1" stroke-miterlimit="10"/><path fill="#342216" d="M 307 133.679688 C 307.683594 132.910156 308.378906 132 308.316406 130.960938 C 306.136719 132.339844 304.097656 133.945312 302.25 135.742188 C 301.984375 136.007812 301.707031 136.3125 301.695312 136.679688 C 301.695312 137.132812 302.210938 137.613281 302.65625 137.703125 C 303.25 137.816406 303.707031 137.132812 304.085938 136.765625 C 305.101562 135.769531 306.0625 134.742188 307 133.679688 Z M 307 133.679688 " fill-opacity="1" fill-rule="nonzero"/><path fill="#342216" d="M 290.753906 141.21875 C 290.234375 141.230469 289.703125 141.230469 289.246094 140.992188 C 288.789062 140.75 288.460938 140.195312 288.652344 139.714844 C 290.84375 139.738281 293.03125 139.765625 295.222656 139.777344 C 295.628906 139.777344 296.058594 139.800781 296.363281 140.066406 C 296.628906 140.308594 296.640625 140.851562 296.335938 141.078125 C 295.996094 141.320312 295.160156 141.167969 294.753906 141.167969 C 293.425781 141.179688 292.082031 141.195312 290.753906 141.21875 Z M 290.753906 141.21875 " fill-opacity="1" fill-rule="nonzero"/><path fill="#e6ceb8" d="M 344.972656 161.441406 C 343.667969 152.324219 341.84375 143.179688 338.1875 134.71875 C 337.882812 134.023438 337.527344 133.300781 336.871094 132.949219 C 336.210938 132.59375 335.171875 132.898438 335.082031 133.644531 C 335.046875 133.933594 335.160156 134.226562 335.273438 134.492188 C 338.820312 143.140625 341.097656 152.308594 342.035156 161.605469 C 342.363281 164.945312 341.503906 168.359375 339.78125 171.242188 C 337.972656 174.292969 335.539062 176.984375 332.691406 179.109375 C 328.867188 181.957031 324.195312 183.765625 319.433594 183.851562 C 314.671875 183.941406 309.808594 182.195312 306.441406 178.820312 C 304.226562 176.59375 302.378906 174.140625 300.832031 171.40625 C 299.390625 168.851562 297.945312 166.285156 296.503906 163.730469 C 294.679688 160.492188 292.792969 157.191406 289.929688 154.816406 C 289.460938 154.421875 288.90625 154.257812 288.308594 154.371094 C 288.082031 154.421875 287.839844 154.5 287.675781 154.664062 C 287.511719 154.828125 287.421875 155.09375 287.523438 155.308594 C 290.96875 162.746094 297.046875 168.664062 301.25 175.695312 C 302.441406 177.679688 302.011719 180.097656 301.695312 182.386719 C 301.363281 184.675781 300.84375 186.976562 301.046875 189.277344 C 301.199219 190.960938 301.730469 192.578125 302.25 194.183594 C 303.542969 198.105469 304.832031 202.039062 306.125 205.960938 C 307.429688 209.929688 307.214844 214.195312 305.199219 217.859375 C 304.414062 219.289062 303.390625 220.582031 302.554688 221.984375 C 299.871094 226.4375 299.136719 231.699219 298.65625 236.78125 C 298.539062 238.019531 298.539062 239.171875 298.222656 240.359375 C 297.84375 241.753906 297.503906 243.144531 297.199219 244.546875 C 296.578125 247.355469 296.070312 250.175781 295.703125 253.019531 C 295.109375 257.574219 294.832031 262.175781 294.882812 266.769531 C 294.957031 273.839844 295.25 280.996094 296.273438 287.992188 C 297.121094 293.796875 298.136719 299.613281 298.351562 305.46875 C 298.578125 311.324219 298.046875 317.242188 296.425781 322.871094 C 292.019531 338.074219 290.335938 354.007812 288.539062 369.742188 C 287.980469 374.585938 286.828125 379.34375 285.96875 384.136719 C 285.890625 384.578125 285.816406 385.070312 286.042969 385.464844 C 286.421875 386.109375 287.359375 386.082031 288.105469 386.03125 C 291.726562 385.828125 295.234375 387.207031 298.605469 388.574219 C 298.957031 388.714844 299.351562 388.449219 299.578125 388.15625 C 299.808594 387.855469 299.84375 387.460938 299.882812 387.09375 C 300.972656 376.105469 304.464844 365.367188 310.050781 355.84375 C 312.53125 351.605469 315.039062 347.140625 315.585938 342.171875 C 315.710938 340.996094 315.734375 339.984375 316.015625 338.832031 C 316.332031 337.503906 316.585938 336.164062 316.75 334.8125 C 317.089844 332.105469 317.140625 329.359375 316.902344 326.652344 C 316.535156 322.667969 319.484375 319.230469 320.6875 315.410156 C 321.484375 312.867188 322.117188 310.261719 322.410156 307.621094 C 322.699219 305 322.472656 302.394531 322.675781 299.765625 C 323.117188 294.175781 324.105469 288.648438 325.09375 283.132812 C 325.585938 280.402344 326.066406 277.671875 326.5625 274.953125 C 327.03125 272.347656 327.335938 269.816406 327.636719 267.1875 C 328.257812 261.734375 329.324219 256.335938 330.816406 251.058594 C 331.894531 250.757812 332.945312 250.746094 334.046875 250.945312 C 334.148438 250.960938 331.714844 266.957031 331.511719 268.425781 C 331.09375 271.269531 330.703125 274.054688 330.550781 276.9375 C 330.398438 279.910156 330.246094 282.894531 330.082031 285.867188 C 329.816406 290.863281 329.5625 295.855469 329.296875 300.867188 C 329.121094 304.292969 327.941406 307.582031 328.144531 311.007812 C 328.347656 314.4375 328.957031 317.824219 329.019531 321.253906 C 329.144531 327.867188 326.472656 334.242188 327.207031 340.804688 C 329.574219 341.714844 332.171875 341.78125 334.703125 341.601562 C 337.238281 341.425781 339.730469 340.882812 342.226562 340.335938 C 343.796875 339.996094 345.367188 339.65625 346.9375 339.3125 C 347.582031 339.175781 348.277344 338.996094 348.671875 338.480469 C 349.0625 337.972656 349.0625 337.289062 349.050781 336.65625 C 348.972656 332.875 348.886719 329.105469 348.808594 325.324219 C 348.644531 317.6875 349.949219 309.972656 352.40625 302.726562 C 352.761719 301.675781 353.140625 300.625 353.292969 299.539062 C 353.46875 298.285156 353.34375 297.007812 353.242188 295.742188 C 352.773438 289.710938 352.976562 283.628906 353.8125 277.632812 C 357.304688 275.191406 360.382812 272.117188 362.421875 268.375 C 363.597656 266.222656 364.398438 263.886719 365.195312 261.570312 C 366.269531 258.421875 367.371094 255.121094 366.867188 251.84375 C 366.042969 246.582031 365.878906 241.234375 365.828125 235.921875 C 365.800781 233.339844 365.800781 230.8125 365.535156 228.257812 C 365.257812 225.5 365.03125 222.742188 365.09375 219.972656 C 365.144531 217.875 365.359375 215.710938 364.6875 213.726562 C 364.15625 212.15625 363.117188 210.828125 362.066406 209.539062 C 360.523438 207.628906 358.941406 205.746094 357.28125 203.9375 C 355.21875 201.699219 356 197.96875 356.179688 194.933594 C 356.570312 187.886719 356.546875 180.804688 355.433594 173.847656 C 354.570312 168.410156 348.988281 165.121094 344.972656 161.441406 Z M 344.972656 161.441406 " fill-opacity="1" fill-rule="nonzero"/><path fill="#c5815c" d="M 283.484375 161.277344 C 283.257812 161.453125 283.066406 161.71875 282.828125 162.136719 C 282.359375 162.921875 281.976562 163.742188 281.660156 164.601562 C 280.433594 167.980469 280.394531 171.738281 281.105469 175.226562 C 281.851562 178.957031 283.347656 182.664062 285.144531 186.015625 C 286.777344 189.0625 286.953125 192.78125 287.917969 196.144531 C 290.058594 203.621094 293.640625 210.613281 298.058594 217 C 298.515625 217.660156 299.238281 218.367188 299.492188 219.125 C 299.71875 219.820312 299.667969 220.769531 299.792969 221.503906 C 300.109375 223.261719 300.566406 224.996094 301.136719 226.6875 C 302.277344 230.078125 303.898438 233.304688 305.933594 236.25 C 307.542969 238.578125 309.480469 240.460938 311.394531 242.523438 C 313.28125 244.546875 314.949219 246.898438 316.75 249.035156 C 320.585938 253.601562 324.449219 258.167969 327.625 263.226562 C 328.019531 263.847656 328.410156 264.492188 328.652344 265.1875 C 328.890625 265.871094 328.878906 266.617188 329.082031 267.324219 C 329.523438 268.867188 330.144531 270.398438 331.132812 271.6875 C 331.804688 272.5625 332.640625 273.332031 333.160156 274.304688 C 333.996094 275.886719 333.90625 277.773438 333.78125 279.554688 C 333.753906 279.894531 333.664062 280.300781 333.714844 280.628906 C 333.765625 280.972656 333.929688 281.3125 334.222656 281.476562 C 334.488281 281.628906 334.816406 281.628906 335.109375 281.554688 C 335.867188 281.351562 336.4375 280.679688 336.71875 279.945312 C 336.996094 279.214844 337.035156 278.417969 337.070312 277.632812 C 337.085938 277.253906 337.617188 277.089844 337.957031 277.242188 C 338.300781 277.390625 338.539062 277.707031 338.769531 278.011719 C 340.289062 280.085938 342.085938 281.957031 344.113281 283.5625 C 345.859375 282.121094 346.289062 279.667969 347.402344 277.707031 C 348.1875 276.316406 349.328125 275.167969 350.265625 273.875 C 351.203125 272.585938 351.960938 271.054688 351.824219 269.460938 C 349.265625 268.894531 347.011719 267.070312 345.734375 264.78125 C 343.53125 260.835938 339.628906 257.964844 335.742188 255.652344 C 333.894531 254.550781 332.867188 252.476562 331.804688 250.605469 C 328.03125 243.902344 324.460938 237.074219 321.117188 230.140625 C 320.445312 228.75 319.484375 227.664062 318.585938 226.410156 C 317.671875 225.160156 316.835938 223.855469 316.078125 222.515625 C 315.28125 221.113281 314.546875 219.65625 313.914062 218.175781 C 313.28125 216.722656 312.886719 215.15625 312.265625 213.714844 C 311.609375 212.171875 310.695312 210.703125 309.988281 209.183594 C 309.265625 207.65625 308.605469 206.085938 308.011719 204.492188 C 306 199.078125 303.582031 193.832031 301.226562 188.558594 C 300.679688 187.332031 300.160156 186.230469 299.933594 184.902344 C 299.691406 183.585938 299.441406 182.273438 299.148438 180.96875 C 298.566406 178.363281 297.84375 175.796875 296.882812 173.304688 C 296.097656 171.269531 295.160156 169.308594 294.019531 167.449219 C 292.878906 165.578125 291.5 163.792969 289.703125 162.554688 C 288.246094 161.542969 286.460938 160.898438 284.675781 160.972656 C 284.09375 161 283.75 161.074219 283.484375 161.277344 Z M 283.484375 161.277344 " fill-opacity="1" fill-rule="nonzero"/><path fill="#5f3629" d="M 337.566406 332.863281 C 330.917969 334.457031 324.574219 337.035156 319.078125 341.335938 C 304.859375 352.453125 300.402344 371.261719 302.328125 388.523438 C 303.199219 396.429688 305.417969 404.410156 309.757812 411.136719 C 314.457031 418.398438 320.839844 422.066406 328.828125 424.757812 C 337.972656 427.84375 347.734375 428.945312 357.332031 429.234375 C 364.535156 429.464844 371.753906 429.03125 378.882812 427.933594 C 388.238281 426.503906 398.800781 424.140625 406.472656 418.359375 C 415.121094 411.832031 419.84375 401.121094 421.277344 390.394531 C 422.71875 379.671875 421.226562 368.78125 419.542969 358.082031 C 418.667969 352.53125 417.515625 346.558594 413.398438 342.714844 C 408.957031 338.554688 402.320312 338.035156 396.242188 337.515625 C 387.734375 336.785156 379.25 335.609375 370.867188 333.976562 C 367.511719 333.320312 364.5 332.507812 361.34375 331.246094 C 358.292969 330.015625 355.117188 330.421875 351.910156 330.699219 C 347.085938 331.09375 342.25 331.726562 337.566406 332.863281 Z M 337.566406 332.863281 " fill-opacity="1" fill-rule="nonzero"/><g clip-path="url(#7492a3676b)"><path fill="#342216" d="M 317.558594 133.566406 C 317.355469 133.464844 317.152344 133.339844 316.976562 133.199219 C 315.761719 132.199219 315.621094 130.457031 315.203125 128.949219 C 313.863281 124.183594 309.835938 122.210938 305.277344 121.617188 C 302.921875 121.3125 300.425781 120.414062 298.035156 120.679688 C 297.589844 120.730469 291.90625 121.476562 292.171875 120.121094 C 291.4375 124.003906 286.714844 125.15625 286.410156 129.394531 C 286.285156 131.113281 286.902344 132.769531 287.285156 134.453125 C 287.613281 135.84375 287.488281 136.96875 287.359375 138.359375 C 287.21875 139.878906 287.585938 140.382812 288.574219 141.738281 C 290.335938 144.164062 292.449219 146.316406 294.566406 148.441406 C 296.019531 149.90625 296.300781 152.511719 295.222656 154.269531 C 294.148438 156.027344 292.335938 157.230469 291.070312 158.847656 C 289.550781 160.785156 288.867188 163.226562 288.347656 165.628906 C 285.054688 180.652344 286.777344 196.742188 293.183594 210.726562 C 290.714844 205.65625 288.246094 200.585938 285.789062 195.511719 C 281.511719 186.75 277.191406 177.742188 276.292969 168.054688 C 275.902344 163.84375 276.179688 159.59375 276.21875 155.371094 C 276.28125 148.113281 275.660156 140.839844 274.34375 133.695312 C 273.46875 128.949219 272.292969 124.144531 272.988281 119.363281 C 273.964844 112.671875 278.75 106.804688 284.878906 103.960938 C 291.007812 101.113281 298.300781 101.152344 304.644531 103.515625 C 310.988281 105.882812 316.382812 110.433594 320.308594 115.9375 C 322.585938 119.136719 324.410156 122.777344 325.144531 126.648438 C 325.460938 128.292969 325.96875 130.972656 325.308594 132.582031 C 324.828125 133.78125 324.917969 133.339844 323.546875 133.402344 C 322.6875 133.441406 321.839844 133.628906 320.992188 133.78125 C 319.863281 133.984375 318.585938 134.058594 317.558594 133.566406 Z M 317.558594 133.566406 " fill-opacity="1" fill-rule="nonzero"/></g><path fill="#c5815c" d="M 371.070312 222.871094 C 371.613281 229.003906 372.082031 235.566406 369.070312 240.929688 C 366.917969 244.75 363.269531 247.457031 360.179688 250.578125 C 355.773438 255.03125 352.457031 260.417969 349.757812 266.035156 C 348.441406 268.777344 347.152344 271.613281 346.023438 274.421875 C 344.769531 277.53125 344.707031 281.605469 344.683594 284.929688 C 344.667969 286.003906 344.734375 287.167969 345.367188 288.027344 C 346 288.875 347.0625 289.269531 348.0625 289.621094 C 350.621094 290.507812 353.191406 291.394531 355.851562 291.859375 C 362.195312 292.972656 368.6875 291.660156 374.917969 290.039062 C 381.148438 288.421875 387.367188 286.449219 393.796875 286.246094 C 396.761719 286.15625 401.890625 286.183594 403.6875 288.964844 C 404.433594 290.128906 404.777344 291.492188 405.296875 292.769531 C 405.585938 293.480469 405.941406 294.199219 406.4375 294.78125 C 406.890625 295.3125 407.675781 295.640625 407.992188 296.199219 C 408.398438 296.894531 408.347656 298.347656 408.523438 299.15625 C 408.738281 300.15625 409.121094 301.144531 409.296875 302.128906 C 409.488281 303.128906 409.488281 304.101562 409.980469 305.039062 C 410.476562 305.960938 411.449219 306.707031 412.488281 306.605469 C 413.171875 306.542969 413.78125 306.125 414.273438 305.644531 C 415.769531 304.230469 416.488281 302.34375 417.261719 300.484375 C 418.058594 298.589844 417.007812 296.1875 416.335938 294.363281 C 415.414062 291.875 414.488281 289.367188 413.5625 286.878906 C 410.308594 278.085938 408.246094 268.601562 405.738281 259.558594 C 405.015625 256.953125 404.28125 254.324219 402.878906 252.023438 C 401.472656 249.71875 399.269531 247.757812 396.609375 247.277344 C 394.648438 245.039062 392.644531 242.714844 391.175781 240.132812 C 388.910156 236.148438 387.175781 231.699219 383.757812 228.625 C 380.261719 225.488281 375.601562 224.007812 371.070312 222.871094 Z M 371.070312 222.871094 " fill-opacity="1" fill-rule="nonzero"/><path stroke-linecap="butt" transform="matrix(0.126622, 0, 0, 0.126473, 269.594725, 101.771735)" fill-opacity="1" fill="#c5815c" fill-rule="nonzero" stroke-linejoin="miter" d="M 1057.300267 854.90832 C 1068.097623 863.18578 1075.594073 875.107794 1080.190662 887.894617 C 1084.787251 900.712326 1086.298881 914.394844 1086.514828 927.984704 C 1086.699925 942.006969 1085.404242 956.307208 1079.511971 968.908715 C 1075.995118 976.290479 1070.997484 982.992751 1068.190172 990.806921 C 1064.395672 1001.091974 1064.796717 1012.488925 1063.80953 1023.391699 C 1061.002218 1053.289391 1046.996504 1082.106072 1025.000747 1102.614406 C 1021.206248 1106.197188 1017.010704 1109.501994 1015.313976 1114.412876 C 1013.586399 1119.385529 1013.092806 1124.697929 1011.488627 1129.60881 C 1007.910075 1140.913103 998.285003 1149.9936 986.994053 1153.298407 C 975.610555 1156.510556 962.715427 1153.699926 953.707347 1146.0093 C 888.984909 1090.692393 828.303767 1024.688913 819.388236 940.092034 C 817.814907 924.587239 817.506411 908.495609 822.997638 893.793851 C 832.406763 868.312864 857.610877 851.387311 883.709629 843.511369 C 909.808382 835.6972 937.387914 835.203023 964.504703 832.392393 C 981.903871 830.601002 999.395588 827.697714 1016.702208 830.199483 C 1034.008827 832.701253 1043.510501 844.190862 1057.300267 854.90832 Z M 1057.300267 854.90832 " stroke="#ffffff" stroke-width="1" stroke-opacity="1" stroke-miterlimit="10"/><path fill="#342216" d="M 389.898438 224.765625 C 390.757812 223.984375 391.710938 223.160156 392.863281 223.019531 C 394.050781 222.882812 395.179688 223.488281 396.34375 223.742188 C 396.722656 223.832031 397.117188 223.867188 397.472656 224.019531 C 398.039062 224.25 398.710938 225.070312 398.089844 225.625 C 397.546875 226.132812 396.484375 225.460938 395.914062 225.296875 C 393.976562 224.714844 391.910156 224.527344 389.898438 224.765625 Z M 389.898438 224.765625 " fill-opacity="1" fill-rule="nonzero"/><path fill="#342216" d="M 406.96875 224.160156 C 407.144531 223.753906 406.738281 223.285156 406.308594 223.222656 C 405.878906 223.148438 405.449219 223.351562 405.042969 223.539062 C 404.433594 223.832031 403.816406 224.121094 403.207031 224.414062 C 402.246094 224.867188 401.976562 226.070312 403.296875 225.601562 C 404.535156 225.160156 405.675781 224.515625 406.96875 224.160156 Z M 406.96875 224.160156 " fill-opacity="1" fill-rule="nonzero"/><g clip-path="url(#5a5aed99b5)"><path fill="#c5815c" d="M 464.300781 466.050781 C 467.136719 468.554688 470.253906 471.175781 474.015625 471.503906 C 474.824219 471.578125 475.648438 471.527344 476.445312 471.730469 C 477.382812 471.957031 478.207031 472.503906 479.089844 472.867188 C 479.976562 473.25 481.027344 473.4375 481.878906 472.984375 C 482.382812 473.792969 483.398438 474.359375 484.347656 474.488281 C 485.296875 474.613281 486.296875 474.308594 486.992188 473.652344 C 488.171875 474.511719 489.957031 474.347656 491.070312 473.414062 C 491.945312 473.5625 492.84375 473.210938 493.566406 472.703125 C 493.78125 472.550781 494.945312 472.652344 495.300781 472.566406 C 495.996094 472.386719 496.769531 472.109375 497.300781 471.605469 C 498.707031 470.277344 497.019531 468.277344 495.652344 467.695312 C 495.617188 466.785156 494.894531 465.847656 494.121094 465.34375 C 493.347656 464.851562 492.460938 464.585938 491.589844 464.292969 C 487.917969 463.015625 484.535156 460.878906 481.828125 458.097656 C 480.964844 457.210938 480.140625 456.238281 479.078125 455.617188 C 476.382812 454.035156 472.914062 455.0625 469.859375 454.367188 C 468.417969 456.691406 466.1875 458.539062 463.632812 459.527344 C 463.339844 461.121094 463.265625 462.789062 463.605469 464.371094 C 463.730469 465.003906 463.796875 465.609375 464.300781 466.050781 Z M 464.300781 466.050781 " fill-opacity="1" fill-rule="nonzero"/></g><path fill="#c5815c" d="M 458.605469 429.324219 C 459.125 430.359375 459.679688 431.460938 460.566406 432.246094 C 461.441406 433.015625 462.53125 433.496094 463.667969 433.710938 C 464.644531 433.902344 465.644531 433.953125 466.605469 434.207031 C 467.492188 434.433594 468.328125 434.824219 469.203125 435.128906 C 469.988281 435.394531 470.722656 435.484375 471.53125 435.496094 C 472.253906 435.507812 473.027344 435.75 473.75 435.863281 C 475.496094 436.152344 477.253906 436.382812 479.015625 436.570312 C 479.726562 436.648438 480.371094 436.507812 481.078125 436.445312 C 481.410156 436.40625 481.738281 436.382812 482.015625 436.203125 C 482.296875 436.027344 482.484375 435.671875 482.359375 435.382812 C 482.726562 435.242188 483.054688 435.027344 483.410156 434.890625 C 484.308594 434.523438 484.015625 433.144531 483.433594 432.585938 C 483.246094 432.398438 483.003906 432.269531 482.789062 432.105469 C 482.574219 431.941406 482.382812 431.738281 482.308594 431.488281 C 482.003906 430.488281 481.054688 429.703125 480.191406 429.109375 C 478.140625 427.679688 475.292969 428.199219 473 427.199219 C 470.847656 426.25 468.910156 424.695312 466.65625 424.039062 C 465.71875 423.757812 464.695312 423.695312 463.832031 423.226562 C 463.378906 422.976562 462.933594 422.609375 462.414062 422.644531 C 462.0625 422.671875 461.757812 422.886719 461.476562 423.101562 C 459.894531 424.316406 458.589844 425.882812 457.679688 427.65625 C 457.578125 427.855469 457.476562 428.070312 457.488281 428.300781 C 457.578125 428.933594 458.3125 428.742188 458.605469 429.324219 Z M 458.605469 429.324219 " fill-opacity="1" fill-rule="nonzero"/><path fill="#cd9b8b" d="M 355.40625 255.398438 C 357.558594 253.78125 360.585938 253.679688 363.117188 254.601562 C 365.652344 255.523438 367.753906 257.332031 369.625 259.28125 C 372.488281 262.265625 374.917969 265.65625 376.820312 269.324219 C 376.25 275.367188 371.980469 280.933594 366.207031 282.855469 C 358.382812 285.472656 355.191406 295.945312 355.394531 304.191406 C 355.507812 308.644531 356.8125 313.03125 356.609375 317.484375 C 356.304688 324.109375 352.734375 330.09375 349.265625 335.746094 C 347.035156 339.375 345.148438 343.398438 344.898438 347.648438 C 344.632812 351.898438 345.667969 356.222656 347.835938 359.890625 C 349.898438 363.394531 352.609375 366.480469 355.660156 369.136719 C 357.230469 370.5 358.902344 371.753906 360.625 372.917969 C 362.382812 374.082031 363.980469 375.445312 365.816406 376.496094 C 369.007812 378.316406 372.601562 379.292969 376.160156 380.238281 C 382.011719 381.808594 387.785156 383.820312 393.734375 384.945312 C 397.457031 385.640625 401.179688 386.3125 404.941406 386.714844 C 408.042969 387.042969 411.3125 386.828125 413.855469 389.003906 C 415.816406 390.6875 416.652344 393.328125 417.25 395.847656 C 418.390625 400.640625 420.058594 405.371094 422.644531 409.570312 C 427.492188 417.410156 432.914062 424.898438 438.875 431.929688 C 439.914062 433.15625 440.558594 434.789062 442.027344 435.457031 C 441.902344 436.101562 442.128906 436.8125 442.585938 437.292969 C 443.042969 437.773438 443.636719 438.089844 444.195312 438.441406 C 445.96875 439.570312 447.488281 441.0625 448.640625 442.820312 C 448.523438 443.488281 448.992188 444.210938 449.488281 444.664062 C 449.992188 445.121094 450.601562 445.4375 451.121094 445.878906 C 452.4375 447.019531 452.945312 448.800781 453.386719 450.46875 C 453.082031 451.179688 452.867188 452.0625 453.046875 452.808594 C 453.195312 453.441406 453.714844 453.960938 454.335938 454.125 C 454.449219 455.628906 455.070312 457.25 455.90625 458.5 C 455.464844 459.753906 455.894531 461.308594 456.640625 462.410156 C 457.386719 463.523438 458.453125 464.355469 459.527344 465.152344 C 461.441406 466.597656 463.933594 468.554688 466.429688 468.683594 C 467.101562 466.316406 467.847656 464.207031 469.429688 462.246094 C 471.050781 460.234375 473.203125 458.617188 475.394531 457.273438 C 476.332031 456.707031 477.445312 456.339844 478.253906 455.566406 C 479.40625 454.46875 478.105469 454.214844 477.179688 453.796875 C 474.976562 452.785156 473.9375 450.683594 472.824219 448.699219 C 472.253906 447.6875 471.40625 447.320312 470.660156 446.511719 C 469.910156 445.703125 469.429688 444.679688 468.746094 443.816406 C 467.035156 441.667969 465.53125 439.402344 463.882812 437.230469 C 463.3125 436.46875 461.972656 435.710938 461.71875 434.851562 C 461.441406 433.890625 462.125 433.09375 461.402344 432.195312 C 460.667969 431.285156 459.527344 430.691406 458.757812 429.78125 C 457.871094 428.742188 457.148438 427.566406 456.476562 426.390625 C 451.183594 417.132812 446.625 407.429688 442.472656 397.617188 C 439.257812 390.027344 436.304688 382.328125 433.609375 374.546875 C 432.976562 372.714844 432.34375 370.867188 431.734375 369.023438 C 431.203125 367.378906 430.125 365.65625 431.910156 364.457031 C 432.445312 364.101562 433.0625 363.875 433.671875 363.632812 C 435.394531 362.964844 437.054688 362.128906 438.636719 361.15625 C 441.800781 359.207031 445.5625 358.664062 449.183594 357.789062 C 449.601562 357.691406 450.058594 357.601562 450.425781 357.816406 C 450.804688 358.042969 450.957031 358.539062 450.894531 358.980469 C 450.828125 359.421875 450.613281 359.816406 450.398438 360.207031 C 447.511719 365.582031 446.535156 371.777344 446.246094 377.863281 C 445.953125 383.957031 446.296875 390.066406 445.828125 396.148438 C 445.601562 399.109375 444.890625 402.03125 445.433594 404.941406 C 445.703125 406.382812 446.308594 407.734375 446.929688 409.074219 C 448.054688 411.566406 449.195312 414.058594 450.511719 416.460938 C 452.601562 420.28125 455.148438 423.898438 456.4375 428.058594 C 456.691406 428.867188 456.996094 429.816406 457.804688 430.109375 C 458.578125 430.386719 459.414062 429.867188 459.957031 429.261719 C 460.503906 428.652344 460.921875 427.894531 461.605469 427.441406 C 463.25 426.339844 463.859375 424.101562 465.417969 422.859375 C 464.136719 421.699219 462.898438 420.535156 461.339844 419.761719 C 460.578125 419.394531 459.757812 419.015625 459.363281 418.269531 C 458.832031 417.234375 459.375 415.90625 458.882812 414.855469 C 458.539062 414.121094 458.742188 413.121094 459.085938 412.390625 C 459.375 411.792969 459.84375 411.300781 460.160156 410.71875 C 460.476562 410.136719 460.644531 409.390625 460.277344 408.835938 C 459.984375 408.40625 460.667969 407.824219 461.011719 407.445312 C 461.832031 406.519531 462.125 405.15625 461.757812 403.964844 C 462.390625 402.488281 462.746094 400.792969 463.164062 399.25 C 463.746094 397.113281 464.136719 394.9375 464.667969 392.796875 C 465.785156 388.359375 467.542969 384.097656 469.277344 379.859375 C 473.050781 370.679688 474.417969 360.5625 474.800781 350.644531 C 474.914062 347.738281 474.886719 344.777344 474.242188 341.945312 C 473.597656 339.097656 472.265625 336.339844 470.089844 334.394531 C 465.785156 330.511719 459.476562 329.917969 453.679688 329.601562 C 440.460938 328.878906 427.1875 329.105469 413.980469 330.09375 C 413.082031 329.410156 413.097656 327.992188 413.183594 326.867188 C 413.578125 321.871094 411.894531 316.75 408.613281 312.957031 C 405.714844 309.605469 407.132812 304.292969 406.753906 299.878906 C 406.652344 298.664062 406.5625 297.425781 406.867188 296.238281 C 407.335938 294.429688 408.652344 292.984375 409.574219 291.367188 C 411.765625 287.535156 411.742188 282.742188 410.488281 278.503906 C 409.234375 274.269531 406.867188 270.460938 404.523438 266.71875 C 401.308594 261.570312 399.636719 255.5 396.8125 250.125 C 396.40625 249.367188 395.976562 248.582031 395.292969 248.0625 C 394.609375 247.542969 393.570312 247.367188 392.886719 247.886719 C 396.078125 252.4375 398.800781 257.320312 400.964844 262.429688 C 402.066406 265.035156 401.5625 267.984375 400.863281 270.726562 C 400.460938 272.308594 399.902344 273.851562 399.269531 275.355469 C 398.839844 276.394531 398.40625 278.441406 397.21875 278.847656 C 395.902344 279.300781 394.484375 277.960938 393.558594 277.214844 C 392.949219 276.722656 392.292969 276.253906 391.542969 276.0625 C 390.050781 275.671875 389.164062 274.332031 387.808594 273.585938 C 385.136719 272.105469 381.84375 271.574219 379.78125 269.324219 C 376.261719 265.515625 373.765625 261.039062 369.867188 257.613281 C 368.042969 256.019531 366.070312 254.539062 363.828125 253.613281 C 361.585938 252.691406 359.039062 252.351562 356.710938 253.046875 C 356.191406 253.199219 355.671875 253.414062 355.316406 253.832031 C 354.964844 254.246094 355.089844 254.957031 355.40625 255.398438 Z M 355.40625 255.398438 " fill-opacity="1" fill-rule="nonzero"/><path fill="#c5815c" d="M 407.183594 296.816406 C 406.601562 297.375 405.738281 297.527344 404.941406 297.449219 C 404.144531 297.375 403.382812 297.082031 402.625 296.84375 C 401.863281 296.601562 401.054688 296.425781 400.257812 296.566406 C 399.207031 296.199219 397.9375 296.566406 396.964844 297.097656 C 395.988281 297.628906 395.089844 298.347656 394.050781 298.753906 C 393.761719 298.867188 393.445312 298.957031 393.179688 299.132812 C 392.914062 299.296875 392.671875 299.5625 392.644531 299.890625 C 392.609375 300.285156 392.898438 300.664062 393.253906 300.828125 C 393.609375 301.003906 394.027344 301.015625 394.417969 301.015625 C 395.621094 301.015625 396.824219 300.917969 398.015625 300.675781 C 398.433594 301.648438 397.039062 301.878906 396.457031 302.167969 C 395.609375 302.597656 394.8125 303.128906 394.089844 303.761719 C 392.027344 305.582031 389.101562 305.949219 386.949219 307.683594 C 386.65625 307.921875 386.542969 308.351562 386.453125 308.71875 C 386.367188 309.085938 386.441406 309.527344 386.746094 309.757812 C 387.378906 310.25 388.570312 309.644531 389.203125 309.414062 C 390.152344 309.0625 391.0625 308.632812 391.9375 308.101562 C 393.609375 307.089844 395.671875 307.074219 397.269531 305.960938 C 397.570312 306.113281 397.484375 306.519531 397.269531 306.796875 C 397.054688 307.074219 396.710938 307.203125 396.394531 307.328125 C 395.128906 307.835938 393.925781 308.515625 392.847656 309.363281 C 391.683594 310.289062 390.023438 310.503906 388.949219 311.515625 C 388.644531 311.792969 388.367188 312.109375 388.175781 312.464844 C 387.988281 312.828125 387.898438 313.261719 388.011719 313.664062 C 389.492188 314.285156 391.328125 314.007812 392.609375 313.03125 C 394.582031 311.527344 397.21875 310.90625 399.445312 309.808594 C 399.722656 309.667969 400.078125 309.542969 400.320312 309.742188 C 400.496094 309.882812 400.507812 310.148438 400.421875 310.363281 C 400.332031 310.578125 400.167969 310.730469 400.003906 310.882812 C 398.839844 311.90625 397.445312 312.691406 395.964844 313.144531 C 395.128906 313.398438 394.191406 313.613281 393.683594 314.320312 C 393.46875 314.625 393.34375 315.003906 393.394531 315.371094 C 393.445312 315.738281 393.671875 316.09375 394.015625 316.230469 C 394.292969 316.359375 394.621094 316.332031 394.925781 316.296875 C 395.734375 316.207031 396.535156 316.03125 397.292969 315.765625 C 399.851562 314.878906 402.332031 313.625 404.410156 311.894531 C 404.929688 312.222656 405.054688 312.96875 404.800781 313.539062 C 404.550781 314.09375 404.003906 314.488281 403.460938 314.753906 C 402.902344 315.019531 402.308594 315.207031 401.777344 315.511719 C 401.207031 315.839844 400.699219 316.308594 400.34375 316.863281 C 400.128906 317.179688 399.964844 317.585938 400.09375 317.953125 C 400.332031 318.671875 401.890625 318.394531 402.410156 318.21875 C 403.042969 318.003906 403.496094 317.597656 404.054688 317.269531 C 404.675781 316.902344 405.410156 316.738281 406.042969 316.347656 C 406.714844 315.929688 407.320312 315.359375 407.636719 314.625 C 408.246094 313.246094 409.207031 312.148438 409.714844 310.730469 C 410.476562 308.566406 412.324219 306.871094 414.324219 305.761719 C 415.832031 304.914062 416.566406 302.953125 416.894531 301.257812 C 417.238281 299.5625 416.984375 297.753906 416.210938 296.210938 C 413.148438 295.996094 410.207031 296.386719 407.183594 296.816406 Z M 407.183594 296.816406 " fill-opacity="1" fill-rule="nonzero"/><path fill="#c5815c" d="M 351.429688 263.023438 C 350.949219 263.949219 350.457031 264.871094 349.976562 265.792969 C 349.671875 266.097656 349.46875 266.753906 349.265625 267.148438 C 349.039062 267.601562 348.757812 268.046875 348.492188 268.488281 C 347.921875 269.449219 347.402344 270.4375 346.921875 271.433594 C 344.746094 276.039062 343.238281 281.414062 343.164062 286.523438 C 343.085938 291.40625 340.972656 296.023438 339.90625 300.789062 C 338.84375 305.558594 338.046875 310.414062 338.210938 315.296875 C 338.273438 317.015625 338.1875 318.8125 339.035156 320.316406 C 339.769531 321.632812 340.996094 322.59375 342.199219 323.515625 C 348.886719 328.625 355.773438 333.46875 362.851562 338.035156 C 367.703125 341.171875 372.511719 344.347656 377.578125 347.105469 C 379.210938 347.988281 380.742188 349.253906 382.59375 349.457031 C 384.453125 349.671875 386.289062 348.925781 388.164062 348.785156 C 390.074219 348.632812 391.988281 349.113281 393.746094 349.875 C 395.507812 350.632812 397.128906 351.667969 398.738281 352.707031 C 399.992188 352.730469 401.308594 352.746094 402.523438 352.378906 C 403.738281 352.011719 404.867188 351.1875 405.285156 350.011719 C 405.207031 349.582031 405.625 349.113281 405.992188 348.886719 C 406.359375 348.660156 406.789062 348.519531 407.121094 348.230469 C 407.359375 348.027344 407.523438 347.710938 407.488281 347.40625 C 407.449219 347.089844 407.121094 346.824219 406.816406 346.914062 C 406.96875 346.484375 407.171875 346.015625 407.550781 345.75 C 407.929688 345.484375 408.347656 345.296875 408.738281 345.054688 C 409.132812 344.816406 409.511719 344.523438 409.742188 344.121094 C 409.96875 343.714844 410.019531 343.195312 409.765625 342.804688 C 409.511719 342.410156 408.941406 342.246094 408.574219 342.527344 C 407.398438 343.421875 405.777344 343.144531 404.410156 343.007812 C 403.433594 342.90625 402.394531 343.132812 401.460938 342.792969 C 401.117188 342.664062 400.484375 342.296875 400.8125 341.90625 C 401.207031 341.4375 402.15625 341.679688 402.675781 341.664062 C 403.523438 341.640625 404.398438 341.210938 405.132812 340.78125 C 405.449219 340.589844 405.765625 340.386719 406.105469 340.238281 C 406.460938 340.085938 406.839844 339.996094 407.15625 339.757812 C 407.460938 339.527344 407.652344 339.074219 407.449219 338.746094 C 407.132812 338.25 406.5 337.933594 405.917969 337.882812 C 405.332031 337.832031 404.75 337.984375 404.183594 338.125 C 401.472656 338.125 398.773438 337.492188 396.066406 337.367188 C 393.355469 337.238281 390.457031 337.695312 388.441406 339.503906 C 385.617188 339.125 382.894531 338.035156 380.363281 336.707031 C 371.488281 332.042969 363.574219 325.589844 357.203125 317.851562 C 355.875 316.230469 354.582031 314.273438 354.496094 312.183594 C 354.40625 310.097656 355.027344 308.035156 355.75 306.078125 C 357.6875 300.789062 360.433594 295.855469 363.167969 290.9375 C 364.816406 287.976562 366.320312 284.929688 368.132812 282.058594 C 369.195312 280.363281 370.335938 278.667969 370.816406 276.734375 C 371.296875 274.800781 371.070312 272.75 370.828125 270.777344 C 370.550781 268.5 370.222656 266.125 368.957031 264.214844 C 364.28125 261.925781 359.167969 261.265625 354.027344 261.128906 C 353.496094 261.113281 352.925781 261.113281 352.496094 261.429688 C 352.164062 261.660156 351.976562 262.027344 351.785156 262.378906 C 351.644531 262.605469 351.542969 262.808594 351.429688 263.023438 Z M 351.429688 263.023438 " fill-opacity="1" fill-rule="nonzero"/><path fill="#342216" d="M 368.132812 252.601562 C 368.539062 252.4375 368.957031 252.300781 369.375 252.160156 C 371.058594 251.589844 372.828125 251.148438 374.296875 250.125 C 376.210938 248.785156 377.375 246.558594 377.730469 244.257812 C 378.085938 241.953125 377.703125 239.589844 376.957031 237.390625 C 376.171875 235.035156 374.984375 232.457031 376.019531 230.191406 C 377.742188 226.449219 382.996094 227.382812 385.769531 224.867188 C 389.441406 221.542969 388.367188 215.21875 392.582031 212.472656 C 395.066406 210.855469 398.332031 211.574219 401.195312 212.347656 C 402.800781 212.777344 404.21875 212.789062 405.320312 214.054688 C 406.421875 215.320312 406.941406 216.988281 407.105469 218.644531 C 407.257812 220.300781 407.070312 221.972656 406.890625 223.628906 C 408.207031 219.492188 408.15625 214.941406 406.753906 210.84375 C 404.839844 205.265625 401.800781 199.726562 396.609375 196.929688 C 385.667969 191.035156 371.375 196.816406 367.726562 208.667969 C 365.511719 215.875 367.421875 224.058594 364.28125 230.925781 C 363.042969 233.644531 360.941406 235.847656 359.636719 238.515625 C 356.699219 244.523438 354.863281 250.894531 352.582031 257.183594 C 350.242188 263.644531 347.734375 270.058594 345.074219 276.394531 C 346.9375 273.890625 348.835938 271.359375 351.226562 269.347656 C 353.242188 267.667969 355.621094 266.339844 357.101562 264.175781 C 358.117188 262.695312 358.636719 260.925781 359.507812 259.371094 C 361.320312 256.121094 364.613281 253.96875 368.132812 252.601562 Z M 368.132812 252.601562 " fill-opacity="1" fill-rule="nonzero"/></svg>