<svg xmlns="http://www.w3.org/2000/svg" xmlns:xlink="http://www.w3.org/1999/xlink" width="1024" zoomAndPan="magnify" viewBox="0 0 768 576" height="768" preserveAspectRatio="xMidYMid meet" version="1.0"><defs><clipPath id="cf575bb0db"><path d="M 236.007812 140 L 392 140 L 392 437 L 236.007812 437 Z M 236.007812 140 " clip-rule="nonzero"/></clipPath><clipPath id="15b9d0ac9d"><path d="M 523 282 L 532.257812 282 L 532.257812 297 L 523 297 Z M 523 282 " clip-rule="nonzero"/></clipPath></defs><path fill="#000000" d="M 491.988281 272.667969 L 501.226562 261.121094 C 501.402344 260.886719 501.558594 260.632812 501.6875 260.367188 C 501.816406 260.097656 501.921875 259.820312 501.996094 259.535156 C 502.074219 259.246094 502.121094 258.953125 502.140625 258.65625 C 502.160156 258.363281 502.152344 258.066406 502.113281 257.769531 C 502.078125 257.476562 502.011719 257.1875 501.917969 256.90625 C 501.828125 256.621094 501.707031 256.351562 501.5625 256.09375 C 501.417969 255.832031 501.25 255.589844 501.058594 255.363281 C 500.863281 255.136719 500.652344 254.929688 500.421875 254.746094 C 500.1875 254.558594 499.941406 254.398438 499.679688 254.257812 C 499.414062 254.121094 499.140625 254.007812 498.855469 253.925781 C 498.570312 253.839844 498.28125 253.78125 497.984375 253.753906 C 497.691406 253.722656 497.394531 253.722656 497.097656 253.75 C 496.800781 253.777344 496.511719 253.835938 496.226562 253.917969 C 495.941406 254.003906 495.667969 254.113281 495.402344 254.25 C 495.140625 254.386719 494.890625 254.546875 494.660156 254.734375 C 494.425781 254.917969 494.214844 255.125 494.019531 255.351562 L 484.785156 266.894531 C 484.585938 267.132812 484.410156 267.382812 484.257812 267.65625 C 484.109375 267.925781 483.988281 268.207031 483.894531 268.503906 C 483.800781 268.796875 483.738281 269.097656 483.703125 269.40625 C 483.671875 269.714844 483.671875 270.023438 483.699219 270.328125 C 483.730469 270.636719 483.789062 270.941406 483.878906 271.234375 C 483.96875 271.53125 484.085938 271.816406 484.234375 272.085938 C 484.378906 272.359375 484.550781 272.613281 484.75 272.851562 C 484.949219 273.089844 485.167969 273.304688 485.410156 273.5 C 485.652344 273.691406 485.910156 273.859375 486.183594 274 C 486.457031 274.144531 486.746094 274.253906 487.042969 274.339844 C 487.339844 274.421875 487.644531 274.476562 487.953125 274.5 C 488.261719 274.523438 488.566406 274.515625 488.875 274.476562 C 489.183594 274.4375 489.480469 274.371094 489.773438 274.269531 C 490.066406 274.171875 490.347656 274.042969 490.617188 273.890625 C 490.882812 273.734375 491.132812 273.554688 491.363281 273.347656 C 491.59375 273.144531 491.804688 272.917969 491.988281 272.667969 Z M 491.988281 272.667969 " fill-opacity="1" fill-rule="nonzero"/><path fill="#000000" d="M 484.785156 307.308594 L 494.019531 318.851562 C 494.207031 319.101562 494.414062 319.328125 494.648438 319.53125 C 494.878906 319.738281 495.128906 319.917969 495.394531 320.074219 C 495.664062 320.226562 495.941406 320.355469 496.234375 320.453125 C 496.527344 320.554688 496.828125 320.621094 497.136719 320.660156 C 497.441406 320.699219 497.75 320.707031 498.058594 320.683594 C 498.367188 320.660156 498.671875 320.609375 498.96875 320.523438 C 499.265625 320.441406 499.550781 320.328125 499.828125 320.1875 C 500.101562 320.042969 500.359375 319.875 500.601562 319.683594 C 500.84375 319.488281 501.0625 319.273438 501.261719 319.035156 C 501.457031 318.800781 501.632812 318.542969 501.777344 318.273438 C 501.925781 318 502.042969 317.714844 502.132812 317.417969 C 502.222656 317.125 502.28125 316.820312 502.3125 316.515625 C 502.339844 316.207031 502.339844 315.898438 502.304688 315.589844 C 502.273438 315.28125 502.210938 314.980469 502.117188 314.6875 C 502.023438 314.390625 501.902344 314.109375 501.75 313.839844 C 501.601562 313.566406 501.425781 313.316406 501.226562 313.078125 L 491.988281 301.535156 C 491.804688 301.285156 491.59375 301.058594 491.363281 300.855469 C 491.132812 300.648438 490.882812 300.46875 490.617188 300.3125 C 490.347656 300.160156 490.066406 300.03125 489.773438 299.933594 C 489.480469 299.832031 489.183594 299.765625 488.875 299.726562 C 488.566406 299.6875 488.261719 299.679688 487.953125 299.703125 C 487.644531 299.726562 487.339844 299.777344 487.042969 299.863281 C 486.746094 299.945312 486.457031 300.058594 486.183594 300.203125 C 485.910156 300.34375 485.652344 300.511719 485.410156 300.703125 C 485.167969 300.898438 484.949219 301.113281 484.75 301.351562 C 484.550781 301.589844 484.378906 301.84375 484.234375 302.113281 C 484.085938 302.386719 483.96875 302.671875 483.878906 302.96875 C 483.789062 303.261719 483.730469 303.566406 483.699219 303.875 C 483.671875 304.179688 483.671875 304.488281 483.703125 304.796875 C 483.738281 305.105469 483.800781 305.40625 483.894531 305.699219 C 483.988281 305.996094 484.109375 306.277344 484.257812 306.546875 C 484.410156 306.820312 484.585938 307.070312 484.785156 307.308594 Z M 484.785156 307.308594 " fill-opacity="1" fill-rule="nonzero"/><path fill="#000000" d="M 509.167969 288.257812 C 509.167969 287.953125 509.140625 287.652344 509.078125 287.355469 C 509.019531 287.058594 508.933594 286.769531 508.816406 286.488281 C 508.699219 286.207031 508.558594 285.941406 508.390625 285.691406 C 508.222656 285.4375 508.03125 285.203125 507.816406 284.992188 C 507.601562 284.777344 507.367188 284.585938 507.117188 284.414062 C 506.863281 284.246094 506.597656 284.105469 506.316406 283.988281 C 506.039062 283.875 505.75 283.785156 505.453125 283.726562 C 505.152344 283.667969 504.855469 283.636719 504.550781 283.636719 L 490.695312 283.636719 C 490.394531 283.636719 490.09375 283.667969 489.796875 283.726562 C 489.496094 283.785156 489.210938 283.875 488.929688 283.988281 C 488.648438 284.105469 488.382812 284.246094 488.128906 284.414062 C 487.878906 284.585938 487.644531 284.777344 487.429688 284.992188 C 487.214844 285.203125 487.023438 285.4375 486.855469 285.691406 C 486.6875 285.941406 486.546875 286.207031 486.429688 286.488281 C 486.3125 286.769531 486.226562 287.058594 486.167969 287.355469 C 486.109375 287.652344 486.078125 287.953125 486.078125 288.257812 C 486.078125 288.558594 486.109375 288.859375 486.167969 289.15625 C 486.226562 289.453125 486.3125 289.742188 486.429688 290.023438 C 486.546875 290.304688 486.6875 290.570312 486.855469 290.820312 C 487.023438 291.074219 487.214844 291.308594 487.429688 291.523438 C 487.644531 291.734375 487.878906 291.925781 488.128906 292.097656 C 488.382812 292.265625 488.648438 292.40625 488.929688 292.523438 C 489.210938 292.640625 489.496094 292.726562 489.796875 292.785156 C 490.09375 292.84375 490.394531 292.875 490.695312 292.875 L 504.550781 292.875 C 504.855469 292.875 505.152344 292.84375 505.453125 292.785156 C 505.75 292.726562 506.039062 292.640625 506.316406 292.523438 C 506.597656 292.40625 506.863281 292.265625 507.117188 292.097656 C 507.367188 291.925781 507.601562 291.734375 507.816406 291.523438 C 508.03125 291.308594 508.222656 291.074219 508.390625 290.820312 C 508.558594 290.570312 508.699219 290.304688 508.816406 290.023438 C 508.933594 289.742188 509.019531 289.453125 509.078125 289.15625 C 509.140625 288.859375 509.167969 288.558594 509.167969 288.257812 Z M 509.167969 288.257812 " fill-opacity="1" fill-rule="nonzero"/><g clip-path="url(#cf575bb0db)"><path fill="#000000" d="M 387.734375 316.265625 C 391.316406 306.777344 395.378906 296.039062 383.117188 286.085938 C 378.960938 281.976562 290.941406 190.230469 244.574219 141.875 C 244.375 141.617188 244.152344 141.382812 243.90625 141.175781 C 243.65625 140.964844 243.390625 140.78125 243.101562 140.628906 C 242.816406 140.476562 242.515625 140.351562 242.203125 140.261719 C 241.890625 140.171875 241.574219 140.117188 241.25 140.09375 C 240.925781 140.070312 240.601562 140.082031 240.277344 140.125 C 239.957031 140.171875 239.644531 140.25 239.335938 140.359375 C 239.03125 140.472656 238.742188 140.613281 238.464844 140.789062 C 238.191406 140.960938 237.9375 141.160156 237.703125 141.386719 C 237.46875 141.613281 237.261719 141.863281 237.082031 142.132812 C 236.902344 142.402344 236.75 142.691406 236.628906 142.992188 C 236.511719 143.292969 236.421875 143.605469 236.367188 143.925781 C 236.3125 144.246094 236.292969 144.570312 236.308594 144.894531 C 236.320312 145.21875 236.367188 145.539062 236.449219 145.855469 C 236.53125 146.171875 236.644531 146.472656 236.789062 146.765625 C 236.9375 147.054688 237.109375 147.328125 237.3125 147.582031 C 237.515625 147.835938 237.742188 148.066406 237.996094 148.273438 C 300.824219 213.832031 376.007812 292.183594 377.230469 293.152344 C 384.15625 298.714844 382.886719 302.988281 379.101562 312.988281 C 378.707031 314.027344 378.316406 315.066406 377.921875 316.152344 C 369.808594 338.832031 364.597656 362.164062 362.289062 386.144531 C 360.398438 403.347656 358.6875 417.800781 357.117188 430.847656 C 357.078125 431.152344 357.066406 431.460938 357.089844 431.765625 C 357.109375 432.074219 357.160156 432.375 357.242188 432.671875 C 357.320312 432.964844 357.429688 433.25 357.570312 433.527344 C 357.707031 433.800781 357.871094 434.058594 358.058594 434.300781 C 358.25 434.542969 358.460938 434.765625 358.691406 434.964844 C 358.925781 435.164062 359.175781 435.339844 359.445312 435.488281 C 359.714844 435.636719 359.992188 435.757812 360.285156 435.851562 C 360.578125 435.945312 360.875 436.011719 361.183594 436.046875 L 361.734375 436.046875 C 362.304688 436.050781 362.851562 435.953125 363.382812 435.753906 C 363.914062 435.554688 364.394531 435.269531 364.820312 434.894531 C 365.246094 434.519531 365.589844 434.082031 365.855469 433.578125 C 366.121094 433.078125 366.285156 432.542969 366.355469 431.980469 C 367.925781 418.910156 369.632812 404.433594 371.527344 387.160156 C 373.753906 363.917969 378.792969 341.300781 386.652344 319.316406 C 386.972656 318.277344 387.367188 317.257812 387.734375 316.265625 Z M 387.734375 316.265625 " fill-opacity="1" fill-rule="nonzero"/></g><path fill="#000000" d="M 476.589844 276.917969 C 474.902344 258.003906 405.46875 154.320312 397.550781 142.5 C 397.382812 142.242188 397.191406 142.003906 396.980469 141.785156 C 396.765625 141.5625 396.53125 141.367188 396.277344 141.195312 C 396.023438 141.023438 395.757812 140.875 395.476562 140.757812 C 395.191406 140.636719 394.902344 140.546875 394.601562 140.484375 C 394.300781 140.421875 393.996094 140.390625 393.691406 140.390625 C 393.382812 140.386719 393.082031 140.417969 392.78125 140.476562 C 392.480469 140.535156 392.1875 140.625 391.902344 140.742188 C 391.621094 140.859375 391.351562 141.003906 391.097656 141.175781 C 390.84375 141.34375 390.609375 141.539062 390.390625 141.757812 C 390.175781 141.976562 389.984375 142.210938 389.816406 142.46875 C 389.648438 142.722656 389.503906 142.996094 389.390625 143.277344 C 389.277344 143.5625 389.191406 143.855469 389.132812 144.15625 C 389.078125 144.457031 389.050781 144.761719 389.054688 145.070312 C 389.058594 145.375 389.09375 145.679688 389.15625 145.976562 C 389.222656 146.277344 389.316406 146.566406 389.4375 146.847656 C 389.558594 147.128906 389.707031 147.398438 389.882812 147.648438 C 419.253906 191.269531 466.289062 265.164062 467.375 277.726562 C 468.53125 290.867188 465.390625 303.128906 456.824219 318.4375 C 454.328125 322.894531 428.144531 404.988281 420.179688 430.019531 C 420.074219 430.308594 420 430.609375 419.957031 430.917969 C 419.914062 431.222656 419.898438 431.53125 419.917969 431.839844 C 419.9375 432.152344 419.984375 432.457031 420.0625 432.753906 C 420.144531 433.054688 420.253906 433.34375 420.390625 433.621094 C 420.527344 433.898438 420.691406 434.160156 420.882812 434.40625 C 421.074219 434.652344 421.285156 434.875 421.519531 435.074219 C 421.757812 435.277344 422.007812 435.453125 422.28125 435.605469 C 422.550781 435.753906 422.835938 435.878906 423.128906 435.972656 C 423.425781 436.066406 423.726562 436.128906 424.035156 436.164062 C 424.34375 436.195312 424.652344 436.199219 424.960938 436.167969 C 425.269531 436.140625 425.574219 436.078125 425.871094 435.988281 C 426.164062 435.898438 426.449219 435.78125 426.722656 435.632812 C 426.996094 435.484375 427.25 435.3125 427.488281 435.113281 C 427.726562 434.914062 427.941406 434.695312 428.136719 434.453125 C 428.328125 434.210938 428.496094 433.949219 428.636719 433.675781 C 428.78125 433.398438 428.890625 433.109375 428.976562 432.8125 C 442.207031 390.992188 462.847656 327.1875 464.902344 322.894531 C 471.625 310.816406 478.25 295.898438 476.589844 276.917969 Z M 476.589844 276.917969 " fill-opacity="1" fill-rule="nonzero"/><path fill="#000000" d="M 394.339844 243.828125 C 390.761719 248.839844 385.105469 258.675781 387.296875 268.859375 C 389.097656 276.941406 395.007812 283.335938 405.261719 287.863281 C 405.875 288.148438 406.523438 288.289062 407.203125 288.289062 C 407.878906 288.289062 408.527344 288.148438 409.140625 287.863281 C 411.449219 286.777344 418.746094 284.097656 423.15625 285.96875 C 423.898438 286.277344 424.667969 286.386719 425.464844 286.292969 C 425.90625 286.292969 436.203125 284.976562 440.496094 276.0625 C 444.214844 268.328125 442 257.867188 433.894531 244.980469 L 433.6875 244.679688 L 366.007812 153.976562 C 365.828125 153.730469 365.625 153.507812 365.398438 153.304688 C 365.171875 153.101562 364.929688 152.921875 364.671875 152.765625 C 364.410156 152.609375 364.136719 152.480469 363.851562 152.378906 C 363.566406 152.277344 363.269531 152.203125 362.972656 152.160156 C 362.671875 152.117188 362.367188 152.101562 362.066406 152.117188 C 361.761719 152.132812 361.464844 152.175781 361.167969 152.25 C 360.875 152.324219 360.589844 152.429688 360.316406 152.558594 C 360.042969 152.6875 359.785156 152.84375 359.539062 153.027344 C 359.296875 153.207031 359.074219 153.410156 358.871094 153.636719 C 358.667969 153.859375 358.488281 154.105469 358.332031 154.363281 C 358.175781 154.625 358.046875 154.898438 357.945312 155.183594 C 357.84375 155.472656 357.773438 155.765625 357.726562 156.066406 C 357.683594 156.363281 357.667969 156.667969 357.683594 156.96875 C 357.699219 157.273438 357.746094 157.570312 357.820312 157.867188 C 357.894531 158.160156 357.996094 158.445312 358.128906 158.71875 C 358.257812 158.992188 358.414062 159.25 358.597656 159.496094 L 426.042969 249.992188 C 432.070312 259.621094 434.195312 267.402344 432.070312 271.929688 C 431.332031 273.21875 430.355469 274.296875 429.148438 275.160156 C 427.9375 276.023438 426.601562 276.59375 425.144531 276.871094 C 418.378906 274.746094 410.710938 277.125 407.015625 278.582031 C 400.804688 275.464844 397.179688 271.652344 396.210938 267.035156 C 394.292969 257.335938 403.785156 246.691406 403.875 246.691406 C 404.277344 246.261719 404.582031 245.777344 404.796875 245.230469 C 405.011719 244.6875 405.117188 244.125 405.117188 243.539062 C 405.117188 242.953125 405.011719 242.386719 404.796875 241.84375 C 404.582031 241.300781 404.277344 240.8125 403.875 240.386719 L 309.296875 141.898438 C 309.089844 141.679688 308.859375 141.484375 308.609375 141.308594 C 308.359375 141.136719 308.097656 140.988281 307.820312 140.863281 C 307.542969 140.742188 307.253906 140.648438 306.957031 140.582031 C 306.664062 140.519531 306.363281 140.480469 306.058594 140.476562 C 305.757812 140.46875 305.453125 140.492188 305.15625 140.546875 C 304.855469 140.597656 304.566406 140.679688 304.285156 140.789062 C 304 140.898438 303.730469 141.035156 303.476562 141.199219 C 303.21875 141.363281 302.984375 141.550781 302.761719 141.761719 C 302.542969 141.96875 302.347656 142.199219 302.175781 142.449219 C 302 142.695312 301.851562 142.960938 301.730469 143.238281 C 301.609375 143.515625 301.515625 143.804688 301.449219 144.097656 C 301.382812 144.394531 301.347656 144.695312 301.339844 145 C 301.335938 145.300781 301.359375 145.601562 301.410156 145.902344 C 301.464844 146.199219 301.542969 146.492188 301.65625 146.773438 C 301.765625 147.058594 301.902344 147.328125 302.066406 147.582031 C 302.226562 147.839844 302.414062 148.074219 302.625 148.296875 Z M 394.339844 243.828125 " fill-opacity="1" fill-rule="nonzero"/><path fill="#000000" d="M 421.425781 391.871094 L 437.449219 342.246094 C 444.375 332.664062 450.933594 320.125 444.054688 306.960938 C 443.671875 306.234375 443.257812 305.53125 442.808594 304.84375 C 442.359375 304.15625 441.882812 303.492188 441.371094 302.851562 C 440.863281 302.207031 440.324219 301.589844 439.757812 301 C 439.191406 300.40625 438.597656 299.84375 437.980469 299.304688 C 437.359375 298.769531 436.71875 298.261719 436.050781 297.785156 C 435.386719 297.304688 434.699219 296.859375 433.992188 296.449219 C 433.28125 296.035156 432.558594 295.652344 431.816406 295.308594 C 431.070312 294.960938 430.316406 294.648438 429.542969 294.375 C 428.769531 294.097656 427.988281 293.859375 427.195312 293.65625 C 426.398438 293.453125 425.597656 293.285156 424.789062 293.15625 C 423.980469 293.027344 423.164062 292.9375 422.347656 292.882812 C 421.53125 292.832031 420.710938 292.816406 419.890625 292.839844 C 419.074219 292.859375 418.257812 292.921875 417.441406 293.019531 C 416.628906 293.117188 415.820312 293.253906 415.019531 293.429688 C 414.21875 293.601562 413.429688 293.8125 412.648438 294.058594 C 411.867188 294.304688 411.097656 294.589844 410.339844 294.90625 C 408.964844 295.527344 407.667969 296.28125 406.449219 297.171875 C 405.230469 298.058594 404.113281 299.0625 403.097656 300.179688 C 402.085938 301.296875 401.199219 302.507812 400.433594 303.808594 C 399.671875 305.113281 399.046875 306.476562 398.566406 307.90625 C 396.789062 314.074219 398.242188 320.839844 402.90625 328.113281 C 391.730469 361.917969 387.734375 389.351562 382.125 430.847656 C 382.085938 431.152344 382.074219 431.460938 382.09375 431.765625 C 382.117188 432.074219 382.167969 432.375 382.246094 432.671875 C 382.328125 432.964844 382.4375 433.25 382.574219 433.527344 C 382.714844 433.800781 382.875 434.058594 383.066406 434.300781 C 383.253906 434.542969 383.464844 434.765625 383.699219 434.964844 C 383.933594 435.164062 384.183594 435.339844 384.453125 435.488281 C 384.71875 435.636719 385 435.757812 385.292969 435.851562 C 385.585938 435.945312 385.882812 436.011719 386.1875 436.046875 L 386.8125 436.046875 C 387.375 436.050781 387.921875 435.953125 388.453125 435.757812 C 388.980469 435.5625 389.457031 435.28125 389.882812 434.910156 C 390.308594 434.542969 390.652344 434.109375 390.921875 433.609375 C 391.1875 433.113281 391.355469 432.585938 391.429688 432.027344 C 396.996094 390.207031 400.988281 362.75 412.441406 328.851562 C 412.679688 328.148438 412.742188 327.429688 412.632812 326.699219 C 412.519531 325.964844 412.25 325.296875 411.820312 324.695312 C 407.871094 319.175781 406.394531 314.417969 407.457031 310.585938 C 408.015625 309.007812 408.859375 307.597656 409.984375 306.359375 C 411.109375 305.117188 412.429688 304.140625 413.945312 303.425781 C 414.929688 303.035156 415.941406 302.730469 416.984375 302.523438 C 418.023438 302.3125 419.074219 302.199219 420.136719 302.183594 C 421.195312 302.167969 422.25 302.246094 423.296875 302.421875 C 424.34375 302.597656 425.367188 302.867188 426.363281 303.226562 C 427.363281 303.589844 428.316406 304.039062 429.234375 304.574219 C 430.148438 305.113281 431.007812 305.726562 431.8125 306.421875 C 432.613281 307.117188 433.347656 307.875 434.011719 308.703125 C 434.675781 309.53125 435.261719 310.414062 435.765625 311.347656 C 439.480469 318.414062 437.589844 326.242188 429.4375 337.535156 C 429.152344 337.929688 428.9375 338.363281 428.789062 338.828125 L 412.628906 389.121094 C 412.488281 389.691406 412.460938 390.265625 412.542969 390.847656 C 412.625 391.429688 412.808594 391.972656 413.097656 392.484375 C 413.386719 392.996094 413.757812 393.433594 414.214844 393.804688 C 414.671875 394.171875 415.179688 394.441406 415.738281 394.617188 C 416.296875 394.792969 416.871094 394.859375 417.457031 394.816406 C 418.039062 394.773438 418.597656 394.621094 419.125 394.367188 C 419.652344 394.113281 420.117188 393.769531 420.511719 393.339844 C 420.910156 392.90625 421.214844 392.417969 421.425781 391.871094 Z M 421.425781 391.871094 " fill-opacity="1" fill-rule="nonzero"/><path fill="#000000" d="M 497.484375 208.058594 C 497.636719 208.34375 497.820312 208.613281 498.03125 208.863281 C 498.242188 209.109375 498.476562 209.335938 498.734375 209.535156 C 498.992188 209.734375 499.269531 209.90625 499.5625 210.046875 C 499.855469 210.1875 500.160156 210.292969 500.480469 210.371094 C 500.796875 210.445312 501.117188 210.488281 501.441406 210.496094 C 501.769531 210.503906 502.09375 210.480469 502.414062 210.417969 C 502.734375 210.359375 503.042969 210.265625 503.34375 210.140625 C 503.644531 210.011719 503.929688 209.855469 504.195312 209.671875 C 504.464844 209.484375 504.710938 209.273438 504.933594 209.035156 C 505.15625 208.796875 505.351562 208.535156 505.515625 208.257812 C 505.683594 207.976562 505.820312 207.683594 505.925781 207.375 C 506.03125 207.066406 506.105469 206.75 506.144531 206.425781 C 506.183594 206.101562 506.1875 205.777344 506.15625 205.453125 C 506.125 205.128906 506.0625 204.8125 505.964844 204.5 C 505.867188 204.1875 505.738281 203.890625 505.578125 203.605469 C 505.417969 203.324219 505.230469 203.058594 505.011719 202.816406 C 504.089844 201.523438 503.148438 200.246094 502.195312 198.980469 C 502.007812 198.753906 501.796875 198.550781 501.570312 198.363281 C 501.34375 198.175781 501.097656 198.011719 500.839844 197.875 C 500.578125 197.734375 500.308594 197.621094 500.027344 197.53125 C 499.746094 197.441406 499.460938 197.382812 499.167969 197.347656 C 498.875 197.316406 498.582031 197.3125 498.289062 197.335938 C 497.992188 197.355469 497.703125 197.40625 497.421875 197.484375 C 497.136719 197.5625 496.863281 197.667969 496.597656 197.800781 C 496.335938 197.929688 496.085938 198.085938 495.851562 198.261719 C 495.617188 198.441406 495.402344 198.640625 495.203125 198.859375 C 495.007812 199.082031 494.835938 199.316406 494.683594 199.570312 C 494.53125 199.824219 494.40625 200.085938 494.304688 200.363281 C 494.207031 200.640625 494.132812 200.925781 494.085938 201.214844 C 494.039062 201.507812 494.023438 201.800781 494.03125 202.09375 C 494.042969 202.390625 494.078125 202.679688 494.144531 202.96875 C 494.210938 203.253906 494.304688 203.535156 494.421875 203.804688 C 494.542969 204.074219 494.683594 204.328125 494.851562 204.570312 C 495.746094 205.695312 496.621094 206.855469 497.484375 208.058594 Z M 497.484375 208.058594 " fill-opacity="1" fill-rule="nonzero"/><g clip-path="url(#15b9d0ac9d)"><path fill="#000000" d="M 532.257812 287.539062 C 532.257812 287.238281 532.230469 286.9375 532.171875 286.640625 C 532.109375 286.339844 532.023438 286.054688 531.90625 285.773438 C 531.792969 285.492188 531.648438 285.226562 531.480469 284.972656 C 531.3125 284.722656 531.121094 284.488281 530.90625 284.273438 C 530.691406 284.058594 530.457031 283.867188 530.207031 283.699219 C 529.953125 283.53125 529.6875 283.390625 529.40625 283.273438 C 529.128906 283.15625 528.839844 283.070312 528.542969 283.011719 C 528.246094 282.953125 527.945312 282.921875 527.640625 282.921875 C 527.335938 282.921875 527.039062 282.953125 526.738281 283.011719 C 526.441406 283.070312 526.152344 283.15625 525.875 283.273438 C 525.59375 283.390625 525.328125 283.53125 525.074219 283.699219 C 524.824219 283.867188 524.589844 284.058594 524.375 284.273438 C 524.160156 284.488281 523.96875 284.722656 523.800781 284.972656 C 523.632812 285.226562 523.492188 285.492188 523.375 285.773438 C 523.257812 286.054688 523.171875 286.339844 523.113281 286.640625 C 523.050781 286.9375 523.023438 287.238281 523.023438 287.539062 L 523.023438 288.257812 C 523.023438 289.535156 523.023438 290.804688 523.023438 292.066406 C 523.015625 292.371094 523.039062 292.671875 523.089844 292.96875 C 523.140625 293.269531 523.222656 293.558594 523.328125 293.84375 C 523.4375 294.125 523.574219 294.394531 523.738281 294.652344 C 523.898438 294.910156 524.085938 295.144531 524.292969 295.367188 C 524.503906 295.585938 524.730469 295.785156 524.980469 295.957031 C 525.226562 296.132812 525.488281 296.28125 525.765625 296.40625 C 526.042969 296.527344 526.332031 296.621094 526.625 296.6875 C 526.921875 296.753906 527.222656 296.792969 527.527344 296.800781 L 527.640625 296.800781 C 527.9375 296.800781 528.234375 296.773438 528.527344 296.714844 C 528.820312 296.65625 529.105469 296.574219 529.382812 296.460938 C 529.660156 296.347656 529.921875 296.210938 530.171875 296.046875 C 530.421875 295.882812 530.652344 295.695312 530.867188 295.488281 C 531.078125 295.28125 531.273438 295.054688 531.441406 294.808594 C 531.609375 294.5625 531.753906 294.300781 531.875 294.027344 C 531.996094 293.753906 532.085938 293.472656 532.152344 293.183594 C 532.214844 292.890625 532.25 292.59375 532.257812 292.296875 C 532.257812 290.941406 532.257812 289.585938 532.257812 288.234375 Z M 532.257812 287.539062 " fill-opacity="1" fill-rule="nonzero"/></g><path fill="#000000" d="M 480.835938 387.804688 C 479.757812 388.835938 478.675781 389.851562 477.582031 390.855469 C 477.355469 391.058594 477.148438 391.28125 476.964844 391.527344 C 476.78125 391.769531 476.625 392.03125 476.492188 392.304688 C 476.363281 392.582031 476.257812 392.867188 476.183594 393.164062 C 476.105469 393.460938 476.0625 393.757812 476.042969 394.0625 C 476.027344 394.367188 476.042969 394.671875 476.085938 394.976562 C 476.128906 395.277344 476.199219 395.570312 476.300781 395.859375 C 476.402344 396.148438 476.53125 396.421875 476.6875 396.6875 C 476.84375 396.949219 477.023438 397.195312 477.226562 397.421875 C 477.429688 397.648438 477.652344 397.855469 477.898438 398.035156 C 478.140625 398.21875 478.402344 398.378906 478.675781 398.511719 C 478.953125 398.640625 479.238281 398.746094 479.535156 398.820312 C 479.828125 398.898438 480.128906 398.945312 480.433594 398.960938 C 480.738281 398.976562 481.042969 398.964844 481.34375 398.921875 C 481.648438 398.878906 481.941406 398.804688 482.230469 398.703125 C 482.519531 398.605469 482.792969 398.476562 483.058594 398.320312 C 483.320312 398.164062 483.566406 397.984375 483.792969 397.78125 C 484.960938 396.71875 486.117188 395.632812 487.253906 394.527344 C 487.488281 394.320312 487.699219 394.089844 487.890625 393.839844 C 488.078125 393.59375 488.238281 393.328125 488.371094 393.042969 C 488.507812 392.761719 488.609375 392.46875 488.683594 392.167969 C 488.757812 391.863281 488.804688 391.554688 488.816406 391.242188 C 488.828125 390.929688 488.808594 390.621094 488.757812 390.3125 C 488.707031 390.003906 488.625 389.703125 488.515625 389.414062 C 488.402344 389.121094 488.261719 388.84375 488.09375 388.582031 C 487.925781 388.316406 487.734375 388.074219 487.519531 387.847656 C 487.300781 387.625 487.0625 387.425781 486.804688 387.25 C 486.546875 387.074219 486.273438 386.925781 485.984375 386.804688 C 485.699219 386.683594 485.402344 386.59375 485.09375 386.53125 C 484.789062 386.472656 484.480469 386.441406 484.167969 386.445312 C 483.855469 386.445312 483.546875 386.480469 483.238281 386.546875 C 482.933594 386.609375 482.640625 386.703125 482.351562 386.828125 C 482.066406 386.953125 481.796875 387.105469 481.539062 387.289062 C 481.285156 387.46875 481.050781 387.671875 480.835938 387.898438 Z M 480.835938 387.804688 " fill-opacity="1" fill-rule="nonzero"/><path fill="#000000" d="M 508.890625 227.222656 C 509.019531 227.503906 509.171875 227.769531 509.355469 228.023438 C 509.535156 228.273438 509.738281 228.503906 509.96875 228.710938 C 510.195312 228.921875 510.441406 229.105469 510.703125 229.265625 C 510.96875 229.425781 511.246094 229.558594 511.539062 229.664062 C 511.828125 229.765625 512.125 229.839844 512.433594 229.886719 C 512.738281 229.929688 513.046875 229.945312 513.355469 229.925781 C 513.664062 229.910156 513.964844 229.863281 514.265625 229.785156 C 514.5625 229.707031 514.851562 229.597656 515.128906 229.460938 C 515.40625 229.328125 515.667969 229.164062 515.914062 228.976562 C 516.160156 228.789062 516.382812 228.578125 516.585938 228.34375 C 516.789062 228.109375 516.964844 227.859375 517.117188 227.589844 C 517.269531 227.320312 517.394531 227.039062 517.488281 226.746094 C 517.582031 226.449219 517.648438 226.152344 517.683594 225.84375 C 517.71875 225.535156 517.722656 225.230469 517.699219 224.921875 C 517.671875 224.613281 517.613281 224.3125 517.527344 224.015625 C 517.441406 223.71875 517.324219 223.433594 517.179688 223.160156 C 516.488281 221.726562 515.765625 220.3125 515.011719 218.910156 C 514.871094 218.636719 514.707031 218.382812 514.515625 218.140625 C 514.324219 217.902344 514.113281 217.679688 513.878906 217.484375 C 513.644531 217.285156 513.394531 217.113281 513.125 216.964844 C 512.855469 216.816406 512.574219 216.699219 512.28125 216.605469 C 511.992188 216.511719 511.691406 216.453125 511.386719 216.417969 C 511.082031 216.386719 510.777344 216.382812 510.472656 216.414062 C 510.167969 216.441406 509.867188 216.5 509.574219 216.585938 C 509.28125 216.675781 508.996094 216.789062 508.726562 216.933594 C 508.457031 217.078125 508.203125 217.25 507.964844 217.441406 C 507.730469 217.636719 507.511719 217.855469 507.320312 218.089844 C 507.125 218.328125 506.957031 218.582031 506.8125 218.855469 C 506.671875 219.125 506.554688 219.40625 506.46875 219.703125 C 506.382812 219.996094 506.324219 220.296875 506.296875 220.601562 C 506.269531 220.90625 506.273438 221.210938 506.308594 221.515625 C 506.339844 221.820312 506.402344 222.121094 506.496094 222.410156 C 506.589844 222.703125 506.710938 222.984375 506.859375 223.25 C 507.566406 224.558594 508.246094 225.882812 508.890625 227.222656 Z M 508.890625 227.222656 " fill-opacity="1" fill-rule="nonzero"/><path fill="#000000" d="M 483.121094 190.96875 C 483.335938 191.183594 483.566406 191.378906 483.820312 191.546875 C 484.070312 191.71875 484.335938 191.863281 484.613281 191.980469 C 484.894531 192.097656 485.183594 192.1875 485.480469 192.25 C 485.777344 192.308594 486.078125 192.339844 486.378906 192.34375 C 486.683594 192.34375 486.984375 192.316406 487.28125 192.261719 C 487.578125 192.203125 487.867188 192.117188 488.148438 192.003906 C 488.429688 191.890625 488.699219 191.75 488.949219 191.582031 C 489.203125 191.414062 489.4375 191.226562 489.65625 191.011719 C 489.871094 190.800781 490.0625 190.566406 490.234375 190.316406 C 490.40625 190.066406 490.546875 189.800781 490.667969 189.523438 C 490.785156 189.242188 490.875 188.953125 490.9375 188.65625 C 490.996094 188.359375 491.027344 188.058594 491.03125 187.757812 C 491.035156 187.453125 491.007812 187.152344 490.949219 186.855469 C 490.890625 186.558594 490.808594 186.269531 490.691406 185.988281 C 490.578125 185.707031 490.4375 185.4375 490.273438 185.183594 C 490.105469 184.929688 489.917969 184.695312 489.703125 184.480469 C 488.59375 183.355469 487.464844 182.25 486.308594 181.15625 C 486.089844 180.945312 485.851562 180.761719 485.59375 180.597656 C 485.339844 180.4375 485.070312 180.300781 484.785156 180.191406 C 484.503906 180.082031 484.210938 180.003906 483.914062 179.953125 C 483.613281 179.898438 483.3125 179.878906 483.007812 179.886719 C 482.707031 179.894531 482.40625 179.929688 482.109375 179.996094 C 481.816406 180.0625 481.527344 180.15625 481.25 180.28125 C 480.972656 180.402344 480.710938 180.554688 480.464844 180.726562 C 480.214844 180.902344 479.988281 181.101562 479.777344 181.320312 C 479.566406 181.539062 479.382812 181.777344 479.21875 182.035156 C 479.058594 182.289062 478.921875 182.558594 478.8125 182.84375 C 478.703125 183.125 478.625 183.417969 478.570312 183.714844 C 478.519531 184.015625 478.496094 184.316406 478.503906 184.617188 C 478.511719 184.921875 478.550781 185.222656 478.617188 185.515625 C 478.683594 185.8125 478.777344 186.101562 478.898438 186.378906 C 479.023438 186.65625 479.171875 186.917969 479.34375 187.164062 C 479.519531 187.414062 479.714844 187.640625 479.9375 187.851562 C 480.953125 188.867188 482.015625 189.90625 483.121094 190.96875 Z M 483.121094 190.96875 " fill-opacity="1" fill-rule="nonzero"/><path fill="#000000" d="M 524.9375 260.039062 C 524.640625 260.085938 524.347656 260.164062 524.0625 260.269531 C 523.78125 260.378906 523.507812 260.511719 523.25 260.671875 C 522.992188 260.832031 522.753906 261.015625 522.53125 261.222656 C 522.308594 261.429688 522.109375 261.65625 521.933594 261.902344 C 521.757812 262.148438 521.605469 262.410156 521.480469 262.6875 C 521.355469 262.964844 521.257812 263.25 521.1875 263.546875 C 521.121094 263.839844 521.078125 264.140625 521.070312 264.445312 C 521.058594 264.746094 521.078125 265.050781 521.128906 265.347656 C 521.375 266.886719 521.597656 268.359375 521.800781 269.757812 C 521.871094 270.320312 522.042969 270.847656 522.308594 271.34375 C 522.574219 271.839844 522.921875 272.273438 523.347656 272.644531 C 523.773438 273.011719 524.25 273.296875 524.777344 273.492188 C 525.308594 273.6875 525.851562 273.78125 526.417969 273.777344 L 527.039062 273.777344 C 527.339844 273.738281 527.636719 273.667969 527.921875 273.570312 C 528.210938 273.472656 528.484375 273.347656 528.75 273.195312 C 529.011719 273.042969 529.257812 272.867188 529.484375 272.667969 C 529.714844 272.464844 529.917969 272.246094 530.105469 272.003906 C 530.289062 271.761719 530.449219 271.503906 530.582031 271.234375 C 530.714844 270.960938 530.820312 270.675781 530.898438 270.382812 C 530.976562 270.089844 531.027344 269.792969 531.042969 269.488281 C 531.0625 269.183594 531.050781 268.882812 531.011719 268.582031 C 530.796875 267.042969 530.558594 265.503906 530.296875 263.964844 C 530.253906 263.65625 530.183594 263.355469 530.078125 263.0625 C 529.976562 262.773438 529.847656 262.492188 529.6875 262.226562 C 529.53125 261.960938 529.347656 261.710938 529.136719 261.484375 C 528.929688 261.253906 528.699219 261.046875 528.449219 260.863281 C 528.199219 260.679688 527.933594 260.523438 527.652344 260.394531 C 527.371094 260.265625 527.082031 260.164062 526.777344 260.09375 C 526.476562 260.023438 526.171875 259.984375 525.863281 259.972656 C 525.550781 259.964844 525.246094 259.984375 524.9375 260.039062 Z M 524.9375 260.039062 " fill-opacity="1" fill-rule="nonzero"/><path fill="#000000" d="M 515.703125 243.710938 C 516.179688 245.113281 516.632812 246.527344 517.066406 247.960938 C 517.152344 248.25 517.269531 248.527344 517.414062 248.796875 C 517.554688 249.0625 517.722656 249.316406 517.914062 249.546875 C 518.109375 249.78125 518.320312 249.996094 518.554688 250.1875 C 518.789062 250.378906 519.042969 250.546875 519.308594 250.691406 C 519.574219 250.835938 519.855469 250.949219 520.144531 251.039062 C 520.433594 251.125 520.730469 251.183594 521.03125 251.214844 C 521.332031 251.242188 521.636719 251.242188 521.9375 251.214844 C 522.238281 251.183594 522.535156 251.125 522.824219 251.039062 C 523.113281 250.949219 523.394531 250.835938 523.660156 250.691406 C 523.929688 250.550781 524.179688 250.382812 524.414062 250.191406 C 524.648438 249.996094 524.863281 249.785156 525.054688 249.550781 C 525.246094 249.316406 525.414062 249.066406 525.558594 248.796875 C 525.703125 248.53125 525.816406 248.253906 525.90625 247.960938 C 525.992188 247.671875 526.054688 247.375 526.082031 247.074219 C 526.113281 246.773438 526.113281 246.472656 526.085938 246.167969 C 526.054688 245.867188 525.996094 245.570312 525.910156 245.28125 C 525.449219 243.742188 524.960938 242.203125 524.453125 240.664062 C 524.355469 240.375 524.234375 240.101562 524.082031 239.839844 C 523.929688 239.574219 523.753906 239.328125 523.554688 239.101562 C 523.355469 238.871094 523.136719 238.667969 522.894531 238.480469 C 522.65625 238.296875 522.398438 238.136719 522.128906 238 C 521.855469 237.867188 521.574219 237.761719 521.28125 237.683594 C 520.988281 237.601562 520.691406 237.554688 520.386719 237.53125 C 520.085938 237.511719 519.785156 237.523438 519.484375 237.5625 C 519.183594 237.601562 518.886719 237.667969 518.601562 237.765625 C 518.3125 237.863281 518.039062 237.988281 517.777344 238.136719 C 517.511719 238.289062 517.265625 238.464844 517.039062 238.664062 C 516.8125 238.863281 516.605469 239.082031 516.417969 239.324219 C 516.234375 239.5625 516.074219 239.820312 515.941406 240.09375 C 515.804688 240.363281 515.699219 240.644531 515.621094 240.9375 C 515.539062 241.230469 515.492188 241.53125 515.472656 241.832031 C 515.449219 242.132812 515.460938 242.4375 515.5 242.738281 C 515.539062 243.039062 515.605469 243.332031 515.703125 243.617188 Z M 515.703125 243.710938 " fill-opacity="1" fill-rule="nonzero"/><path fill="#000000" d="M 526.625 306.015625 C 526.324219 305.964844 526.023438 305.949219 525.71875 305.960938 C 525.414062 305.972656 525.117188 306.015625 524.820312 306.085938 C 524.523438 306.15625 524.238281 306.253906 523.960938 306.382812 C 523.6875 306.511719 523.425781 306.664062 523.179688 306.84375 C 522.933594 307.023438 522.707031 307.222656 522.503906 307.449219 C 522.296875 307.671875 522.113281 307.914062 521.957031 308.171875 C 521.796875 308.433594 521.667969 308.707031 521.5625 308.992188 C 521.457031 309.277344 521.382812 309.570312 521.335938 309.871094 C 521.105469 311.410156 520.851562 312.878906 520.574219 314.28125 C 520.519531 314.578125 520.492188 314.878906 520.492188 315.183594 C 520.496094 315.484375 520.527344 315.785156 520.589844 316.082031 C 520.648438 316.378906 520.742188 316.667969 520.859375 316.949219 C 520.976562 317.226562 521.121094 317.492188 521.292969 317.742188 C 521.460938 317.996094 521.65625 318.226562 521.871094 318.4375 C 522.085938 318.652344 522.324219 318.839844 522.574219 319.007812 C 522.828125 319.175781 523.097656 319.316406 523.378906 319.429688 C 523.660156 319.542969 523.949219 319.628906 524.246094 319.683594 C 524.539062 319.710938 524.832031 319.710938 525.125 319.683594 C 525.667969 319.695312 526.199219 319.609375 526.714844 319.429688 C 527.230469 319.253906 527.699219 318.992188 528.121094 318.648438 C 528.542969 318.300781 528.894531 317.894531 529.171875 317.425781 C 529.453125 316.957031 529.640625 316.457031 529.742188 315.921875 C 530.035156 314.382812 530.304688 312.839844 530.550781 311.300781 C 530.597656 311 530.613281 310.695312 530.601562 310.386719 C 530.589844 310.082031 530.542969 309.78125 530.472656 309.484375 C 530.398438 309.183594 530.296875 308.898438 530.164062 308.621094 C 530.035156 308.34375 529.878906 308.082031 529.695312 307.835938 C 529.511719 307.589844 529.308594 307.363281 529.082031 307.160156 C 528.851562 306.953125 528.605469 306.773438 528.34375 306.617188 C 528.078125 306.460938 527.804688 306.332031 527.515625 306.230469 C 527.226562 306.128906 526.929688 306.054688 526.625 306.015625 Z M 526.625 306.015625 " fill-opacity="1" fill-rule="nonzero"/><path fill="#000000" d="M 513.785156 350.164062 C 513.519531 350.027344 513.238281 349.914062 512.945312 349.828125 C 512.65625 349.742188 512.359375 349.6875 512.054688 349.660156 C 511.753906 349.632812 511.453125 349.636719 511.148438 349.667969 C 510.847656 349.703125 510.550781 349.761719 510.261719 349.855469 C 509.972656 349.945312 509.695312 350.0625 509.429688 350.210938 C 509.164062 350.355469 508.914062 350.527344 508.679688 350.722656 C 508.449219 350.917969 508.238281 351.132812 508.046875 351.371094 C 507.855469 351.605469 507.691406 351.859375 507.550781 352.128906 C 506.859375 353.453125 506.152344 354.761719 505.429688 356.054688 C 505.277344 356.316406 505.152344 356.59375 505.054688 356.882812 C 504.957031 357.171875 504.890625 357.464844 504.851562 357.765625 C 504.8125 358.070312 504.804688 358.371094 504.824219 358.675781 C 504.84375 358.976562 504.894531 359.277344 504.972656 359.570312 C 505.054688 359.863281 505.160156 360.148438 505.296875 360.417969 C 505.429688 360.691406 505.589844 360.949219 505.777344 361.191406 C 505.960938 361.429688 506.171875 361.652344 506.398438 361.851562 C 506.628906 362.050781 506.875 362.226562 507.136719 362.378906 C 507.402344 362.53125 507.679688 362.65625 507.964844 362.753906 C 508.253906 362.847656 508.550781 362.917969 508.851562 362.957031 C 509.152344 362.996094 509.453125 363.003906 509.757812 362.984375 C 510.0625 362.964844 510.359375 362.914062 510.652344 362.835938 C 510.949219 362.757812 511.230469 362.648438 511.503906 362.515625 C 511.777344 362.378906 512.03125 362.21875 512.273438 362.035156 C 512.515625 361.847656 512.734375 361.640625 512.933594 361.410156 C 513.136719 361.183594 513.3125 360.9375 513.464844 360.671875 C 514.25 359.289062 515.019531 357.886719 515.773438 356.46875 C 515.917969 356.199219 516.035156 355.914062 516.125 355.621094 C 516.214844 355.324219 516.273438 355.023438 516.300781 354.71875 C 516.328125 354.410156 516.328125 354.105469 516.292969 353.800781 C 516.261719 353.492188 516.199219 353.191406 516.105469 352.898438 C 516.015625 352.605469 515.894531 352.324219 515.746094 352.054688 C 515.597656 351.785156 515.421875 351.53125 515.222656 351.296875 C 515.023438 351.0625 514.804688 350.851562 514.5625 350.660156 C 514.320312 350.46875 514.0625 350.304688 513.785156 350.164062 Z M 513.785156 350.164062 " fill-opacity="1" fill-rule="nonzero"/><path fill="#000000" d="M 462.570312 173.8125 C 463.804688 174.660156 465.019531 175.519531 466.21875 176.398438 C 466.464844 176.578125 466.726562 176.730469 467 176.859375 C 467.273438 176.984375 467.558594 177.085938 467.855469 177.15625 C 468.148438 177.230469 468.449219 177.269531 468.75 177.285156 C 469.054688 177.296875 469.355469 177.277344 469.65625 177.234375 C 469.953125 177.1875 470.246094 177.109375 470.53125 177.007812 C 470.816406 176.902344 471.089844 176.769531 471.347656 176.613281 C 471.605469 176.457031 471.847656 176.273438 472.070312 176.070312 C 472.292969 175.863281 472.496094 175.636719 472.675781 175.394531 C 472.851562 175.148438 473.007812 174.890625 473.132812 174.613281 C 473.261719 174.339844 473.363281 174.054688 473.433594 173.757812 C 473.503906 173.464844 473.546875 173.164062 473.558594 172.863281 C 473.570312 172.558594 473.554688 172.257812 473.507812 171.957031 C 473.460938 171.660156 473.386719 171.367188 473.28125 171.082031 C 473.179688 170.796875 473.046875 170.523438 472.890625 170.265625 C 472.730469 170.007812 472.550781 169.765625 472.34375 169.542969 C 472.140625 169.320312 471.914062 169.117188 471.667969 168.9375 C 470.390625 168 469.097656 167.085938 467.789062 166.191406 C 467.539062 166.015625 467.277344 165.867188 466.996094 165.742188 C 466.714844 165.621094 466.425781 165.523438 466.128906 165.460938 C 465.832031 165.394531 465.527344 165.359375 465.222656 165.351562 C 464.917969 165.347656 464.613281 165.371094 464.3125 165.425781 C 464.011719 165.480469 463.71875 165.5625 463.4375 165.675781 C 463.152344 165.789062 462.882812 165.925781 462.625 166.09375 C 462.367188 166.257812 462.128906 166.449219 461.910156 166.660156 C 461.691406 166.875 461.496094 167.109375 461.324219 167.359375 C 461.152344 167.613281 461.003906 167.878906 460.886719 168.160156 C 460.765625 168.441406 460.675781 168.730469 460.613281 169.03125 C 460.550781 169.328125 460.519531 169.632812 460.515625 169.9375 C 460.515625 170.242188 460.542969 170.546875 460.601562 170.847656 C 460.660156 171.148438 460.746094 171.4375 460.863281 171.722656 C 460.976562 172.003906 461.121094 172.273438 461.289062 172.527344 C 461.457031 172.78125 461.652344 173.015625 461.867188 173.234375 C 462.082031 173.449219 462.316406 173.640625 462.570312 173.8125 Z M 462.570312 173.8125 " fill-opacity="1" fill-rule="nonzero"/><path fill="#000000" d="M 463.609375 401.984375 C 462.394531 402.832031 461.164062 403.664062 459.917969 404.476562 C 459.648438 404.636719 459.402344 404.820312 459.171875 405.03125 C 458.941406 405.242188 458.734375 405.472656 458.550781 405.722656 C 458.367188 405.972656 458.210938 406.238281 458.082031 406.523438 C 457.953125 406.804688 457.851562 407.097656 457.78125 407.402344 C 457.710938 407.703125 457.671875 408.011719 457.664062 408.320312 C 457.65625 408.632812 457.679688 408.941406 457.730469 409.246094 C 457.785156 409.554688 457.871094 409.851562 457.984375 410.140625 C 458.097656 410.429688 458.238281 410.703125 458.410156 410.964844 C 458.578125 411.226562 458.773438 411.46875 458.992188 411.6875 C 459.210938 411.910156 459.449219 412.105469 459.707031 412.28125 C 459.964844 412.453125 460.238281 412.597656 460.523438 412.71875 C 460.8125 412.835938 461.109375 412.925781 461.414062 412.984375 C 461.71875 413.039062 462.027344 413.066406 462.339844 413.0625 C 462.648438 413.058594 462.957031 413.023438 463.261719 412.960938 C 463.566406 412.894531 463.859375 412.796875 464.144531 412.671875 C 464.425781 412.546875 464.695312 412.394531 464.949219 412.214844 C 466.289062 411.351562 467.605469 410.46875 468.898438 409.558594 C 469.148438 409.386719 469.375 409.1875 469.585938 408.96875 C 469.792969 408.75 469.980469 408.511719 470.144531 408.257812 C 470.304688 408.003906 470.441406 407.734375 470.550781 407.453125 C 470.664062 407.167969 470.742188 406.878906 470.796875 406.582031 C 470.847656 406.28125 470.871094 405.980469 470.867188 405.679688 C 470.859375 405.375 470.824219 405.078125 470.757812 404.78125 C 470.695312 404.484375 470.601562 404.199219 470.476562 403.921875 C 470.355469 403.644531 470.210938 403.378906 470.035156 403.132812 C 469.863281 402.882812 469.667969 402.65625 469.449219 402.445312 C 469.230469 402.234375 468.992188 402.046875 468.738281 401.886719 C 468.480469 401.722656 468.214844 401.585938 467.929688 401.472656 C 467.648438 401.363281 467.359375 401.28125 467.0625 401.230469 C 466.761719 401.175781 466.460938 401.152344 466.160156 401.15625 C 465.855469 401.164062 465.558594 401.199219 465.261719 401.265625 C 464.964844 401.328125 464.679688 401.421875 464.402344 401.542969 C 464.121094 401.664062 463.859375 401.8125 463.609375 401.984375 Z M 463.609375 401.984375 " fill-opacity="1" fill-rule="nonzero"/><path fill="#000000" d="M 502.058594 370.09375 C 501.8125 369.914062 501.554688 369.757812 501.28125 369.625 C 501.007812 369.496094 500.722656 369.394531 500.429688 369.320312 C 500.132812 369.246094 499.835938 369.199219 499.53125 369.183594 C 499.230469 369.167969 498.929688 369.183594 498.628906 369.226562 C 498.328125 369.273438 498.035156 369.34375 497.75 369.445312 C 497.460938 369.546875 497.191406 369.675781 496.929688 369.832031 C 496.667969 369.988281 496.425781 370.167969 496.199219 370.371094 C 495.976562 370.574219 495.773438 370.796875 495.589844 371.042969 C 494.699219 372.226562 493.789062 373.402344 492.867188 374.574219 C 492.683594 374.8125 492.523438 375.066406 492.390625 375.335938 C 492.253906 375.601562 492.148438 375.882812 492.066406 376.171875 C 491.988281 376.460938 491.9375 376.757812 491.914062 377.054688 C 491.890625 377.355469 491.898438 377.65625 491.933594 377.953125 C 491.972656 378.253906 492.035156 378.542969 492.128906 378.828125 C 492.222656 379.117188 492.34375 379.390625 492.488281 379.652344 C 492.636719 379.914062 492.804688 380.160156 493 380.390625 C 493.195312 380.617188 493.410156 380.828125 493.644531 381.015625 C 493.878906 381.199219 494.132812 381.363281 494.398438 381.5 C 494.664062 381.640625 494.941406 381.75 495.230469 381.835938 C 495.519531 381.917969 495.8125 381.972656 496.113281 382 C 496.414062 382.027344 496.710938 382.023438 497.011719 381.992188 C 497.308594 381.960938 497.601562 381.898438 497.890625 381.808594 C 498.175781 381.722656 498.453125 381.605469 498.71875 381.460938 C 498.980469 381.320312 499.230469 381.152344 499.460938 380.960938 C 499.691406 380.769531 499.902344 380.558594 500.09375 380.324219 C 501.078125 379.078125 502.050781 377.824219 503.003906 376.558594 C 503.183594 376.316406 503.339844 376.058594 503.472656 375.785156 C 503.601562 375.511719 503.703125 375.226562 503.777344 374.933594 C 503.851562 374.636719 503.898438 374.339844 503.914062 374.035156 C 503.929688 373.734375 503.914062 373.429688 503.871094 373.132812 C 503.824219 372.832031 503.753906 372.539062 503.652344 372.25 C 503.550781 371.964844 503.421875 371.691406 503.265625 371.433594 C 503.109375 371.171875 502.929688 370.929688 502.726562 370.703125 C 502.523438 370.480469 502.300781 370.277344 502.058594 370.09375 Z M 502.058594 370.09375 " fill-opacity="1" fill-rule="nonzero"/><path fill="#000000" d="M 521.960938 328.597656 C 521.671875 328.5 521.375 328.433594 521.070312 328.394531 C 520.769531 328.355469 520.464844 328.347656 520.160156 328.367188 C 519.855469 328.390625 519.554688 328.441406 519.261719 328.523438 C 518.96875 328.605469 518.683594 328.714844 518.410156 328.851562 C 518.136719 328.988281 517.882812 329.152344 517.640625 329.339844 C 517.402344 329.527344 517.179688 329.738281 516.984375 329.96875 C 516.785156 330.203125 516.609375 330.453125 516.460938 330.71875 C 516.3125 330.984375 516.191406 331.261719 516.097656 331.554688 C 515.632812 332.96875 515.140625 334.378906 514.617188 335.78125 C 514.511719 336.066406 514.429688 336.359375 514.378906 336.664062 C 514.332031 336.964844 514.308594 337.269531 514.320312 337.574219 C 514.332031 337.882812 514.371094 338.183594 514.441406 338.484375 C 514.507812 338.78125 514.605469 339.070312 514.734375 339.347656 C 514.859375 339.628906 515.011719 339.890625 515.191406 340.140625 C 515.371094 340.390625 515.570312 340.621094 515.792969 340.828125 C 516.019531 341.039062 516.257812 341.222656 516.519531 341.386719 C 516.78125 341.546875 517.054688 341.679688 517.339844 341.789062 C 517.628906 341.898438 517.921875 341.976562 518.222656 342.027344 C 518.527344 342.074219 518.832031 342.09375 519.136719 342.085938 C 519.441406 342.074219 519.746094 342.035156 520.042969 341.964844 C 520.34375 341.894531 520.628906 341.796875 520.910156 341.667969 C 521.1875 341.542969 521.453125 341.390625 521.699219 341.210938 C 521.949219 341.03125 522.179688 340.832031 522.386719 340.605469 C 522.597656 340.382812 522.78125 340.140625 522.941406 339.878906 C 523.105469 339.621094 523.238281 339.34375 523.347656 339.058594 C 523.886719 337.519531 524.410156 335.980469 524.917969 334.441406 C 525.011719 334.152344 525.078125 333.855469 525.117188 333.554688 C 525.152344 333.253906 525.160156 332.949219 525.136719 332.644531 C 525.113281 332.34375 525.0625 332.042969 524.980469 331.75 C 524.898438 331.457031 524.789062 331.175781 524.652344 330.90625 C 524.515625 330.632812 524.351562 330.378906 524.164062 330.136719 C 523.976562 329.898438 523.769531 329.679688 523.535156 329.484375 C 523.304688 329.285156 523.058594 329.113281 522.792969 328.960938 C 522.527344 328.8125 522.25 328.691406 521.960938 328.597656 Z M 521.960938 328.597656 " fill-opacity="1" fill-rule="nonzero"/><path fill="#000000" d="M 443.199219 162.726562 C 444.554688 163.359375 445.894531 164.011719 447.21875 164.691406 C 447.488281 164.828125 447.769531 164.941406 448.0625 165.023438 C 448.355469 165.105469 448.652344 165.160156 448.957031 165.183594 C 449.257812 165.210938 449.5625 165.203125 449.863281 165.167969 C 450.164062 165.132812 450.460938 165.070312 450.75 164.976562 C 451.039062 164.882812 451.316406 164.761719 451.582031 164.617188 C 451.847656 164.46875 452.097656 164.296875 452.328125 164.097656 C 452.5625 163.902344 452.769531 163.683594 452.960938 163.445312 C 453.148438 163.207031 453.3125 162.953125 453.453125 162.679688 C 453.589844 162.410156 453.699219 162.128906 453.785156 161.835938 C 453.867188 161.542969 453.921875 161.246094 453.945312 160.941406 C 453.972656 160.640625 453.964844 160.335938 453.929688 160.035156 C 453.894531 159.734375 453.832031 159.4375 453.738281 159.148438 C 453.644531 158.859375 453.523438 158.582031 453.375 158.316406 C 453.226562 158.050781 453.054688 157.800781 452.859375 157.570312 C 452.660156 157.335938 452.445312 157.125 452.207031 156.9375 C 451.96875 156.75 451.714844 156.585938 451.441406 156.445312 C 450.027344 155.722656 448.59375 155.023438 447.148438 154.34375 C 446.871094 154.210938 446.585938 154.101562 446.289062 154.023438 C 445.992188 153.945312 445.691406 153.898438 445.386719 153.878906 C 445.078125 153.859375 444.773438 153.871094 444.46875 153.914062 C 444.167969 153.957031 443.871094 154.027344 443.578125 154.128906 C 443.289062 154.230469 443.011719 154.359375 442.75 154.515625 C 442.484375 154.671875 442.238281 154.855469 442.011719 155.058594 C 441.785156 155.265625 441.578125 155.492188 441.394531 155.738281 C 441.214844 155.984375 441.058594 156.246094 440.925781 156.523438 C 440.796875 156.800781 440.695312 157.089844 440.621094 157.390625 C 440.546875 157.6875 440.503906 157.988281 440.492188 158.296875 C 440.480469 158.601562 440.496094 158.90625 440.546875 159.210938 C 440.59375 159.511719 440.671875 159.808594 440.777344 160.097656 C 440.882812 160.382812 441.019531 160.660156 441.179688 160.917969 C 441.34375 161.179688 441.527344 161.421875 441.738281 161.648438 C 441.949219 161.871094 442.175781 162.070312 442.425781 162.25 C 442.675781 162.425781 442.941406 162.578125 443.222656 162.703125 Z M 443.199219 162.726562 " fill-opacity="1" fill-rule="nonzero"/><path fill="#000000" d="M 422.28125 154.921875 C 423.710938 155.324219 425.144531 155.753906 426.574219 156.214844 C 426.863281 156.308594 427.160156 156.371094 427.460938 156.402344 C 427.761719 156.4375 428.066406 156.441406 428.367188 156.414062 C 428.671875 156.386719 428.96875 156.332031 429.261719 156.25 C 429.550781 156.164062 429.832031 156.050781 430.101562 155.910156 C 430.371094 155.773438 430.625 155.605469 430.863281 155.417969 C 431.097656 155.226562 431.316406 155.015625 431.511719 154.785156 C 431.707031 154.550781 431.878906 154.300781 432.023438 154.035156 C 432.171875 153.769531 432.289062 153.492188 432.382812 153.203125 C 432.472656 152.914062 432.535156 152.617188 432.570312 152.316406 C 432.601562 152.011719 432.605469 151.710938 432.582031 151.40625 C 432.554688 151.105469 432.5 150.808594 432.414062 150.515625 C 432.328125 150.222656 432.21875 149.945312 432.078125 149.675781 C 431.9375 149.40625 431.773438 149.152344 431.582031 148.914062 C 431.394531 148.675781 431.183594 148.460938 430.949219 148.265625 C 430.71875 148.070312 430.46875 147.898438 430.203125 147.75 C 429.9375 147.605469 429.65625 147.484375 429.367188 147.394531 C 427.828125 146.917969 426.289062 146.457031 424.75 146.007812 C 424.457031 145.925781 424.160156 145.871094 423.859375 145.847656 C 423.554688 145.824219 423.253906 145.832031 422.953125 145.867188 C 422.652344 145.902344 422.355469 145.964844 422.070312 146.058594 C 421.78125 146.152344 421.503906 146.273438 421.238281 146.421875 C 420.972656 146.570312 420.726562 146.742188 420.496094 146.9375 C 420.265625 147.136719 420.054688 147.351562 419.867188 147.589844 C 419.679688 147.828125 419.515625 148.082031 419.378906 148.351562 C 419.238281 148.621094 419.128906 148.902344 419.046875 149.195312 C 418.964844 149.488281 418.910156 149.785156 418.886719 150.085938 C 418.863281 150.390625 418.867188 150.691406 418.902344 150.992188 C 418.9375 151.292969 419.003906 151.589844 419.097656 151.878906 C 419.191406 152.164062 419.3125 152.441406 419.457031 152.707031 C 419.605469 152.972656 419.777344 153.21875 419.976562 153.449219 C 420.171875 153.683594 420.390625 153.890625 420.628906 154.078125 C 420.867188 154.265625 421.121094 154.429688 421.390625 154.570312 C 421.660156 154.707031 421.941406 154.816406 422.234375 154.898438 Z M 422.28125 154.921875 " fill-opacity="1" fill-rule="nonzero"/></svg>