<svg xmlns="http://www.w3.org/2000/svg" xmlns:xlink="http://www.w3.org/1999/xlink" width="1024" zoomAndPan="magnify" viewBox="0 0 768 576" height="768" preserveAspectRatio="xMidYMid meet" version="1.0"><defs><clipPath id="ddb36c9552"><path d="M 333 148.046875 L 513 148.046875 L 513 336 L 333 336 Z M 333 148.046875 " clip-rule="nonzero"/></clipPath><clipPath id="15aa7d17f7"><path d="M 386 208 L 523.796875 208 L 523.796875 349 L 386 349 Z M 386 208 " clip-rule="nonzero"/></clipPath><clipPath id="3593c3f89a"><path d="M 244.046875 166 L 386 166 L 386 427.796875 L 244.046875 427.796875 Z M 244.046875 166 " clip-rule="nonzero"/></clipPath></defs><g clip-path="url(#ddb36c9552)"><path fill="#231f20" d="M 336.761719 335.027344 C 335.367188 335.027344 334.046875 334.167969 333.535156 332.773438 C 332.894531 330.996094 333.804688 329.03125 335.582031 328.378906 C 348.191406 323.757812 366.8125 319.703125 386.523438 315.402344 C 414.75 309.246094 446.738281 302.277344 458.058594 293.503906 C 463.035156 289.644531 472.773438 278.539062 473.988281 264.140625 C 475.757812 243.234375 493.191406 190.25 502.554688 161.78125 C 503.90625 157.679688 505.066406 154.132812 505.96875 151.34375 C 506.550781 149.546875 508.488281 148.558594 510.292969 149.136719 C 512.089844 149.71875 513.082031 151.65625 512.5 153.453125 C 511.597656 156.257812 510.425781 159.804688 509.070312 163.925781 C 500.457031 190.125 482.53125 244.621094 480.824219 264.722656 C 479.414062 281.457031 468.496094 294.09375 462.265625 298.925781 C 449.710938 308.65625 418.332031 315.492188 387.988281 322.105469 C 368.507812 326.359375 350.101562 330.359375 337.941406 334.820312 C 337.550781 334.960938 337.15625 335.027344 336.761719 335.027344 " fill-opacity="1" fill-rule="nonzero"/></g><g clip-path="url(#15aa7d17f7)"><path fill="#231f20" d="M 520.253906 217.644531 C 520.066406 217.644531 519.878906 217.625 519.691406 217.574219 C 518.46875 217.269531 517.726562 216.027344 518.039062 214.792969 L 519.15625 210.363281 C 519.46875 209.136719 520.730469 208.40625 521.933594 208.707031 C 523.160156 209.011719 523.902344 210.253906 523.597656 211.480469 L 522.472656 215.917969 C 522.210938 216.957031 521.285156 217.644531 520.253906 217.644531 Z M 516.289062 233.164062 C 516.101562 233.164062 515.914062 233.136719 515.714844 233.09375 C 514.492188 232.769531 513.761719 231.527344 514.074219 230.304688 L 515.214844 225.882812 C 515.527344 224.65625 516.769531 223.917969 518.003906 224.230469 C 519.21875 224.542969 519.960938 225.792969 519.648438 227.015625 L 518.503906 231.449219 C 518.238281 232.476562 517.308594 233.164062 516.289062 233.164062 Z M 512.207031 248.648438 C 512.007812 248.648438 511.804688 248.621094 511.605469 248.570312 C 510.390625 248.238281 509.667969 246.988281 510 245.761719 L 511.175781 241.347656 C 511.507812 240.132812 512.757812 239.410156 513.984375 239.730469 C 515.199219 240.0625 515.929688 241.3125 515.601562 242.527344 L 514.410156 246.960938 C 514.136719 247.980469 513.214844 248.648438 512.207031 248.648438 Z M 507.863281 264.070312 C 507.648438 264.070312 507.425781 264.035156 507.210938 263.972656 C 506.003906 263.617188 505.308594 262.347656 505.664062 261.132812 C 506.085938 259.691406 506.511719 258.226562 506.933594 256.753906 C 507.28125 255.539062 508.550781 254.839844 509.765625 255.191406 C 510.980469 255.527344 511.6875 256.796875 511.328125 258.011719 C 510.910156 259.503906 510.480469 260.96875 510.050781 262.425781 C 509.757812 263.417969 508.84375 264.070312 507.863281 264.070312 Z M 503.0625 279.351562 C 502.824219 279.351562 502.574219 279.304688 502.332031 279.226562 C 501.132812 278.824219 500.492188 277.527344 500.894531 276.332031 C 501.367188 274.917969 501.847656 273.480469 502.324219 272.015625 C 502.707031 270.808594 503.992188 270.148438 505.199219 270.53125 C 506.398438 270.925781 507.058594 272.210938 506.675781 273.417969 C 506.191406 274.902344 505.710938 276.355469 505.226562 277.785156 C 504.914062 278.742188 504.019531 279.351562 503.0625 279.351562 Z M 497.453125 294.34375 C 497.160156 294.34375 496.855469 294.289062 496.570312 294.164062 C 495.398438 293.671875 494.851562 292.332031 495.34375 291.171875 C 495.917969 289.824219 496.480469 288.417969 497.042969 286.980469 C 497.496094 285.808594 498.839844 285.230469 500.007812 285.683594 C 501.179688 286.148438 501.761719 287.472656 501.304688 288.652344 C 500.722656 290.125 500.144531 291.554688 499.5625 292.941406 C 499.195312 293.816406 498.347656 294.34375 497.453125 294.34375 Z M 490.199219 308.605469 C 489.777344 308.605469 489.347656 308.488281 488.964844 308.238281 C 487.902344 307.558594 487.597656 306.148438 488.277344 305.082031 C 489.019531 303.921875 489.777344 302.644531 490.527344 301.277344 C 491.136719 300.167969 492.53125 299.765625 493.636719 300.375 C 494.746094 300.980469 495.148438 302.375 494.539062 303.484375 C 493.734375 304.941406 492.921875 306.308594 492.128906 307.550781 C 491.691406 308.238281 490.957031 308.605469 490.199219 308.605469 Z M 479.421875 320.308594 C 478.75 320.308594 478.089844 320.015625 477.644531 319.460938 C 476.847656 318.476562 477 317.03125 477.984375 316.242188 C 479.101562 315.339844 480.21875 314.375 481.296875 313.359375 C 482.21875 312.5 483.667969 312.535156 484.53125 313.464844 C 485.398438 314.386719 485.347656 315.832031 484.425781 316.691406 C 483.265625 317.789062 482.058594 318.835938 480.859375 319.808594 C 480.429688 320.148438 479.921875 320.308594 479.421875 320.308594 Z M 465.742188 328.484375 C 464.859375 328.484375 464.019531 327.964844 463.640625 327.109375 C 463.140625 325.945312 463.667969 324.597656 464.832031 324.097656 C 466.207031 323.5 467.546875 322.855469 468.808594 322.203125 C 469.941406 321.621094 471.316406 322.058594 471.898438 323.175781 C 472.480469 324.304688 472.042969 325.679688 470.914062 326.261719 C 469.566406 326.964844 468.128906 327.652344 466.652344 328.289062 C 466.359375 328.421875 466.046875 328.484375 465.742188 328.484375 Z M 450.625 333.660156 C 449.625 333.660156 448.703125 332.996094 448.425781 331.988281 C 448.085938 330.773438 448.792969 329.511719 450.007812 329.171875 C 451.507812 328.753906 452.945312 328.332031 454.339844 327.902344 C 455.539062 327.539062 456.824219 328.207031 457.199219 329.414062 C 457.566406 330.628906 456.886719 331.90625 455.679688 332.273438 C 454.25 332.71875 452.777344 333.148438 451.242188 333.578125 C 451.035156 333.632812 450.828125 333.660156 450.625 333.660156 Z M 435.113281 337.554688 C 434.066406 337.554688 433.128906 336.839844 432.886719 335.785156 C 432.601562 334.550781 433.359375 333.320312 434.59375 333.03125 C 436.113281 332.683594 437.585938 332.335938 439.027344 331.988281 C 440.242188 331.691406 441.484375 332.441406 441.777344 333.675781 C 442.082031 334.898438 441.324219 336.140625 440.089844 336.4375 C 438.652344 336.785156 437.167969 337.132812 435.628906 337.492188 C 435.460938 337.535156 435.28125 337.554688 435.113281 337.554688 Z M 419.511719 341.121094 C 418.464844 341.121094 417.527344 340.394531 417.285156 339.339844 C 417 338.109375 417.777344 336.875 419.011719 336.597656 L 423.460938 335.589844 C 424.703125 335.300781 425.917969 336.078125 426.203125 337.304688 C 426.480469 338.535156 425.710938 339.769531 424.480469 340.046875 L 420.019531 341.058594 C 419.851562 341.101562 419.679688 341.121094 419.511719 341.121094 Z M 403.917969 344.71875 C 402.882812 344.71875 401.945312 344.015625 401.695312 342.96875 C 401.410156 341.734375 402.167969 340.503906 403.390625 340.207031 L 407.859375 339.164062 C 409.074219 338.875 410.316406 339.644531 410.601562 340.878906 C 410.890625 342.101562 410.121094 343.335938 408.886719 343.621094 L 404.445312 344.667969 C 404.277344 344.703125 404.097656 344.71875 403.917969 344.71875 Z M 388.363281 348.5 C 387.34375 348.5 386.40625 347.800781 386.148438 346.757812 C 385.84375 345.53125 386.59375 344.292969 387.820312 343.988281 L 392.257812 342.886719 C 393.484375 342.585938 394.726562 343.335938 395.027344 344.566406 C 395.332031 345.792969 394.582031 347.035156 393.359375 347.328125 L 388.917969 348.429688 C 388.738281 348.472656 388.550781 348.5 388.363281 348.5 " fill-opacity="1" fill-rule="nonzero"/></g><g clip-path="url(#3593c3f89a)"><path fill="#231f20" d="M 385.371094 423.109375 C 385.359375 423.035156 385.351562 422.964844 385.34375 422.894531 C 383.554688 411.777344 374.738281 373.785156 372.199219 367.226562 C 364.140625 346.445312 352.550781 335.675781 314.425781 338.261719 C 286.367188 340.164062 279.765625 334.5625 273.511719 326.421875 C 266.523438 317.371094 269.972656 295.996094 272.492188 280.394531 C 273.949219 271.335938 275.101562 264.167969 274.332031 259.960938 L 274.296875 259.738281 C 273.9375 257.601562 272.984375 251.9375 267.578125 248.570312 C 256.238281 241.492188 256.898438 231.753906 259.1875 225.167969 C 260.609375 225.363281 262.117188 225.273438 263.449219 224.96875 C 264.359375 224.765625 265.238281 224.460938 266.058594 224.078125 C 266.453125 223.90625 267.84375 223.191406 267.84375 223.191406 C 269.652344 222.425781 270.140625 222.371094 272.285156 223.246094 C 274.316406 224.175781 276.871094 225.605469 279.460938 226.652344 C 282.050781 227.765625 284.785156 228.589844 287.503906 229.257812 C 292.960938 230.546875 298.476562 230.976562 303.890625 231.082031 C 306.605469 231.128906 309.296875 230.984375 311.996094 230.9375 L 320.007812 230.269531 C 321.875 230.117188 323.28125 228.480469 323.144531 226.597656 C 323.003906 224.710938 321.359375 223.289062 319.472656 223.433594 L 319.375 223.441406 C 309.136719 224.191406 298.796875 224.246094 289.253906 222.011719 C 286.886719 221.421875 284.574219 220.726562 282.355469 219.761719 C 280.070312 218.839844 278.09375 217.589844 275.324219 216.410156 C 274.574219 216.089844 272.359375 215.277344 270.105469 215.125 C 269.113281 215.050781 267.621094 215.328125 267.167969 215.472656 C 265.476562 216 262.179688 217.554688 261.804688 217.644531 C 261.027344 217.796875 260.421875 217.8125 259.652344 217.589844 C 257.75 217.117188 256.140625 216.214844 254.828125 214.765625 C 253.496094 213.335938 251.65625 210.28125 251.386719 208.59375 C 251.242188 207.742188 252.121094 205.410156 252.574219 204.320312 C 253.503906 202.113281 254.683594 199.84375 255.898438 197.574219 C 258.429688 193.171875 261.394531 187.09375 260.429688 180.597656 C 259.964844 177.390625 258.515625 174.34375 256.496094 172.03125 C 254.488281 169.707031 252.039062 168 249.457031 166.847656 C 248.707031 166.507812 247.785156 166.640625 247.160156 167.25 C 246.339844 168.042969 246.3125 169.359375 247.117188 170.1875 L 247.160156 170.234375 C 248.902344 172.039062 250.484375 173.808594 251.636719 175.675781 C 252.753906 177.5625 253.441406 179.472656 253.664062 181.472656 C 253.90625 183.464844 253.585938 185.59375 252.859375 187.703125 C 252.136719 189.875 251.074219 191.75 249.699219 194.1875 C 248.402344 196.511719 247.117188 198.890625 245.972656 201.496094 C 245.417969 202.800781 244.203125 206.402344 244.121094 208.636719 C 244.078125 209.898438 244.507812 210.996094 244.773438 211.738281 C 245.765625 214.480469 247.144531 217.277344 249.351562 219.742188 C 250.332031 220.878906 251.519531 221.84375 252.816406 222.664062 C 250.261719 230.074219 248.0625 244.476562 263.949219 254.386719 C 266.730469 256.128906 267.246094 259.21875 267.53125 260.882812 L 267.578125 261.167969 C 268.140625 264.242188 266.960938 271.558594 265.710938 279.304688 C 262.851562 297.085938 259.277344 319.210938 268.078125 330.613281 C 276.648438 341.753906 286.242188 347.050781 314.890625 345.113281 C 352.300781 342.566406 359.59375 353.707031 365.800781 369.710938 C 367.992188 375.359375 376.675781 412.277344 378.5625 423.929688 C 378.5625 423.964844 378.570312 423.992188 378.570312 424.019531 C 378.757812 425.746094 380.214844 427.085938 381.984375 427.085938 C 383.878906 427.085938 385.414062 425.546875 385.414062 423.652344 C 385.414062 423.492188 385.398438 423.289062 385.371094 423.109375 " fill-opacity="1" fill-rule="nonzero"/></g></svg>