<svg xmlns="http://www.w3.org/2000/svg" xmlns:xlink="http://www.w3.org/1999/xlink" width="1024" zoomAndPan="magnify" viewBox="0 0 768 576" height="768" preserveAspectRatio="xMidYMid meet" version="1.0"><defs><clipPath id="59745be7f2"><path d="M 300 153 L 451 153 L 451 429.554688 L 300 429.554688 Z M 300 153 " clip-rule="nonzero"/></clipPath></defs><g clip-path="url(#59745be7f2)"><path fill="#000000" d="M 414.222656 429.554688 C 394.671875 429.554688 367.691406 403.378906 336.183594 354.261719 C 327.296875 340.207031 318.574219 322.273438 313.886719 310.640625 C 291.429688 254.734375 297.246094 203.679688 329.558594 174.273438 C 358.804688 147.613281 400.488281 146.804688 428.441406 172.496094 C 458.332031 199.800781 448.152344 234.214844 442.496094 247.789062 C 439.75 254.089844 439.105469 259.421875 440.71875 262.976562 C 442.011719 265.558594 444.113281 267.335938 447.667969 268.46875 C 448.800781 268.792969 449.445312 270.085938 448.960938 271.214844 C 448.636719 272.347656 447.34375 272.992188 446.214844 272.507812 C 441.691406 271.054688 438.457031 268.46875 436.84375 264.753906 C 434.582031 260.066406 435.226562 253.765625 438.457031 246.011719 C 443.789062 233.40625 453.324219 201.09375 425.53125 175.726562 C 399.195312 151.652344 360.097656 152.296875 332.46875 177.503906 C 301.445312 205.617188 296.113281 254.898438 317.925781 309.023438 C 322.289062 320.011719 331.175781 338.105469 339.898438 351.839844 C 370.113281 399.179688 396.613281 425.191406 414.222656 425.191406 C 420.847656 425.191406 426.179688 421.800781 430.703125 414.691406 C 435.226562 407.742188 440.234375 395.300781 438.621094 376.238281 C 438.621094 376.074219 437.164062 360.726562 433.289062 352 C 429.894531 344.246094 429.410156 337.621094 431.835938 332.128906 C 434.417969 326.796875 439.589844 323.078125 447.183594 320.816406 C 448.3125 320.496094 449.605469 321.140625 449.929688 322.273438 C 450.253906 323.402344 449.605469 324.695312 448.476562 325.019531 C 442.011719 326.796875 437.8125 329.867188 435.875 333.90625 C 433.773438 338.265625 434.257812 343.761719 437.164062 350.386719 C 441.367188 359.59375 442.984375 375.265625 442.984375 375.914062 C 444.597656 396.273438 439.265625 409.519531 434.417969 417.113281 C 429.085938 425.355469 422.300781 429.554688 414.222656 429.554688 Z M 414.222656 429.554688 " fill-opacity="1" fill-rule="evenodd"/></g><path fill="#000000" d="M 396.125 282.523438 C 395.640625 282.523438 395.15625 282.363281 394.835938 282.039062 C 393.863281 281.394531 393.703125 280.101562 394.347656 279.132812 C 407.113281 261.519531 411.636719 238.902344 405.660156 224.035156 C 401.457031 213.855469 393.058594 207.71875 380.617188 205.617188 C 366.558594 203.03125 354.925781 205.292969 346.039062 212.082031 C 330.851562 223.714844 328.589844 244.878906 328.589844 245.039062 C 328.589844 246.171875 327.457031 247.140625 326.328125 246.980469 C 325.035156 246.816406 324.226562 245.847656 324.390625 244.554688 C 324.390625 243.75 326.652344 221.289062 343.453125 208.6875 C 353.308594 201.09375 366.074219 198.667969 381.421875 201.253906 C 395.320312 203.679688 405.011719 210.949219 409.699219 222.257812 C 416.160156 238.578125 411.316406 262.976562 397.902344 281.554688 C 397.417969 282.203125 396.773438 282.523438 396.125 282.523438 Z M 396.125 282.523438 " fill-opacity="1" fill-rule="evenodd"/><path fill="#000000" d="M 397.582031 369.933594 C 396.449219 369.933594 395.15625 369.773438 394.027344 369.613281 C 380.453125 366.867188 379.96875 356.203125 379.648438 346.667969 C 379.484375 344.246094 379.484375 341.5 379.160156 339.238281 C 377.382812 328.089844 370.113281 325.503906 361.710938 322.433594 C 356.703125 320.65625 351.371094 318.71875 347.007812 314.679688 C 330.691406 299.8125 333.4375 270.730469 345.394531 252.3125 C 353.632812 239.386719 364.621094 235.023438 372.375 233.730469 C 385.949219 231.308594 399.679688 236.800781 410.828125 249.078125 C 411.636719 250.050781 411.636719 251.34375 410.667969 252.148438 C 409.859375 252.957031 408.40625 252.957031 407.597656 251.988281 C 400.488281 244.070312 388.695312 235.183594 373.183594 237.929688 C 366.234375 239.222656 356.378906 242.941406 348.949219 254.574219 C 337.960938 271.539062 335.214844 298.199219 349.917969 311.445312 C 353.632812 314.839844 358.480469 316.617188 363.328125 318.394531 C 372.214844 321.625 381.421875 325.019531 383.363281 338.589844 C 383.847656 341.175781 383.847656 343.921875 384.007812 346.507812 C 384.332031 356.847656 385.140625 363.3125 394.996094 365.25 C 399.519531 366.21875 404.207031 364.605469 407.761719 360.886719 C 412.929688 355.394531 414.546875 346.667969 412.121094 337.296875 C 411.800781 336.167969 412.445312 335.035156 413.578125 334.710938 C 414.707031 334.390625 416 335.035156 416.324219 336.167969 C 419.070312 346.992188 417.132812 357.332031 410.828125 363.796875 C 407.113281 367.835938 402.429688 369.933594 397.582031 369.933594 Z M 397.582031 369.933594 " fill-opacity="1" fill-rule="evenodd"/><path fill="#000000" d="M 352.988281 318.554688 C 352.179688 318.554688 351.210938 317.910156 350.886719 317.101562 C 350.5625 315.96875 351.210938 314.679688 352.179688 314.355469 C 357.027344 312.578125 361.226562 310.800781 364.78125 307.730469 C 379.324219 294.480469 376.578125 267.820312 365.589844 250.855469 C 363.488281 247.625 361.066406 244.71875 358.320312 242.292969 C 357.511719 241.648438 357.351562 240.195312 358.15625 239.222656 C 358.964844 238.417969 360.417969 238.253906 361.226562 239.0625 C 364.296875 241.808594 366.882812 244.878906 369.304688 248.59375 C 381.261719 267.015625 384.007812 296.097656 367.691406 310.960938 C 363.652344 314.515625 358.804688 316.617188 353.796875 318.394531 C 353.472656 318.394531 353.308594 318.554688 352.988281 318.554688 Z M 352.988281 318.554688 " fill-opacity="1" fill-rule="evenodd"/></svg>