<svg xmlns="http://www.w3.org/2000/svg" xmlns:xlink="http://www.w3.org/1999/xlink" width="1024" zoomAndPan="magnify" viewBox="0 0 768 576" height="768" preserveAspectRatio="xMidYMid meet" version="1.0"><defs><clipPath id="09f8508c94"><path d="M 441 214 L 473.917969 214 L 473.917969 249 L 441 249 Z M 441 214 " clip-rule="nonzero"/></clipPath></defs><path fill="#141727" d="M 440.734375 289.519531 C 446.84375 254.25 430.148438 229.019531 389.710938 212.371094 C 376.511719 206.9375 364.207031 204.175781 353.144531 204.175781 C 331.0625 204.175781 315.839844 215.503906 309.136719 236.941406 C 301.507812 261.304688 304.113281 291.734375 315.78125 314.464844 C 326.066406 334.511719 320.242188 349.210938 314.074219 364.769531 C 309.394531 376.5625 304.5625 388.757812 305.710938 405.089844 C 305.710938 405.175781 305.710938 405.261719 305.710938 405.347656 C 305.710938 427.8125 323.960938 446.085938 346.402344 446.085938 C 356.433594 446.085938 366.0625 442.40625 373.527344 435.710938 C 403.355469 401.46875 432.230469 338.675781 440.734375 289.519531 Z M 298.351562 405.476562 C 297.125 387.53125 302.492188 373.996094 307.230469 362.050781 C 313.246094 346.882812 317.988281 334.902344 309.230469 317.835938 C 296.734375 293.46875 293.933594 260.851562 302.109375 234.734375 C 309.761719 210.277344 327.886719 196.804688 353.144531 196.804688 C 365.175781 196.804688 378.414062 199.746094 392.511719 205.550781 C 436.019531 223.457031 454.683594 252.132812 447.988281 290.777344 C 439.265625 341.179688 409.578125 405.640625 378.929688 440.730469 C 378.832031 440.835938 378.726562 440.941406 378.628906 441.039062 C 369.777344 449.050781 358.335938 453.460938 346.402344 453.460938 C 319.949219 453.460938 298.425781 431.949219 298.351562 405.476562 " fill-opacity="1" fill-rule="nonzero"/><path fill="#141727" d="M 310.261719 163.890625 C 310.261719 176.007812 320.109375 185.867188 332.203125 185.867188 C 344.308594 185.867188 354.152344 176.007812 354.152344 163.890625 C 354.152344 151.292969 349.539062 129.96875 332.203125 129.96875 C 314.882812 129.96875 310.261719 151.292969 310.261719 163.890625 Z M 302.898438 163.890625 C 302.898438 148.546875 309.070312 122.597656 332.203125 122.597656 C 355.351562 122.597656 361.519531 148.546875 361.519531 163.890625 C 361.519531 180.074219 348.371094 193.242188 332.203125 193.242188 C 316.046875 193.242188 302.898438 180.074219 302.898438 163.890625 " fill-opacity="1" fill-rule="nonzero"/><path fill="#141727" d="M 367.667969 168.953125 C 366.949219 172.882812 367.796875 176.863281 370.0625 180.152344 C 372.335938 183.449219 375.742188 185.65625 379.671875 186.375 C 380.578125 186.546875 381.492188 186.628906 382.394531 186.628906 C 389.605469 186.628906 395.777344 181.464844 397.082031 174.355469 C 397.742188 170.757812 400.3125 152.6875 386.320312 150.113281 C 385.371094 149.9375 384.449219 149.855469 383.570312 149.855469 C 371.761719 149.855469 368.25 165.761719 367.667969 168.953125 Z M 378.347656 193.632812 C 372.484375 192.554688 367.394531 189.257812 364.003906 184.347656 C 360.621094 179.429688 359.34375 173.492188 360.425781 167.617188 C 362.648438 155.46875 369.898438 142.480469 383.570312 142.480469 C 384.894531 142.480469 386.261719 142.609375 387.644531 142.863281 C 403.847656 145.839844 406.757812 162.402344 404.324219 175.683594 C 402.375 186.296875 393.15625 194.003906 382.394531 194.003906 C 381.046875 194.003906 379.6875 193.875 378.347656 193.632812 " fill-opacity="1" fill-rule="nonzero"/><path fill="#141727" d="M 408.304688 180.660156 C 407.203125 183.6875 407.351562 186.96875 408.710938 189.890625 C 410.078125 192.808594 412.492188 195.023438 415.515625 196.125 C 416.851562 196.601562 418.230469 196.851562 419.628906 196.851562 C 424.679688 196.851562 429.230469 193.652344 430.960938 188.898438 C 432.539062 184.539062 433.113281 179.992188 432.550781 176.410156 C 431.871094 172.136719 429.640625 169.363281 425.738281 167.9375 C 424.421875 167.460938 423.144531 167.222656 421.9375 167.222656 C 415.464844 167.222656 410.550781 174.460938 408.304688 180.660156 Z M 413.011719 203.050781 C 408.132812 201.28125 404.242188 197.714844 402.046875 193.007812 C 399.847656 188.300781 399.613281 183.023438 401.378906 178.144531 C 404.585938 169.300781 411.667969 159.847656 421.9375 159.847656 C 424 159.847656 426.125 160.234375 428.246094 161.007812 C 434.714844 163.359375 438.71875 168.289062 439.824219 175.253906 C 440.859375 181.792969 439.050781 188.183594 437.882812 191.414062 C 435.105469 199.074219 427.769531 204.21875 419.628906 204.21875 C 417.371094 204.21875 415.144531 203.828125 413.011719 203.050781 " fill-opacity="1" fill-rule="nonzero"/><path fill="#141727" d="M 436.03125 202.125 C 434.582031 204.40625 434.097656 207.125 434.679688 209.773438 C 435.265625 212.421875 436.839844 214.675781 439.121094 216.136719 C 440.757812 217.183594 442.636719 217.734375 444.5625 217.734375 C 448.046875 217.734375 451.242188 215.984375 453.113281 213.042969 C 455.257812 209.679688 456.601562 205.972656 456.800781 202.871094 C 457.027344 199.246094 455.710938 196.578125 452.789062 194.707031 C 451.242188 193.722656 449.734375 193.242188 448.179688 193.242188 C 443.40625 193.242188 438.773438 197.824219 436.03125 202.125 Z M 435.160156 222.351562 C 431.226562 219.832031 428.496094 215.929688 427.488281 211.355469 C 426.484375 206.792969 427.316406 202.097656 429.828125 198.15625 C 431.664062 195.277344 438.417969 185.867188 448.179688 185.867188 C 451.140625 185.867188 454.027344 186.753906 456.75 188.496094 C 461.988281 191.84375 464.546875 196.972656 464.148438 203.332031 C 463.777344 209.234375 460.964844 214.441406 459.324219 217.015625 C 456.09375 222.085938 450.574219 225.109375 444.5625 225.109375 C 441.230469 225.109375 437.976562 224.15625 435.160156 222.351562 " fill-opacity="1" fill-rule="nonzero"/><g clip-path="url(#09f8508c94)"><path fill="#141727" d="M 450.511719 228.925781 C 449.417969 230.644531 449.058594 232.675781 449.496094 234.660156 C 449.929688 236.644531 451.117188 238.335938 452.824219 239.433594 C 454.046875 240.210938 455.460938 240.625 456.902344 240.625 C 459.511719 240.625 461.90625 239.3125 463.316406 237.113281 C 465.007812 234.460938 466.066406 231.554688 466.21875 229.128906 C 466.386719 226.402344 465.445312 224.480469 463.253906 223.082031 C 462.105469 222.347656 460.992188 221.988281 459.855469 221.988281 C 456.21875 221.988281 452.550781 225.726562 450.511719 228.925781 Z M 448.863281 245.644531 C 445.492188 243.488281 443.164062 240.152344 442.300781 236.25 C 441.445312 232.339844 442.152344 228.332031 444.308594 224.960938 C 445.851562 222.535156 451.546875 214.617188 459.855469 214.617188 C 462.40625 214.617188 464.882812 215.371094 467.214844 216.863281 C 471.644531 219.699219 473.902344 224.21875 473.5625 229.589844 C 473.253906 234.5625 470.894531 238.929688 469.523438 241.085938 C 466.757812 245.414062 462.042969 248.003906 456.902344 248.003906 C 454.050781 248.003906 451.273438 247.183594 448.863281 245.644531 " fill-opacity="1" fill-rule="nonzero"/></g></svg>