<svg xmlns="http://www.w3.org/2000/svg" xmlns:xlink="http://www.w3.org/1999/xlink" width="1024" zoomAndPan="magnify" viewBox="0 0 768 576" height="768" preserveAspectRatio="xMidYMid meet" version="1.0"><defs><clipPath id="0bf12f618d"><path d="M 227.539062 132 L 540 132 L 540 444 L 227.539062 444 Z M 227.539062 132 " clip-rule="nonzero"/></clipPath><clipPath id="d097d7f70c"><path d="M 227.539062 348 L 252 348 L 252 366 L 227.539062 366 Z M 227.539062 348 " clip-rule="nonzero"/></clipPath></defs><g clip-path="url(#0bf12f618d)"><path fill="#000000" d="M 490.699219 216.648438 L 411.28125 216.648438 C 423.078125 208.582031 430.84375 195.027344 430.84375 179.683594 L 430.84375 136.015625 C 430.84375 133.863281 429.101562 132.121094 426.949219 132.121094 L 376.910156 132.121094 C 374.757812 132.121094 373.015625 133.863281 373.015625 136.015625 L 373.015625 165.414062 C 373.015625 168.898438 370.179688 171.730469 366.695312 171.730469 L 276.734375 171.730469 C 249.820312 171.730469 227.925781 193.628906 227.925781 220.542969 C 227.925781 246.523438 248.351562 267.769531 273.980469 269.210938 C 260.367188 277.882812 251.296875 293.070312 251.296875 310.367188 C 251.296875 337.28125 273.191406 359.179688 300.105469 359.179688 L 356.15625 359.179688 C 344.355469 367.246094 336.589844 380.800781 336.589844 396.140625 L 336.589844 439.808594 C 336.589844 441.960938 338.335938 443.703125 340.484375 443.703125 L 390.527344 443.703125 C 392.675781 443.703125 394.421875 441.960938 394.421875 439.808594 L 394.421875 410.410156 C 394.421875 406.929688 397.257812 404.09375 400.742188 404.09375 L 467.332031 404.09375 C 494.246094 404.09375 516.140625 382.199219 516.140625 355.285156 C 516.140625 337.984375 507.066406 322.792969 493.457031 314.125 C 519.085938 312.683594 539.507812 291.441406 539.507812 265.457031 C 539.507812 238.542969 517.613281 216.648438 490.699219 216.648438 Z M 490.699219 306.472656 L 306.265625 306.472656 C 304.113281 306.472656 302.371094 308.214844 302.371094 310.367188 C 302.371094 312.519531 304.113281 314.261719 306.265625 314.261719 L 467.332031 314.261719 C 489.949219 314.261719 508.351562 332.664062 508.351562 355.285156 C 508.351562 377.902344 489.949219 396.304688 467.332031 396.304688 L 400.742188 396.304688 C 392.960938 396.304688 386.632812 402.632812 386.632812 410.410156 L 386.632812 435.914062 L 344.378906 435.914062 L 344.378906 396.140625 C 344.378906 375.757812 360.960938 359.179688 381.34375 359.179688 L 461.171875 359.179688 C 463.324219 359.179688 465.066406 357.4375 465.066406 355.285156 C 465.066406 353.132812 463.324219 351.390625 461.171875 351.390625 L 300.105469 351.390625 C 277.488281 351.390625 259.085938 332.988281 259.085938 310.367188 C 259.085938 287.753906 277.488281 269.351562 300.105469 269.351562 L 484.539062 269.351562 C 486.691406 269.351562 488.4375 267.609375 488.4375 265.457031 C 488.4375 263.304688 486.691406 261.5625 484.539062 261.5625 L 276.734375 261.5625 C 254.117188 261.5625 235.71875 243.160156 235.71875 220.542969 C 235.71875 197.921875 254.117188 179.519531 276.734375 179.519531 L 366.695312 179.519531 C 374.476562 179.519531 380.804688 173.191406 380.804688 165.414062 L 380.804688 139.910156 L 423.054688 139.910156 L 423.054688 179.683594 C 423.054688 200.066406 406.472656 216.648438 386.09375 216.648438 L 282.894531 216.648438 C 280.746094 216.648438 279 218.390625 279 220.542969 C 279 222.695312 280.746094 224.4375 282.894531 224.4375 L 490.699219 224.4375 C 513.316406 224.4375 531.71875 242.835938 531.71875 265.457031 C 531.71875 288.074219 513.316406 306.472656 490.699219 306.472656 Z M 490.699219 306.472656 " fill-opacity="1" fill-rule="nonzero"/></g><g clip-path="url(#d097d7f70c)"><path fill="#000000" d="M 245.792969 349.082031 L 229.871094 358.292969 C 228.007812 359.367188 227.375 361.75 228.449219 363.613281 C 229.171875 364.859375 230.480469 365.558594 231.824219 365.558594 C 232.488281 365.558594 233.160156 365.390625 233.773438 365.03125 L 249.695312 355.820312 C 251.558594 354.742188 252.195312 352.363281 251.117188 350.5 C 250.039062 348.640625 247.65625 347.992188 245.792969 349.082031 Z M 245.792969 349.082031 " fill-opacity="1" fill-rule="nonzero"/></g><path fill="#000000" d="M 272.015625 371.421875 C 270.15625 370.351562 267.769531 370.992188 266.695312 372.851562 L 257.511719 388.792969 C 256.441406 390.65625 257.082031 393.039062 258.945312 394.109375 C 259.558594 394.464844 260.226562 394.632812 260.882812 394.632812 C 262.234375 394.632812 263.542969 393.929688 264.265625 392.679688 L 273.449219 376.738281 C 274.519531 374.875 273.878906 372.496094 272.015625 371.421875 Z M 272.015625 371.421875 " fill-opacity="1" fill-rule="nonzero"/><path fill="#000000" d="M 300.726562 379.175781 C 298.578125 379.175781 296.832031 380.917969 296.832031 383.074219 L 296.832031 401.46875 C 296.832031 403.621094 298.578125 405.363281 300.726562 405.363281 C 302.878906 405.363281 304.621094 403.621094 304.621094 401.46875 L 304.621094 383.074219 C 304.621094 380.917969 302.878906 379.175781 300.726562 379.175781 Z M 300.726562 379.175781 " fill-opacity="1" fill-rule="nonzero"/><path fill="#000000" d="M 526.429688 210.730469 C 527.777344 210.730469 529.085938 210.027344 529.808594 208.777344 L 538.988281 192.832031 C 540.0625 190.96875 539.421875 188.589844 537.558594 187.515625 C 535.695312 186.441406 533.316406 187.082031 532.238281 188.945312 L 523.058594 204.890625 C 521.984375 206.753906 522.625 209.136719 524.488281 210.207031 C 525.101562 210.5625 525.769531 210.730469 526.429688 210.730469 Z M 526.429688 210.730469 " fill-opacity="1" fill-rule="nonzero"/><path fill="#000000" d="M 499.671875 198.558594 L 499.671875 180.160156 C 499.671875 178.007812 497.925781 176.265625 495.777344 176.265625 C 493.625 176.265625 491.882812 178.007812 491.882812 180.160156 L 491.882812 198.558594 C 491.882812 200.710938 493.625 202.453125 495.777344 202.453125 C 497.925781 202.453125 499.671875 200.710938 499.671875 198.558594 Z M 499.671875 198.558594 " fill-opacity="1" fill-rule="nonzero"/></svg>