<svg xmlns="http://www.w3.org/2000/svg" xmlns:xlink="http://www.w3.org/1999/xlink" width="1024" zoomAndPan="magnify" viewBox="0 0 768 576" height="768" preserveAspectRatio="xMidYMid meet" version="1.0"><path fill="#b6cec4" d="M 303.671875 342.402344 C 303.679688 342.390625 303.6875 342.375 303.6875 342.359375 C 303.695312 342.359375 303.703125 342.359375 303.714844 342.355469 Z M 330.976562 148.679688 C 330.984375 148.691406 330.988281 148.707031 330.996094 148.726562 C 331.003906 148.726562 331.019531 148.734375 331.023438 148.734375 C 331.019531 148.734375 330.96875 148.679688 330.976562 148.679688 Z M 362.664062 175.902344 C 362.664062 175.894531 362.65625 175.886719 362.65625 175.882812 C 362.648438 175.882812 362.640625 175.882812 362.632812 175.882812 Z M 383.613281 425.972656 C 383.613281 425.972656 383.621094 425.972656 383.621094 425.964844 C 383.621094 425.964844 383.628906 425.957031 383.628906 425.957031 Z M 355.277344 418.566406 C 355.277344 418.566406 355.277344 418.558594 355.277344 418.558594 C 355.273438 418.558594 355.273438 418.550781 355.265625 418.550781 Z M 522.304688 294.199219 C 522.308594 294.199219 522.316406 294.199219 522.332031 294.199219 C 522.332031 294.191406 522.339844 294.179688 522.339844 294.171875 Z M 521.226562 295.742188 C 521.234375 295.734375 521.242188 295.734375 521.25 295.726562 C 521.25 295.722656 521.25 295.722656 521.25 295.714844 Z M 559.550781 236.347656 C 559.515625 236.703125 559.484375 237.050781 559.449219 237.402344 C 559.097656 238.804688 558.742188 240.203125 558.398438 241.605469 C 558.496094 242.035156 558.546875 242.453125 558.035156 242.679688 C 557.808594 243.371094 557.582031 244.058594 557.355469 244.753906 C 557.390625 245.324219 557.695312 245.960938 556.976562 246.351562 C 557.292969 247.371094 555.460938 247.328125 555.949219 248.429688 C 555.941406 248.785156 555.933594 249.128906 555.929688 249.484375 C 555.746094 251.789062 554.230469 253.535156 553.164062 255.402344 C 552.582031 256.410156 552.230469 257.335938 552.09375 258.417969 C 552.128906 258.765625 551.96875 258.890625 551.636719 258.847656 L 551.691406 259.03125 C 550.898438 258.890625 550.53125 259.140625 550.820312 259.988281 C 547.941406 265.230469 545.0625 270.464844 542.191406 275.703125 C 541.167969 275.730469 540.621094 276.261719 540.558594 277.289062 C 539.886719 277.820312 539.667969 278.570312 539.5625 279.367188 C 538.316406 279.542969 538.140625 280.675781 537.636719 281.519531 C 537.558594 281.671875 537.496094 281.835938 537.460938 282 C 537.15625 282.0625 536.972656 282.210938 537.027344 282.558594 C 536.808594 282.863281 536.589844 283.167969 536.371094 283.46875 C 535.621094 283.542969 535.238281 283.886719 535.453125 284.6875 C 533.746094 287.070312 531.5625 289.128906 530.558594 291.980469 C 529.941406 292.332031 529.503906 292.800781 529.566406 293.578125 C 529.050781 293.917969 528.527344 294.257812 528.011719 294.589844 C 527.714844 294.660156 527.53125 294.816406 527.59375 295.15625 C 527.53125 295.339844 527.460938 295.523438 527.394531 295.699219 C 527.261719 295.882812 527.125 296.066406 526.992188 296.25 C 526.972656 296.386719 526.949219 296.511719 526.941406 296.648438 C 526.222656 296.691406 525.824219 297 526.023438 297.785156 C 522.804688 300.042969 520.882812 303.535156 518.03125 306.152344 C 517.335938 306.527344 516.777344 307.039062 516.402344 307.738281 C 515.363281 309.019531 514.410156 310.390625 512.796875 311.042969 C 512.664062 311.089844 512.527344 311.148438 512.394531 311.195312 C 512.519531 311.289062 512.648438 311.378906 512.78125 311.472656 C 513.347656 313.84375 510.9375 314.515625 510.144531 316.097656 C 508.574219 316.777344 507.429688 317.957031 506.417969 319.289062 C 506.253906 319.4375 506.089844 319.585938 505.921875 319.734375 C 504.761719 320.492188 504.394531 321.394531 505.398438 322.554688 C 505.976562 324.71875 507.023438 326.628906 508.582031 328.25 C 508.539062 329.140625 508.550781 330.011719 509.621094 330.351562 C 510.53125 333.851562 513.171875 336.476562 514.453125 339.800781 C 514.359375 340.820312 514.125 341.878906 515.34375 342.453125 C 516.269531 344.894531 517.195312 347.332031 518.117188 349.773438 C 518.023438 350.203125 517.96875 350.621094 518.460938 350.871094 C 518.546875 351.210938 518.632812 351.550781 518.722656 351.894531 C 518.632812 352.222656 518.78125 352.328125 519.085938 352.296875 C 519.296875 352.679688 519.507812 353.070312 519.722656 353.453125 C 519.90625 353.976562 520.089844 354.503906 520.265625 355.027344 C 520.429688 355.714844 520.597656 356.40625 520.761719 357.09375 C 520.886719 357.101562 521.023438 357.121094 521.148438 357.144531 C 521.199219 357.554688 521.128906 358.019531 521.660156 358.203125 C 521.644531 358.722656 521.636719 359.238281 521.625 359.761719 C 523.789062 363.507812 525.039062 367.542969 525.300781 371.871094 L 525.480469 371.8125 C 525.402344 372.167969 525.597656 372.335938 525.890625 372.441406 C 525.859375 372.769531 525.824219 373.09375 525.796875 373.417969 C 526.453125 377.34375 524.550781 380.796875 523.730469 384.445312 C 523.816406 384.878906 523.886719 385.300781 523.363281 385.519531 C 523.160156 386.199219 522.960938 386.878906 522.753906 387.558594 C 522.308594 387.601562 521.835938 387.578125 521.636719 388.117188 C 521.695312 388.46875 521.742188 388.816406 521.800781 389.171875 C 521.679688 389.589844 521.792969 390.117188 521.234375 390.316406 C 520.859375 390.789062 520.492188 391.257812 520.117188 391.730469 C 519.167969 391.957031 518.144531 392.085938 517.980469 393.351562 C 517.648438 393.578125 517.316406 393.796875 516.984375 394.023438 C 516.636719 393.910156 516.503906 394.128906 516.402344 394.40625 C 515.363281 395.089844 514.324219 395.769531 513.292969 396.457031 C 512.109375 396.390625 511.53125 398.117188 510.164062 397.496094 C 509.980469 397.679688 509.796875 397.863281 509.621094 398.046875 C 508.75 398.210938 507.886719 398.371094 507.019531 398.527344 C 506.523438 398.78125 506.140625 399.34375 505.460938 399.09375 C 504.257812 398.367188 503.304688 399.34375 502.242188 399.574219 C 501.378906 399.640625 500.523438 399.710938 499.660156 399.773438 C 499.082031 399.730469 498.453125 399.496094 498.085938 400.203125 C 496.238281 399.984375 494.519531 400.488281 492.835938 401.175781 C 491.960938 401.175781 491.082031 401.175781 490.210938 401.175781 C 483.421875 401.605469 476.976562 400.203125 470.78125 397.496094 C 470.34375 397.585938 469.933594 397.617188 469.714844 397.105469 C 468.117188 397.035156 466.941406 395.917969 465.527344 395.386719 C 464.976562 395.339844 464.324219 395.691406 463.9375 395 C 462.628906 395.308594 461.984375 393.847656 460.800781 393.816406 C 459.917969 393.5625 459.070312 393.253906 458.574219 392.382812 C 454.882812 391.015625 451.191406 389.644531 448.175781 386.972656 C 447.824219 387.054688 447.703125 386.90625 447.757812 386.566406 C 447.667969 386.433594 447.625 386.285156 447.640625 386.128906 C 446.671875 386.007812 445.707031 385.875 445.007812 385.089844 C 443.734375 385.371094 443.148438 383.957031 442.023438 383.886719 C 440.617188 381.714844 440.035156 383.660156 439.214844 384.445312 C 437.558594 385.726562 435.6875 386.746094 434.503906 388.570312 C 434.066406 388.859375 433.585938 389.121094 433.570312 389.75 L 433.394531 389.695312 C 433.449219 389.851562 433.480469 390.011719 433.464844 390.175781 C 433.289062 390.152344 433.109375 390.140625 432.941406 390.117188 L 433.003906 390.332031 C 432.183594 390.097656 431.921875 390.570312 431.832031 391.265625 C 430.078125 391.808594 428.632812 392.765625 427.699219 394.390625 C 426.695312 394.261719 426.355469 395.234375 425.664062 395.621094 C 425.28125 396.277344 424.433594 396.648438 424.445312 397.558594 C 424.296875 397.539062 424.164062 397.582031 424.042969 397.679688 C 423.695312 397.695312 423.34375 397.707031 422.996094 397.722656 C 422.351562 397.792969 422.542969 398.265625 422.550781 398.648438 C 422.480469 398.8125 422.410156 398.972656 422.347656 399.144531 C 420.257812 399.90625 419.015625 401.796875 417.210938 402.941406 C 416.871094 402.894531 416.730469 403.089844 416.660156 403.378906 C 416.148438 403.753906 415.648438 404.125 415.136719 404.5 C 414.792969 404.851562 414.4375 405.210938 414.089844 405.566406 C 413.90625 405.742188 413.714844 405.925781 413.53125 406.105469 C 413.199219 406.0625 413.050781 406.210938 413.09375 406.535156 C 411.410156 407.40625 410.011719 408.609375 408.863281 410.105469 C 408.136719 410.820312 407.414062 411.535156 406.6875 412.257812 C 405.492188 412.34375 405.042969 413.542969 404.074219 413.976562 C 403.742188 413.933594 403.59375 414.082031 403.636719 414.414062 C 403.546875 414.542969 403.503906 414.683594 403.515625 414.839844 C 402.613281 415.03125 401.945312 415.460938 401.863281 416.472656 C 400.992188 416.453125 400.214844 416.601562 399.875 417.554688 C 398.757812 417.535156 398.269531 418.367188 397.722656 419.125 C 397.214844 419.515625 396.707031 419.894531 396.195312 420.285156 C 395.851562 420.214844 395.707031 420.425781 395.617188 420.695312 C 394.039062 421.539062 393.261719 423.390625 391.472656 423.964844 C 391.132812 423.90625 391.003906 424.054688 391.054688 424.386719 C 390.3125 425.421875 389.570312 426.453125 388.828125 427.484375 C 387.144531 427.394531 387.144531 429.585938 385.6875 429.796875 C 385.382812 429.734375 385.253906 429.835938 385.347656 430.144531 C 385.203125 430.363281 385.054688 430.582031 384.914062 430.804688 C 384.914062 430.804688 384.773438 430.945312 384.773438 430.945312 C 384.5625 431.078125 384.34375 431.214844 384.128906 431.347656 C 383.351562 431.148438 383.082031 431.566406 383.027344 432.253906 C 381.992188 433.164062 380.953125 434.078125 379.921875 434.996094 C 379.589844 434.941406 379.449219 435.097656 379.484375 435.421875 C 378.34375 435.902344 377.234375 436.660156 376.050781 436.800781 C 373.945312 437.054688 373.058594 435.214844 371.957031 433.84375 C 372.027344 433.496094 371.824219 433.363281 371.539062 433.277344 C 370.8125 431.53125 368.675781 431.164062 367.832031 429.523438 C 367.492188 429.59375 367.375 429.453125 367.4375 429.125 C 366.863281 428.449219 366.292969 427.769531 365.71875 427.089844 C 365.179688 426.546875 364.644531 426.007812 364.105469 425.464844 C 363.074219 424.71875 362.039062 423.984375 361.007812 423.242188 C 360.683594 423.277344 360.535156 423.15625 360.625 422.816406 C 359.53125 421.90625 358.425781 420.984375 357.328125 420.074219 L 357.089844 420.136719 L 356.847656 420.109375 C 356.835938 419.953125 356.871094 419.804688 356.941406 419.671875 C 356.390625 419.300781 355.835938 418.941406 355.285156 418.574219 C 355.257812 417.867188 355.011719 417.429688 354.1875 417.648438 C 353.285156 417.09375 352.605469 416.316406 352.011719 415.460938 C 352.179688 414.632812 351.804688 414.363281 351.035156 414.5 C 350.859375 414.4375 350.675781 414.363281 350.496094 414.300781 C 350.144531 414.386719 350.015625 414.238281 350.074219 413.890625 C 347.980469 411.339844 345.617188 409.058594 342.992188 407.058594 C 340.574219 405.21875 337.859375 403.75 336.117188 401.097656 C 335.800781 400.609375 334.921875 400.496094 334.308594 400.203125 C 334.398438 399.03125 333.925781 398.421875 332.679688 398.597656 C 332.558594 396.988281 330.453125 397.375 330.085938 396.019531 C 329.992188 395.742188 329.859375 395.53125 329.511719 395.613281 C 329.355469 395.558594 329.191406 395.515625 329.023438 395.496094 C 329.03125 394.765625 328.65625 394.417969 327.941406 394.410156 C 326.214844 393.019531 324.488281 391.617188 322.757812 390.226562 C 322.480469 389.476562 321.929688 389.148438 321.152344 389.183594 C 321.128906 388.398438 320.65625 387.917969 320.035156 387.542969 C 319.695312 387.601562 319.546875 387.464844 319.625 387.121094 C 318.554688 385.21875 315.972656 384.714844 315.289062 382.457031 C 314.90625 382.359375 314.417969 382.457031 314.234375 381.949219 C 313.015625 380.824219 311.792969 379.707031 310.578125 378.582031 C 310.25 378.652344 310.132812 378.519531 310.214844 378.199219 C 310.117188 377.089844 309.226562 377.1875 308.484375 377.0625 C 308.121094 377.109375 307.996094 376.925781 308.039062 376.59375 L 307.851562 376.652344 C 307.667969 375.824219 306.992188 375.414062 306.394531 374.945312 C 305.78125 374.917969 305.871094 374.542969 306.007812 374.148438 C 305.609375 374.125 305.214844 374.105469 304.820312 374.082031 C 303.363281 372.640625 301.347656 371.871094 300.074219 370.199219 C 299.726562 370.285156 299.597656 370.136719 299.664062 369.804688 C 294.507812 365.425781 289.351562 361.046875 284.195312 356.667969 C 284.058594 355.871094 283.488281 355.625 282.78125 355.550781 C 282.609375 355.398438 282.445312 355.234375 282.277344 355.078125 C 281.40625 352.746094 279.992188 353.480469 278.550781 354.425781 C 278.21875 354.484375 277.882812 354.539062 277.550781 354.597656 C 277.21875 355.347656 276.101562 355.226562 275.890625 356.109375 C 274.695312 355.714844 274.320312 357.15625 273.335938 357.242188 C 273.308594 357.382812 273.289062 357.519531 273.265625 357.660156 C 269.460938 358.847656 266.078125 361.542969 261.757812 360.933594 C 258.859375 362.460938 255.84375 362.179688 252.8125 361.480469 C 252.769531 361.246094 252.691406 361.042969 252.589844 360.855469 C 252.691406 361.042969 252.769531 361.246094 252.8125 361.480469 C 252.464844 361.488281 252.109375 361.492188 251.765625 361.5 C 251.242188 361.453125 250.722656 361.402344 250.199219 361.351562 C 249.230469 360.738281 248.128906 360.609375 247.03125 360.433594 C 246.386719 360.03125 245.746094 359.625 244.929688 359.894531 C 243.742188 358.316406 241.359375 358.75 240.207031 357.109375 C 239.117188 357.496094 238.890625 356.195312 238.085938 356.019531 C 235.855469 354.816406 233.621094 353.621094 231.394531 352.417969 C 231.28125 351.429688 230.734375 350.890625 229.730469 350.847656 C 229.128906 350.027344 229.265625 348.515625 227.644531 348.664062 C 226.789062 346.195312 224.589844 344.660156 223.316406 342.480469 C 223.039062 341.640625 222.777344 340.785156 221.886719 340.351562 C 221.816406 338.605469 220.195312 337.679688 219.660156 336.179688 C 219.871094 335.230469 219.566406 334.515625 218.695312 334.0625 C 217.65625 328.84375 218.308594 323.566406 218.222656 318.320312 C 218.144531 318.15625 218.136719 317.988281 218.195312 317.816406 C 218.867188 317.441406 218.746094 317.082031 218.171875 316.734375 C 218.371094 316.386719 218.570312 316.042969 218.769531 315.703125 C 218.25 314.414062 219.425781 313.289062 219.113281 312.023438 C 219.949219 311.082031 219.730469 309.964844 219.652344 308.871094 C 219.722656 307.300781 221.496094 306.683594 221.710938 305.191406 C 221.78125 304.683594 221.851562 304.167969 221.914062 303.65625 C 222.210938 303.457031 222.507812 303.269531 222.804688 303.070312 C 222.800781 302.320312 223.125 301.789062 223.804688 301.476562 C 223.8125 300.4375 224.179688 299.5625 224.933594 298.847656 C 225.480469 298.195312 226.023438 297.546875 226.570312 296.894531 C 226.730469 296.875 226.894531 296.839844 227.058594 296.796875 C 227.3125 296.046875 227.863281 295.699219 228.628906 295.648438 C 228.769531 295.5 228.910156 295.351562 229.050781 295.203125 C 229.066406 294.863281 229.085938 294.519531 229.101562 294.179688 C 228.570312 294.015625 228.640625 293.527344 228.550781 293.140625 C 227.007812 292.609375 228.203125 290.375 226.546875 289.90625 C 226.179688 289.398438 225.820312 288.886719 225.453125 288.378906 C 225.707031 287.050781 224.90625 286.3125 223.929688 285.675781 C 223.9375 285.523438 223.902344 285.371094 223.832031 285.230469 C 224.335938 284.050781 222.542969 283.765625 222.828125 282.671875 L 222.574219 282.636719 L 222.359375 282.65625 C 221.824219 282.421875 221.832031 281.984375 221.9375 281.519531 C 221.722656 281 221.511719 280.492188 221.300781 279.976562 C 220.429688 279.304688 219.6875 278.5625 219.957031 277.308594 C 219.886719 276.253906 218.554688 275.84375 218.625 274.722656 C 218.492188 274.707031 218.351562 274.691406 218.214844 274.671875 C 218.179688 274.332031 218.144531 274 218.101562 273.660156 C 217.386719 273.320312 217.742188 272.640625 217.621094 272.117188 C 217.289062 272.074219 216.957031 272.03125 216.617188 271.992188 C 216.597656 271.496094 216.574219 271.007812 216.554688 270.511719 C 216.265625 270.449219 216.078125 270.3125 216.179688 269.96875 C 216.136719 269.621094 216.09375 269.28125 216.058594 268.933594 C 215.769531 268.871094 215.570312 268.730469 215.632812 268.390625 C 215.019531 267.605469 214.285156 266.882812 214.398438 265.757812 C 213.964844 265.074219 214.136719 264.117188 213.433594 263.546875 C 213.128906 263.582031 212.980469 263.46875 213.082031 263.148438 C 212.867188 262.957031 212.664062 262.773438 212.453125 262.582031 C 212.585938 261.191406 211.992188 260.039062 211.257812 258.933594 C 211.339844 258.503906 211.425781 258.070312 210.886719 257.859375 C 210.894531 257.164062 210.902344 256.480469 210.910156 255.785156 C 210.910156 255.433594 210.910156 255.085938 210.917969 254.730469 C 210.875 254.414062 210.824219 254.097656 210.78125 253.777344 C 209.523438 253.246094 209.839844 252.074219 209.691406 251.089844 C 208.214844 249.753906 208.914062 247.933594 208.644531 246.328125 C 208.722656 245.984375 208.519531 245.8125 208.230469 245.707031 C 207.570312 240.480469 206.773438 235.265625 207.125 229.960938 C 207.21875 228.589844 207.152344 227.203125 207.65625 225.894531 C 207.367188 225.816406 207.160156 225.683594 207.261719 225.335938 C 206.957031 222.230469 207.378906 219.238281 208.695312 216.390625 C 208.738281 216.042969 208.773438 215.695312 208.816406 215.347656 C 209.054688 212.449219 209.253906 209.535156 210.78125 206.933594 C 210.769531 206.585938 210.753906 206.246094 210.746094 205.898438 C 210.804688 205.722656 210.859375 205.546875 210.921875 205.375 C 210.867188 205.03125 210.804688 204.675781 210.746094 204.328125 C 212.105469 202.84375 212.332031 201.011719 212.507812 199.101562 C 212.59375 198.203125 213.136719 197.355469 213.46875 196.476562 C 214.15625 195.53125 214.628906 194.511719 214.4375 193.296875 C 214.636719 192.957031 214.84375 192.617188 215.039062 192.269531 C 215.332031 192.199219 215.554688 192.085938 215.472656 191.726562 C 218.132812 185.535156 221.605469 179.785156 224.976562 173.972656 C 226.03125 172.152344 227.480469 170.578125 228.246094 168.597656 C 228.195312 168.242188 228.402344 168.09375 228.699219 168.023438 C 228.902344 167.691406 229.101562 167.367188 229.308594 167.03125 C 229.285156 166.714844 229.265625 166.394531 229.242188 166.070312 C 229.90625 166 230.28125 165.632812 230.367188 164.96875 C 230.503906 164.960938 230.644531 164.933594 230.769531 164.898438 C 230.984375 164.550781 231.1875 164.210938 231.398438 163.863281 C 231.328125 163.703125 231.300781 163.539062 231.316406 163.363281 C 231.472656 163.292969 231.632812 163.257812 231.804688 163.261719 C 232.445312 162.019531 234.082031 161.648438 234.535156 160.230469 C 234.71875 160.039062 234.894531 159.855469 235.078125 159.664062 C 235.015625 159.316406 235.15625 159.175781 235.503906 159.238281 C 236.074219 158.679688 236.648438 158.113281 237.222656 157.554688 C 237.347656 157.425781 237.476562 157.292969 237.601562 157.164062 C 238.132812 156.628906 238.664062 156.089844 239.1875 155.558594 C 239.527344 155.335938 239.875 155.109375 240.214844 154.882812 C 241.585938 153.984375 242.117188 152.085938 243.925781 151.699219 C 244.246094 151.742188 244.421875 151.636719 244.359375 151.28125 C 244.570312 150.773438 244.777344 150.261719 244.988281 149.761719 C 245.738281 149.789062 246.421875 149.605469 247.039062 149.167969 C 247.242188 148.828125 247.449219 148.488281 247.648438 148.148438 C 247.972656 148.121094 248.289062 148.089844 248.617188 148.0625 C 250.984375 146.65625 253.355469 145.234375 255.992188 144.355469 C 257.4375 144.800781 258.128906 143.453125 259.203125 143.011719 C 265.371094 141.144531 271.476562 138.972656 278.054688 139.117188 C 280.507812 138.917969 282.949219 139.964844 285.417969 139.230469 C 288.125 139.222656 290.851562 139.023438 293.53125 139.257812 C 296.792969 139.539062 300.015625 140.183594 303.261719 140.671875 C 304.488281 141.023438 305.71875 141.378906 306.941406 141.738281 C 307.726562 142.355469 308.609375 142.476562 309.566406 142.269531 C 309.910156 142.3125 310.257812 142.355469 310.605469 142.390625 C 311.738281 142.957031 312.925781 143.34375 314.199219 143.445312 C 314.183594 144.683594 315.140625 144.398438 315.851562 144.503906 C 317.453125 144.757812 319.070312 144.914062 320.578125 145.566406 C 320.761719 145.75 320.9375 145.933594 321.121094 146.109375 C 321.824219 146.097656 322.515625 146.074219 323.214844 146.0625 C 323.246094 146.195312 323.257812 146.328125 323.265625 146.464844 C 325.027344 146.386719 326.285156 147.816406 327.949219 148.042969 C 328.972656 148.273438 329.992188 148.507812 331.019531 148.742188 C 331.125 149.003906 331.300781 149.160156 331.617188 149.082031 C 331.804688 149.265625 331.988281 149.457031 332.171875 149.640625 C 332.511719 149.691406 332.855469 149.738281 333.195312 149.789062 C 335.355469 150.671875 337.597656 151.378906 339.449219 152.871094 C 339.527344 153.164062 339.675781 153.359375 340.015625 153.289062 C 341.289062 153.714844 342.625 153.996094 343.636719 154.972656 C 343.671875 155.121094 343.699219 155.269531 343.722656 155.417969 L 343.976562 155.453125 L 344.222656 155.382812 C 344.734375 155.644531 345.46875 155.257812 345.820312 155.957031 C 345.984375 155.992188 346.148438 156.027344 346.308594 156.070312 C 347.390625 157.457031 349.082031 157.851562 350.511719 158.679688 C 350.886719 159.769531 352.320312 159.707031 352.738281 160.746094 C 352.683594 161.078125 352.796875 161.21875 353.140625 161.121094 C 354.789062 161 355.738281 162.386719 356.367188 163.328125 C 357.542969 165.074219 359.316406 166.058594 360.617188 167.5625 C 360.542969 167.910156 360.683594 168.042969 361.023438 167.980469 C 361.375 168.222656 361.738281 168.453125 362.089844 168.695312 C 362.4375 168.636719 362.578125 168.78125 362.515625 169.125 C 364.148438 170.214844 365.246094 171.792969 366.371094 173.34375 C 366.3125 173.683594 366.460938 173.824219 366.800781 173.789062 C 367.15625 174.019531 367.515625 174.253906 367.867188 174.488281 C 368.222656 174.417969 368.34375 174.578125 368.277344 174.914062 C 368.203125 176.15625 369.808594 176.015625 370.019531 177.019531 C 369.828125 177.828125 370.238281 178.136719 370.972656 178.171875 C 371.1875 178.492188 371.40625 178.808594 371.617188 179.128906 C 371.5625 179.46875 371.75 179.625 372.050781 179.6875 C 372.410156 180.054688 372.769531 180.429688 373.125 180.796875 C 373.46875 180.726562 373.578125 180.890625 373.507812 181.207031 C 373.773438 181.78125 374.042969 182.351562 374.320312 182.917969 C 374.601562 183.507812 375.054688 183.851562 375.734375 183.859375 C 375.785156 184.207031 375.832031 184.554688 375.882812 184.90625 C 375.769531 185.253906 375.980469 185.375 376.257812 185.453125 C 377.523438 187.890625 379.503906 189.957031 380.054688 192.765625 C 380.121094 193.332031 380.53125 193.59375 380.980469 193.824219 C 381.019531 194.003906 381.058594 194.179688 381.09375 194.355469 C 381.039062 194.6875 381.167969 194.832031 381.503906 194.746094 C 383.890625 198.113281 385.855469 201.683594 386.71875 205.714844 C 389.125 203.574219 389.125 200.007812 391.960938 198.148438 C 392.878906 197.546875 393.097656 195.8125 393.53125 194.554688 C 393.75 193.917969 394.109375 193.515625 394.648438 193.203125 C 394.992188 193.265625 395.128906 193.074219 395.171875 192.773438 C 397.328125 189.554688 398.785156 185.847656 401.832031 183.257812 C 401.917969 182.925781 402.011719 182.59375 402.09375 182.269531 C 403.960938 179.773438 405.667969 177.140625 407.867188 174.90625 C 407.789062 174.765625 407.769531 174.617188 407.789062 174.453125 C 407.960938 174.394531 408.121094 174.410156 408.285156 174.488281 C 408.90625 174.027344 409.664062 173.6875 409.785156 172.785156 L 409.980469 172.847656 C 409.925781 172.523438 410.039062 172.34375 410.390625 172.394531 C 411.09375 172 411.515625 171.148438 412.449219 171.128906 C 412.621094 170.980469 412.789062 170.832031 412.960938 170.683594 C 413.15625 170.691406 413.347656 170.695312 413.546875 170.703125 C 413.546875 171.261719 413.503906 171.820312 413.355469 172.332031 C 413.503906 171.8125 413.539062 171.261719 413.546875 170.703125 C 413.347656 170.695312 413.15625 170.691406 412.960938 170.683594 C 413.109375 170.34375 412.910156 169.792969 413.546875 169.769531 C 413.753906 169.550781 413.949219 169.339844 414.15625 169.121094 C 414.296875 168.984375 414.445312 168.851562 414.585938 168.710938 C 416.871094 168.335938 416.984375 165.273438 419.28125 164.910156 C 420.335938 163.84375 421.398438 162.78125 422.453125 161.714844 C 423.144531 160.976562 424.242188 160.679688 424.671875 159.664062 C 424.628906 159.308594 424.792969 159.1875 425.125 159.265625 L 425.070312 159.074219 C 426.046875 159.296875 426.605469 158.566406 427.277344 158.09375 C 427.21875 157.929688 427.210938 157.765625 427.269531 157.597656 C 427.425781 157.578125 427.574219 157.605469 427.714844 157.675781 C 428.988281 157.6875 429.371094 156.359375 430.34375 155.929688 C 430.683594 155.914062 431.015625 155.90625 431.355469 155.894531 C 431.355469 155.757812 431.378906 155.632812 431.40625 155.496094 C 431.929688 155.277344 432.445312 155.058594 432.96875 154.847656 C 432.96875 155.058594 432.976562 155.261719 432.976562 155.476562 C 432.976562 155.261719 432.96875 155.058594 432.96875 154.847656 C 434.539062 154.003906 436.101562 153.15625 437.671875 152.3125 C 437.730469 152.015625 437.878906 151.832031 438.21875 151.925781 C 438.558594 151.882812 438.902344 151.832031 439.242188 151.789062 C 439.425781 151.648438 439.609375 151.515625 439.796875 151.375 C 443.070312 149.457031 446.621094 148.304688 450.328125 147.660156 C 453.496094 147.101562 456.460938 145.65625 459.71875 145.515625 C 459.875 145.671875 460.023438 145.828125 460.179688 145.976562 C 460.207031 145.8125 460.199219 145.65625 460.152344 145.496094 C 460.5625 144.886719 461.242188 144.757812 461.863281 144.539062 C 464.839844 144.1875 467.8125 143.832031 470.789062 143.480469 C 471.382812 143.351562 471.96875 143.210938 472.410156 143.8125 C 478.003906 143.265625 483.480469 144.285156 489.003906 144.894531 C 490.304688 145.035156 491.109375 146.027344 492.320312 146.089844 C 492.84375 146.097656 493.375 146.105469 493.898438 146.109375 C 497.050781 146.34375 499.703125 148.289062 502.808594 148.691406 C 502.992188 149.28125 503.4375 149.179688 503.878906 149.09375 C 506.410156 149.867188 508.515625 151.410156 510.667969 152.867188 C 510.746094 153.148438 510.886719 153.355469 511.226562 153.289062 C 518.460938 155.929688 525.238281 159.378906 531.023438 164.570312 C 531.539062 165.039062 532.027344 165.539062 532.785156 165.574219 C 533.109375 165.511719 533.253906 165.640625 533.195312 165.972656 C 533.394531 166.15625 533.585938 166.332031 533.78125 166.515625 C 533.867188 166.8125 534.023438 167.011719 534.375 166.925781 C 534.519531 166.984375 534.636719 167.0625 534.75 167.152344 C 534.859375 168.523438 536.167969 169.121094 536.953125 169.726562 C 539.652344 171.828125 541.300781 174.863281 543.902344 177.011719 C 543.605469 178.316406 544.238281 179.078125 545.382812 179.546875 C 545.730469 179.757812 546.070312 179.960938 546.414062 180.175781 C 546.429688 180.667969 546.441406 181.171875 546.457031 181.667969 C 546.746094 181.757812 546.9375 181.921875 546.882812 182.261719 C 547.078125 182.742188 547.503906 182.785156 547.9375 182.820312 C 547.902344 183.605469 548.132812 184.296875 548.636719 184.898438 C 548.550781 185.261719 548.707031 185.378906 549.054688 185.308594 C 550.828125 187.777344 552.640625 190.21875 553.304688 193.28125 C 554.046875 193.65625 553.742188 194.300781 553.707031 194.871094 C 554.554688 196.585938 555.488281 198.269531 555.949219 200.148438 C 555.949219 200.148438 555.746094 200.085938 555.746094 200.085938 C 555.75 200.625 555.765625 201.167969 555.773438 201.707031 C 557.054688 202.40625 555.625 204.5 557.429688 204.929688 C 557.117188 207.363281 558.511719 209.402344 558.984375 211.65625 C 557.886719 212.605469 559.070312 212.824219 559.507812 213.277344 C 559.527344 216.730469 560.242188 220.136719 560.398438 223.546875 C 560.5625 227.777344 561.28125 232.175781 559.550781 236.347656 Z M 433.28125 156.296875 C 433.28125 156.359375 433.28125 156.429688 433.265625 156.492188 C 433.28125 156.429688 433.289062 156.359375 433.28125 156.296875 Z M 433.019531 155.554688 C 433.152344 155.792969 433.257812 156.035156 433.273438 156.269531 C 433.257812 156.035156 433.152344 155.792969 433.019531 155.554688 Z M 436.117188 378.746094 C 436.046875 378.554688 435.953125 378.390625 435.847656 378.257812 C 435.960938 378.390625 436.046875 378.554688 436.117188 378.746094 C 435.777344 378.695312 435.429688 378.644531 435.089844 378.597656 C 434.886719 378.277344 434.6875 377.96875 434.484375 377.648438 C 434.339844 377.648438 434.191406 377.632812 434.050781 377.613281 C 434.015625 376.921875 433.820312 376.417969 432.960938 376.6875 C 431.808594 374.933594 429.292969 375.1875 428.144531 373.417969 C 428.210938 373.078125 428.054688 372.953125 427.726562 373 C 427.542969 372.917969 427.359375 372.832031 427.175781 372.738281 C 426.871094 372.804688 426.753906 372.699219 426.84375 372.394531 C 426.433594 372.003906 426.015625 371.621094 425.605469 371.234375 C 425.265625 371.289062 425.125 371.148438 425.175781 370.808594 C 424.652344 370.136719 423.988281 369.640625 423.320312 369.113281 C 421.597656 367.730469 420.019531 366.167969 419.253906 363.992188 C 418.492188 362.597656 418.320312 361.296875 419.804688 360.234375 C 419.769531 359.867188 420.65625 359.511719 419.820312 359.136719 C 419.472656 359.222656 419.339844 359.011719 419.246094 358.742188 C 418.914062 358.410156 418.582031 358.070312 418.25 357.738281 C 417.691406 357.605469 417.003906 357.835938 416.628906 357.171875 C 415.570312 355.8125 413.460938 356.378906 412.457031 354.910156 C 412.046875 354.980469 411.617188 355.113281 411.410156 354.570312 C 410.292969 354.582031 409.847656 353.671875 409.226562 353 C 404.917969 351.691406 400.824219 350.007812 397.03125 347.453125 C 395.03125 346.101562 392.382812 345.820312 389.910156 345.53125 C 389.726562 345 389.238281 345.121094 388.847656 345.042969 C 385.839844 343.628906 382.898438 341.957031 380.246094 340.097656 C 377.53125 338.195312 375.34375 335.367188 373.484375 332.457031 C 373.546875 332.132812 373.464844 331.941406 373.082031 332.035156 C 372.898438 331.96875 372.722656 331.914062 372.535156 331.851562 C 372.191406 331.886719 372.070312 331.722656 372.132812 331.390625 L 371.949219 331.445312 C 372.175781 330.585938 371.667969 330.144531 370.988281 329.804688 C 368.058594 326.339844 364.488281 323.519531 361.355469 320.257812 C 359.925781 318.773438 358.914062 316.882812 357.71875 315.1875 C 357.5625 315.207031 357.429688 315.164062 357.308594 315.058594 C 356.976562 315.09375 356.820312 314.96875 356.90625 314.621094 C 356.664062 314.089844 356.425781 313.566406 356.183594 313.035156 C 356.59375 311.980469 356.996094 310.929688 357.40625 309.875 C 357.359375 309.542969 357.484375 309.386719 357.832031 309.464844 C 358.886719 308.804688 359.261719 308.042969 358.417969 306.890625 C 358.066406 306.410156 357.625 305.445312 357.230469 305.871094 C 356.289062 306.875 354.824219 306.789062 353.964844 307.738281 C 353.015625 308.777344 354.683594 309.097656 354.648438 309.9375 C 354.621094 310.539062 354.796875 311.167969 354.160156 311.570312 C 353.523438 311.558594 353.304688 312.082031 352.992188 312.484375 C 353.066406 312.816406 352.945312 312.972656 352.589844 312.914062 C 352.414062 312.988281 352.238281 313.058594 352.058594 313.128906 C 351.628906 313.035156 351.203125 312.949219 350.984375 313.488281 C 349.9375 314.257812 348.890625 315.023438 347.84375 315.792969 C 347.492188 315.6875 347.378906 315.828125 347.449219 316.167969 C 347.238281 316.375 347.023438 316.585938 346.804688 316.792969 C 346.628906 316.726562 346.453125 316.664062 346.273438 316.601562 C 345.90625 316.976562 345.53125 317.351562 345.164062 317.726562 C 345 317.734375 344.847656 317.773438 344.699219 317.839844 C 344.359375 317.773438 344.179688 317.9375 344.125 318.257812 C 343.792969 318.46875 343.464844 318.6875 343.132812 318.898438 C 342.703125 318.820312 342.269531 318.730469 342.058594 319.265625 C 341.910156 319.300781 341.761719 319.324219 341.605469 319.34375 C 341.238281 319.71875 340.878906 320.085938 340.511719 320.460938 C 340.070312 320.363281 339.648438 320.308594 339.433594 320.84375 C 339.089844 321.070312 338.742188 321.296875 338.402344 321.523438 C 338.0625 321.460938 337.898438 321.628906 337.835938 321.941406 C 336.28125 322.789062 334.71875 323.644531 333.160156 324.496094 C 332.445312 324.863281 332.023438 325.71875 331.089844 325.710938 C 331.058594 325.65625 331.03125 325.597656 330.996094 325.542969 C 331.023438 325.597656 331.054688 325.65625 331.089844 325.710938 C 330.386719 326.050781 329.679688 326.390625 328.980469 326.730469 C 328.640625 327.070312 328.308594 327.414062 327.96875 327.753906 C 327.078125 328.277344 326.460938 329.261719 325.308594 329.367188 C 323.65625 329.558594 323.335938 331.792969 321.574219 331.820312 L 321.640625 332.019531 C 320.824219 331.878906 320.054688 331.816406 319.992188 332.976562 C 319.835938 332.980469 319.679688 333.011719 319.53125 333.054688 C 319.023438 333.78125 318.179688 333.851562 317.4375 334.128906 C 315.78125 335.457031 314.054688 336.675781 312.152344 337.621094 C 311.25 337.707031 310.746094 338.472656 310.054688 338.910156 C 309.722656 338.867188 309.386719 338.832031 309.0625 338.789062 C 308.816406 339.40625 307.710938 339.320312 307.851562 340.253906 C 307.542969 340.296875 307.230469 340.34375 306.917969 340.386719 C 306.898438 340.523438 306.882812 340.65625 306.871094 340.796875 C 306.007812 341.199219 305.136719 341.605469 304.273438 342.015625 C 303.949219 341.9375 303.785156 342.105469 303.679688 342.367188 C 303.292969 342.4375 302.839844 342.402344 302.683594 342.914062 C 301.464844 343.289062 300.25 343.664062 299.039062 344.042969 C 296.535156 346.03125 293.453125 346.867188 290.652344 348.28125 C 290.480469 348.804688 290 348.742188 289.597656 348.824219 C 288.683594 350.085938 287.113281 350.148438 285.898438 350.855469 C 285.871094 350.988281 285.855469 351.125 285.847656 351.257812 C 285.664062 351.292969 285.480469 351.328125 285.296875 351.363281 C 285.496094 351.570312 285.695312 351.773438 285.898438 351.980469 C 286.046875 352.519531 286.507812 352.410156 286.890625 352.460938 C 287.589844 353.148438 287.453125 354.78125 289.089844 354.40625 L 289.023438 354.605469 C 289.371094 354.5625 289.535156 354.703125 289.492188 355.0625 C 291.550781 357.722656 294.414062 359.40625 297.039062 361.378906 C 296.96875 361.714844 297.09375 361.847656 297.433594 361.785156 C 298.023438 362.355469 298.609375 362.921875 299.195312 363.496094 C 299.109375 363.800781 299.222656 363.914062 299.527344 363.84375 C 299.847656 363.960938 300.277344 363.992188 300.453125 364.21875 C 303.066406 367.554688 306.84375 369.410156 310.125 371.882812 C 309.976562 372.683594 310.257812 373.042969 311.101562 372.851562 C 312.375 374.988281 315.289062 375.320312 316.398438 377.640625 C 316.574219 377.777344 316.75 377.917969 316.933594 378.050781 C 319.511719 379.261719 320.351562 382.445312 323.089844 383.46875 C 323.152344 384.148438 323.492188 384.542969 324.199219 384.566406 C 324.554688 385.066406 324.90625 385.570312 325.261719 386.074219 C 325.566406 387.933594 326.949219 388.082031 328.429688 388.074219 C 329.15625 388.433594 329.03125 389.566406 329.941406 389.765625 C 330.035156 390.039062 330.175781 390.246094 330.515625 390.1875 C 331.074219 390.570312 331.640625 390.953125 332.199219 391.328125 C 332.140625 391.667969 332.269531 391.808594 332.617188 391.730469 C 333.125 392.128906 333.636719 392.523438 334.152344 392.914062 C 334.222656 393.578125 334.421875 394.101562 335.261719 393.875 C 335.996094 394.554688 336.289062 395.648438 337.304688 396.058594 C 337.417969 397.382812 338.339844 397.660156 339.441406 397.679688 C 339.578125 399.417969 341.746094 399.335938 342.214844 400.777344 C 342.128906 401.117188 342.269531 401.246094 342.605469 401.195312 C 342.789062 401.265625 342.972656 401.34375 343.148438 401.414062 C 343.480469 401.34375 343.613281 401.484375 343.558594 401.808594 C 344.160156 403.386719 345.957031 403.304688 347.015625 404.320312 C 350.234375 407.414062 353.574219 410.367188 356.871094 413.382812 C 356.835938 413.707031 356.960938 413.863281 357.300781 413.792969 C 357.507812 414.003906 357.71875 414.214844 357.925781 414.4375 C 357.902344 414.773438 358.042969 414.917969 358.390625 414.816406 L 358.339844 415.03125 C 358.722656 414.964844 358.816406 415.171875 358.773438 415.503906 L 358.972656 415.449219 C 358.6875 416.839844 359.855469 416.332031 360.449219 416.578125 C 361.320312 417.265625 362.1875 417.949219 363.058594 418.644531 C 363.128906 419.296875 363.414062 419.71875 364.140625 419.699219 C 365.429688 421.777344 367.726562 422.738281 369.375 424.414062 C 369.898438 425.195312 370.351562 426.070312 371.519531 425.929688 L 371.574219 425.949219 C 371.414062 427.117188 372.289062 427.59375 373.046875 428.144531 C 373.167969 429.761719 374.886719 429.769531 375.65625 430.726562 C 376.355469 433.5625 377.015625 430.804688 377.691406 430.710938 C 379.714844 430.421875 379.785156 427.527344 381.992188 427.472656 C 382.820312 427.300781 383.175781 426.621094 383.597656 426.015625 C 385.167969 425.222656 386.441406 424.191406 386.648438 422.28125 L 386.839844 422.335938 C 386.769531 422.003906 386.867188 421.828125 387.234375 421.90625 C 388.132812 421.742188 388.753906 421.304688 388.867188 420.328125 C 389.574219 420.230469 390.171875 419.980469 390.269531 419.152344 C 390.664062 418.785156 391.054688 418.410156 391.449219 418.042969 C 392.234375 418.191406 392.496094 417.753906 392.546875 417.074219 C 394.484375 415.667969 396.429688 414.257812 398.367188 412.851562 C 398.347656 412.546875 398.445312 412.371094 398.792969 412.476562 C 399.519531 412.40625 399.917969 412.003906 399.980469 411.273438 C 399.902344 410.933594 400.03125 410.808594 400.371094 410.886719 C 401.042969 410.757812 401.566406 410.539062 402.136719 410.007812 C 404.628906 407.679688 407.25 405.503906 409.832031 403.273438 C 410.625 403.105469 411.050781 402.558594 411.296875 401.832031 C 411.785156 401.179688 412.78125 401.109375 413.085938 400.253906 C 413.023438 399.90625 413.144531 399.753906 413.503906 399.867188 C 415.195312 398.316406 417.492188 397.511719 418.832031 395.53125 C 418.800781 395.203125 418.945312 395.046875 419.28125 395.097656 C 420.328125 394.1875 421.382812 393.273438 422.429688 392.355469 C 422.628906 392.488281 422.804688 392.539062 422.945312 392.515625 C 422.796875 392.53125 422.628906 392.480469 422.429688 392.355469 C 422.648438 391.867188 423.054688 391.867188 423.492188 391.949219 C 424.007812 391.546875 424.523438 391.144531 425.039062 390.742188 C 425.386719 390.386719 425.734375 390.035156 426.085938 389.671875 C 426.425781 389.339844 426.765625 389.015625 427.113281 388.683594 C 427.207031 388.40625 427.347656 388.195312 427.6875 388.265625 C 429.964844 386.285156 432.242188 384.304688 434.519531 382.324219 C 435.359375 381.226562 437.984375 380.996094 436.117188 378.746094 Z M 322.121094 285.839844 C 322.105469 285.980469 322.089844 286.128906 322.089844 286.265625 C 322.089844 286.128906 322.105469 285.988281 322.121094 285.839844 C 322.132812 285.699219 322.148438 285.550781 322.148438 285.414062 C 322.15625 285.558594 322.140625 285.699219 322.121094 285.839844 Z M 339.433594 317.386719 C 339.582031 317.328125 339.726562 317.308594 339.851562 317.320312 C 339.71875 317.308594 339.582031 317.328125 339.433594 317.386719 Z M 340.714844 317.988281 C 340.546875 317.761719 340.382812 317.589844 340.234375 317.476562 C 340.382812 317.589844 340.539062 317.769531 340.714844 317.988281 Z M 362.515625 311.480469 C 362.195312 311.453125 361.878906 311.421875 361.558594 311.402344 C 360.535156 310.417969 359.253906 311.472656 359.089844 311.832031 C 358.730469 312.640625 359.664062 313 360.46875 313.070312 C 360.433594 313.800781 360.5625 314.484375 361.027344 315.074219 C 361.957031 315.085938 362.261719 315.746094 362.710938 316.429688 C 363.84375 318.148438 365.097656 319.796875 366.894531 320.914062 C 366.835938 321.242188 366.96875 321.382812 367.296875 321.332031 C 368.003906 322.109375 368.71875 322.882812 369.425781 323.660156 C 369.558594 323.589844 369.699219 323.5625 369.847656 323.566406 C 369.898438 323.730469 369.890625 323.894531 369.828125 324.046875 C 370.046875 324.570312 370.507812 324.59375 370.964844 324.609375 C 371.207031 324.945312 371.449219 325.285156 371.679688 325.625 C 371.757812 326.460938 372.347656 326.671875 373.046875 326.75 C 374.703125 328.816406 376.355469 330.882812 378.011719 332.953125 C 378.359375 333.390625 378.832031 333.535156 379.363281 333.546875 C 379.425781 334.480469 379.335938 335.527344 380.742188 335.515625 C 380.804688 335.59375 380.863281 335.664062 380.925781 335.734375 C 381.128906 335.832031 381.34375 335.929688 381.546875 336.03125 L 381.355469 336.117188 C 381.421875 337.042969 382.199219 337.542969 382.628906 338.25 C 382.558594 338.589844 382.6875 338.726562 383.027344 338.660156 C 384.195312 338.980469 384.816406 340.367188 386.195312 340.28125 C 386.363281 340.34375 386.535156 340.410156 386.699219 340.472656 C 387.816406 341.746094 389.597656 341.609375 390.914062 342.46875 C 392.015625 343.335938 393.425781 343.421875 394.667969 343.929688 C 395.171875 343.929688 395.671875 343.9375 396.175781 343.9375 C 396.523438 344.152344 396.867188 344.363281 397.214844 344.566406 C 398.296875 345.417969 399.988281 344.871094 400.878906 346.160156 C 401.558594 347.007812 402.804688 346.433594 403.503906 347.21875 C 406.078125 349.109375 409.480469 349.292969 411.96875 351.351562 C 412.804688 351.394531 413.476562 351.773438 414.050781 352.355469 C 414.59375 352.523438 415.320312 352.164062 415.660156 352.914062 C 415.832031 352.921875 415.988281 352.96875 416.136719 353.042969 C 416.496094 352.992188 416.609375 353.15625 416.53125 353.492188 L 416.722656 353.4375 C 416.546875 354.265625 416.84375 354.617188 417.699219 354.433594 C 418.34375 354.476562 418.746094 354.929688 419.261719 355.25 C 421.859375 356.859375 424.4375 359.074219 427.558594 356.175781 C 427.769531 356.160156 427.976562 356.144531 428.175781 356.109375 C 428.308594 356.089844 428.4375 356.070312 428.554688 356.035156 C 428.4375 356.070312 428.308594 356.089844 428.175781 356.109375 C 427.976562 356.140625 427.769531 356.160156 427.558594 356.175781 C 427.699219 355.933594 427.839844 355.695312 427.988281 355.453125 C 428.542969 355.058594 428.9375 354.378906 429.765625 354.464844 C 429.78125 353.976562 429.792969 353.480469 429.800781 352.992188 C 431.867188 352.25 431.832031 349.460938 433.929688 348.746094 C 434.085938 348.0625 434.292969 347.417969 435.015625 347.105469 C 435.777344 345.324219 437.644531 344.3125 438.273438 342.4375 C 438.273438 341.914062 438.273438 341.386719 438.273438 340.863281 C 437.863281 339.765625 439.492188 338.9375 438.683594 337.785156 C 437.949219 337.722656 437.382812 337.417969 437.128906 336.675781 C 436.773438 336.339844 436.414062 336.007812 436.058594 335.675781 C 435.007812 335.210938 434.042969 334.621094 433.421875 333.597656 C 432.90625 333.539062 432.398438 333.476562 431.878906 333.421875 C 431.683594 332.996094 431.386719 332.753906 431.039062 332.613281 C 431.386719 332.753906 431.683594 332.988281 431.878906 333.421875 C 431.273438 333.6875 430.832031 333.160156 430.304688 333.09375 C 430.027344 332.953125 429.78125 332.796875 429.894531 332.421875 L 429.703125 332.488281 C 430.195312 330.738281 428.867188 329.617188 428.265625 328.234375 C 428.210938 328.066406 428.214844 327.898438 428.292969 327.734375 C 428.238281 327.378906 428.1875 327.035156 428.132812 326.679688 C 428.4375 325.378906 427.65625 324.65625 426.710938 324.019531 C 426.652344 323.503906 426.589844 322.996094 426.53125 322.476562 C 425.160156 318.636719 422.238281 315.859375 419.800781 312.761719 C 418.152344 310.667969 415.882812 309.175781 414.480469 306.761719 C 413.15625 304.484375 411.296875 302.519531 409.585938 300.480469 C 409.167969 299.984375 408.722656 298.9375 407.734375 299.660156 C 406.933594 300.242188 407.378906 300.960938 407.511719 301.753906 C 408.035156 304.796875 409.535156 307.378906 411.140625 309.902344 C 412.273438 311.679688 413.335938 313.433594 413.058594 315.652344 C 413.058594 316.351562 413.050781 317.054688 413.050781 317.753906 C 412.371094 320.230469 410.816406 320.265625 408.949219 319.152344 C 408.371094 318.808594 407.9375 318.21875 407.1875 318.179688 C 406.839844 318.257812 406.691406 318.066406 406.621094 317.761719 C 405.757812 317.230469 404.902344 316.707031 404.039062 316.175781 C 403.871094 315.992188 403.699219 315.808594 403.523438 315.625 C 403.171875 315.117188 402.808594 314.605469 402.457031 314.097656 C 402.167969 314.035156 401.96875 313.890625 402.019531 313.550781 C 398.140625 311.261719 395.6875 307.363281 392.058594 304.761719 C 390.660156 303.757812 389.152344 302.644531 388.375 300.949219 C 388.308594 300.800781 388.273438 300.644531 388.265625 300.480469 C 387.582031 300.070312 386.703125 299.851562 386.621094 298.839844 C 386.667969 298.515625 386.542969 298.359375 386.203125 298.402344 C 385.671875 297.992188 385.148438 297.589844 384.617188 297.179688 C 384.589844 297.121094 384.554688 297.066406 384.527344 297.015625 C 384.425781 296.867188 384.335938 296.746094 384.234375 296.65625 C 384.335938 296.746094 384.425781 296.867188 384.527344 297.015625 C 384.5625 297.066406 384.589844 297.121094 384.617188 297.179688 C 384.085938 297.164062 383.5625 297.15625 383.035156 297.144531 C 382.699219 297.191406 382.367188 297.234375 382.035156 297.285156 C 381.617188 297.914062 381.230469 298.5625 380.410156 298.75 C 380.253906 298.953125 380.097656 299.160156 379.941406 299.363281 C 381.824219 300.96875 383.039062 303.226562 385.128906 304.625 C 385.183594 304.921875 385.324219 305.113281 385.664062 305.070312 C 386.054688 305.445312 386.441406 305.828125 386.832031 306.203125 C 386.761719 306.550781 386.886719 306.683594 387.242188 306.597656 C 387.808594 306.988281 388.375 307.378906 388.941406 307.765625 C 389.101562 308.585938 389.660156 309.011719 390.402344 309.265625 C 391.945312 310.40625 392.320312 312.5625 394.089844 313.503906 C 394.386719 313.574219 394.589844 313.714844 394.511719 314.0625 C 394.507812 314.761719 394.5 315.460938 394.5 316.164062 C 394.320312 318.066406 393.347656 317.203125 392.484375 316.75 C 392.199219 316.65625 391.988281 316.515625 392.058594 316.164062 C 392.15625 316.164062 392.257812 316.164062 392.355469 316.164062 C 392.257812 316.164062 392.15625 316.164062 392.058594 316.164062 C 391.894531 315.582031 391.332031 315.675781 390.933594 315.496094 C 390.234375 315.269531 389.835938 314.839844 389.972656 314.0625 C 389.238281 312.398438 387.296875 311.683594 386.710938 309.902344 C 385.925781 309.875 385.140625 309.847656 384.765625 308.960938 C 384.71875 308.574219 384.660156 308.183594 384.609375 307.792969 C 384.09375 307.589844 383.585938 307.378906 383.070312 307.171875 C 383.054688 307.039062 383.039062 306.894531 383.027344 306.761719 C 382.539062 306.558594 382.058594 306.351562 381.570312 306.148438 C 380.804688 304.625 379.703125 303.402344 378.316406 302.417969 C 378.132812 302.285156 377.953125 302.148438 377.769531 302.007812 C 377.953125 302.144531 378.132812 302.277344 378.316406 302.417969 C 377.976562 302.484375 377.84375 302.292969 377.765625 302.007812 C 377.097656 301.691406 376.738281 301.167969 376.695312 300.425781 C 376.011719 300.453125 375.367188 299.816406 374.652344 300.304688 C 374.296875 300.3125 373.953125 300.3125 373.597656 300.320312 C 372.488281 300.140625 371.828125 300.953125 371.023438 301.464844 C 370.964844 301.621094 370.953125 301.78125 370.988281 301.953125 C 371.695312 302.6875 372.0625 303.742188 373.074219 304.195312 C 374.253906 304.71875 374.933594 305.777344 375.753906 306.691406 C 375.917969 306.859375 376.082031 307.03125 376.242188 307.199219 C 376.914062 307.25 377.429688 307.441406 377.191406 308.289062 C 377.582031 308.621094 377.960938 308.949219 378.351562 309.28125 C 379.109375 309.273438 379.53125 309.550781 379.300781 310.390625 C 379.894531 310.851562 380.496094 311.308594 381.089844 311.769531 C 383.148438 313.472656 384.496094 315.90625 386.9375 317.265625 C 387.828125 317.761719 388.832031 318.554688 388.917969 319.847656 C 388.855469 320.003906 388.820312 320.160156 388.8125 320.328125 C 388.324219 320.535156 388.308594 320.738281 388.8125 320.9375 C 388.832031 321.085938 388.832031 321.226562 388.804688 321.375 C 388.636719 321.402344 388.464844 321.453125 388.304688 321.515625 C 387.871094 321.4375 387.445312 321.359375 387.234375 321.898438 C 385.390625 320.414062 383.527344 318.957031 381.992188 317.136719 C 381.652344 317.1875 381.503906 317.046875 381.554688 316.699219 C 381.003906 316.132812 380.445312 315.566406 379.894531 314.996094 C 379.554688 315.074219 379.417969 314.945312 379.496094 314.597656 C 376.046875 310.617188 371.632812 307.597656 368.335938 303.453125 C 367.988281 303.5 367.867188 303.339844 367.898438 303.011719 C 365.519531 301.832031 363.652344 303.855469 361.488281 304.011719 C 361.007812 304.144531 360.527344 304.273438 360.046875 304.40625 C 360.46875 305.382812 360.71875 306.515625 362.027344 306.746094 C 361.828125 308.054688 363.214844 308.078125 363.71875 308.8125 C 363.660156 309.152344 363.757812 309.308594 364.128906 309.1875 C 364.3125 309.238281 364.488281 309.289062 364.671875 309.335938 C 364.714844 309.632812 364.847656 309.824219 365.179688 309.769531 C 366.085938 309.667969 366.148438 310.671875 366.742188 310.96875 C 366.96875 311.542969 367.429688 311.375 367.855469 311.316406 L 367.789062 311.507812 C 367.988281 311.664062 368.1875 311.8125 368.386719 311.96875 C 368.570312 312.128906 368.761719 312.300781 368.945312 312.464844 C 368.910156 312.808594 369.058594 312.964844 369.402344 312.902344 L 369.355469 313.097656 C 369.699219 313.058594 369.84375 313.21875 369.800781 313.558594 L 369.996094 313.503906 C 369.957031 313.828125 370.074219 313.996094 370.421875 313.96875 C 370.632812 314.175781 370.847656 314.378906 371.058594 314.585938 C 371.003906 314.9375 371.164062 315.066406 371.496094 315.007812 C 372.898438 316.609375 374.296875 318.199219 375.699219 319.796875 C 376.25 320.160156 376.800781 320.519531 377.355469 320.878906 C 377.253906 321.976562 377.722656 322.5 378.839844 322.378906 C 378.980469 322.449219 379.128906 322.476562 379.292969 322.484375 C 379.554688 324.078125 380.976562 324.707031 381.957031 325.695312 C 382.101562 327.746094 381.695312 329.0625 379.277344 327.699219 C 379.339844 327.34375 379.1875 327.21875 378.847656 327.273438 C 378.699219 327.203125 378.542969 327.160156 378.378906 327.152344 C 378.402344 326.398438 378.011719 326.066406 377.28125 326.085938 C 376.398438 325.058594 375.515625 324.027344 374.636719 323 C 372.671875 321.574219 371.15625 319.734375 369.828125 317.726562 C 369.890625 317.378906 369.75 317.230469 369.402344 317.300781 C 368.722656 316.90625 368.152344 316.410156 367.789062 315.695312 C 367.003906 315.714844 366.46875 315.414062 366.355469 314.578125 C 365.265625 313.671875 364.175781 312.765625 363.085938 311.863281 C 362.761719 311.960938 362.613281 311.753906 362.515625 311.480469 Z M 388.988281 300.261719 C 388.976562 300.15625 388.925781 300.027344 388.847656 299.894531 C 388.933594 300.027344 388.976562 300.15625 388.988281 300.261719 Z M 388.691406 298.699219 C 388.605469 298.4375 388.488281 298.183594 388.375 297.933594 C 388.492188 298.191406 388.605469 298.445312 388.691406 298.699219 C 388.789062 298.996094 388.863281 299.308594 388.863281 299.640625 C 388.863281 299.3125 388.796875 299.003906 388.691406 298.699219 Z M 387.792969 296.238281 C 387.730469 296.144531 387.679688 296.058594 387.644531 295.96875 C 387.679688 296.058594 387.730469 296.152344 387.792969 296.238281 Z M 520.542969 388.9375 C 520.542969 388.929688 520.542969 388.921875 520.542969 388.917969 C 520.542969 388.921875 520.542969 388.929688 520.542969 388.9375 Z M 521.015625 389.914062 C 520.988281 389.871094 520.964844 389.828125 520.9375 389.792969 C 520.964844 389.828125 520.988281 389.871094 521.015625 389.914062 Z M 555.800781 234.21875 C 555.851562 233.703125 555.898438 233.179688 555.949219 232.664062 C 556.683594 229.164062 555.519531 225.660156 555.949219 222.160156 C 555.949219 221.105469 555.941406 220.058594 555.941406 219.007812 C 555.007812 217.917969 556.148438 216.472656 555.320312 215.371094 C 555.039062 215.292969 554.832031 215.160156 554.910156 214.8125 C 553.933594 211.507812 553.765625 207.992188 552.265625 204.824219 C 552.082031 203.601562 552.34375 202.3125 551.777344 201.148438 C 551.378906 200.101562 550.984375 199.054688 550.589844 198.007812 C 550.136719 197.773438 550.070312 197.398438 550.179688 196.945312 C 550.363281 195.792969 549.5625 195.097656 548.949219 194.320312 C 549.101562 193.820312 548.996094 193.414062 548.5 193.152344 L 548.261719 193.210938 L 548.011719 193.183594 C 548.050781 192.90625 548.085938 192.625 548.121094 192.339844 C 546.484375 189.519531 544.859375 186.703125 543.226562 183.882812 C 543.0625 183.875 542.898438 183.847656 542.746094 183.804688 C 542.714844 183.625 542.730469 183.457031 542.785156 183.292969 C 542.59375 183.117188 542.40625 182.933594 542.214844 182.757812 C 542.390625 181.632812 540.890625 181.257812 541.054688 180.140625 C 541.28125 179.304688 540.777344 179.105469 540.105469 179.050781 C 539.03125 177.839844 537.960938 176.636719 536.886719 175.429688 C 536.71875 175.273438 536.554688 175.117188 536.386719 174.960938 C 533.9375 172.796875 531.496094 170.632812 529.050781 168.46875 C 528.703125 168.546875 528.570312 168.40625 528.632812 168.058594 C 525.429688 166.226562 523.160156 163.070312 519.621094 161.707031 C 519.234375 161 518.609375 161.234375 518.03125 161.304688 C 516.609375 161.164062 516.015625 159.257812 514.375 159.59375 C 514.15625 159.082031 513.75 159.082031 513.300781 159.195312 C 511.757812 158.460938 510.214844 157.726562 508.671875 156.988281 C 508.582031 156.691406 508.398438 156.523438 508.066406 156.585938 C 507.285156 155.96875 506.613281 155.144531 505.441406 155.40625 C 505.042969 154.734375 504.902344 153.8125 503.847656 153.777344 C 503.488281 153.777344 503.128906 153.777344 502.765625 153.777344 C 502.765625 153.777344 502.824219 153.953125 502.824219 153.953125 C 502.433594 153.8125 501.890625 153.976562 501.726562 153.390625 C 498.445312 151.324219 494.597656 150.941406 491.019531 149.765625 C 490.390625 149.761719 489.765625 149.761719 489.136719 149.753906 C 485.917969 148.550781 482.574219 148.089844 479.164062 148 C 478.363281 148.226562 477.671875 148.046875 477.0625 147.496094 C 476.546875 147.6875 476.152344 148.269531 475.492188 147.964844 C 475.140625 147.976562 474.792969 147.984375 474.4375 148 C 474.09375 148.054688 473.738281 148.121094 473.390625 148.175781 C 473.039062 148.175781 472.691406 148.175781 472.339844 148.175781 C 469.53125 148.261719 466.679688 147.519531 463.9375 148.671875 C 462.867188 148.464844 462.046875 148.945312 461.277344 149.605469 C 460.242188 149.910156 459.054688 149.203125 458.121094 150.105469 C 457.351562 150.105469 456.648438 150.296875 456.050781 150.808594 C 453.59375 151.332031 451.140625 151.859375 448.6875 152.382812 C 448.347656 152.320312 448.191406 152.503906 448.121094 152.800781 C 447.789062 153 447.457031 153.199219 447.121094 153.394531 C 445.433594 153.855469 443.464844 153.65625 442.328125 155.417969 C 441.824219 155.460938 441.316406 155.503906 440.8125 155.539062 C 440.46875 155.460938 440.3125 155.652344 440.226562 155.949219 C 440.058594 156.089844 439.894531 156.230469 439.722656 156.378906 C 438.980469 156.410156 438.5 156.839844 438.148438 157.449219 C 437.476562 157.710938 436.585938 157.1875 436.074219 158.027344 C 435.316406 158.027344 434.792969 158.382812 434.492188 159.070312 C 434.109375 159.167969 433.628906 159.039062 433.429688 159.550781 C 432.75 159.691406 431.71875 159.386719 431.964844 160.703125 C 431.765625 160.902344 431.570312 161.105469 431.371094 161.304688 C 430.601562 161.21875 429.757812 161 429.738281 162.214844 C 428.972656 162.230469 428.4375 162.589844 428.117188 163.285156 C 426.398438 163.964844 425.351562 165.46875 424 166.609375 C 423.667969 166.488281 423.519531 166.664062 423.421875 166.925781 C 422.691406 166.917969 422.375 167.316406 422.367188 168.023438 C 422.042969 168.222656 421.714844 168.425781 421.390625 168.625 C 420.867188 169.132812 420.335938 169.644531 419.8125 170.152344 C 419.777344 170.28125 419.757812 170.40625 419.757812 170.535156 C 419.261719 170.597656 418.757812 170.667969 418.265625 170.730469 C 418.238281 171.738281 417.734375 172.265625 416.714844 172.265625 C 416.554688 172.613281 416.390625 172.953125 416.226562 173.300781 C 416.128906 173.421875 416.085938 173.554688 416.101562 173.710938 C 415.238281 174.050781 414.121094 174.054688 413.964844 175.324219 C 413.292969 175.535156 412.628906 175.753906 411.957031 175.964844 C 411.933594 176.136719 411.96875 176.296875 412.046875 176.445312 C 411.957031 177.5 410.886719 177.601562 410.34375 178.207031 C 410.046875 178.109375 409.933594 178.214844 410.015625 178.519531 C 409.953125 178.695312 409.890625 178.867188 409.832031 179.042969 C 409.53125 179.101562 409.34375 179.242188 409.394531 179.582031 C 409.097656 180.308594 408.15625 180.675781 408.242188 181.625 C 407.238281 181.714844 406.671875 182.210938 406.691406 183.273438 C 404.484375 184.085938 404.375 186.5625 402.945312 187.996094 C 402.257812 188.289062 401.988281 188.847656 401.960938 189.546875 C 401.671875 189.609375 401.480469 189.746094 401.535156 190.078125 C 400.730469 190.777344 399.535156 191.230469 399.847656 192.664062 C 398.085938 194.328125 396.699219 196.257812 395.75 198.492188 C 395.539062 198.828125 395.328125 199.160156 395.121094 199.492188 C 393.847656 199.648438 393.796875 200.722656 393.515625 201.628906 C 392.5625 202.015625 392.460938 202.824219 392.496094 203.699219 C 392.230469 203.785156 392.015625 203.910156 392.109375 204.25 C 390.488281 206.488281 390.375 209.386719 388.855469 211.664062 C 388.707031 212.355469 389.207031 213.207031 388.378906 213.742188 C 388.332031 214.261719 388.28125 214.785156 388.230469 215.300781 C 388.042969 217.34375 386.980469 217.101562 385.691406 216.261719 C 385.027344 216.175781 385.21875 215.710938 385.253906 215.308594 C 385.261719 215.117188 385.277344 214.925781 385.28125 214.734375 L 385.089844 214.796875 C 385.539062 214 384.441406 213.441406 384.753906 212.65625 C 384.539062 212.144531 384.050781 212.152344 383.621094 212.066406 C 383.613281 211.933594 383.613281 211.796875 383.613281 211.671875 C 384.101562 211.453125 384.136719 211.042969 384.074219 210.589844 C 383.902344 210.582031 383.746094 210.609375 383.59375 210.679688 C 382.695312 210.085938 383.222656 209.222656 383.175781 208.46875 C 383.125 207.597656 383.070312 206.726562 383.019531 205.855469 C 382.339844 205.261719 382.277344 204.40625 381.964844 203.628906 C 381.5 202.453125 381.578125 201.183594 380.761719 200.035156 C 378.589844 196.988281 376.746094 193.710938 374.609375 190.636719 C 372.339844 187.359375 370.484375 183.753906 367.34375 181.136719 C 367.386719 180.054688 366.371094 180.019531 365.78125 179.550781 C 365.738281 178.582031 365.300781 177.980469 364.261719 177.960938 C 363.835938 177.160156 363.921875 175.972656 362.640625 175.832031 C 362.402344 174.996094 362.152344 174.15625 360.980469 174.390625 L 361.035156 174.191406 C 360.71875 174.261719 360.542969 174.183594 360.617188 173.824219 C 358.984375 171.171875 355.746094 170.144531 354.167969 167.4375 C 353.828125 167.484375 353.671875 167.292969 353.59375 167.003906 C 351.726562 167.027344 351.777344 164.5 350.050781 164.332031 C 350.007812 163.636719 349.605469 163.3125 348.941406 163.25 C 346.527344 161.734375 344.273438 159.960938 341.558594 158.960938 C 341.203125 159.082031 341.074219 158.882812 341.011719 158.585938 C 338.324219 157.746094 336.257812 155.398438 333.226562 155.40625 C 332.664062 154.683594 332.234375 153.757812 331.058594 153.933594 C 330.578125 153.765625 330.078125 153.628906 329.617188 153.417969 C 324.558594 151.046875 319.140625 149.839844 313.753906 148.542969 C 313.371094 147.808594 312.71875 148.140625 312.152344 148.15625 C 311.808594 148.113281 311.46875 148.078125 311.121094 148.035156 C 310.953125 147.546875 310.5 147.53125 310.097656 147.433594 C 308.390625 146.734375 306.707031 145.984375 304.820312 145.914062 C 303.109375 145.785156 302.023438 143.714844 300.058594 144.363281 C 298.320312 144.363281 296.570312 144.371094 294.832031 144.371094 C 294.449219 143.671875 293.828125 143.902344 293.246094 143.960938 C 291.152344 144.390625 289.066406 144.527344 286.996094 143.847656 C 286.28125 142.523438 285.558594 143.167969 284.835938 143.839844 C 282.84375 144.046875 280.855469 144.058594 278.859375 143.882812 C 275.464844 143.585938 271.949219 143.707031 268.808594 144.683594 C 265.210938 145.800781 261.667969 147.261719 258.066406 148.496094 C 257.542969 148.71875 256.820312 148.339844 256.4375 149.019531 C 256.050781 149.109375 255.589844 149.058594 255.398438 149.546875 C 254.867188 149.71875 254.191406 149.457031 253.828125 150.105469 C 252.953125 150.625 252.074219 151.148438 251.199219 151.664062 C 249.59375 151.578125 248.84375 152.746094 248.035156 153.828125 C 247.867188 153.855469 247.703125 153.90625 247.542969 153.976562 C 247.207031 153.890625 247.082031 154.027344 247.152344 154.359375 C 246.246094 155.601562 244.554688 156.007812 243.847656 157.457031 C 243.113281 157.5 242.546875 157.761719 242.421875 158.574219 C 242.308594 158.695312 242.25 158.84375 242.265625 159.011719 C 241.316406 159.160156 240.617188 159.527344 240.785156 160.675781 C 238.515625 162.796875 235.8125 164.523438 234.40625 167.457031 C 234.117188 167.535156 233.925781 167.683594 233.96875 168.015625 C 232.511719 169.167969 232.488281 171.398438 230.734375 172.332031 C 230.394531 172.261719 230.242188 172.386719 230.3125 172.742188 C 228.34375 176.417969 226.371094 180.097656 224.40625 183.769531 C 223.851562 183.957031 223.917969 184.398438 223.988281 184.828125 C 222.332031 186.425781 221.703125 188.613281 220.683594 190.570312 C 219.742188 191.019531 219.558594 191.773438 219.792969 192.707031 C 216.121094 199.179688 214.855469 206.507812 213.09375 213.546875 C 211.292969 220.726562 211.207031 228.300781 211.410156 235.777344 C 211.410156 236.128906 211.40625 236.476562 211.40625 236.832031 C 211.6875 239.109375 211.976562 241.378906 212.261719 243.65625 C 212.269531 244.007812 212.273438 244.355469 212.28125 244.710938 C 212.324219 245.976562 212.4375 247.21875 212.996094 248.378906 C 212.8125 249.277344 213.363281 249.894531 213.84375 250.53125 C 214.976562 254.1875 215.605469 258 217.21875 261.515625 C 216.949219 262.371094 217.496094 262.78125 218.125 263.140625 C 218.816406 265.71875 219.800781 268.164062 221.328125 270.378906 C 222.09375 270.910156 221.757812 271.898438 222.226562 272.550781 C 222.8125 273.589844 223.40625 274.636719 223.996094 275.675781 C 223.859375 276.558594 224.300781 277.175781 224.972656 277.671875 C 225.53125 278.765625 226.082031 279.863281 226.640625 280.960938 C 226.582031 281.300781 226.761719 281.441406 227.070312 281.46875 C 227.3125 282.8125 228.183594 283.753906 229.117188 284.644531 C 229.320312 285.605469 229.511719 286.589844 230.707031 286.835938 C 230.367188 289.601562 233.324219 291.003906 233.488281 293.5625 C 233.402344 293.910156 233.542969 294.039062 233.882812 293.980469 C 234.605469 294.304688 234.875 294.941406 235.035156 295.65625 C 234.980469 295.835938 234.914062 296.011719 234.859375 296.1875 C 235.050781 296.730469 235.550781 296.667969 235.976562 296.773438 C 235.984375 296.921875 235.992188 297.066406 236.003906 297.214844 C 236.890625 297.441406 236.910156 298.332031 237.320312 298.917969 L 237.476562 299.082031 C 237.894531 299.695312 238.3125 300.304688 238.726562 300.917969 C 238.65625 301.257812 238.800781 301.402344 239.136719 301.328125 C 239.351562 301.542969 239.5625 301.753906 239.773438 301.964844 C 239.703125 302.304688 239.84375 302.441406 240.183594 302.382812 C 240.855469 302.78125 240.808594 303.796875 241.640625 304.058594 C 241.796875 304.441406 241.683594 304.972656 242.242188 305.128906 C 242.285156 305.460938 242.328125 305.800781 242.371094 306.132812 C 243.078125 306.664062 243.785156 307.199219 244.484375 307.730469 C 244.238281 308.351562 244.667969 308.777344 244.9375 309.246094 C 245.113281 309.257812 245.285156 309.238281 245.449219 309.175781 C 246.324219 309.632812 245.722656 310.835938 246.523438 311.339844 C 247.398438 312.214844 248.269531 313.09375 249.148438 313.96875 C 250.492188 314.378906 249.9375 315.90625 250.722656 316.648438 C 250.886719 316.65625 251.042969 316.679688 251.199219 316.707031 C 251.621094 317.640625 252.351562 317.851562 253.277344 317.589844 C 253.722656 316.6875 254.550781 316.613281 255.414062 316.644531 C 255.605469 316.324219 255.796875 316.011719 255.988281 315.695312 C 256.320312 315.644531 256.644531 315.597656 256.976562 315.546875 C 258.824219 314.34375 260.386719 312.632812 262.753906 312.398438 C 263.640625 311.917969 264.523438 311.445312 265.402344 310.964844 C 265.480469 311.175781 265.554688 311.410156 265.664062 311.605469 C 265.554688 311.410156 265.480469 311.175781 265.402344 310.964844 C 265.929688 310.773438 266.460938 310.574219 266.984375 310.382812 C 267.28125 309.699219 267.96875 309.882812 268.5 309.703125 C 269.914062 309.039062 271.328125 308.375 272.742188 307.71875 C 272.917969 307.101562 273.371094 307.257812 273.804688 307.328125 C 276.023438 306.105469 278.253906 304.886719 280.472656 303.664062 C 281.980469 303.550781 282.871094 302.136719 284.308594 301.867188 C 284.652344 301.882812 284.992188 301.894531 285.339844 301.902344 C 285.375 301.585938 285.410156 301.257812 285.4375 300.941406 C 285.765625 300.960938 286.089844 300.984375 286.40625 301.003906 C 286.371094 301.1875 286.34375 301.386719 286.300781 301.554688 C 286.34375 301.378906 286.371094 301.179688 286.40625 301.003906 C 286.867188 300.210938 287.476562 299.667969 288.472656 299.78125 C 289.808594 298.613281 291.324219 297.820312 293.132812 297.714844 C 293.304688 297.539062 293.472656 297.367188 293.644531 297.191406 C 294.535156 295.792969 296.195312 296.230469 297.40625 295.59375 C 297.738281 294.894531 298.460938 295.269531 298.960938 295.035156 C 299.664062 293.585938 301.050781 294.285156 302.125 294.015625 C 302.851562 293.253906 303.835938 292.960938 304.777344 292.59375 C 305.292969 292.367188 305.808594 292.148438 306.324219 291.921875 C 306.503906 291.390625 306.976562 291.511719 307.367188 291.441406 C 307.4375 291.152344 307.585938 290.953125 307.925781 290.996094 C 308.441406 290.777344 308.964844 290.566406 309.480469 290.34375 C 310.265625 288.882812 311.984375 289.035156 313.160156 288.246094 C 313.414062 287.820312 313.617188 287.347656 314.234375 287.382812 C 316.339844 286.703125 318.5625 286.363281 320.535156 285.28125 C 321.058594 285.265625 321.582031 285.261719 322.105469 285.246094 C 322.976562 285.019531 323.839844 284.785156 324.707031 284.558594 C 325.726562 283.980469 326.414062 282.636719 327.914062 283.152344 L 327.847656 282.960938 C 328.203125 282.980469 328.5625 283.003906 328.917969 283.019531 C 328.9375 282.875 328.953125 282.742188 328.964844 282.601562 C 329.824219 282.375 330.671875 282.140625 331.527344 281.914062 C 332.296875 281.03125 333.253906 281.652344 334.128906 281.582031 C 334.886719 284.023438 336.554688 283.683594 338.34375 282.960938 C 338.351562 282.828125 338.367188 282.691406 338.394531 282.558594 C 338.726562 282.515625 339.066406 282.480469 339.398438 282.4375 C 339.695312 281.863281 340.164062 281.617188 340.800781 281.410156 C 343 280.71875 344.738281 279.496094 345.976562 277.386719 C 347.703125 274.445312 349.742188 271.6875 351.644531 268.851562 C 351.566406 268.519531 351.707031 268.390625 352.03125 268.441406 C 352.542969 266.183594 354.332031 264.628906 355.25 262.589844 C 356.425781 262.675781 356.296875 261.621094 356.652344 260.984375 C 356.863281 260.78125 357.082031 260.582031 357.292969 260.375 C 357.648438 260.453125 357.78125 260.234375 357.859375 259.953125 C 358.863281 257.710938 361.234375 256.707031 362.570312 254.769531 C 363.328125 254.691406 363.867188 254.308594 364.203125 253.628906 C 364.359375 253.496094 364.515625 253.351562 364.671875 253.21875 L 364.613281 253.035156 C 365.449219 253.226562 365.902344 252.835938 366.101562 252.058594 C 366.320312 251.726562 366.546875 251.402344 366.765625 251.070312 C 367.507812 251.070312 368.015625 250.699219 368.355469 250.0625 C 369.785156 249.484375 371.117188 248.753906 372.035156 247.445312 C 372.734375 247.328125 373.308594 247.066406 373.46875 246.285156 C 373.691406 245.828125 374.121094 245.777344 374.554688 245.742188 C 374.636719 245.453125 374.792969 245.261719 375.132812 245.304688 C 375.339844 245.105469 375.542969 244.902344 375.75 244.703125 C 375.683594 244.554688 375.664062 244.40625 375.691406 244.242188 C 375.863281 244.1875 376.03125 244.195312 376.1875 244.269531 C 376.859375 243.9375 377.21875 243.371094 377.359375 242.660156 C 379.074219 241.902344 380.792969 241.152344 382.503906 240.394531 C 382.855469 240.480469 382.984375 240.339844 382.914062 239.992188 C 384.085938 238.769531 385.277344 237.558594 387.222656 237.960938 C 387.574219 237.960938 387.921875 237.953125 388.273438 237.953125 C 390.679688 238.402344 392.851562 241.320312 392.414062 243.558594 C 391.832031 246.484375 390.742188 249.1875 388.792969 251.492188 C 388.488281 251.554688 388.304688 251.703125 388.367188 252.050781 C 387.984375 252.433594 387.601562 252.816406 387.222656 253.199219 C 386.882812 253.148438 386.746094 253.296875 386.773438 253.628906 C 386.511719 254.449219 385.339844 253.8125 385.097656 254.675781 C 384.460938 255.007812 384.074219 255.503906 384.007812 256.238281 C 383.671875 256.578125 383.332031 256.910156 383 257.25 C 382 258.175781 380.996094 259.109375 380 260.039062 C 381.28125 259.945312 382.511719 261.898438 383.585938 260.039062 C 384.390625 259.492188 385.035156 258.621094 386.179688 258.792969 C 386.535156 258.828125 386.640625 258.652344 386.597656 258.332031 L 386.78125 258.382812 C 386.738281 258.050781 386.851562 257.878906 387.214844 257.957031 C 387.546875 257.738281 387.886719 257.519531 388.21875 257.292969 C 388.308594 257.023438 388.445312 256.804688 388.785156 256.910156 C 391.558594 255.285156 394.320312 253.65625 397.09375 252.03125 C 397.128906 251.875 397.164062 251.726562 397.207031 251.570312 C 397.386719 251.535156 397.554688 251.554688 397.71875 251.628906 C 398.714844 251.019531 400.023438 250.808594 400.453125 249.476562 C 402.195312 249.722656 402.257812 247.6875 403.503906 247.25 C 404.664062 247.566406 405.644531 247.144531 406.574219 246.507812 C 409.65625 245.367188 412.664062 243.910156 416.085938 244.136719 C 416.695312 243.371094 417.472656 243.742188 418.207031 243.804688 C 419.113281 244.230469 420.144531 244.398438 420.839844 245.210938 C 421.714844 245.644531 421.972656 246.511719 422.332031 247.3125 C 421.484375 247.851562 422.042969 248.679688 421.914062 249.363281 C 422.855469 250.136719 423.945312 250.007812 425.035156 249.875 C 425.550781 249.921875 426.074219 249.964844 426.589844 250.015625 C 426.957031 250.601562 427.628906 250.636719 428.179688 250.890625 C 430.269531 251.882812 428.972656 253.761719 429.3125 255.214844 C 428.449219 256.449219 428.550781 257.230469 430.273438 257.222656 C 432.191406 257.582031 432.085938 259.074219 432.070312 260.484375 C 432.0625 261.15625 431.910156 261.820312 431.824219 262.492188 C 428.953125 264.972656 428.953125 264.972656 431.277344 266.785156 C 431.773438 268.976562 430.492188 270.398438 429.113281 271.769531 C 428.597656 271.140625 428.074219 270.503906 427.558594 269.875 C 427.347656 269.125 429.183594 267.78125 427.164062 267.710938 C 426.371094 267.683594 424.722656 267.804688 424.460938 269.375 C 422.203125 270.800781 419.941406 272.230469 417.683594 273.660156 C 416.871094 273.527344 416.136719 273.519531 416.050781 274.621094 C 412.65625 275.710938 409.699219 277.671875 406.65625 279.453125 C 405.835938 279.277344 405.34375 279.609375 405.171875 280.421875 C 404.605469 281.191406 403.261719 280.925781 402.972656 282.070312 C 402.640625 282.027344 402.457031 282.183594 402.394531 282.5 C 401.898438 282.898438 401.347656 283.179688 400.710938 283.046875 C 399.882812 282.871094 398.652344 283.648438 398.3125 282.269531 C 398 281.015625 398.628906 280.253906 399.796875 279.609375 C 404.707031 276.878906 409.523438 274.011719 414.609375 271.574219 C 419.324219 269.308594 423.691406 266.3125 427.636719 262.808594 C 428.300781 262.214844 428.597656 261.394531 428.734375 260.519531 C 429.171875 260.390625 429.898438 260.410156 429.625 259.726562 C 429.40625 259.195312 428.894531 258.515625 428.152344 259.328125 C 427.617188 259.464844 426.964844 259.253906 426.570312 259.832031 C 426.160156 259.894531 425.707031 259.902344 425.535156 260.40625 C 424.550781 260.644531 424.628906 262.152344 423.449219 262.144531 C 423.101562 262.054688 422.953125 262.242188 422.898438 262.546875 C 422.382812 262.945312 421.863281 263.339844 421.347656 263.738281 C 421.003906 263.636719 420.875 263.835938 420.804688 264.125 C 418.355469 265.390625 415.917969 266.664062 413.46875 267.929688 C 413.117188 267.839844 412.972656 267.980469 413.042969 268.332031 C 412.972656 268.484375 412.929688 268.632812 412.925781 268.792969 C 412.578125 269.148438 412.222656 269.492188 411.878906 269.847656 C 408.6875 271.863281 404.972656 272.875 401.90625 275.109375 C 401.148438 275.34375 400.363281 275.519531 399.804688 276.15625 C 398.601562 276.757812 397.378906 277.308594 396.210938 277.972656 C 394.917969 278.71875 393.890625 277.980469 393.289062 277.160156 C 392.453125 276.023438 393.949219 275.957031 394.472656 275.421875 C 396.402344 273.417969 399.046875 272.742188 401.417969 271.546875 C 402.125 271.4375 402.691406 271.136719 402.988281 270.441406 C 403.679688 270.242188 404.378906 270.046875 405.074219 269.847656 C 405.871094 269.960938 406.332031 269.507812 406.6875 268.878906 C 410.457031 266.871094 413.824219 264.210938 417.742188 262.371094 C 420.441406 261.105469 422.691406 258.863281 425.105469 257.003906 C 426.300781 256.082031 426.644531 254.40625 426.285156 253.367188 C 425.933594 252.339844 424.285156 251.953125 422.917969 252.164062 C 422.761719 252.078125 422.59375 252.058594 422.421875 252.109375 C 422.394531 252.257812 422.367188 252.414062 422.332031 252.5625 C 419.289062 253.382812 417.488281 255.941406 415.101562 257.6875 C 413.46875 258.882812 411.855469 260.15625 409.792969 260.582031 C 409.4375 260.488281 409.304688 260.636719 409.375 260.984375 C 405.835938 263.363281 402.640625 266.28125 398.601562 267.839844 C 396.71875 268.566406 395.191406 270.171875 392.984375 270.050781 C 392.632812 269.945312 392.519531 270.09375 392.582031 270.433594 C 391.558594 272.105469 389.484375 271.957031 388.082031 273.015625 C 387.632812 273.363281 386.851562 273.074219 386.476562 272.554688 C 385.835938 271.671875 386.101562 270.796875 386.71875 269.988281 C 387.476562 269.945312 388 269.566406 388.308594 268.886719 C 391.796875 267.273438 395.617188 266.390625 398.769531 264.046875 C 399.996094 264.316406 400.347656 263.242188 400.992188 262.613281 C 403.136719 262.683594 404.246094 260.78125 405.710938 259.796875 C 408.871094 257.667969 412.699219 256.410156 415.082031 253.183594 C 415.761719 253.042969 416.738281 253.273438 416.574219 252.039062 L 416.773438 252.078125 C 416.6875 251.746094 416.800781 251.597656 417.148438 251.640625 C 418.265625 251.054688 419.234375 250.367188 419.171875 248.910156 C 419.359375 247.292969 418.722656 246.683594 417.132812 247.277344 C 416.09375 247.328125 415.046875 247.375 414.007812 247.417969 C 413.574219 247.296875 413.164062 247.257812 412.902344 247.738281 C 410.386719 248.160156 408.15625 249.371094 405.902344 250.445312 C 405.277344 250.742188 404.691406 251.011719 404.019531 251.117188 C 403.679688 251.0625 403.539062 251.195312 403.589844 251.535156 C 402.683594 253 400.703125 253.148438 399.796875 254.605469 C 399.105469 254.738281 398.472656 254.972656 398.207031 255.722656 C 396.820312 256.449219 395.433594 257.179688 394.046875 257.902344 C 393.707031 257.867188 393.550781 258.050781 393.480469 258.347656 C 391.445312 259.40625 389.414062 260.46875 387.375 261.53125 C 387.035156 261.839844 386.699219 262.160156 386.359375 262.46875 C 384.230469 263.914062 381.554688 263.949219 379.347656 265.195312 C 378.804688 265.300781 378.117188 264.9375 377.757812 265.675781 C 376.285156 266.652344 374.652344 266.269531 373.058594 266.210938 C 372.714844 265.851562 372.367188 265.496094 372.019531 265.136719 C 371.6875 263.992188 372.53125 263.347656 373.109375 262.589844 C 373.648438 262.378906 373.5625 261.945312 373.476562 261.515625 C 373.867188 261.183594 374.25 260.851562 374.636719 260.511719 C 375.324219 260.460938 375.777344 260.222656 375.550781 259.414062 C 377.171875 257.984375 378.789062 256.558594 380.410156 255.128906 C 380.757812 255.191406 380.890625 254.992188 380.960938 254.703125 C 381.441406 254.527344 381.414062 254.097656 381.46875 253.699219 C 382.101562 253.515625 383.210938 253.96875 382.921875 252.589844 C 383.917969 251.78125 385.035156 251.105469 385.722656 249.964844 C 386.210938 249.613281 386.703125 249.257812 387.191406 248.902344 C 387.757812 247.511719 388.324219 246.109375 388.898438 244.71875 C 388.839844 242.957031 387.984375 242 386.175781 241.988281 C 385.996094 242.015625 385.820312 242.035156 385.636719 242.0625 C 385.488281 242.609375 384.984375 242.511719 384.605469 242.636719 C 384.441406 242.8125 384.285156 242.984375 384.121094 243.160156 C 384.058594 244.222656 383.621094 244.722656 382.515625 244.25 C 381.875 245.609375 380.671875 245.855469 379.335938 245.863281 C 378.996094 245.800781 378.839844 245.933594 378.894531 246.285156 C 376.589844 248.960938 373.867188 251.140625 370.902344 253.027344 C 370.167969 253.042969 369.808594 253.417969 369.8125 254.144531 C 367.304688 254.964844 365.5625 256.726562 364.078125 258.8125 C 362.933594 258.742188 362.402344 259.289062 362.472656 260.417969 C 361.644531 260.746094 360.449219 260.632812 360.542969 262.054688 C 360.144531 262.71875 359.742188 263.382812 359.347656 264.046875 C 358.617188 264.0625 358.25 264.4375 358.214844 265.15625 C 356.59375 265.335938 356.617188 266.734375 356.226562 267.824219 C 354.953125 268.296875 355.25 269.457031 355.085938 270.421875 C 352.957031 271.882812 352.003906 274.296875 350.546875 276.269531 C 349.132812 278.195312 347.824219 280.195312 346.246094 282 C 345.941406 282.042969 345.75 282.191406 345.816406 282.53125 C 345.59375 282.847656 345.375 283.171875 345.164062 283.492188 C 344.179688 284.128906 342.441406 282.566406 341.933594 284.59375 C 340.625 284.925781 339.371094 285.367188 338.359375 286.320312 C 338.019531 286.230469 337.851562 286.414062 337.746094 286.703125 C 337.746094 286.703125 337.785156 286.667969 337.785156 286.667969 C 337.636719 286.859375 337.488281 287.042969 337.335938 287.234375 C 337.488281 287.28125 337.652344 287.316406 337.816406 287.347656 C 337.929688 288.378906 337.539062 289.519531 338.421875 290.402344 C 338.953125 291.285156 339.476562 292.171875 340.007812 293.046875 C 340.007812 293.386719 340 293.734375 340 294.074219 C 340.328125 294.085938 340.660156 294.101562 340.984375 294.117188 C 341.507812 294.710938 341.605469 295.425781 341.5625 296.179688 C 342.527344 297.070312 343.453125 297.984375 343.714844 299.355469 C 343.644531 299.519531 343.628906 299.683594 343.6875 299.851562 C 343.839844 299.871094 343.988281 299.851562 344.132812 299.765625 C 344.851562 300.070312 344.839844 300.863281 345.214844 301.402344 C 345.609375 301.777344 346.007812 302.144531 346.394531 302.519531 C 346.308594 302.84375 346.453125 302.949219 346.753906 302.90625 C 347.128906 303.289062 347.5 303.679688 347.875 304.058594 C 348.722656 303.960938 349.378906 304.152344 349.507812 305.140625 C 349.445312 305.46875 349.5625 305.609375 349.902344 305.546875 C 350.257812 305.636719 350.609375 305.730469 350.964844 305.820312 C 351.140625 306.117188 351.316406 306.414062 351.496094 306.710938 C 351.316406 306.414062 351.140625 306.117188 350.964844 305.820312 C 351.316406 305.808594 351.671875 305.792969 352.023438 305.777344 C 356.390625 302.433594 361.226562 300.199219 366.566406 298.742188 C 370.542969 297.660156 374.503906 296.363281 378.308594 294.667969 C 379.601562 294.085938 381.074219 293.890625 382.460938 293.515625 C 382.671875 292.976562 383.105469 293.046875 383.535156 293.132812 C 384.574219 292.898438 385.621094 292.671875 386.660156 292.4375 C 387.503906 292.023438 388.289062 291.421875 389.316406 291.554688 C 391.019531 290.8125 392.730469 290.070312 394.433594 289.328125 C 394.546875 289.03125 394.738281 288.851562 395.085938 288.929688 C 397.117188 288.910156 398.242188 286.746094 400.277344 286.722656 C 400.371094 286.441406 400.519531 286.230469 400.863281 286.300781 C 401.042969 286.234375 401.226562 286.171875 401.402344 286.117188 C 401.742188 286.164062 401.898438 286.023438 401.847656 285.675781 L 402.058594 285.726562 C 401.976562 285.394531 402.066406 285.21875 402.441406 285.289062 C 403.476562 285.019531 404.449219 284.460938 405.574219 284.59375 C 405.527344 283.839844 405.984375 283.597656 406.636719 283.5625 C 411.730469 281.84375 416.15625 278.984375 420.308594 275.648438 C 420.640625 275.683594 420.78125 275.535156 420.734375 275.203125 C 422.515625 274.167969 423.570312 272.195312 425.5625 271.433594 C 425.910156 271.488281 426.074219 271.359375 426.015625 271 C 426.074219 270.816406 426.128906 270.640625 426.1875 270.457031 C 426.109375 270.300781 426.09375 270.136719 426.152344 269.96875 C 426.3125 269.953125 426.460938 269.988281 426.597656 270.074219 C 426.914062 270.015625 427.234375 269.960938 427.558594 269.902344 C 428.074219 270.535156 428.597656 271.171875 429.113281 271.800781 C 428.988281 271.921875 428.859375 272.035156 428.726562 272.152344 C 428.402344 272.097656 428.238281 272.21875 428.292969 272.5625 C 428.167969 272.996094 428.195312 273.519531 427.652344 273.714844 C 427.304688 273.644531 427.164062 273.851562 427.070312 274.125 C 426.710938 274.488281 426.347656 274.847656 425.988281 275.210938 C 426.050781 275.554688 425.902344 275.691406 425.5625 275.625 C 424.164062 276.914062 422.761719 278.195312 421.355469 279.480469 C 420.507812 279.28125 420.0625 279.734375 419.769531 280.449219 C 419.070312 280.960938 418.023438 280.988281 417.648438 281.957031 C 417.230469 282.046875 416.78125 282.085938 416.574219 282.558594 C 416.660156 282.726562 416.667969 282.898438 416.589844 283.066406 C 416.417969 283.039062 416.242188 283.019531 416.070312 282.988281 L 416.128906 283.171875 C 415.320312 282.933594 414.984375 283.328125 414.898438 284.070312 C 412.492188 285 410.09375 285.917969 407.691406 286.84375 C 406.878906 286.589844 406.617188 287.035156 406.558594 287.722656 C 406.164062 287.785156 405.71875 287.765625 405.574219 288.289062 C 402.710938 288.703125 400.519531 290.785156 397.757812 291.457031 C 397.554688 290.96875 397.347656 290.945312 397.152344 291.464844 C 396.953125 291.648438 396.753906 291.832031 396.558594 292.015625 C 396.628906 292.359375 396.492188 292.503906 396.140625 292.4375 C 395.3125 292.566406 394.414062 292.566406 394.019531 293.535156 C 393.480469 293.726562 392.738281 293.300781 392.40625 294.082031 C 391.882812 294.214844 391.210938 293.882812 390.863281 294.574219 C 390.523438 294.609375 390.191406 294.644531 389.851562 294.679688 C 389.683594 295.203125 389.238281 295.148438 388.828125 295.167969 C 388.640625 295.515625 388.453125 295.855469 388.269531 296.203125 C 388.601562 296.386719 388.925781 296.570312 389.257812 296.753906 C 389.355469 297.757812 390.015625 298.359375 390.800781 298.863281 C 390.871094 299.546875 391.132812 300.007812 391.9375 299.816406 C 393.5 302.328125 396.167969 303.65625 398.199219 305.671875 C 398.183594 306.402344 398.550781 306.753906 399.273438 306.761719 C 399.796875 307.269531 400.320312 307.78125 400.84375 308.289062 C 400.898438 308.585938 401.042969 308.777344 401.382812 308.726562 C 402.691406 309.726562 403.183594 311.628906 405.046875 312.003906 C 406.417969 313.847656 408.121094 315.304688 410.171875 316.515625 C 410.5625 315.042969 409.890625 314.027344 409.324219 312.988281 C 409.585938 311.898438 408.78125 311.4375 408.09375 310.90625 C 407.796875 310.296875 407.816406 309.511719 407.125 309.117188 C 406.941406 308.839844 406.757812 308.558594 406.566406 308.28125 C 406.769531 307.46875 406.269531 307.257812 405.617188 307.171875 C 405.441406 305.820312 405.285156 304.449219 404.597656 303.253906 C 403.261719 300.914062 404.570312 298.863281 405.390625 296.875 C 406 295.402344 408.714844 295.609375 410.351562 297 C 412.34375 298.699219 414.042969 300.722656 415.414062 302.878906 C 416.914062 305.226562 418.386719 307.449219 420.734375 309.03125 C 421.433594 309.507812 421.921875 310.285156 422.5 310.921875 C 422.429688 311.273438 422.578125 311.410156 422.917969 311.351562 C 425.753906 315.292969 429.058594 318.90625 430.707031 323.636719 C 431.355469 325.507812 431.710938 327.421875 432.296875 329.296875 C 433.996094 331.296875 436.511719 332.089844 438.585938 333.535156 C 438.796875 333.703125 439.003906 333.878906 439.214844 334.050781 C 439.355469 334.128906 439.476562 334.171875 439.582031 334.183594 C 439.6875 334.199219 439.789062 334.175781 439.871094 334.128906 C 439.789062 334.171875 439.695312 334.191406 439.582031 334.183594 C 439.476562 334.171875 439.347656 334.128906 439.214844 334.050781 C 439.242188 333.878906 439.277344 333.710938 439.320312 333.539062 C 439.632812 333.5625 439.949219 333.578125 440.261719 333.597656 C 443.105469 333.136719 444.824219 335.472656 447.109375 336.398438 C 448.207031 336.84375 449.160156 337.621094 450.179688 338.246094 C 450.929688 339.488281 452.457031 339.617188 453.445312 340.515625 C 454.640625 342.035156 456.296875 342.714844 458.128906 343.074219 C 458.46875 343.027344 458.609375 343.167969 458.554688 343.507812 L 458.765625 343.449219 C 458.695312 343.777344 458.800781 343.945312 459.152344 343.894531 C 459.535156 344.109375 459.910156 344.320312 460.292969 344.53125 C 460.265625 344.859375 460.390625 345.019531 460.730469 344.957031 C 462.535156 345.199219 463.746094 346.695312 465.433594 347.164062 C 465.363281 347.933594 465.753906 348.246094 466.476562 348.246094 C 466.546875 348.527344 466.695312 348.707031 467.027344 348.636719 C 467.621094 349.152344 468.328125 349.328125 469.097656 349.328125 C 469.097656 349.46875 469.113281 349.609375 469.140625 349.753906 C 469.65625 349.738281 470.175781 349.722656 470.691406 349.710938 C 471.058594 349.207031 471.425781 348.707031 471.785156 348.210938 C 473.046875 347.566406 473.125 345.585938 474.871094 345.480469 C 475.378906 345.148438 475.890625 344.824219 476.398438 344.488281 C 476.40625 343.589844 477.164062 343.117188 477.542969 342.433594 C 478.265625 342.453125 478.625 342.105469 478.625 341.386719 C 480.578125 339.628906 482.523438 337.871094 484.476562 336.117188 C 484.433594 335.761719 484.597656 335.648438 484.929688 335.726562 L 484.871094 335.535156 C 485.664062 335.667969 486.058594 335.402344 485.871094 334.546875 C 487.476562 332.734375 489.082031 330.929688 490.691406 329.121094 C 491.019531 329.226562 491.089844 329.078125 491.027344 328.792969 C 493.183594 326.957031 494.613281 324.5 496.449219 322.386719 C 497.230469 322.554688 497.484375 322.097656 497.582031 321.445312 C 498.289062 320.730469 498.996094 320.015625 499.695312 319.308594 C 499.839844 319.160156 499.980469 319.011719 500.113281 318.863281 C 501.777344 317.125 503.617188 315.554688 504.964844 313.53125 C 504.902344 313.207031 505.03125 313.0625 505.363281 313.128906 C 508.488281 310.714844 510.195312 306.96875 513.371094 304.605469 C 513.296875 304.25 513.476562 304.144531 513.792969 304.1875 C 513.972656 303.828125 514.148438 303.464844 514.316406 303.105469 C 515.074219 303.0625 515.652344 302.757812 515.929688 302.015625 C 516.4375 301.824219 516.367188 301.324219 516.515625 300.933594 C 516.460938 300.582031 516.628906 300.472656 516.957031 300.523438 L 516.890625 300.324219 C 517.699219 300.507812 518.007812 300.128906 517.988281 299.371094 C 518.714844 298.671875 519.445312 297.96875 520.175781 297.269531 C 520.097656 296.808594 520.074219 296.371094 520.605469 296.136719 L 520.851562 296.210938 L 521.109375 296.171875 C 521.121094 296.023438 521.148438 295.875 521.179688 295.726562 C 521.808594 295.410156 522.113281 294.863281 522.253906 294.199219 C 522.933594 294.15625 523.320312 293.824219 523.335938 293.109375 C 525.507812 291.957031 525.734375 289.277344 527.515625 287.820312 C 527.238281 286.941406 527.804688 286.753906 528.476562 286.644531 C 528.371094 287.050781 528.167969 287.375 527.863281 287.609375 C 528.171875 287.367188 528.371094 287.050781 528.476562 286.644531 C 530.414062 283.167969 533.753906 280.632812 535.160156 276.773438 C 535.359375 276.21875 535.96875 275.613281 536.800781 275.710938 C 536.878906 275.316406 536.839844 274.855469 537.324219 274.664062 C 537.363281 274.351562 537.398438 274.035156 537.433594 273.722656 C 538.175781 273.417969 538.394531 272.746094 538.570312 272.054688 C 540.316406 271.433594 540.324219 269.792969 540.714844 268.382812 C 540.621094 268.058594 540.757812 267.953125 541.066406 268 C 541.246094 267.929688 541.429688 267.867188 541.605469 267.796875 C 541.957031 267.851562 542.085938 267.691406 542.035156 267.359375 C 542.277344 266.652344 542.519531 265.941406 542.757812 265.234375 C 542.886719 265.03125 543.003906 264.820312 543.132812 264.613281 C 543.132812 264.160156 543.210938 263.75 543.707031 263.558594 C 544.03125 263.617188 544.195312 263.503906 544.125 263.15625 C 545.289062 261.535156 546.144531 259.753906 546.796875 257.878906 C 546.824219 257.730469 546.847656 257.574219 546.867188 257.425781 C 547.039062 257.371094 547.199219 257.378906 547.371094 257.433594 C 547.824219 257.1875 547.957031 256.804688 547.824219 256.324219 C 547.878906 255.96875 547.9375 255.617188 547.992188 255.269531 C 547.921875 254.929688 548.125 254.789062 548.410156 254.710938 C 550.679688 251.96875 551.699219 248.648438 552.703125 245.332031 C 553.394531 244.972656 553.027344 244.269531 553.210938 243.746094 C 553.355469 243.726562 553.488281 243.710938 553.628906 243.707031 C 553.992188 242.511719 553.128906 241.128906 554.1875 240.042969 C 554.78125 238.089844 555.292969 236.160156 555.800781 234.21875 Z M 423.46875 166.949219 C 423.464844 166.949219 423.457031 166.949219 423.449219 166.949219 C 423.441406 166.960938 423.433594 166.976562 423.433594 166.992188 Z M 429.78125 162.238281 C 429.773438 162.238281 429.765625 162.238281 429.757812 162.238281 C 429.757812 162.246094 429.757812 162.25 429.757812 162.257812 Z M 414.007812 175.34375 C 414 175.34375 413.984375 175.351562 413.976562 175.351562 C 413.976562 175.359375 413.976562 175.363281 413.972656 175.371094 Z M 534.730469 167.097656 C 534.730469 167.109375 534.738281 167.125 534.738281 167.144531 C 534.757812 167.160156 534.78125 167.175781 534.800781 167.195312 C 534.800781 167.1875 534.730469 167.097656 534.730469 167.097656 Z M 229.753906 350.8125 C 229.753906 350.804688 229.746094 350.804688 229.746094 350.800781 C 229.746094 350.800781 229.738281 350.800781 229.738281 350.800781 Z M 414.140625 169.113281 C 414.28125 168.976562 414.429688 168.84375 414.574219 168.703125 C 414.21875 168.609375 414.089844 168.765625 414.140625 169.113281 Z M 237.199219 157.546875 C 237.328125 157.421875 237.453125 157.285156 237.582031 157.160156 C 237.265625 157.101562 237.121094 157.214844 237.199219 157.546875 Z M 527.394531 295.707031 C 527.261719 295.890625 527.125 296.074219 526.992188 296.257812 C 527.289062 296.203125 527.460938 296.039062 527.394531 295.707031 Z M 439.230469 151.785156 C 439.414062 151.640625 439.597656 151.507812 439.78125 151.367188 C 439.433594 151.289062 439.300781 151.492188 439.230469 151.785156 Z M 362.550781 260.441406 C 362.542969 260.441406 362.535156 260.449219 362.523438 260.449219 C 362.523438 260.453125 362.523438 260.453125 362.523438 260.460938 Z M 307.910156 340.238281 C 307.894531 340.238281 307.882812 340.246094 307.875 340.246094 C 307.875 340.253906 307.875 340.265625 307.875 340.273438 Z M 466.53125 348.230469 C 466.53125 348.238281 466.539062 348.246094 466.539062 348.253906 C 466.546875 348.253906 466.546875 348.253906 466.550781 348.253906 Z M 499.761719 319.316406 C 499.902344 319.167969 500.042969 319.019531 500.179688 318.871094 C 499.847656 318.835938 499.691406 318.96875 499.761719 319.316406 Z M 542.84375 265.222656 C 542.96875 265.015625 543.089844 264.804688 543.21875 264.597656 C 542.929688 264.710938 542.746094 264.882812 542.84375 265.222656 Z M 406.652344 287.734375 C 406.644531 287.734375 406.628906 287.734375 406.621094 287.742188 C 406.621094 287.75 406.621094 287.757812 406.621094 287.769531 Z M 364.246094 253.671875 C 364.402344 253.535156 364.558594 253.394531 364.714844 253.261719 C 364.558594 253.191406 364.402344 253.160156 364.234375 253.183594 C 364.191406 253.347656 364.191406 253.507812 364.246094 253.671875 Z M 367.820312 311.523438 C 368.015625 311.679688 368.214844 311.828125 368.414062 311.980469 C 368.34375 311.664062 368.171875 311.472656 367.820312 311.523438 Z M 367.820312 311.523438 " fill-opacity="1" fill-rule="nonzero"/></svg>