<svg xmlns="http://www.w3.org/2000/svg" xmlns:xlink="http://www.w3.org/1999/xlink" width="1024" zoomAndPan="magnify" viewBox="0 0 768 576" height="768" preserveAspectRatio="xMidYMid meet" version="1.0"><defs><clipPath id="1b5ed5dba6"><path d="M 368 111.277344 L 437 111.277344 L 437 135 L 368 135 Z M 368 111.277344 " clip-rule="nonzero"/></clipPath><clipPath id="018e335cec"><path d="M 233.382812 276 L 311 276 L 311 285 L 233.382812 285 Z M 233.382812 276 " clip-rule="nonzero"/></clipPath></defs><path fill="#b6cec4" d="M 402.449219 417.054688 C 388.917969 417.054688 375.683594 414.695312 363.105469 410.042969 C 360.898438 409.226562 359.769531 406.777344 360.585938 404.566406 C 361.402344 402.359375 363.855469 401.234375 366.0625 402.046875 C 377.6875 406.347656 389.929688 408.53125 402.449219 408.53125 C 460.285156 408.53125 507.339844 361.480469 507.339844 303.648438 C 507.339844 245.8125 460.285156 198.757812 402.449219 198.757812 C 385.644531 198.757812 369.589844 202.613281 354.734375 210.21875 C 352.644531 211.289062 350.074219 210.460938 349 208.367188 C 347.929688 206.269531 348.757812 203.703125 350.855469 202.628906 C 366.921875 194.40625 384.28125 190.234375 402.449219 190.234375 C 464.988281 190.234375 515.867188 241.109375 515.867188 303.648438 C 515.863281 366.179688 464.984375 417.054688 402.449219 417.054688 Z M 402.449219 417.054688 " fill-opacity="1" fill-rule="nonzero"/><path fill="#b6cec4" d="M 401.433594 229.613281 C 399.078125 229.613281 397.167969 227.707031 397.167969 225.351562 L 397.167969 194.902344 C 397.167969 192.546875 399.078125 190.636719 401.433594 190.636719 C 403.789062 190.636719 405.695312 192.546875 405.695312 194.902344 L 405.695312 225.351562 C 405.695312 227.703125 403.789062 229.613281 401.433594 229.613281 Z M 401.433594 229.613281 " fill-opacity="1" fill-rule="nonzero"/><path fill="#b6cec4" d="M 401.433594 417.054688 C 399.078125 417.054688 397.167969 415.148438 397.167969 412.792969 L 397.167969 382.34375 C 397.167969 379.988281 399.078125 378.082031 401.433594 378.082031 C 403.789062 378.082031 405.695312 379.988281 405.695312 382.34375 L 405.695312 412.792969 C 405.695312 415.148438 403.789062 417.054688 401.433594 417.054688 Z M 401.433594 417.054688 " fill-opacity="1" fill-rule="nonzero"/><path fill="#b6cec4" d="M 476.964844 385.007812 C 475.851562 385.007812 474.738281 384.574219 473.902344 383.710938 L 452.703125 361.855469 C 451.066406 360.164062 451.105469 357.46875 452.796875 355.828125 C 454.488281 354.191406 457.191406 354.226562 458.828125 355.921875 L 480.023438 377.777344 C 481.664062 379.46875 481.621094 382.164062 479.929688 383.804688 C 479.105469 384.609375 478.03125 385.007812 476.964844 385.007812 Z M 476.964844 385.007812 " fill-opacity="1" fill-rule="nonzero"/><path fill="#b6cec4" d="M 459.875 254.980469 C 458.761719 254.980469 457.648438 254.546875 456.8125 253.683594 C 455.175781 251.992188 455.214844 249.292969 456.90625 247.65625 L 478.765625 226.457031 C 480.453125 224.820312 483.152344 224.859375 484.792969 226.550781 C 486.429688 228.242188 486.390625 230.941406 484.699219 232.578125 L 462.84375 253.773438 C 462.015625 254.578125 460.945312 254.980469 459.875 254.980469 Z M 459.875 254.980469 " fill-opacity="1" fill-rule="nonzero"/><path fill="#b6cec4" d="M 509.988281 308.3125 L 477.035156 308.3125 C 474.683594 308.3125 472.773438 306.402344 472.773438 304.046875 C 472.773438 301.695312 474.683594 299.785156 477.035156 299.785156 L 509.988281 299.785156 C 512.34375 299.785156 514.25 301.695312 514.25 304.046875 C 514.25 306.402344 512.34375 308.3125 509.988281 308.3125 Z M 509.988281 308.3125 " fill-opacity="1" fill-rule="nonzero"/><path fill="#b6cec4" d="M 394.980469 130.007812 L 409.925781 130.007812 L 409.925781 170.417969 L 394.980469 170.417969 Z M 394.980469 130.007812 " fill-opacity="1" fill-rule="nonzero"/><path fill="#b6cec4" d="M 409.925781 174.679688 L 394.980469 174.679688 C 392.625 174.679688 390.71875 172.773438 390.71875 170.417969 L 390.71875 130.007812 C 390.71875 127.652344 392.625 125.746094 394.980469 125.746094 L 409.925781 125.746094 C 412.28125 125.746094 414.1875 127.652344 414.1875 130.007812 L 414.1875 170.417969 C 414.1875 172.773438 412.28125 174.679688 409.925781 174.679688 Z M 399.246094 166.152344 L 405.664062 166.152344 L 405.664062 134.269531 L 399.246094 134.269531 Z M 399.246094 166.152344 " fill-opacity="1" fill-rule="nonzero"/><path fill="#b6cec4" d="M 432.269531 122.761719 C 432.269531 126.765625 426.527344 130.003906 419.441406 130.003906 L 385.460938 130.003906 C 378.375 130.003906 372.640625 126.761719 372.640625 122.761719 C 372.640625 118.761719 378.375 115.519531 385.460938 115.519531 L 419.441406 115.519531 C 426.527344 115.519531 432.269531 118.761719 432.269531 122.761719 Z M 432.269531 122.761719 " fill-opacity="1" fill-rule="nonzero"/><g clip-path="url(#1b5ed5dba6)"><path fill="#b6cec4" d="M 419.441406 134.269531 L 385.460938 134.269531 C 375.722656 134.269531 368.375 129.324219 368.375 122.761719 C 368.375 116.203125 375.722656 111.257812 385.460938 111.257812 L 419.441406 111.257812 C 429.183594 111.257812 436.527344 116.203125 436.527344 122.761719 C 436.53125 129.320312 429.183594 134.269531 419.441406 134.269531 Z M 385.460938 119.785156 C 379.972656 119.785156 377.039062 122.078125 376.902344 122.777344 C 377.035156 123.449219 379.964844 125.746094 385.460938 125.746094 L 419.445312 125.746094 C 424.9375 125.746094 427.871094 123.449219 428.007812 122.75 C 427.867188 122.082031 424.929688 119.785156 419.445312 119.785156 Z M 385.460938 119.785156 " fill-opacity="1" fill-rule="nonzero"/></g><path fill="#b6cec4" d="M 517.882812 172.507812 L 528.605469 182.921875 L 500.449219 211.90625 L 489.726562 201.492188 Z M 517.882812 172.507812 " fill-opacity="1" fill-rule="nonzero"/><path fill="#b6cec4" d="M 500.460938 216.152344 C 499.390625 216.152344 498.320312 215.75 497.488281 214.945312 L 486.765625 204.53125 C 485.953125 203.742188 485.492188 202.664062 485.472656 201.535156 C 485.457031 200.402344 485.890625 199.3125 486.679688 198.5 L 514.835938 169.519531 C 516.480469 167.832031 519.175781 167.792969 520.867188 169.429688 L 531.585938 179.84375 C 532.398438 180.632812 532.863281 181.710938 532.878906 182.839844 C 532.898438 183.972656 532.460938 185.058594 531.675781 185.871094 L 503.515625 214.855469 C 502.683594 215.71875 501.570312 216.152344 500.460938 216.152344 Z M 495.765625 201.382812 L 500.371094 205.859375 L 522.585938 182.988281 L 517.980469 178.515625 Z M 495.765625 201.382812 " fill-opacity="1" fill-rule="nonzero"/><path fill="#b6cec4" d="M 549.691406 193.277344 C 546.902344 196.144531 540.527344 194.472656 535.441406 189.535156 L 511.070312 165.859375 C 505.988281 160.917969 504.128906 154.59375 506.917969 151.726562 C 509.707031 148.859375 516.082031 150.53125 521.164062 155.46875 L 545.535156 179.144531 C 550.621094 184.082031 552.476562 190.40625 549.691406 193.277344 Z M 549.691406 193.277344 " fill-opacity="1" fill-rule="nonzero"/><path fill="#b6cec4" d="M 545.914062 198.941406 C 541.589844 198.941406 536.566406 196.566406 532.472656 192.59375 L 508.097656 168.914062 C 505.121094 166.019531 502.9375 162.578125 501.949219 159.214844 C 500.734375 155.066406 501.429688 151.253906 503.859375 148.753906 C 505.570312 146.992188 507.933594 146.058594 510.691406 146.058594 C 515.011719 146.058594 520.035156 148.433594 524.132812 152.40625 L 548.503906 176.085938 C 555.492188 182.871094 557.316406 191.539062 552.75 196.246094 C 551.035156 198.007812 548.671875 198.941406 545.914062 198.941406 Z M 510.691406 154.585938 C 510.238281 154.585938 510.011719 154.671875 509.964844 154.703125 C 509.59375 155.28125 510.101562 158.96875 514.039062 162.796875 L 538.414062 186.476562 C 541.214844 189.195312 544.203125 190.417969 545.914062 190.417969 C 546.371094 190.417969 546.601562 190.328125 546.644531 190.296875 C 547.011719 189.722656 546.5 186.027344 542.5625 182.199219 L 518.191406 158.523438 C 515.390625 155.804688 512.40625 154.585938 510.691406 154.585938 Z M 510.691406 154.585938 " fill-opacity="1" fill-rule="nonzero"/><path fill="#b6cec4" d="M 402.449219 441.539062 C 392.070312 441.539062 381.722656 440.378906 371.691406 438.089844 C 369.394531 437.5625 367.960938 435.28125 368.484375 432.984375 C 369.007812 430.691406 371.28125 429.242188 373.589844 429.777344 C 382.996094 431.925781 392.707031 433.011719 402.449219 433.011719 C 473.675781 433.011719 531.621094 375.070312 531.621094 303.84375 C 531.621094 232.621094 473.675781 174.679688 402.449219 174.679688 C 392.710938 174.679688 382.996094 175.769531 373.585938 177.917969 C 371.292969 178.441406 369.003906 177.003906 368.480469 174.707031 C 367.957031 172.414062 369.394531 170.128906 371.691406 169.605469 C 381.722656 167.316406 392.070312 166.152344 402.449219 166.152344 C 478.375 166.152344 540.148438 227.921875 540.148438 303.84375 C 540.148438 379.769531 478.378906 441.539062 402.449219 441.539062 Z M 402.449219 441.539062 " fill-opacity="1" fill-rule="nonzero"/><path fill="#b6cec4" d="M 402.449219 308.109375 C 401.671875 308.109375 400.894531 307.894531 400.210938 307.472656 C 398.953125 306.695312 398.1875 305.320312 398.1875 303.84375 L 398.1875 243.671875 C 398.1875 241.316406 400.09375 239.40625 402.449219 239.40625 C 404.804688 239.40625 406.714844 241.316406 406.714844 243.671875 L 406.714844 296.949219 L 438.222656 281.195312 C 440.328125 280.144531 442.886719 280.996094 443.941406 283.101562 C 444.992188 285.207031 444.136719 287.769531 442.035156 288.820312 L 404.355469 307.65625 C 403.753906 307.957031 403.101562 308.109375 402.449219 308.109375 Z M 402.449219 308.109375 " fill-opacity="1" fill-rule="nonzero"/><path fill="#b6cec4" d="M 335.894531 221.128906 L 297.800781 221.128906 C 295.445312 221.128906 293.535156 219.21875 293.535156 216.863281 C 293.535156 214.507812 295.445312 212.601562 297.800781 212.601562 L 335.894531 212.601562 C 338.25 212.601562 340.15625 214.507812 340.15625 216.863281 C 340.15625 219.21875 338.25 221.128906 335.894531 221.128906 Z M 335.894531 221.128906 " fill-opacity="1" fill-rule="nonzero"/><path fill="#b6cec4" d="M 345.582031 417.457031 L 307.488281 417.457031 C 305.132812 417.457031 303.226562 415.550781 303.226562 413.195312 C 303.226562 410.839844 305.132812 408.933594 307.488281 408.933594 L 345.582031 408.933594 C 347.9375 408.933594 349.847656 410.839844 349.847656 413.195312 C 349.847656 415.550781 347.9375 417.457031 345.582031 417.457031 Z M 345.582031 417.457031 " fill-opacity="1" fill-rule="nonzero"/><path fill="#b6cec4" d="M 304.1875 320.195312 L 239.773438 320.195312 C 237.417969 320.195312 235.507812 318.289062 235.507812 315.933594 C 235.507812 313.578125 237.417969 311.671875 239.773438 311.671875 L 304.1875 311.671875 C 306.542969 311.671875 308.449219 313.578125 308.449219 315.933594 C 308.449219 318.289062 306.542969 320.195312 304.1875 320.195312 Z M 304.1875 320.195312 " fill-opacity="1" fill-rule="nonzero"/><path fill="#b6cec4" d="M 308.945312 354.882812 L 244.53125 354.882812 C 242.175781 354.882812 240.269531 352.976562 240.269531 350.621094 C 240.269531 348.265625 242.175781 346.359375 244.53125 346.359375 L 308.945312 346.359375 C 311.300781 346.359375 313.210938 348.265625 313.210938 350.621094 C 313.210938 352.976562 311.300781 354.882812 308.945312 354.882812 Z M 308.945312 354.882812 " fill-opacity="1" fill-rule="nonzero"/><path fill="#b6cec4" d="M 327.996094 389.195312 L 263.578125 389.195312 C 261.222656 389.195312 259.316406 387.289062 259.316406 384.933594 C 259.316406 382.578125 261.222656 380.671875 263.578125 380.671875 L 327.992188 380.671875 C 330.347656 380.671875 332.257812 382.578125 332.257812 384.933594 C 332.257812 387.289062 330.347656 389.195312 327.996094 389.195312 Z M 327.996094 389.195312 " fill-opacity="1" fill-rule="nonzero"/><path fill="#b6cec4" d="M 316.847656 250.871094 L 256.214844 250.871094 C 253.859375 250.871094 251.953125 248.960938 251.953125 246.605469 C 251.953125 244.25 253.859375 242.34375 256.214844 242.34375 L 316.847656 242.34375 C 319.203125 242.34375 321.109375 244.25 321.109375 246.605469 C 321.109375 248.960938 319.203125 250.871094 316.847656 250.871094 Z M 316.847656 250.871094 " fill-opacity="1" fill-rule="nonzero"/><g clip-path="url(#018e335cec)"><path fill="#b6cec4" d="M 306.253906 284.566406 L 237.703125 284.566406 C 235.347656 284.566406 233.441406 282.65625 233.441406 280.304688 C 233.441406 277.949219 235.347656 276.039062 237.703125 276.039062 L 306.253906 276.039062 C 308.609375 276.039062 310.515625 277.949219 310.515625 280.304688 C 310.515625 282.65625 308.609375 284.566406 306.253906 284.566406 Z M 306.253906 284.566406 " fill-opacity="1" fill-rule="nonzero"/></g></svg>