<svg xmlns="http://www.w3.org/2000/svg" xmlns:xlink="http://www.w3.org/1999/xlink" width="1024" zoomAndPan="magnify" viewBox="0 0 768 576" height="768" preserveAspectRatio="xMidYMid meet" version="1.0"><path fill="#b6cec4" d="M 437.671875 194.394531 C 447.035156 192.804688 456.800781 199.25 459.074219 208.445312 C 461.425781 216.75 457.242188 226.316406 449.488281 230.128906 C 442.214844 233.980469 432.601562 232.324219 426.96875 226.355469 C 421.328125 220.824219 419.839844 211.636719 423.410156 204.59375 C 426.03125 199.050781 431.625 195.179688 437.671875 194.394531 Z M 437.671875 194.394531 " fill-opacity="1" fill-rule="nonzero"/><path fill="#b6cec4" d="M 559.453125 195.902344 C 568.167969 193.644531 577.984375 198.382812 581.765625 206.515625 C 585.703125 214.394531 583.289062 224.839844 576.246094 230.144531 C 568.609375 236.257812 556.449219 235.253906 549.855469 228.042969 C 543.863281 222.222656 542.851562 212.351562 546.976562 205.199219 C 549.585938 200.53125 554.253906 197.109375 559.453125 195.902344 Z M 559.453125 195.902344 " fill-opacity="1" fill-rule="nonzero"/><path fill="#b6cec4" d="M 355.132812 225.414062 C 360.460938 224.53125 366.160156 225.957031 370.179688 229.621094 C 376.429688 234.789062 378.152344 244.464844 374.15625 251.507812 C 370.613281 258.320312 362.421875 261.980469 354.941406 260.652344 C 346.410156 259.476562 339.394531 251.371094 339.953125 242.679688 C 339.972656 234.203125 346.832031 226.648438 355.132812 225.414062 Z M 355.132812 225.414062 " fill-opacity="1" fill-rule="nonzero"/><path fill="#b6cec4" d="M 519.632812 239.636719 C 525.9375 230 540.265625 226.773438 549.722656 233.640625 C 555.613281 237.539062 557.957031 244.578125 558.925781 251.246094 C 562.933594 258.652344 567.195312 265.972656 571.046875 273.484375 C 578.601562 274.417969 586.132812 275.574219 593.679688 276.59375 C 598.046875 277.003906 601.695312 281.429688 600.828125 285.820312 C 600.144531 289.929688 596.199219 293.039062 592.070312 292.960938 C 582.78125 292.789062 573.484375 292.492188 564.203125 292.082031 C 561.105469 291.871094 557.84375 291.1875 555.410156 289.132812 C 552.757812 286.855469 551.449219 283.515625 549.8125 280.527344 C 545.746094 273.09375 541.917969 265.527344 537.796875 258.128906 C 536.683594 256.003906 533.105469 257.28125 533.519531 259.582031 C 537.164062 267.160156 541.359375 274.480469 545.019531 282.058594 C 542.320312 287.328125 538.683594 292.035156 535.722656 297.140625 C 533.851562 295.765625 532.285156 293.984375 530.269531 292.824219 C 528.324219 292.121094 525.554688 294.121094 527.066406 296.113281 C 535.75 303.242188 543.945312 310.953125 552.238281 318.523438 C 555.0625 320.992188 557.234375 324.546875 556.953125 328.429688 C 556.558594 342.300781 555.5625 356.148438 555.019531 370.019531 C 554.855469 374.671875 551.292969 379.039062 546.691406 379.9375 C 541.800781 380.929688 536.277344 377.832031 535.050781 372.898438 C 533.28125 360.4375 532.929688 347.683594 531.078125 335.308594 C 520.828125 326.085938 509.929688 317.519531 499.785156 308.15625 C 491.058594 299.144531 491.984375 284.542969 498.003906 274.308594 C 505.050781 262.652344 512.113281 250.988281 519.632812 239.636719 Z M 519.632812 239.636719 " fill-opacity="1" fill-rule="nonzero"/><path fill="#b6cec4" d="M 415.523438 248.667969 C 415.40625 239.214844 426.234375 231.070312 435.191406 235.046875 C 441.644531 238.5 448.890625 243.203125 450.554688 250.828125 C 450.914062 261.570312 450.582031 272.339844 450.6875 283.089844 C 450.804688 287.171875 450.222656 291.363281 451.386719 295.34375 C 455.375 310.585938 461 325.332031 466.894531 339.917969 C 460.089844 340.121094 453.277344 339.871094 446.46875 339.972656 C 443.726562 351.539062 441.011719 363.109375 438.261719 374.675781 C 437.289062 379.039062 432.023438 381.542969 427.9375 379.980469 C 425.089844 379.050781 422.675781 376.375 422.792969 373.265625 C 422.773438 362.164062 422.796875 351.058594 422.769531 339.953125 C 414.476562 339.941406 406.175781 340.09375 397.878906 339.847656 C 403.023438 327.578125 408.085938 315.207031 411.644531 302.375 C 413.136719 305.144531 415.503906 307.898438 418.820312 308.277344 C 421.753906 308.378906 424.691406 308.25 427.625 308.292969 C 432.226562 308.445312 436.554688 304.125 436.28125 299.5 C 436.1875 283.496094 436.289062 267.480469 436.125 251.472656 C 436.164062 248.984375 431.554688 248.777344 431.636719 251.386719 C 431.601562 267.242188 431.636719 283.09375 431.570312 298.949219 C 431.765625 301.910156 428.878906 304.359375 425.980469 303.773438 C 423.03125 303.324219 418.949219 304.910156 417.023438 301.890625 C 415.199219 299.46875 415.523438 296.3125 415.535156 293.46875 C 415.546875 278.535156 415.476562 263.601562 415.523438 248.667969 Z M 415.523438 248.667969 " fill-opacity="1" fill-rule="nonzero"/><path fill="#b6cec4" d="M 286.277344 261.449219 C 294.957031 259.527344 304.539062 265.207031 306.871094 273.800781 C 309.199219 281.238281 305.644531 289.863281 298.839844 293.605469 C 290.4375 298.648438 278.171875 295.671875 273.820312 286.667969 C 268.574219 276.785156 275.128906 263.171875 286.277344 261.449219 Z M 286.277344 261.449219 " fill-opacity="1" fill-rule="nonzero"/><path fill="#b6cec4" d="M 339.691406 278.136719 C 339.957031 270.140625 346.703125 262.625 354.9375 262.734375 C 363.515625 262.765625 370.847656 270.804688 370.710938 279.25 C 370.703125 284.285156 370.792969 289.328125 370.5625 294.359375 C 367.589844 289.027344 366.488281 282.761719 363.101562 277.632812 C 359.011719 272.277344 349.6875 273.101562 346.566406 279.070312 C 345.167969 281.339844 344.878906 284.222656 345.835938 286.71875 C 348.546875 294.070312 351.109375 301.480469 353.769531 308.847656 C 354.8125 312.121094 357.929688 314.820312 361.464844 314.710938 C 364.636719 314.734375 367.808594 314.679688 370.984375 314.710938 C 370.960938 319.292969 371.523438 323.992188 370.277344 328.46875 C 366.449219 344.167969 363.351562 360.039062 359.640625 375.757812 C 357.292969 382.539062 345.832031 381.609375 345.066406 374.351562 C 344.832031 360.546875 345.105469 346.726562 344.792969 332.914062 C 344.40625 327.351562 338.214844 323.566406 339.542969 317.507812 C 339.667969 304.386719 339.394531 291.253906 339.691406 278.136719 Z M 339.691406 278.136719 " fill-opacity="1" fill-rule="nonzero"/><path fill="#b6cec4" d="M 455.707031 272.992188 C 459.542969 276.632812 463.53125 280.117188 467.316406 283.8125 C 469.417969 285.898438 472.429688 287.554688 472.953125 290.742188 C 473.964844 295.753906 468.773438 300.578125 463.835938 299.25 C 460.554688 298.191406 458.171875 295.46875 455.800781 293.097656 C 455.777344 286.394531 455.75 279.691406 455.707031 272.992188 Z M 455.707031 272.992188 " fill-opacity="1" fill-rule="nonzero"/><path fill="#b6cec4" d="M 349.90625 283.621094 C 349.621094 278.753906 357.0625 276.363281 359.628906 280.597656 C 362.394531 286.265625 364.285156 292.339844 366.878906 298.09375 C 370.742188 298.179688 374.601562 298.074219 378.460938 298.074219 C 381.664062 297.933594 384.9375 300.535156 384.910156 303.867188 C 385.296875 307.199219 382.324219 310.324219 379.023438 310.328125 C 373.179688 310.320312 367.328125 310.320312 361.488281 310.265625 C 359.019531 310.375 358.269531 307.515625 357.445312 305.714844 C 354.941406 298.347656 352.015625 291.105469 349.90625 283.621094 Z M 349.90625 283.621094 " fill-opacity="1" fill-rule="nonzero"/><path fill="#b6cec4" d="M 574.167969 296.425781 C 578.3125 296.289062 582.46875 296.394531 586.621094 296.398438 C 592.484375 296.277344 597.394531 301.523438 598.007812 307.15625 C 601.238281 331.074219 604.710938 354.964844 607.679688 378.914062 C 606.039062 379.953125 604.117188 380.621094 602.160156 380.269531 C 598.761719 356.039062 595.695312 331.765625 592.246094 307.550781 C 591.835938 305.144531 589.976562 302.988281 587.644531 302.269531 C 583.378906 301.855469 579.0625 302.371094 574.792969 301.960938 C 573.226562 300.601562 573.894531 298.207031 574.167969 296.425781 Z M 574.167969 296.425781 " fill-opacity="1" fill-rule="nonzero"/><path fill="#b6cec4" d="M 277.535156 300.179688 C 286.390625 294.519531 299.015625 303.636719 297.722656 313.679688 C 295.917969 311.773438 294.410156 309.546875 292.34375 307.914062 C 290.527344 307.226562 288.554688 309.847656 290.082031 311.285156 C 296.203125 318.613281 302.609375 325.71875 308.675781 333.074219 C 310.652344 338.683594 302.453125 343.125 298.53125 338.972656 C 293.34375 332.882812 288.308594 326.636719 282.816406 320.820312 C 281.277344 318.988281 278.140625 321.121094 279.304688 323.179688 C 282.523438 327.234375 286.089844 331.03125 289.242188 335.148438 C 288.546875 336.746094 287.96875 338.378906 287.488281 340.050781 C 292.285156 344.429688 298.914062 346.847656 302.703125 352.261719 C 303.527344 359.542969 302.699219 366.996094 302.988281 374.34375 C 303.453125 377.03125 301.492188 379.996094 298.675781 380.140625 C 295.945312 380.203125 293.207031 380.113281 290.476562 380.078125 C 288.292969 380.128906 286.257812 378.171875 286.335938 375.96875 C 286.203125 370.675781 286.378906 365.378906 286.242188 360.082031 C 286.347656 359.269531 285.558594 358.859375 285.03125 358.449219 C 279.726562 354.828125 274.402344 351.226562 269.0625 347.65625 C 266.109375 345.855469 265.800781 341.867188 266.445312 338.804688 C 268.5625 328.507812 270.480469 318.164062 272.660156 307.882812 C 273.234375 304.816406 274.769531 301.796875 277.535156 300.179688 Z M 277.535156 300.179688 " fill-opacity="1" fill-rule="nonzero"/><path fill="#b6cec4" d="M 213.019531 316.371094 C 218.027344 308.386719 229.820312 305.828125 237.5 311.449219 C 245.722656 316.667969 247.496094 329.160156 241.214844 336.546875 C 235.703125 343.617188 224.683594 344.855469 217.464844 339.734375 C 211.800781 335.808594 209.472656 328.441406 210.5 321.796875 C 209.269531 320.195312 208.074219 318.015625 205.808594 317.90625 C 203.558594 317.714844 202.085938 319.617188 200.726562 321.085938 C 199.164062 320.464844 197.273438 319.015625 198.332031 317.125 C 200.957031 311.429688 209.617188 311.335938 213.019531 316.371094 Z M 213.019531 316.371094 " fill-opacity="1" fill-rule="nonzero"/><path fill="#b6cec4" d="M 302.507812 315.707031 C 306.324219 315.683594 310.15625 315.355469 313.980469 315.542969 C 318.1875 315.941406 320.949219 321.203125 318.523438 324.789062 C 316.640625 327.882812 312.675781 328.089844 309.46875 327.554688 C 307.179688 323.605469 302.21875 320.722656 302.507812 315.707031 Z M 302.507812 315.707031 " fill-opacity="1" fill-rule="nonzero"/><path fill="#b6cec4" d="M 500.320312 315.242188 C 508.761719 322.46875 517.3125 329.566406 525.742188 336.816406 C 527.828125 338.226562 527.007812 341.03125 527.335938 343.167969 C 527.230469 345.246094 528.484375 347.472656 527.296875 349.402344 C 523.140625 357.527344 519.054688 365.6875 515.179688 373.953125 C 512.96875 378.800781 506.773438 381.519531 501.800781 379.3125 C 497.542969 377.664062 494.8125 372.824219 495.78125 368.332031 C 497.867188 359.054688 500.375 349.878906 502.578125 340.632812 C 503.503906 332.121094 502.390625 323.507812 500.320312 315.242188 Z M 500.320312 315.242188 " fill-opacity="1" fill-rule="nonzero"/><path fill="#b6cec4" d="M 170.953125 347.664062 C 172.503906 340.769531 178.886719 335.023438 186.101562 335.121094 C 193.210938 335.105469 200.328125 335.035156 207.4375 335.164062 C 210.40625 335.148438 212.796875 337.433594 213.839844 340.066406 C 217.898438 349.074219 221.667969 358.214844 225.332031 367.394531 C 226.476562 371.894531 232.398438 367.710938 235.050781 370.757812 C 239.0625 373.828125 235.855469 380.785156 230.964844 380.15625 C 226.398438 379.488281 220.070312 381.992188 217.132812 377.210938 C 212.9375 367.902344 209.085938 358.410156 204.683594 349.199219 C 203.660156 346.945312 200.09375 348.546875 200.753906 350.828125 C 201.933594 353.878906 203.347656 356.84375 204.589844 359.875 C 201.769531 359.835938 198.953125 359.832031 196.132812 359.75 C 195.046875 357.113281 193.816406 354.53125 192.636719 351.933594 C 191.8125 349.949219 188.402344 350.851562 188.714844 353.015625 C 190.003906 357.410156 193.082031 361.382812 192.941406 366.140625 C 192.863281 368.640625 193.28125 371.234375 192.648438 373.675781 C 190.101562 378.511719 184.117188 380.105469 179.027344 380.023438 C 174.117188 379.914062 169.183594 380.230469 164.285156 379.910156 C 161.238281 379.25 160.761719 375.8125 161.113281 373.226562 C 161.417969 370.472656 160.03125 366.585938 163.152344 365.03125 C 167.105469 363.917969 171.644531 365.785156 175.4375 364.175781 C 177.613281 361.582031 173.652344 359.191406 171.300781 360.515625 C 169.964844 356.390625 170.066406 351.871094 170.953125 347.664062 Z M 170.953125 347.664062 " fill-opacity="1" fill-rule="nonzero"/><path fill="#b6cec4" d="M 258.75 366.601562 C 262.71875 362.367188 266.832031 358.203125 271.371094 354.570312 C 274.960938 356.996094 278.453125 359.570312 282.042969 362 C 282.089844 363.65625 282.125 365.3125 282.15625 366.972656 C 278.535156 370.851562 274.832031 374.664062 271.078125 378.414062 C 268.871094 380.585938 265.078125 379.8125 263.285156 377.484375 C 260.667969 374.582031 256.390625 370.894531 258.75 366.601562 Z M 258.75 366.601562 " fill-opacity="1" fill-rule="nonzero"/><path fill="#b6cec4" d="M 198.984375 364.4375 C 201.4375 364.367188 203.894531 364.328125 206.355469 364.273438 C 208.144531 368.511719 210.402344 372.601562 211.707031 377.015625 C 211.214844 380.691406 206.863281 380.265625 204.121094 380.175781 C 201.644531 380.492188 199.015625 378.605469 199.054688 375.996094 C 198.960938 372.140625 199 368.289062 198.984375 364.4375 Z M 198.984375 364.4375 " fill-opacity="1" fill-rule="nonzero"/></svg>