<svg xmlns="http://www.w3.org/2000/svg" xmlns:xlink="http://www.w3.org/1999/xlink" width="1024" zoomAndPan="magnify" viewBox="0 0 768 576" height="768" preserveAspectRatio="xMidYMid meet" version="1.0"><defs><clipPath id="1ec3526588"><path d="M 241.121094 127.683594 L 525 127.683594 L 525 448.683594 L 241.121094 448.683594 Z M 241.121094 127.683594 " clip-rule="nonzero"/></clipPath></defs><g clip-path="url(#1ec3526588)"><path fill="#000000" d="M 512.371094 403.542969 C 510.117188 403.542969 508.113281 404.046875 506.109375 405.300781 C 485.566406 417.335938 462.273438 423.605469 438.476562 423.605469 C 380.863281 423.605469 330.015625 385.988281 310.976562 333.324219 L 426.953125 333.324219 C 433.96875 333.324219 439.476562 327.808594 439.476562 320.785156 C 439.476562 313.765625 433.96875 308.246094 426.953125 308.246094 L 304.464844 308.246094 C 303.460938 300.722656 302.960938 294.707031 302.960938 288.183594 C 302.960938 281.664062 303.460938 275.644531 304.464844 268.121094 L 426.703125 268.121094 C 433.714844 268.121094 439.226562 262.605469 439.226562 255.582031 C 439.226562 248.5625 433.714844 243.042969 426.703125 243.042969 L 310.726562 243.042969 C 330.015625 187.871094 380.863281 152.761719 438.226562 152.761719 C 462.023438 152.761719 485.316406 159.03125 505.855469 171.070312 C 507.859375 172.074219 509.863281 172.824219 512.121094 172.824219 C 516.628906 172.824219 520.636719 170.316406 522.890625 166.554688 C 526.398438 160.539062 524.394531 152.761719 518.382812 149.503906 C 494.335938 134.957031 466.53125 127.683594 438.226562 127.683594 C 367.335938 127.683594 304.464844 175.332031 284.425781 243.042969 L 253.867188 243.042969 C 246.851562 243.042969 241.339844 248.5625 241.339844 255.582031 C 241.339844 262.605469 246.851562 268.121094 253.867188 268.121094 L 279.164062 268.121094 C 278.414062 275.644531 277.914062 281.664062 277.914062 288.183594 C 277.914062 294.707031 278.414062 300.722656 279.164062 308.246094 L 253.867188 308.246094 C 246.851562 308.246094 241.339844 313.765625 241.339844 320.785156 C 241.339844 327.808594 246.851562 333.324219 253.867188 333.324219 L 284.425781 333.324219 C 304.464844 401.035156 367.335938 448.683594 438.226562 448.683594 C 466.53125 448.683594 494.085938 441.160156 518.632812 427.117188 C 524.644531 423.605469 526.648438 415.832031 523.140625 410.066406 C 520.886719 406.050781 516.878906 403.542969 512.371094 403.542969 Z M 512.371094 403.542969 " fill-opacity="1" fill-rule="nonzero"/></g></svg>