<svg xmlns="http://www.w3.org/2000/svg" xmlns:xlink="http://www.w3.org/1999/xlink" width="1024" zoomAndPan="magnify" viewBox="0 0 768 576" height="768" preserveAspectRatio="xMidYMid meet" version="1.0"><defs><clipPath id="5fbb4176af"><path d="M 240.796875 175.707031 L 527.285156 175.707031 L 527.285156 421.351562 L 240.796875 421.351562 Z M 240.796875 175.707031 " clip-rule="nonzero"/></clipPath><clipPath id="f4fe5384d8"><path d="M 449 154.351562 L 468 154.351562 L 468 207 L 449 207 Z M 449 154.351562 " clip-rule="nonzero"/></clipPath></defs><path fill="#231815" d="M 324.675781 185.496094 L 441.683594 185.496094 C 442.761719 185.496094 443.640625 184.621094 443.640625 183.542969 L 443.640625 177.679688 C 443.640625 176.601562 442.761719 175.726562 441.683594 175.726562 L 324.675781 175.726562 C 323.59375 175.726562 322.71875 176.601562 322.71875 177.679688 L 322.71875 183.542969 C 322.71875 184.621094 323.59375 185.496094 324.675781 185.496094 " fill-opacity="1" fill-rule="nonzero"/><g clip-path="url(#5fbb4176af)"><path fill="#231815" d="M 496.824219 411.585938 L 271.261719 411.585938 C 259.839844 411.585938 250.578125 402.339844 250.578125 390.929688 L 250.578125 253.453125 L 517.5 253.453125 L 517.5 390.929688 C 517.5 402.339844 508.242188 411.585938 496.824219 411.585938 Z M 496.824219 175.726562 L 474.945312 175.726562 C 473.863281 175.726562 472.988281 176.601562 472.988281 177.679688 L 472.988281 183.539062 C 472.988281 184.621094 473.863281 185.496094 474.945312 185.496094 L 496.824219 185.496094 C 508.230469 185.496094 517.5 194.757812 517.5 206.167969 L 517.5 243.683594 L 250.578125 243.683594 L 250.578125 206.167969 C 250.578125 194.757812 259.855469 185.496094 271.261719 185.496094 L 291.414062 185.496094 C 292.496094 185.496094 293.371094 184.621094 293.371094 183.539062 L 293.371094 177.679688 C 293.371094 176.601562 292.496094 175.726562 291.414062 175.726562 L 271.261719 175.726562 C 254.472656 175.726562 240.796875 189.382812 240.796875 206.167969 L 240.796875 390.929688 C 240.796875 407.664062 254.503906 421.355469 271.261719 421.355469 L 496.824219 421.355469 C 513.578125 421.355469 527.285156 407.664062 527.285156 390.929688 L 527.285156 206.167969 C 527.285156 189.382812 513.609375 175.726562 496.824219 175.726562 " fill-opacity="1" fill-rule="nonzero"/></g><path fill="#231815" d="M 308.046875 209.277344 C 312.898438 209.277344 316.851562 205.347656 316.851562 200.484375 L 316.851562 165.566406 C 316.851562 160.703125 312.898438 156.773438 308.046875 156.773438 C 303.171875 156.773438 299.242188 160.703125 299.242188 165.566406 L 299.242188 200.484375 C 299.242188 205.347656 303.171875 209.277344 308.046875 209.277344 " fill-opacity="1" fill-rule="nonzero"/><g clip-path="url(#f4fe5384d8)"><path fill="#231815" d="M 458.3125 206.871094 C 463.167969 206.871094 467.117188 202.921875 467.117188 198.078125 L 467.117188 163.140625 C 467.117188 158.296875 463.167969 154.351562 458.3125 154.351562 C 453.441406 154.351562 449.511719 158.296875 449.511719 163.140625 L 449.511719 198.078125 C 449.511719 202.921875 453.441406 206.871094 458.3125 206.871094 " fill-opacity="1" fill-rule="nonzero"/></g></svg>