<svg xmlns="http://www.w3.org/2000/svg" xmlns:xlink="http://www.w3.org/1999/xlink" width="1024" zoomAndPan="magnify" viewBox="0 0 768 576" height="768" preserveAspectRatio="xMidYMid meet" version="1.0"><defs><clipPath id="2159aec971"><path d="M 319.027344 224 L 448.777344 224 L 448.777344 352.777344 L 319.027344 352.777344 Z M 319.027344 224 " clip-rule="nonzero"/></clipPath></defs><g clip-path="url(#2159aec971)"><path fill="#b6cec4" d="M 448.046875 290.144531 C 448.078125 289.097656 448.085938 288.050781 448.0625 287 C 448.042969 285.953125 447.996094 284.90625 447.925781 283.859375 C 447.851562 282.816406 447.753906 281.773438 447.632812 280.730469 C 447.507812 279.691406 447.359375 278.652344 447.1875 277.621094 C 447.011719 276.585938 446.8125 275.558594 446.589844 274.535156 C 446.363281 273.511719 446.117188 272.492188 445.839844 271.480469 C 445.566406 270.46875 445.269531 269.464844 444.945312 268.46875 C 444.621094 267.472656 444.273438 266.484375 443.898438 265.503906 C 443.527344 264.523438 443.132812 263.554688 442.710938 262.59375 C 442.292969 261.632812 441.847656 260.683594 441.382812 259.746094 C 440.914062 258.808594 440.425781 257.878906 439.914062 256.964844 C 439.402344 256.050781 438.867188 255.148438 438.3125 254.261719 C 437.757812 253.371094 437.179688 252.5 436.578125 251.640625 C 435.980469 250.777344 435.359375 249.933594 434.71875 249.105469 C 434.078125 248.273438 433.417969 247.460938 432.738281 246.664062 C 432.058594 245.867188 431.359375 245.085938 430.640625 244.324219 C 429.921875 243.5625 429.183594 242.816406 428.429688 242.089844 C 427.671875 241.363281 426.902344 240.65625 426.109375 239.96875 C 425.320312 239.277344 424.515625 238.609375 423.691406 237.960938 C 422.867188 237.3125 422.03125 236.683594 421.175781 236.074219 C 420.320312 235.46875 419.453125 234.882812 418.570312 234.316406 C 417.6875 233.75 416.792969 233.207031 415.882812 232.6875 C 414.972656 232.164062 414.054688 231.664062 413.121094 231.1875 C 412.1875 230.714844 411.242188 230.261719 410.285156 229.832031 C 409.328125 229.402344 408.363281 228.996094 407.386719 228.613281 C 406.410156 228.230469 405.425781 227.871094 404.433594 227.539062 C 403.441406 227.203125 402.4375 226.894531 401.429688 226.609375 C 400.421875 226.324219 399.40625 226.066406 398.386719 225.832031 C 397.363281 225.59375 396.335938 225.386719 395.304688 225.199219 C 394.273438 225.015625 393.238281 224.855469 392.199219 224.722656 C 391.160156 224.589844 390.117188 224.480469 389.070312 224.398438 C 388.027344 224.316406 386.980469 224.257812 385.933594 224.226562 C 384.886719 224.195312 383.839844 224.191406 382.789062 224.210938 C 381.742188 224.230469 380.695312 224.277344 379.648438 224.347656 C 378.605469 224.421875 377.5625 224.515625 376.519531 224.640625 C 375.480469 224.761719 374.441406 224.910156 373.410156 225.085938 C 372.375 225.257812 371.347656 225.457031 370.320312 225.679688 C 369.296875 225.90625 368.28125 226.15625 367.269531 226.429688 C 366.257812 226.703125 365.253906 227 364.257812 227.324219 C 363.257812 227.648438 362.269531 227.996094 361.289062 228.367188 C 360.3125 228.738281 359.339844 229.136719 358.378906 229.554688 C 357.421875 229.976562 356.46875 230.417969 355.53125 230.882812 C 354.59375 231.351562 353.667969 231.839844 352.75 232.351562 C 351.835938 232.863281 350.933594 233.394531 350.046875 233.953125 C 349.160156 234.507812 348.285156 235.085938 347.425781 235.683594 C 346.5625 236.285156 345.71875 236.902344 344.890625 237.542969 C 344.058594 238.183594 343.246094 238.84375 342.449219 239.523438 C 341.652344 240.203125 340.871094 240.902344 340.109375 241.621094 C 339.34375 242.339844 338.601562 243.078125 337.875 243.832031 C 337.144531 244.585938 336.4375 245.359375 335.75 246.148438 C 335.0625 246.941406 334.390625 247.746094 333.742188 248.570312 C 333.09375 249.390625 332.464844 250.230469 331.855469 251.082031 C 331.246094 251.9375 330.660156 252.804688 330.09375 253.6875 C 329.53125 254.570312 328.984375 255.464844 328.464844 256.375 C 327.941406 257.285156 327.445312 258.203125 326.96875 259.136719 C 326.492188 260.070312 326.039062 261.015625 325.609375 261.972656 C 325.179688 262.929688 324.773438 263.894531 324.390625 264.871094 C 324.007812 265.847656 323.648438 266.832031 323.3125 267.824219 C 322.980469 268.816406 322.667969 269.816406 322.382812 270.828125 C 322.097656 271.835938 321.839844 272.851562 321.605469 273.871094 C 321.367188 274.894531 321.160156 275.917969 320.972656 276.949219 C 320.789062 277.984375 320.628906 279.019531 320.496094 280.058594 C 320.359375 281.097656 320.253906 282.140625 320.167969 283.183594 C 320.085938 284.230469 320.027344 285.273438 319.996094 286.324219 C 319.964844 287.371094 319.960938 288.417969 319.980469 289.464844 C 320 290.511719 320.046875 291.558594 320.117188 292.605469 C 320.1875 293.652344 320.285156 294.695312 320.40625 295.734375 C 320.53125 296.777344 320.675781 297.8125 320.851562 298.847656 C 321.023438 299.882812 321.222656 300.910156 321.445312 301.933594 C 321.671875 302.957031 321.917969 303.976562 322.191406 304.988281 C 322.46875 306 322.765625 307.003906 323.089844 308 C 323.410156 308.996094 323.757812 309.984375 324.128906 310.964844 C 324.503906 311.945312 324.898438 312.917969 325.316406 313.875 C 325.738281 314.835938 326.179688 315.789062 326.644531 316.726562 C 327.109375 317.664062 327.597656 318.589844 328.109375 319.507812 C 328.621094 320.421875 329.15625 321.324219 329.710938 322.210938 C 330.265625 323.101562 330.84375 323.976562 331.441406 324.835938 C 332.042969 325.695312 332.660156 326.539062 333.300781 327.371094 C 333.941406 328.199219 334.601562 329.015625 335.28125 329.8125 C 335.960938 330.609375 336.660156 331.390625 337.378906 332.152344 C 338.097656 332.917969 338.832031 333.660156 339.589844 334.386719 C 340.34375 335.117188 341.117188 335.824219 341.90625 336.511719 C 342.695312 337.203125 343.5 337.871094 344.324219 338.519531 C 345.144531 339.171875 345.984375 339.800781 346.835938 340.40625 C 347.691406 341.015625 348.558594 341.601562 349.441406 342.167969 C 350.324219 342.734375 351.21875 343.277344 352.128906 343.800781 C 353.035156 344.324219 353.957031 344.820312 354.890625 345.296875 C 355.824219 345.777344 356.769531 346.230469 357.722656 346.660156 C 358.679688 347.089844 359.644531 347.496094 360.621094 347.878906 C 361.597656 348.261719 362.582031 348.621094 363.574219 348.957031 C 364.566406 349.289062 365.570312 349.601562 366.578125 349.886719 C 367.585938 350.171875 368.601562 350.429688 369.621094 350.667969 C 370.644531 350.902344 371.667969 351.113281 372.703125 351.296875 C 373.734375 351.484375 374.769531 351.644531 375.808594 351.777344 C 376.847656 351.910156 377.890625 352.019531 378.933594 352.105469 C 379.980469 352.1875 381.023438 352.246094 382.074219 352.277344 C 383.121094 352.308594 384.167969 352.316406 385.21875 352.296875 C 386.265625 352.277344 387.316406 352.230469 388.359375 352.160156 C 389.40625 352.089844 390.453125 351.992188 391.492188 351.871094 C 392.535156 351.746094 393.574219 351.597656 394.609375 351.425781 C 395.640625 351.253906 396.671875 351.054688 397.695312 350.828125 C 398.722656 350.605469 399.738281 350.355469 400.753906 350.082031 C 401.765625 349.808594 402.769531 349.511719 403.769531 349.1875 C 404.765625 348.863281 405.753906 348.515625 406.734375 348.144531 C 407.714844 347.773438 408.6875 347.375 409.648438 346.957031 C 410.609375 346.539062 411.558594 346.09375 412.5 345.628906 C 413.4375 345.160156 414.367188 344.671875 415.28125 344.160156 C 416.199219 343.648438 417.101562 343.113281 417.988281 342.558594 C 418.878906 342.003906 419.753906 341.425781 420.613281 340.824219 C 421.476562 340.226562 422.320312 339.605469 423.152344 338.964844 C 423.980469 338.324219 424.796875 337.664062 425.59375 336.984375 C 426.390625 336.300781 427.171875 335.601562 427.9375 334.882812 C 428.699219 334.164062 429.445312 333.425781 430.171875 332.671875 C 430.898438 331.914062 431.609375 331.140625 432.296875 330.351562 C 432.988281 329.5625 433.65625 328.753906 434.308594 327.929688 C 434.957031 327.109375 435.585938 326.269531 436.195312 325.414062 C 436.800781 324.558594 437.390625 323.691406 437.957031 322.808594 C 438.519531 321.925781 439.066406 321.027344 439.585938 320.117188 C 440.109375 319.207031 440.609375 318.285156 441.085938 317.351562 C 441.5625 316.417969 442.015625 315.472656 442.445312 314.515625 C 442.875 313.558594 443.28125 312.59375 443.664062 311.617188 C 444.046875 310.640625 444.402344 309.652344 444.738281 308.660156 C 445.074219 307.664062 445.382812 306.664062 445.667969 305.652344 C 445.953125 304.644531 446.210938 303.628906 446.445312 302.605469 C 446.683594 301.585938 446.890625 300.558594 447.078125 299.523438 C 447.261719 298.492188 447.421875 297.457031 447.554688 296.414062 C 447.6875 295.375 447.796875 294.332031 447.878906 293.285156 C 447.960938 292.238281 448.015625 291.191406 448.046875 290.144531 Z M 364.550781 321.804688 L 393.921875 288.222656 L 364.550781 254.640625 L 371.414062 248.601562 L 406.09375 288.222656 L 371.414062 327.84375 Z M 364.550781 321.804688 " fill-opacity="1" fill-rule="nonzero"/></g></svg>