<svg xmlns="http://www.w3.org/2000/svg" xmlns:xlink="http://www.w3.org/1999/xlink" width="1024" zoomAndPan="magnify" viewBox="0 0 768 576" height="768" preserveAspectRatio="xMidYMid meet" version="1.0"><defs><clipPath id="e1749fc7bf"><path d="M 225.132812 129.132812 L 543.132812 129.132812 L 543.132812 447.132812 L 225.132812 447.132812 Z M 225.132812 129.132812 " clip-rule="nonzero"/></clipPath></defs><g clip-path="url(#e1749fc7bf)"><path fill="#000000" d="M 384.132812 447.132812 C 341.664062 447.132812 301.738281 430.59375 271.703125 400.566406 C 241.671875 370.53125 225.132812 330.605469 225.132812 288.132812 C 225.132812 245.664062 241.671875 205.738281 271.703125 175.703125 C 301.738281 145.671875 341.664062 129.132812 384.132812 129.132812 C 426.605469 129.132812 466.53125 145.671875 496.566406 175.703125 C 526.59375 205.738281 543.132812 245.664062 543.132812 288.132812 C 543.132812 330.605469 526.59375 370.53125 496.566406 400.566406 C 466.535156 430.597656 426.605469 447.132812 384.132812 447.132812 Z M 384.132812 153.402344 C 309.839844 153.402344 249.402344 213.84375 249.402344 288.132812 C 249.402344 362.429688 309.84375 422.867188 384.132812 422.867188 C 458.429688 422.867188 518.867188 362.421875 518.867188 288.132812 C 518.867188 213.839844 458.429688 153.402344 384.132812 153.402344 Z M 384.132812 153.402344 " fill-opacity="1" fill-rule="nonzero"/></g><path fill="#000000" d="M 436.910156 349.527344 C 434.546875 349.527344 432.160156 348.835938 430.058594 347.398438 L 370.949219 306.867188 C 367.644531 304.597656 365.675781 300.847656 365.679688 296.839844 L 365.832031 197.652344 C 365.84375 190.957031 371.273438 185.539062 377.964844 185.539062 C 377.96875 185.539062 377.976562 185.539062 377.984375 185.539062 C 384.679688 185.550781 390.105469 190.992188 390.09375 197.691406 L 389.953125 290.476562 L 443.78125 327.386719 C 449.304688 331.179688 450.714844 338.730469 446.921875 344.257812 C 444.574219 347.683594 440.769531 349.527344 436.910156 349.527344 Z M 436.910156 349.527344 " fill-opacity="1" fill-rule="nonzero"/></svg>