<svg xmlns="http://www.w3.org/2000/svg" xmlns:xlink="http://www.w3.org/1999/xlink" width="1024" zoomAndPan="magnify" viewBox="0 0 768 576" height="768" preserveAspectRatio="xMidYMid meet" version="1.0"><defs><clipPath id="ae6ddd63a3"><path d="M 437 252 L 558.871094 252 L 558.871094 394 L 437 394 Z M 437 252 " clip-rule="nonzero"/></clipPath><clipPath id="ad268888a7"><path d="M 209.371094 112 L 355 112 L 355 461 L 209.371094 461 Z M 209.371094 112 " clip-rule="nonzero"/></clipPath></defs><g clip-path="url(#ae6ddd63a3)"><path fill="#2b2a29" d="M 438.222656 378.113281 C 439.589844 370.832031 442.289062 360.269531 445.472656 349.027344 C 449.335938 335.355469 453.882812 320.691406 457.542969 309.824219 C 460.859375 299.914062 463.425781 293.179688 465.683594 288.359375 C 468.007812 283.4375 469.992188 280.5 472.214844 278.3125 C 476.523438 274.003906 481.308594 272.636719 494.648438 268.808594 L 504.566406 265.972656 C 518.074219 262.078125 535.035156 257.222656 544.78125 254.625 C 550.867188 253.019531 554.152344 252.300781 555.859375 252.371094 C 558.871094 252.507812 558.871094 253.910156 558.1875 256.402344 C 557.84375 257.566406 557.296875 259.070312 556.476562 261.359375 C 555.144531 265.050781 553.058594 270.792969 550.046875 280.15625 C 547.757812 287.300781 544.917969 296.632812 542.078125 306.0625 C 538.898438 316.589844 535.648438 327.21875 533.121094 335.046875 C 530.691406 342.601562 528.84375 347.695312 527 351.382812 C 525.082031 355.210938 523.167969 357.570312 520.570312 359.484375 C 517.183594 362.015625 512.773438 363.792969 506.242188 366.355469 C 503.128906 367.585938 499.503906 369.019531 495.160156 370.898438 C 488.765625 373.632812 480.898438 377.257812 473.273438 380.777344 C 465.441406 384.402344 457.851562 387.886719 452.070312 390.347656 C 446.050781 392.875 441.984375 394.210938 439.488281 392.570312 C 437.023438 390.929688 436.683594 386.621094 438.253906 378.042969 Z M 447.96875 349.710938 C 444.789062 360.886719 442.121094 371.414062 440.785156 378.554688 C 439.417969 385.972656 439.417969 389.492188 440.886719 390.484375 C 442.359375 391.441406 445.777344 390.246094 451.011719 388.023438 C 456.621094 385.664062 464.28125 382.109375 472.144531 378.488281 C 479.804688 374.96875 487.636719 371.34375 494.101562 368.578125 C 498.339844 366.765625 502.035156 365.296875 505.214844 364.03125 C 511.574219 361.5 515.851562 359.828125 518.960938 357.46875 C 521.21875 355.792969 522.929688 353.707031 524.636719 350.257812 C 526.417969 346.703125 528.195312 341.710938 530.625 334.261719 C 533.1875 326.332031 536.402344 315.738281 539.582031 305.3125 C 542.457031 295.914062 545.261719 286.617188 547.585938 279.371094 C 550.628906 269.871094 552.679688 264.160156 554.015625 260.472656 C 554.800781 258.25 555.347656 256.78125 555.65625 255.6875 C 555.792969 255.207031 555.859375 254.933594 555.722656 254.933594 C 554.320312 254.867188 551.246094 255.550781 545.429688 257.085938 C 535.855469 259.617188 518.824219 264.539062 505.28125 268.433594 L 495.367188 271.269531 C 482.507812 274.960938 477.925781 276.261719 474.058594 280.089844 C 472.078125 282.070312 470.195312 284.804688 468.042969 289.386719 C 465.820312 294.101562 463.320312 300.734375 460.003906 310.574219 C 456.378906 321.375 451.832031 336.003906 447.96875 349.640625 Z M 447.96875 349.710938 " fill-opacity="1" fill-rule="nonzero"/></g><path fill="#2b2a29" d="M 450.054688 338.292969 C 445.0625 337.234375 440.066406 336.175781 435.382812 335.21875 C 430.800781 334.296875 426.730469 333.578125 423.753906 333.167969 C 420.816406 332.792969 418.832031 332.722656 415.753906 333.371094 C 412.574219 334.023438 408.230469 335.457031 400.636719 337.988281 C 392.976562 340.550781 382.070312 344.277344 371.535156 348.035156 C 360.96875 351.828125 350.675781 355.757812 344.175781 358.765625 C 341.132812 360.167969 338.980469 361.332031 337.644531 362.253906 C 338.910156 361.980469 340.140625 362.046875 341.542969 362.390625 C 343.324219 362.835938 345.410156 363.722656 348.28125 365.054688 L 349.683594 365.707031 C 355.257812 368.335938 363.636719 372.234375 376.050781 376.230469 C 379.128906 377.222656 382.445312 378.214844 385.898438 379.207031 L 388.875 379.855469 C 395.644531 381.324219 401.9375 382.589844 407.683594 383.75 C 417.496094 385.734375 425.738281 387.410156 430.21875 388.707031 C 435.621094 390.28125 436.03125 391.371094 437.160156 394.3125 C 437.570312 395.441406 438.152344 396.945312 439.351562 398.996094 C 440.992188 401.730469 443.796875 405.488281 446.976562 409.453125 C 451.320312 414.851562 456.414062 420.664062 460.3125 425.003906 C 462.226562 427.125 463.871094 428.902344 465.238281 430.40625 C 468.828125 434.300781 470.878906 436.488281 472.28125 438.914062 C 473.207031 440.488281 473.820312 442.058594 474.332031 443.425781 C 474.847656 444.792969 475.292969 445.921875 475.769531 446.367188 C 476.042969 446.640625 476.417969 446.671875 476.417969 446.707031 L 476.214844 447.972656 L 476.214844 449.269531 C 476.113281 449.269531 476.078125 449.269531 475.976562 449.238281 C 475.703125 449.203125 474.503906 449.132812 471.359375 449.339844 C 467.425781 449.613281 460.722656 450.296875 452.789062 451.117188 C 446.597656 451.765625 439.625 452.484375 432.476562 453.132812 C 424.472656 453.886719 416.503906 454.535156 409.597656 454.945312 C 402.621094 455.355469 396.636719 455.492188 392.703125 455.183594 C 387.507812 454.808594 385.488281 453.679688 384.566406 452.929688 C 383.128906 453.953125 379.023438 456.207031 365.210938 458.054688 C 348.453125 460.308594 317.058594 462.121094 300.371094 463.078125 L 298.113281 463.214844 C 290.28125 463.660156 286.519531 463.898438 284.398438 463.214844 C 281.871094 462.429688 281.597656 460.925781 281.152344 457.984375 L 281.015625 457.097656 C 280.46875 453.816406 279.304688 448.757812 277.730469 443.222656 C 276.464844 438.742188 274.960938 433.992188 273.25 429.617188 C 271.269531 424.457031 269.011719 419.84375 267.128906 415.980469 C 265.421875 412.460938 264.019531 409.589844 263.335938 407.402344 C 262.511719 404.769531 262.683594 403.027344 263.472656 401.761719 C 264.257812 400.5 265.558594 399.847656 266.992188 399.300781 C 268.292969 398.824219 269.695312 398.378906 272.5 397.867188 C 275.234375 397.355469 279.339844 396.773438 285.9375 395.988281 C 293.53125 395.0625 304.542969 393.902344 314.9375 393.011719 C 322.632812 392.363281 330.019531 391.886719 335.527344 391.78125 C 342.125 391.679688 346.023438 392.191406 348.929688 393.765625 C 349.339844 394.003906 349.75 394.242188 350.128906 394.515625 C 350.300781 394.039062 350.710938 393.765625 351.460938 393.664062 C 352.042969 393.59375 353.207031 393.628906 354.882812 393.664062 C 357.6875 393.730469 361.996094 393.867188 367.125 393.558594 C 372.699219 393.253906 379.296875 392.433594 384.804688 391.714844 C 387.128906 391.441406 389.25 391.167969 391.234375 390.960938 C 394.414062 390.621094 396.570312 390.519531 399.066406 391.203125 C 401.21875 391.816406 403.542969 392.980469 406.929688 395.167969 C 416.914062 394.925781 424.40625 394.722656 427.550781 394.039062 C 425.875 393.183594 422.730469 392.089844 417.90625 390.722656 C 414.113281 389.628906 409.1875 388.296875 403.816406 386.894531 C 397.867188 385.324219 391.40625 383.613281 385.25 381.835938 C 377.074219 380.058594 368.902344 378.144531 361.585938 376.265625 C 354.0625 374.351562 347.390625 372.472656 342.535156 370.796875 C 338.671875 369.5 335.832031 368.269531 334.398438 366.800781 C 333.746094 367.3125 333.097656 367.925781 332.480469 368.644531 C 331.695312 369.601562 330.941406 370.695312 330.363281 371.960938 C 330.5 372.917969 330.601562 373.90625 330.667969 374.96875 C 330.804688 377.597656 330.636719 380.777344 330.292969 383.203125 C 330.15625 384.296875 329.953125 385.253906 329.78125 385.9375 C 329.4375 387.167969 328.824219 387.921875 327.96875 387.886719 L 327.695312 387.851562 L 327.625 387.820312 C 326.769531 387.578125 326.054688 385.359375 325.984375 382.519531 C 325.917969 380.128906 326.121094 377.050781 326.804688 374.351562 L 327.042969 373.496094 C 327.25 372.847656 327.453125 372.199219 327.726562 371.582031 C 327.285156 368.304688 326.875 364.953125 328.414062 358.289062 C 329.472656 353.707031 331.457031 347.589844 333.746094 341.609375 C 335.9375 335.867188 338.433594 330.261719 340.65625 326.332031 C 343.050781 322.058594 345.136719 319.804688 346.675781 318.09375 C 347.90625 316.726562 348.726562 315.804688 348.964844 314.609375 C 349.273438 313.003906 348.792969 310.472656 348.246094 307.671875 C 347.800781 305.414062 347.324219 303.023438 347.1875 300.527344 C 346.980469 297.65625 347.222656 294.75 347.800781 292.121094 C 348.074219 290.820312 348.453125 289.554688 348.929688 288.394531 L 348.382812 288.734375 C 345.03125 290.753906 340.792969 293.351562 338.84375 296.1875 C 337.578125 298.03125 337.234375 300.1875 336.925781 302.03125 C 336.652344 303.671875 336.449219 305.074219 335.695312 306.199219 C 335.046875 307.15625 334.191406 307.636719 333.199219 308.25 C 331.695312 309.140625 329.710938 310.335938 328.003906 313.925781 C 326.53125 317 325.199219 321.890625 323.761719 327.1875 C 322.460938 332.003906 321.058594 337.167969 319.28125 341.816406 C 316.785156 348.445312 313.671875 353.84375 311.109375 358.289062 C 309.878906 360.40625 308.78125 362.289062 307.960938 363.996094 C 307.074219 365.84375 306.457031 367.484375 305.910156 368.882812 C 304.851562 371.71875 304.097656 373.769531 302.011719 375.136719 C 300.300781 376.230469 297.804688 376.777344 295.378906 376.4375 C 293.257812 376.128906 291.136719 375.171875 289.667969 373.394531 C 287.613281 370.933594 286.929688 367.039062 286.042969 362.253906 C 285.664062 360.101562 285.222656 357.777344 284.640625 355.347656 C 284.230469 353.640625 283.683594 351.726562 283.132812 349.777344 C 281.355469 343.421875 279.441406 336.652344 280.332031 330.398438 C 281.152344 324.554688 284.398438 319.429688 287.957031 313.789062 C 289.324219 311.636719 290.761719 309.378906 292.09375 306.953125 C 296.371094 299.332031 299.824219 290.171875 303.070312 281.628906 L 304.03125 279.132812 C 307.175781 270.894531 310.183594 263.273438 312.75 256.882812 L 314.390625 252.746094 C 316.71875 246.867188 318.597656 242.117188 320.820312 237.023438 C 321.710938 234.972656 322.257812 233.710938 322.871094 232.375 C 324.683594 228.34375 326.394531 224.414062 327.421875 221.507812 C 328.035156 219.730469 328.378906 218.328125 328.652344 217.132812 C 329.027344 215.527344 329.371094 214.160156 330.121094 212.621094 C 331.25 210.332031 333.234375 207.800781 334.976562 205.613281 L 336.277344 203.972656 C 338.089844 201.648438 339.425781 199.90625 342.398438 199.15625 C 343.699219 198.8125 345.304688 198.710938 346.949219 198.746094 C 349.035156 198.78125 351.152344 199.019531 352.863281 199.292969 C 354.402344 199.53125 355.632812 199.804688 356.660156 200.179688 C 357.753906 200.589844 358.675781 201.101562 359.566406 201.820312 C 360.695312 202.710938 361.824219 203.941406 362.816406 205 C 363.191406 205.410156 363.566406 205.820312 364.011719 206.265625 C 364.320312 206.570312 364.558594 206.8125 364.765625 206.980469 C 365.242188 207.425781 365.585938 207.699219 365.757812 208.144531 C 366.097656 208.929688 365.996094 209.511719 365.347656 209.921875 C 368.867188 210.808594 371.570312 212.210938 373.347656 213.132812 L 374.238281 213.578125 C 376.1875 214.570312 376.800781 214.878906 376.800781 216.414062 C 376.800781 217.167969 376.527344 218.226562 375.707031 219.082031 C 375.125 219.664062 374.304688 220.175781 373.175781 220.414062 L 372.734375 220.480469 C 374.441406 221.132812 375.808594 221.882812 376.632812 222.667969 C 377.074219 223.078125 377.382812 223.523438 377.554688 224.003906 C 377.792969 224.652344 377.792969 225.265625 377.554688 225.882812 C 377.316406 226.429688 376.90625 226.90625 376.289062 227.25 C 375.707031 227.589844 374.886719 227.863281 373.859375 228 C 372.117188 228.242188 369.757812 228.105469 367.191406 227.96875 C 365.347656 227.863281 363.363281 227.761719 361.550781 227.796875 C 359.429688 227.832031 357.410156 228 355.566406 228.378906 C 353.71875 228.71875 352.042969 229.230469 350.503906 229.882812 C 349.238281 230.429688 348.109375 231.078125 347.253906 231.691406 L 348.007812 231.589844 C 349.613281 231.386719 351.632812 231.007812 353.71875 230.632812 L 353.820312 230.597656 C 358.0625 229.8125 362.542969 228.957031 366.0625 228.753906 C 366.78125 228.71875 367.433594 228.683594 368.011719 228.683594 C 369.347656 228.683594 370.511719 228.820312 371.363281 229.0625 C 372.628906 229.4375 373.417969 230.15625 373.484375 231.214844 L 373.484375 231.351562 C 373.484375 232.410156 372.597656 233.640625 370.851562 234.769531 C 369.550781 235.625 367.707031 236.546875 365.378906 237.367188 C 364.011719 237.84375 362.542969 238.289062 361.035156 238.734375 C 357.070312 239.929688 352.660156 241.230469 349.820312 243.3125 C 347.015625 245.363281 345.511719 248.335938 344.109375 251.175781 C 343.527344 252.300781 342.980469 253.429688 342.363281 254.457031 C 341.714844 255.515625 341.03125 256.472656 340.347656 257.464844 C 338.570312 259.957031 336.652344 262.625 335.390625 267.339844 C 334.261719 271.542969 333.609375 277.457031 332.960938 283.574219 C 332.585938 287.164062 332.175781 290.820312 331.660156 294.238281 C 330.941406 299.160156 329.984375 303.636719 328.960938 307.976562 C 329.984375 307.019531 331.011719 306.40625 331.867188 305.894531 C 332.617188 305.449219 333.234375 305.074219 333.578125 304.59375 C 334.019531 303.945312 334.191406 302.816406 334.398438 301.484375 C 334.738281 299.398438 335.113281 296.9375 336.722656 294.582031 C 338.980469 291.265625 343.492188 288.53125 347.050781 286.34375 L 348.863281 285.214844 C 350.4375 284.222656 351.496094 283.4375 351.976562 282.449219 C 352.453125 281.421875 352.417969 279.953125 351.804688 277.492188 C 351.222656 275.203125 350.164062 272.160156 349.203125 269.355469 C 347.699219 264.980469 346.367188 261.15625 347.769531 260.335938 C 347.90625 260.265625 348.007812 260.230469 348.144531 260.199219 C 348.964844 260.027344 350.09375 260.882812 351.257812 262.382812 C 352.113281 263.511719 353.136719 265.117188 354.128906 266.863281 C 355.601562 269.425781 356.96875 272.363281 357.480469 274.6875 C 358.507812 279.167969 356.726562 281.320312 354.675781 283.78125 C 354.0625 284.53125 353.410156 285.285156 352.828125 286.207031 C 351.734375 287.914062 350.878906 290.101562 350.332031 292.53125 C 349.785156 294.957031 349.582031 297.589844 349.75 300.1875 C 349.886719 302.476562 350.367188 304.832031 350.777344 306.988281 C 351.394531 310.0625 351.90625 312.832031 351.496094 314.917969 C 351.121094 316.832031 350.09375 317.957031 348.554688 319.632812 C 347.085938 321.238281 345.136719 323.425781 342.878906 327.390625 C 340.722656 331.183594 338.296875 336.6875 336.140625 342.328125 C 333.882812 348.207031 331.933594 354.222656 330.910156 358.664062 C 329.984375 362.59375 329.816406 365.296875 329.917969 367.515625 C 330.121094 367.277344 330.292969 367.003906 330.5 366.765625 C 331.386719 365.738281 332.3125 364.851562 333.269531 364.167969 C 333.300781 361.84375 336.277344 359.417969 343.050781 356.273438 C 349.582031 353.230469 359.941406 349.300781 370.613281 345.472656 C 381.28125 341.644531 392.15625 337.953125 399.78125 335.390625 C 407.476562 332.824219 411.890625 331.390625 415.171875 330.707031 C 418.589844 329.988281 420.78125 330.058594 424.027344 330.46875 C 427.210938 330.878906 431.3125 331.628906 435.863281 332.519531 C 440.308594 333.40625 445.4375 334.5 450.566406 335.59375 L 450.019531 338.125 Z M 336.585938 365.363281 C 337.679688 366.21875 340.074219 367.175781 343.355469 368.269531 C 347.527344 369.671875 353.101562 371.277344 359.429688 372.949219 C 354.984375 371.105469 351.394531 369.429688 348.554688 368.097656 L 347.152344 367.449219 C 344.453125 366.183594 342.5 365.328125 340.929688 364.953125 C 339.527344 364.613281 338.363281 364.679688 337.097656 365.160156 Z M 429.433594 391.203125 C 428.03125 390.792969 426.253906 390.347656 424.132812 389.871094 C 426.457031 390.65625 428.132812 391.339844 429.160156 391.917969 C 432.648438 393.902344 432.375 395.304688 428.851562 396.328125 C 426.183594 397.113281 419.652344 397.386719 410.691406 397.628906 C 414.523438 400.226562 419.140625 403.507812 423.6875 406.820312 C 429.125 410.753906 434.699219 414.886719 438.5625 417.757812 C 442.460938 420.664062 444.683594 422.304688 445.574219 423.5 C 447.285156 425.722656 446.359375 426.609375 443.625 427.566406 C 442.015625 428.148438 439.351562 428.796875 436.339844 429.480469 C 433.296875 430.164062 430.082031 430.816406 427.242188 431.363281 C 424.304688 431.941406 421.703125 432.421875 418.867188 432.320312 C 415.992188 432.214844 412.984375 431.53125 409.222656 429.789062 C 403.714844 427.226562 396.601562 422.304688 389.660156 417.519531 C 387.4375 415.980469 385.214844 414.441406 383.058594 413.007812 L 380.152344 411.09375 C 375.160156 407.777344 371.023438 405.042969 369.722656 402.753906 C 368.699219 400.976562 369.003906 399.507812 371.023438 398.34375 C 373.28125 397.082031 378.375 396.363281 384.53125 395.917969 C 389.933594 395.542969 396.226562 395.371094 402.007812 395.234375 C 400.570312 394.484375 399.40625 393.96875 398.3125 393.664062 C 396.226562 393.082031 394.3125 393.183594 391.4375 393.492188 C 389.761719 393.664062 387.507812 393.96875 385.042969 394.242188 C 379.503906 394.925781 372.902344 395.746094 367.160156 396.089844 C 362.0625 396.398438 357.71875 396.261719 354.882812 396.191406 C 356.285156 397.285156 358.097656 398.925781 360.148438 401.285156 C 362.710938 404.222656 365.6875 408.257812 368.628906 412.699219 C 372.015625 417.757812 375.398438 423.328125 378.171875 428.320312 C 380.804688 433.035156 382.957031 437.273438 384.292969 440.382812 C 385.832031 443.90625 386.308594 446.433594 385.523438 447.289062 C 385.453125 447.355469 385.386719 447.425781 385.316406 447.492188 C 384.53125 448.074219 383.539062 447.871094 382.34375 446.945312 C 381.625 446.367188 380.699219 445.441406 379.640625 444.210938 C 377.554688 441.785156 374.785156 438.058594 371.742188 433.378906 C 367.910156 427.5 363.636719 420.117188 359.839844 413.554688 C 357.582031 409.625 355.460938 406 353.753906 403.199219 C 351.53125 399.574219 349.957031 397.285156 347.5625 395.988281 C 345.101562 394.652344 341.578125 394.242188 335.421875 394.3125 C 330.089844 394.378906 322.734375 394.859375 315.007812 395.542969 C 304.644531 396.429688 293.703125 397.59375 286.109375 398.515625 C 279.511719 399.300781 275.472656 399.882812 272.839844 400.363281 C 270.242188 400.839844 268.941406 401.25 267.8125 401.660156 C 266.824219 402.035156 265.96875 402.445312 265.589844 403.0625 C 265.179688 403.710938 265.148438 404.769531 265.726562 406.582031 C 266.34375 408.597656 267.710938 411.402344 269.386719 414.820312 C 271.269531 418.714844 273.523438 423.363281 275.578125 428.660156 C 277.285156 433.105469 278.859375 437.957031 280.125 442.46875 C 281.734375 448.109375 282.894531 453.304688 283.476562 456.617188 L 283.613281 457.542969 C 283.921875 459.421875 284.09375 460.414062 285.085938 460.71875 C 286.761719 461.234375 290.382812 461.027344 297.875 460.582031 L 300.132812 460.445312 C 316.785156 459.488281 348.144531 457.679688 364.765625 455.457031 C 379.539062 453.472656 382.375 451.253906 383.265625 450.535156 C 383.503906 450.363281 383.640625 450.226562 383.882812 450.160156 C 384.804688 449.75 385.144531 450.058594 385.761719 450.636719 C 386.273438 451.117188 387.472656 452.210938 392.738281 452.585938 C 396.601562 452.859375 402.449219 452.722656 409.324219 452.347656 C 416.265625 451.9375 424.164062 451.289062 432.101562 450.570312 C 438.9375 449.921875 446.050781 449.203125 452.378906 448.554688 C 460.382812 447.734375 467.152344 447.015625 471.050781 446.777344 L 472.761719 446.671875 C 472.417969 445.988281 472.109375 445.238281 471.804688 444.382812 C 471.324219 443.117188 470.742188 441.648438 469.921875 440.246094 C 468.65625 438.09375 466.671875 435.976562 463.21875 432.183594 C 461.816406 430.679688 460.175781 428.902344 458.261719 426.78125 C 454.363281 422.441406 449.234375 416.597656 444.820312 411.128906 C 441.539062 407.0625 438.664062 403.199219 436.957031 400.363281 C 435.65625 398.140625 435.039062 396.535156 434.5625 395.269531 C 433.777344 393.21875 433.5 392.433594 429.328125 391.234375 Z M 354.265625 399.027344 C 354.847656 399.882812 355.429688 400.804688 356.042969 401.832031 C 357.789062 404.703125 359.910156 408.324219 362.164062 412.253906 C 365.960938 418.816406 370.234375 426.167969 373.996094 431.941406 C 376.972656 436.523438 379.675781 440.144531 381.691406 442.503906 C 382.207031 443.085938 382.683594 443.597656 383.09375 444.042969 L 381.964844 441.410156 C 380.632812 438.332031 378.546875 434.230469 375.945312 429.585938 C 373.175781 424.628906 369.824219 419.125 366.507812 414.136719 C 363.601562 409.761719 360.695312 405.796875 358.234375 402.992188 C 356.726562 401.285156 355.394531 399.984375 354.265625 399.027344 Z M 406.929688 398.207031 L 406.179688 397.730469 L 403.851562 397.796875 C 397.695312 397.933594 390.753906 398.105469 384.734375 398.515625 C 378.957031 398.925781 374.203125 399.542969 372.324219 400.601562 C 371.878906 400.839844 371.808594 401.148438 371.980469 401.488281 C 372.972656 403.234375 376.871094 405.832031 381.589844 408.941406 L 384.496094 410.855469 C 386.652344 412.289062 388.875 413.828125 391.097656 415.367188 C 397.9375 420.082031 404.980469 424.9375 410.28125 427.398438 C 413.703125 429.003906 416.402344 429.617188 418.898438 429.6875 C 421.429688 429.789062 423.890625 429.3125 426.695312 428.765625 C 429.636719 428.183594 432.921875 427.535156 435.726562 426.917969 C 438.597656 426.269531 441.164062 425.652344 442.699219 425.105469 C 443.113281 424.96875 443.554688 425.210938 443.453125 425.074219 C 442.769531 424.183594 440.683594 422.613281 436.957031 419.84375 C 433.195312 417.074219 427.789062 413.042969 422.078125 408.90625 C 416.503906 404.839844 410.863281 400.839844 406.828125 398.207031 Z M 354.675781 279.167969 C 355.121094 278.105469 355.257812 276.910156 354.882812 275.339844 C 354.402344 273.289062 353.136719 270.621094 351.804688 268.230469 C 351.359375 267.441406 350.878906 266.65625 350.4375 265.972656 C 350.8125 266.757812 351.222656 267.648438 351.5625 268.640625 C 352.554688 271.476562 353.648438 274.621094 354.230469 276.980469 C 354.4375 277.800781 354.574219 278.515625 354.675781 279.167969 Z M 321.164062 326.433594 C 321.914062 323.734375 322.597656 321.136719 323.316406 318.777344 C 325.472656 310.984375 327.625 303.195312 328.992188 293.929688 C 329.507812 290.480469 329.882812 286.890625 330.257812 283.371094 C 330.941406 277.148438 331.59375 271.132812 332.753906 266.726562 C 334.125 261.566406 336.175781 258.695312 338.089844 256.027344 C 338.773438 255.070312 339.425781 254.148438 340.003906 253.191406 C 340.585938 252.199219 341.132812 251.140625 341.679688 250.082031 C 343.253906 246.96875 344.894531 243.6875 348.179688 241.261719 C 351.394531 238.90625 356.042969 237.503906 360.183594 236.273438 C 361.722656 235.828125 363.15625 235.382812 364.421875 234.941406 C 366.578125 234.1875 368.21875 233.367188 369.347656 232.648438 C 370.304688 232 370.816406 231.554688 370.816406 231.386719 C 370.785156 231.316406 370.714844 231.625 370.578125 231.589844 C 369.996094 231.417969 369.074219 231.316406 367.980469 231.316406 C 367.398438 231.316406 366.816406 231.351562 366.234375 231.386719 C 362.847656 231.625 358.4375 232.445312 354.300781 233.195312 L 354.199219 233.230469 C 352.042969 233.640625 349.957031 234.015625 348.316406 234.222656 C 346.367188 234.460938 344.828125 234.425781 344.109375 233.8125 C 343.972656 233.710938 343.871094 233.574219 343.765625 233.402344 C 343.355469 232.71875 343.460938 231.964844 344.007812 231.214844 C 344.3125 230.804688 344.757812 230.359375 345.339844 229.882812 C 346.367188 229.09375 347.800781 228.207031 349.445312 227.523438 C 351.152344 226.769531 353.035156 226.222656 355.050781 225.847656 C 357.035156 225.472656 359.191406 225.265625 361.515625 225.234375 C 363.464844 225.199219 365.449219 225.335938 367.296875 225.402344 C 369.757812 225.539062 372.015625 225.644531 373.519531 225.472656 C 374.167969 225.371094 374.648438 225.234375 374.988281 225.0625 L 375.125 224.960938 C 375.09375 224.855469 374.988281 224.71875 374.820312 224.582031 C 374.238281 224.035156 373.175781 223.457031 371.742188 222.941406 C 370.269531 222.394531 368.457031 221.953125 366.472656 221.644531 C 364.355469 221.300781 362.027344 221.164062 359.566406 221.269531 C 357.34375 221.371094 355.019531 221.644531 352.625 222.191406 C 349.820312 222.839844 346.949219 223.832031 344.929688 224.550781 C 343.21875 225.164062 342.023438 225.574219 341.441406 225.371094 C 340.585938 225.128906 340.277344 224.582031 340.550781 223.695312 C 340.722656 223.183594 343.015625 221.507812 345.886719 220.105469 C 347.769531 219.148438 349.957031 218.191406 351.941406 217.578125 C 354.367188 216.824219 356.523438 216.550781 358.507812 216.550781 C 360.488281 216.550781 362.269531 216.824219 364.046875 217.097656 L 365.039062 217.269531 C 368.082031 217.75 371.058594 218.226562 372.664062 217.917969 C 373.210938 217.816406 373.585938 217.578125 373.828125 217.339844 C 374.101562 217.03125 374.203125 216.6875 374.203125 216.449219 C 374.203125 216.414062 373.929688 216.347656 373.074219 215.9375 L 372.152344 215.457031 C 370.375 214.535156 367.535156 213.066406 363.910156 212.28125 C 361.859375 211.835938 359.566406 211.597656 357.207031 211.664062 C 355.121094 211.734375 352.964844 212.039062 350.914062 212.65625 C 348.65625 213.339844 346.503906 214.433594 344.828125 215.253906 C 342.878906 216.210938 341.476562 216.929688 340.519531 216.484375 C 340.382812 216.414062 340.277344 216.347656 340.140625 216.246094 C 339.527344 215.699219 339.457031 214.910156 339.800781 213.953125 C 340.003906 213.441406 340.3125 212.828125 340.757812 212.175781 C 341.613281 210.878906 342.84375 209.375 344.039062 208.28125 C 345.304688 207.117188 346.605469 206.332031 347.90625 205.921875 C 349.238281 205.511719 350.539062 205.445312 351.941406 205.613281 C 353.445312 205.820312 354.984375 206.296875 356.488281 206.8125 C 357.550781 207.152344 358.574219 207.496094 359.53125 207.699219 C 360.457031 207.90625 361.3125 207.972656 362.027344 208.007812 L 360.867188 206.777344 C 359.976562 205.785156 358.949219 204.65625 357.925781 203.871094 C 357.242188 203.324219 356.558594 202.949219 355.738281 202.640625 C 354.847656 202.300781 353.789062 202.09375 352.417969 201.855469 C 350.8125 201.617188 348.792969 201.375 346.878906 201.34375 C 345.441406 201.308594 344.074219 201.410156 342.980469 201.683594 C 340.859375 202.230469 339.730469 203.632812 338.261719 205.582031 L 336.960938 207.222656 C 335.285156 209.304688 333.371094 211.734375 332.378906 213.75 C 331.765625 215.046875 331.457031 216.277344 331.078125 217.75 C 330.773438 219.046875 330.394531 220.515625 329.78125 222.363281 C 328.753906 225.335938 326.976562 229.335938 325.164062 233.4375 L 323.113281 238.050781 C 320.957031 243.039062 319.042969 247.789062 316.71875 253.703125 L 315.074219 257.839844 C 312.542969 264.160156 309.570312 271.679688 306.390625 280.054688 L 305.433594 282.550781 C 302.148438 291.195312 298.660156 300.425781 294.285156 308.21875 C 292.914062 310.644531 291.480469 312.933594 290.078125 315.15625 C 286.691406 320.523438 283.578125 325.445312 282.828125 330.742188 C 282.007812 336.449219 283.851562 342.941406 285.5625 349.058594 C 286.109375 350.972656 286.621094 352.820312 287.066406 354.734375 C 287.683594 357.261719 288.09375 359.621094 288.503906 361.773438 C 289.289062 366.183594 289.941406 369.738281 291.582031 371.6875 C 292.609375 372.917969 294.113281 373.601562 295.652344 373.804688 C 297.464844 374.042969 299.277344 373.703125 300.507812 372.917969 C 301.875 371.992188 302.523438 370.320312 303.414062 367.960938 C 303.960938 366.492188 304.609375 364.78125 305.570312 362.835938 C 306.421875 361.058594 307.550781 359.144531 308.78125 356.988281 C 311.3125 352.613281 314.355469 347.316406 316.785156 340.890625 C 318.460938 336.414062 319.863281 331.289062 321.164062 326.46875 Z M 355.394531 209.167969 C 354.09375 208.757812 352.796875 208.347656 351.597656 208.179688 C 350.574219 208.042969 349.613281 208.074219 348.691406 208.382812 C 347.734375 208.691406 346.8125 209.273438 345.820312 210.160156 C 344.894531 211.015625 343.9375 212.144531 343.21875 213.167969 L 343.734375 212.894531 C 345.511719 212.007812 347.769531 210.878906 350.230469 210.125 C 351.941406 209.613281 353.683594 209.273438 355.429688 209.136719 Z M 355.394531 209.167969 " fill-opacity="1" fill-rule="nonzero"/><g clip-path="url(#ad268888a7)"><path fill="#2b2a29" d="M 354.0625 373.738281 C 309.089844 402.925781 264.085938 432.148438 240.730469 447.425781 L 238.402344 448.929688 C 226.265625 456.859375 221.167969 460.207031 218.605469 460.378906 C 215.765625 460.550781 215.59375 458.53125 215.390625 455.046875 C 215.21875 451.730469 214.980469 446.640625 215.21875 440.65625 C 215.457031 434.675781 216.175781 427.773438 217.851562 420.902344 C 219.730469 413.210938 222.84375 405.625 225.71875 398.585938 C 227.972656 393.046875 230.058594 387.886719 231.292969 383.476562 C 232.417969 379.34375 232.796875 375.71875 233.105469 372.882812 C 233.171875 372.128906 233.273438 371.414062 233.34375 370.761719 C 233.070312 368.746094 232.933594 366.253906 232.796875 363.109375 L 232.726562 361.808594 C 232.417969 355.65625 231.90625 346.941406 231.257812 337.304688 C 230.710938 329.03125 230.027344 320.007812 229.273438 311.226562 C 228.554688 302.816406 227.804688 294.855469 227.117188 288.1875 C 226.265625 279.714844 225.511719 273.082031 225.066406 270.074219 L 224.792969 268.296875 C 224.246094 266.757812 223.800781 265.425781 223.492188 264.332031 C 223.289062 265.664062 223.21875 266.929688 223.152344 268.058594 C 222.980469 270.828125 222.84375 273.046875 221.339844 274.6875 L 221.203125 274.859375 C 219.902344 276.160156 217.816406 276.808594 215.867188 276.910156 C 213.882812 277.011719 211.902344 276.570312 210.910156 275.679688 L 210.808594 275.613281 C 209.40625 274.210938 209.984375 272.605469 211.082031 269.734375 C 211.695312 268.09375 212.550781 265.90625 213.234375 263.035156 C 213.609375 261.460938 213.988281 259.546875 214.398438 257.496094 C 215.765625 250.660156 217.40625 242.324219 221.714844 236.066406 C 224.347656 232.273438 227.90625 229.300781 231.703125 227.214844 C 236.078125 224.789062 240.765625 223.523438 244.628906 223.421875 C 248.320312 223.320312 251.226562 224.277344 254 226.15625 C 256.664062 227.933594 259.128906 230.566406 262.101562 233.914062 L 264.496094 236.648438 C 269.867188 242.800781 276.535156 250.421875 283.714844 255.414062 C 287.035156 257.738281 290.488281 259.480469 293.597656 260.8125 L 294.695312 261.257812 C 293.769531 260.710938 292.472656 259.789062 291 258.421875 C 287.066406 255.890625 281.597656 252.097656 278.382812 247.414062 C 276.125 244.132812 274.996094 240.476562 274.859375 236.820312 C 274.722656 232.957031 275.679688 229.09375 277.5625 225.675781 C 278.960938 223.148438 280.84375 220.894531 282.65625 218.707031 C 285.359375 215.492188 287.921875 212.417969 288.402344 209 C 288.710938 206.84375 288.195312 204.417969 287.339844 202.300781 C 286.726562 200.761719 285.972656 199.394531 285.222656 198.371094 C 284.84375 197.824219 284.503906 197.445312 284.230469 197.207031 C 284.195312 197.71875 284.195312 199.054688 284.160156 200.761719 C 284.023438 204.179688 283.851562 208.691406 282.210938 212.484375 C 280.46875 216.484375 277.183594 219.421875 274.175781 222.121094 C 272.191406 223.867188 270.378906 225.507812 269.351562 227.179688 C 267.574219 230.050781 268.054688 233.300781 268.226562 234.324219 C 268.363281 235.144531 268.429688 235.625 267.507812 236.035156 C 266.515625 236.476562 266.136719 236.136719 265.695312 235.214844 C 265.316406 234.394531 263.914062 230.941406 263.335938 227.113281 C 262.992188 224.890625 262.925781 222.5 263.472656 220.378906 C 264.292969 217.234375 266.445312 214.84375 268.636719 212.449219 C 270.34375 210.570312 272.054688 208.65625 273.046875 206.433594 C 274.277344 203.632812 274.449219 200.179688 274.140625 197.890625 L 274.039062 197.242188 L 273.285156 198.917969 C 271.78125 202.367188 269.488281 207.597656 265.179688 211.1875 C 260.5625 215.046875 253.863281 216.824219 247.980469 218.363281 C 246.441406 218.773438 244.9375 219.183594 243.566406 219.59375 C 240.25 222.292969 237.242188 224.171875 235.667969 224.824219 C 234.847656 225.128906 234.199219 225.199219 233.753906 225.0625 C 232.796875 224.753906 232.488281 224.070312 232.761719 223.113281 C 232.863281 222.773438 233.105469 222.363281 233.480469 221.953125 C 234.472656 220.859375 236.933594 219.148438 240.59375 217.816406 C 241.140625 217.613281 241.722656 217.441406 242.304688 217.234375 L 242.609375 216.996094 C 245.210938 214.808594 248.015625 212.144531 250.375 209.273438 C 252.082031 207.1875 253.589844 204.964844 255.09375 202.777344 C 258.445312 197.855469 261.625 193.175781 266.71875 190.609375 C 272.226562 187.84375 279.648438 187.671875 287.066406 187.535156 C 289.460938 187.5 291.820312 187.433594 294.214844 187.296875 C 295.410156 187.226562 296.609375 187.125 297.738281 186.988281 C 296.507812 182.167969 296.507812 180.664062 297.191406 181.28125 C 297.222656 179.878906 298.046875 181.109375 299.996094 186.679688 C 302.421875 186.304688 304.746094 185.757812 306.9375 184.972656 C 310.699219 183.605469 314.082031 181.519531 316.957031 178.308594 C 320.546875 174.273438 323.386719 168.464844 326.121094 162.890625 C 327.933594 159.234375 329.679688 155.648438 331.558594 152.707031 C 333.851562 149.117188 336.347656 146.453125 338.773438 144.605469 C 341.679688 142.417969 344.519531 141.359375 346.84375 141.324219 C 347.734375 141.292969 348.554688 141.429688 349.273438 141.597656 C 349 141.292969 348.726562 140.984375 348.417969 140.675781 C 347.289062 139.515625 345.820312 138.386719 344.109375 137.632812 C 341.648438 136.542969 338.601562 136.199219 335.558594 136.917969 C 332.925781 137.566406 330.328125 139.035156 328.105469 141.566406 C 326.328125 143.617188 324.71875 146.417969 323.042969 149.390625 C 319.898438 154.929688 316.410156 161.113281 310.253906 165.148438 C 304.234375 169.078125 295.925781 170.820312 287.992188 172.460938 C 283.441406 173.417969 279.03125 174.34375 275.335938 175.605469 C 270.449219 177.316406 266.824219 179.671875 264.019531 182.304688 C 261.214844 184.9375 259.265625 187.875 257.792969 190.714844 C 256.597656 192.96875 255.707031 195.226562 254.851562 197.34375 C 253.519531 200.625 252.324219 203.597656 250.304688 206.09375 C 248.355469 208.484375 245.6875 210.367188 243.808594 211.152344 C 243.15625 211.425781 242.578125 211.597656 242.097656 211.628906 C 241.242188 211.699219 240.59375 211.425781 240.183594 210.777344 C 239.941406 210.398438 239.875 209.988281 239.941406 209.476562 C 240.113281 208.347656 241.277344 206.605469 242.882812 204.316406 C 244.867188 201.410156 247.570312 197.480469 249.449219 193.175781 C 250.339844 191.125 251.089844 188.867188 251.84375 186.613281 C 253.175781 182.613281 254.511719 178.546875 256.871094 174.890625 L 256.050781 174.070312 L 256.085938 174.035156 C 258.75 171.539062 261.453125 169.042969 263.574219 163.40625 C 264.019531 162.242188 264.429688 160.910156 264.90625 159.472656 C 266.789062 153.664062 269.214844 146.109375 275.917969 138.25 C 280.089844 133.363281 285.9375 128.371094 292.265625 124.132812 C 298.558594 119.929688 305.328125 116.410156 311.417969 114.394531 C 317.195312 112.515625 322.394531 111.933594 327.011719 112.378906 C 332.3125 112.855469 336.824219 114.632812 340.550781 117.128906 C 341.132812 117.503906 341.679688 117.914062 342.226562 118.324219 C 345.203125 120.613281 347.5625 123.28125 349.066406 125.5 C 350.8125 128.097656 351.460938 130.421875 350.777344 131.449219 L 350.710938 131.550781 C 349.582031 133.019531 347.390625 131.925781 344.3125 130.457031 C 341.953125 129.328125 338.980469 127.859375 335.96875 127.109375 C 332.753906 126.289062 329.402344 126.183594 326.085938 127.039062 C 323.042969 127.824219 320 129.433594 317.058594 132.03125 C 314.597656 134.21875 312.167969 137.121094 309.570312 140.265625 C 305.363281 145.324219 300.710938 150.894531 294.488281 155.203125 C 289.597656 158.585938 283.851562 161.082031 278.347656 163.507812 C 272.5 166.035156 266.960938 168.464844 263.230469 171.609375 C 258.136719 175.878906 256.222656 181.691406 254.339844 187.398438 C 253.589844 189.6875 252.835938 191.945312 251.878906 194.199219 C 249.894531 198.78125 247.125 202.8125 245.074219 205.785156 C 244.285156 206.949219 243.601562 207.9375 243.15625 208.691406 C 244.730469 207.972656 246.816406 206.433594 248.390625 204.488281 C 250.167969 202.300781 251.296875 199.496094 252.527344 196.421875 C 253.382812 194.269531 254.304688 191.976562 255.605469 189.550781 C 257.214844 186.507812 259.300781 183.332031 262.34375 180.460938 C 265.386719 177.589844 269.320312 175.027344 274.585938 173.179688 C 278.414062 171.847656 282.929688 170.925781 287.546875 169.933594 C 295.242188 168.328125 303.34375 166.652344 308.917969 162.996094 C 314.5625 159.304688 317.878906 153.390625 320.890625 148.128906 C 322.632812 145.015625 324.273438 142.113281 326.257812 139.855469 C 328.855469 136.882812 331.96875 135.140625 335.082031 134.386719 C 338.707031 133.5 342.332031 133.945312 345.273438 135.242188 C 347.324219 136.164062 349.035156 137.496094 350.367188 138.832031 C 352.589844 141.121094 353.890625 143.582031 354.09375 144.265625 C 354.367188 145.257812 354.09375 145.804688 353.207031 146.042969 C 352.523438 146.246094 352.144531 145.972656 351.53125 145.53125 C 350.777344 144.984375 349.136719 143.820312 347.015625 143.855469 C 345.167969 143.890625 342.878906 144.777344 340.449219 146.625 C 338.261719 148.296875 335.96875 150.726562 333.851562 154.039062 C 332.039062 156.878906 330.328125 160.363281 328.550781 163.953125 C 325.746094 169.695312 322.804688 175.675781 319.007812 179.945312 C 315.828125 183.5 312.101562 185.824219 307.894531 187.328125 C 305.671875 188.117188 303.34375 188.695312 300.917969 189.074219 L 301.292969 190.199219 C 301.910156 191.976562 302.523438 193.890625 303.105469 195.910156 C 303.3125 196.59375 303.449219 196.96875 303.722656 197.617188 C 305.089844 200.933594 308.917969 210.09375 307.859375 217.851562 C 307.210938 222.636719 304.78125 226.667969 302.421875 230.632812 C 300.609375 233.675781 298.832031 236.648438 298.078125 239.65625 C 297.359375 242.5625 297.566406 245.601562 298.214844 248.507812 C 299.105469 252.371094 300.847656 255.960938 302.523438 258.558594 C 303.515625 260.128906 304.507812 261.359375 305.226562 262.25 C 306.21875 263.480469 306.832031 264.230469 306.695312 265.085938 C 306.527344 266.28125 305.671875 266.621094 303.757812 266.347656 C 301.738281 266.074219 297.53125 265.050781 292.640625 263 C 289.359375 261.632812 285.734375 259.753906 282.28125 257.328125 C 274.824219 252.132812 268.054688 244.371094 262.582031 238.117188 L 260.1875 235.417969 C 257.382812 232.238281 255.023438 229.746094 252.5625 228.105469 C 250.238281 226.53125 247.808594 225.710938 244.695312 225.8125 C 241.242188 225.917969 236.96875 227.078125 232.96875 229.300781 C 229.511719 231.214844 226.230469 233.914062 223.871094 237.332031 C 219.871094 243.109375 218.296875 251.175781 216.996094 257.769531 C 216.585938 259.789062 216.210938 261.703125 215.800781 263.410156 C 215.046875 266.453125 214.191406 268.707031 213.542969 270.417969 C 212.824219 272.296875 212.449219 273.320312 212.652344 273.527344 L 212.6875 273.5625 C 213.167969 273.972656 214.398438 274.175781 215.730469 274.109375 C 217.132812 274.039062 218.570312 273.628906 219.355469 272.808594 L 219.457031 272.707031 C 220.3125 271.75 220.417969 269.9375 220.585938 267.683594 C 220.722656 265.734375 220.859375 263.511719 221.476562 261.085938 C 222.296875 257.90625 223.90625 254.386719 226.160156 251.789062 C 228.109375 249.535156 230.503906 247.996094 233.308594 247.824219 C 237.34375 247.621094 241.824219 250.457031 246.269531 253.292969 C 248.21875 254.523438 250.167969 255.753906 252.015625 256.710938 C 254.578125 258.011719 257.042969 258.796875 259.402344 259.515625 C 262.546875 260.503906 265.488281 261.429688 268.226562 263.410156 C 270.6875 265.222656 272.839844 267.820312 274.722656 270.039062 C 276.328125 271.988281 277.699219 273.628906 278.519531 273.9375 L 278.585938 273.972656 C 278.621094 273.972656 278.65625 273.902344 278.722656 273.835938 C 278.792969 273.730469 278.859375 273.628906 278.929688 273.527344 C 277.902344 269.9375 277.148438 267.066406 277.046875 265.496094 C 276.980469 264.503906 277.148438 263.820312 277.492188 263.375 C 277.9375 262.828125 278.519531 262.625 279.203125 262.796875 C 279.578125 262.898438 279.953125 263.136719 280.261719 263.480469 C 280.945312 264.195312 281.734375 265.734375 282.039062 267.613281 C 282.347656 269.527344 282.246094 271.921875 281.664062 273.664062 L 282.894531 277.832031 C 283.410156 279.507812 283.921875 281.320312 284.640625 283.710938 C 285.871094 287.984375 287.136719 292.496094 287.886719 296.800781 C 288.675781 301.210938 288.949219 305.414062 288.195312 309.003906 C 287.476562 312.558594 285.800781 315.328125 284.023438 318.265625 C 282.3125 321.136719 280.5 324.144531 279.542969 328.109375 C 278.65625 331.835938 278.449219 336.414062 278.757812 341.097656 C 279.097656 346.292969 280.089844 351.554688 281.425781 355.691406 C 282.65625 359.449219 284.160156 362.355469 285.117188 364.132812 C 285.9375 365.707031 286.453125 366.664062 285.972656 367.484375 C 285.425781 368.40625 284.605469 368.40625 283.238281 367.621094 C 281.460938 366.558594 277.148438 363.3125 271.574219 357.296875 C 268.054688 353.46875 264.019531 348.546875 259.8125 342.292969 C 254.851562 334.945312 249.65625 325.785156 244.867188 316.558594 C 239.257812 305.722656 234.265625 294.785156 230.914062 286.445312 C 230.230469 284.703125 229.617188 283.097656 229.035156 281.59375 L 229.683594 287.710938 C 230.402344 294.613281 231.15625 302.613281 231.839844 310.78125 C 232.554688 319.429688 233.242188 328.484375 233.820312 336.894531 C 234.472656 346.464844 234.984375 355.179688 235.292969 361.433594 L 235.464844 365.160156 C 235.875 364.917969 236.316406 364.75 236.898438 364.679688 C 239.089844 364.371094 242.40625 365.945312 246.78125 368.03125 C 250.613281 369.839844 255.296875 372.027344 260.53125 373.667969 C 265.96875 375.34375 272.019531 376.4375 278.175781 376.847656 C 284.367188 377.292969 290.625 377.050781 296.4375 376.164062 C 303.414062 375.105469 309.808594 373.019531 314.5625 371.480469 C 317.878906 370.421875 320.410156 369.601562 322.015625 369.464844 C 322.976562 369.398438 323.691406 369.566406 324.207031 369.910156 C 324.890625 370.386719 325.128906 371.105469 324.992188 371.925781 C 324.890625 372.4375 324.617188 373.019531 324.136719 373.601562 C 322.941406 375.136719 320.207031 377.15625 316.273438 378.898438 C 312.375 380.640625 307.246094 382.144531 301.191406 383.171875 C 295.683594 384.128906 289.359375 384.707031 282.449219 384.742188 C 275.441406 384.777344 267.8125 384.296875 260.871094 383.445312 C 253.453125 382.554688 246.78125 381.289062 242.40625 379.921875 C 238.847656 378.828125 236.695312 377.667969 235.328125 375.992188 C 235.019531 378.28125 234.574219 380.949219 233.789062 383.886719 C 232.523438 388.535156 230.402344 393.730469 228.144531 399.300781 C 225.304688 406.273438 222.230469 413.792969 220.417969 421.246094 C 218.773438 427.945312 218.089844 434.640625 217.851562 440.488281 C 217.613281 446.332031 217.851562 451.355469 218.023438 454.636719 C 218.125 456.480469 218.195312 457.507812 218.5 457.507812 C 220.347656 457.40625 225.273438 454.160156 237.003906 446.503906 L 239.328125 445 C 261.453125 430.507812 307.074219 400.910156 352.660156 371.308594 L 354.0625 373.496094 Z M 237.277344 367.515625 C 236.558594 367.621094 236.25 368.714844 235.976562 370.558594 C 236.660156 374.523438 238.300781 376.230469 243.15625 377.734375 C 247.398438 379.070312 253.894531 380.265625 261.144531 381.152344 C 268.019531 381.972656 275.542969 382.488281 282.417969 382.417969 C 289.152344 382.382812 295.34375 381.804688 300.746094 380.878906 C 306.628906 379.855469 311.519531 378.453125 315.210938 376.8125 C 318.667969 375.273438 321.027344 373.601562 322.050781 372.335938 C 320.71875 372.507812 318.359375 373.257812 315.382812 374.214844 C 310.527344 375.789062 304.03125 377.871094 296.847656 379 C 290.828125 379.921875 284.367188 380.164062 278.003906 379.71875 C 271.644531 379.273438 265.386719 378.144531 259.777344 376.402344 C 254.375 374.726562 249.585938 372.472656 245.6875 370.625 C 241.6875 368.746094 238.644531 367.3125 237.242188 367.515625 Z M 224.554688 260.230469 C 225.582031 261.597656 226.777344 264.332031 227.359375 267.683594 C 227.394531 267.75 227.425781 267.957031 227.425781 268.023438 C 227.734375 269.355469 229.238281 275.507812 233.34375 285.761719 C 236.660156 294 241.617188 304.902344 247.191406 315.632812 C 251.914062 324.792969 257.078125 333.851562 262 341.132812 C 266.136719 347.25 270.070312 352.101562 273.523438 355.828125 C 276.910156 359.484375 279.75 362.046875 281.835938 363.6875 C 280.945312 361.910156 279.886719 359.585938 278.960938 356.75 C 277.5625 352.410156 276.535156 346.941406 276.160156 341.542969 C 275.816406 336.652344 276.023438 331.765625 277.011719 327.769531 C 278.074219 323.425781 279.988281 320.25 281.800781 317.207031 C 283.441406 314.472656 285.015625 311.875 285.632812 308.765625 C 286.28125 305.550781 286.042969 301.65625 285.289062 297.519531 C 284.535156 293.28125 283.339844 288.871094 282.109375 284.703125 C 281.628906 283.0625 280.980469 280.910156 280.363281 278.824219 L 279.679688 276.535156 C 279.441406 276.636719 279.203125 276.738281 278.929688 276.773438 C 278.484375 276.84375 278.039062 276.808594 277.5625 276.636719 C 276.089844 276.125 274.515625 274.210938 272.636719 271.988281 C 270.859375 269.871094 268.804688 267.410156 266.617188 265.769531 C 264.222656 264.027344 261.523438 263.171875 258.546875 262.25 C 256.117188 261.496094 253.519531 260.675781 250.785156 259.273438 C 248.835938 258.285156 246.816406 256.984375 244.800781 255.71875 C 240.695312 253.121094 236.589844 250.492188 233.378906 250.660156 C 231.394531 250.765625 229.582031 251.996094 228.078125 253.738281 C 226.503906 255.550781 225.273438 257.90625 224.484375 260.230469 Z M 296.507812 261.871094 C 299.171875 262.828125 301.464844 263.445312 303.070312 263.75 C 302.355469 262.828125 301.394531 261.667969 300.4375 260.09375 C 298.660156 257.292969 296.746094 253.429688 295.789062 249.226562 C 295.035156 245.945312 294.832031 242.492188 295.652344 239.144531 C 296.507812 235.726562 298.386719 232.617188 300.300781 229.402344 C 302.523438 225.675781 304.816406 221.847656 305.398438 217.613281 C 305.980469 213.441406 304.953125 208.726562 303.757812 204.898438 C 303.515625 206.332031 303.070312 207.9375 302.421875 209.613281 C 300.882812 213.40625 298.113281 217.578125 295.273438 221.882812 C 291.921875 226.941406 288.433594 232.171875 287.035156 236.785156 C 285.9375 240.304688 286.042969 243.519531 286.792969 246.355469 C 287.785156 250.113281 289.90625 253.226562 291.957031 255.414062 C 292.265625 255.71875 292.539062 256.027344 292.8125 256.300781 L 294.386719 257.292969 C 295.207031 257.804688 295.890625 258.214844 296.402344 258.589844 C 297.054688 259.035156 297.429688 259.378906 297.601562 259.617188 C 298.867188 261.324219 298.421875 262.078125 296.574219 261.839844 Z M 304.199219 264.8125 C 304.167969 265.050781 304.167969 265.1875 304.199219 264.914062 C 304.199219 264.878906 304.199219 264.84375 304.199219 264.8125 Z M 301.019531 197.753906 L 300.882812 197.378906 L 300.710938 196.761719 C 299.859375 193.925781 299.140625 191.535156 298.59375 189.550781 C 297.257812 189.722656 295.925781 189.824219 294.523438 189.894531 C 292.195312 190.03125 289.734375 190.0625 287.273438 190.132812 C 280.160156 190.269531 273.011719 190.40625 268.054688 192.933594 C 263.574219 195.191406 260.5625 199.601562 257.417969 204.246094 C 255.914062 206.46875 254.375 208.726562 252.5625 210.914062 C 251.195312 212.585938 249.691406 214.195312 248.152344 215.664062 C 253.589844 214.226562 259.675781 212.519531 263.675781 209.167969 C 267.507812 205.957031 269.660156 201.070312 271.0625 197.855469 C 271.953125 195.839844 272.566406 194.371094 273.457031 193.890625 C 273.832031 193.6875 274.210938 193.617188 274.585938 193.6875 C 275.335938 193.789062 275.886719 194.371094 276.296875 195.257812 C 276.535156 195.839844 276.738281 196.625 276.875 197.515625 C 277.253906 200.179688 277.011719 204.179688 275.578125 207.460938 C 274.414062 210.09375 272.535156 212.175781 270.722656 214.195312 C 268.773438 216.347656 266.824219 218.5 266.171875 221.03125 C 265.726562 222.738281 265.796875 224.789062 266.070312 226.703125 C 266.136719 227.148438 266.207031 227.558594 266.308594 227.96875 C 266.550781 227.25 266.890625 226.496094 267.335938 225.78125 C 268.566406 223.796875 270.515625 222.054688 272.636719 220.175781 C 275.40625 217.679688 278.484375 214.945312 279.988281 211.425781 C 281.425781 208.109375 281.597656 203.835938 281.734375 200.660156 C 281.871094 197.515625 281.972656 195.15625 283.511719 194.542969 C 283.820312 194.4375 284.125 194.40625 284.46875 194.4375 C 285.390625 194.574219 286.484375 195.429688 287.476562 196.796875 C 288.332031 197.960938 289.222656 199.566406 289.90625 201.34375 C 290.863281 203.804688 291.480469 206.675781 291.101562 209.339844 C 290.554688 213.511719 287.71875 216.894531 284.808594 220.378906 C 283.066406 222.464844 281.253906 224.617188 279.988281 226.90625 C 278.3125 229.914062 277.457031 233.332031 277.59375 236.71875 C 277.699219 239.894531 278.6875 243.074219 280.671875 245.945312 C 282.039062 247.925781 283.921875 249.773438 285.90625 251.449219 C 285.222656 250.113281 284.640625 248.644531 284.230469 247.074219 C 283.375 243.824219 283.273438 240.101562 284.503906 236.066406 C 286.042969 231.078125 289.597656 225.710938 293.085938 220.515625 C 295.855469 216.347656 298.59375 212.246094 299.996094 208.726562 C 301.875 204.042969 301.53125 200.214844 301.191406 198.4375 L 301.054688 197.789062 Z M 264.875 167.371094 C 268.5 165.078125 272.910156 163.164062 277.457031 161.148438 C 282.859375 158.789062 288.503906 156.332031 293.1875 153.082031 C 299.140625 148.980469 303.652344 143.511719 307.722656 138.625 C 310.390625 135.414062 312.886719 132.40625 315.484375 130.117188 C 318.734375 127.246094 322.15625 125.433594 325.574219 124.542969 C 329.371094 123.554688 333.132812 123.691406 336.757812 124.613281 C 340.074219 125.46875 343.152344 126.972656 345.613281 128.132812 C 347.527344 129.054688 348.589844 130.117188 348.792969 130.011719 C 348.828125 129.773438 348.179688 128.644531 347.085938 127.003906 C 345.683594 124.953125 343.527344 122.492188 340.792969 120.410156 C 340.3125 120.03125 339.800781 119.65625 339.253906 119.316406 C 335.832031 117.058594 331.730469 115.417969 326.90625 114.976562 C 322.632812 114.597656 317.8125 115.109375 312.375 116.886719 C 306.492188 118.800781 299.960938 122.21875 293.871094 126.320312 C 287.75 130.421875 282.109375 135.242188 278.074219 139.957031 C 271.710938 147.410156 269.351562 154.691406 267.574219 160.261719 C 267.097656 161.730469 266.652344 163.0625 266.207031 164.292969 C 265.796875 165.421875 265.351562 166.414062 264.90625 167.335938 Z M 264.875 167.371094 " fill-opacity="1" fill-rule="nonzero"/></g><path fill="#2b2a29" d="M 348.179688 319.429688 L 348.351562 317.855469 L 348.417969 316.832031 C 354.128906 317.308594 359.839844 317.820312 365.347656 316.285156 C 368.355469 315.429688 371.398438 313.960938 374.476562 312.488281 C 377.144531 311.191406 379.878906 309.890625 382.648438 308.933594 C 385.726562 307.875 388.875 307.261719 392.019531 306.882812 C 395.132812 306.542969 398.242188 306.40625 401.355469 306.40625 C 404.195312 306.371094 407 306.441406 409.5625 306.507812 C 412.605469 306.609375 415.308594 306.78125 417.328125 306.953125 C 419.308594 307.125 420.746094 307.292969 422.046875 307.636719 C 423.378906 307.976562 424.472656 308.492188 425.808594 309.3125 C 427.277344 310.234375 428.988281 311.566406 430.902344 313.035156 C 432.167969 313.992188 433.5 315.054688 434.765625 315.976562 C 436.101562 316.96875 437.605469 317.957031 439.074219 318.984375 C 441.230469 320.453125 443.316406 321.921875 445.128906 323.324219 C 446.667969 324.519531 448.035156 325.75 449.128906 326.878906 C 450.292969 328.074219 451.148438 329.132812 451.59375 329.988281 C 451.933594 330.636719 452.035156 331.21875 452.003906 331.699219 C 451.96875 332.210938 451.730469 332.65625 451.351562 332.929688 C 451.011719 333.203125 450.601562 333.339844 450.085938 333.304688 C 449.949219 333.304688 449.8125 333.269531 449.644531 333.269531 C 450.019531 333.851562 450.292969 334.328125 450.464844 334.738281 C 450.976562 336.105469 450.703125 336.996094 449.371094 337.441406 C 448.652344 337.679688 447.351562 337.609375 445.777344 336.925781 C 445.09375 336.621094 444.34375 336.210938 443.523438 335.664062 C 443.25 336.789062 442.667969 336.652344 441.640625 336.449219 C 441.195312 336.347656 440.410156 336.210938 439.417969 335.800781 C 438.425781 335.390625 437.160156 334.773438 435.792969 333.75 C 434.5625 332.859375 433.261719 331.628906 431.894531 330.398438 C 430.355469 328.996094 428.78125 327.5625 427.347656 326.539062 C 426.046875 325.648438 424.816406 325.066406 423.550781 324.625 C 422.25 324.179688 420.882812 323.871094 419.378906 323.5625 L 418.660156 323.425781 C 415.683594 322.8125 412.195312 322.09375 408.640625 321 L 406.929688 320.453125 L 407.820312 320.933594 C 409.015625 321.582031 410.28125 322.128906 411.445312 322.640625 C 413.734375 323.667969 415.789062 324.589844 416.914062 325.785156 C 417.496094 326.402344 417.839844 327.085938 417.941406 327.765625 C 418.042969 328.3125 417.976562 328.859375 417.804688 329.375 C 417.632812 329.886719 417.328125 330.332031 416.914062 330.707031 C 416.335938 331.253906 415.546875 331.664062 414.554688 331.800781 C 412.949219 332.074219 410.898438 331.664062 408.503906 331.183594 C 407.273438 330.945312 405.9375 330.671875 404.535156 330.46875 C 403.476562 330.332031 402.246094 330.226562 401.015625 330.125 C 398.039062 329.886719 394.996094 329.613281 392.121094 328.519531 C 389.796875 327.632812 387.746094 326.265625 385.96875 325.101562 C 384.734375 324.28125 383.675781 323.5625 382.855469 323.257812 L 382.546875 323.152344 L 383.128906 323.53125 C 384.839844 324.65625 386.925781 326.023438 386.070312 328.828125 C 385.625 330.332031 384.121094 332.175781 381.863281 334.160156 C 379.605469 336.140625 376.5625 338.398438 373.039062 340.652344 C 369.414062 342.976562 365.277344 345.335938 361.105469 347.351562 C 357.410156 349.164062 353.683594 350.699219 350.265625 351.726562 C 342.945312 353.914062 337.167969 353.742188 331.351562 353.539062 L 331.320312 353.539062 L 331.351562 352.445312 L 331.351562 350.941406 L 331.386719 350.941406 C 336.960938 351.109375 342.570312 351.316406 349.511719 349.230469 C 352.796875 348.242188 356.386719 346.769531 359.976562 345.027344 C 364.046875 343.046875 368.117188 340.722656 371.636719 338.464844 C 375.058594 336.277344 378 334.125 380.121094 332.210938 C 382.035156 330.535156 383.230469 329.066406 383.574219 328.074219 C 383.882812 327.117188 382.683594 326.332031 381.691406 325.71875 C 381.109375 325.339844 380.597656 325 380.1875 324.589844 C 379.640625 324.042969 379.402344 323.394531 379.402344 322.8125 C 379.402344 322.300781 379.539062 321.855469 379.847656 321.445312 C 380.121094 321.101562 380.496094 320.828125 380.972656 320.660156 C 381.691406 320.417969 382.683594 320.417969 383.777344 320.828125 C 384.839844 321.238281 386.035156 322.027344 387.402344 322.914062 C 389.078125 324.007812 390.996094 325.308594 393.046875 326.058594 C 395.542969 327.015625 398.414062 327.253906 401.21875 327.492188 C 402.417969 327.597656 403.613281 327.699219 404.878906 327.871094 C 406.316406 328.074219 407.71875 328.347656 409.015625 328.621094 C 411.136719 329.03125 412.949219 329.40625 414.113281 329.203125 C 414.554688 329.132812 414.898438 328.964844 415.105469 328.757812 C 415.207031 328.65625 415.273438 328.554688 415.308594 328.449219 C 415.34375 328.347656 415.34375 328.246094 415.34375 328.144531 C 415.308594 327.972656 415.207031 327.734375 415 327.527344 C 414.25 326.707031 412.4375 325.886719 410.382812 325 C 409.152344 324.453125 407.855469 323.871094 406.621094 323.222656 C 404.332031 322.027344 402.175781 320.523438 401.015625 319.496094 C 400.636719 319.15625 400.363281 318.882812 400.191406 318.640625 C 399.75 318.027344 399.613281 317.410156 399.917969 316.832031 C 399.988281 316.726562 400.023438 316.660156 400.125 316.558594 C 400.945312 315.632812 403.101562 316.386719 405.871094 317.308594 C 407.03125 317.71875 408.296875 318.164062 409.460938 318.503906 C 412.878906 319.566406 416.300781 320.28125 419.242188 320.898438 L 419.960938 321.035156 C 421.566406 321.375 423.003906 321.683594 424.441406 322.164062 C 425.910156 322.675781 427.347656 323.359375 428.886719 324.417969 C 430.457031 325.511719 432.132812 327.050781 433.707031 328.484375 C 435.007812 329.679688 436.273438 330.84375 437.402344 331.664062 C 437.878906 332.003906 438.324219 332.3125 438.734375 332.550781 C 437.742188 331.152344 436.441406 329.339844 435.246094 327.597656 L 434.699219 326.808594 C 434.050781 326.023438 433.46875 325.308594 432.988281 324.65625 C 432.066406 323.425781 431.414062 322.539062 431.175781 322.128906 C 431.003906 321.820312 430.902344 321.546875 430.867188 321.34375 C 430.628906 319.121094 431.277344 318.574219 432.886719 320.113281 C 433.023438 320.179688 433.160156 320.316406 433.261719 320.488281 C 433.433594 320.691406 433.777344 321.101562 434.21875 321.683594 C 434.835938 322.503906 435.726562 323.804688 436.75 325.238281 C 437.640625 326.332031 438.664062 327.527344 439.726562 328.65625 C 441.09375 330.125 442.496094 331.5625 443.726562 332.550781 C 444.925781 333.542969 445.984375 334.191406 446.875 334.570312 C 447.179688 334.707031 447.421875 334.808594 447.660156 334.875 C 447.453125 334.535156 447.179688 334.160156 446.839844 333.714844 C 446.429688 333.132812 445.8125 332.3125 445.199219 331.5625 C 443.761719 329.648438 442.425781 327.972656 443.351562 327.050781 C 444.273438 326.128906 445.199219 326.945312 446.429688 328.007812 L 447.726562 329.101562 L 447.316406 328.691406 C 446.324219 327.664062 445.0625 326.535156 443.589844 325.375 C 441.777344 323.941406 439.726562 322.539062 437.675781 321.101562 C 436.238281 320.113281 434.800781 319.121094 433.332031 318.0625 C 431.894531 317 430.59375 316.011719 429.398438 315.085938 C 427.550781 313.652344 425.910156 312.386719 424.507812 311.53125 C 423.449219 310.847656 422.523438 310.4375 421.464844 310.164062 C 420.371094 309.859375 419.070312 309.722656 417.222656 309.550781 C 415.136719 309.378906 412.46875 309.207031 409.5625 309.105469 C 407 309.003906 404.230469 308.96875 401.457031 309.003906 C 398.484375 309.039062 395.441406 309.140625 392.394531 309.480469 C 389.421875 309.824219 386.480469 310.40625 383.574219 311.394531 C 380.90625 312.320312 378.273438 313.582031 375.671875 314.847656 C 372.492188 316.386719 369.347656 317.890625 366.097656 318.8125 C 360.113281 320.488281 354.164062 319.976562 348.246094 319.460938 L 348.214844 319.460938 Z M 445.0625 329.203125 C 445.335938 328.792969 445.609375 328.417969 445.164062 328.859375 C 444.992188 329.03125 444.992188 329.132812 445.0625 329.203125 Z M 445.0625 329.203125 " fill-opacity="1" fill-rule="nonzero"/><path fill="#2b2a29" d="M 350.195312 241.777344 C 352.625 246.96875 355.085938 252.164062 357.480469 255.890625 C 358.164062 256.984375 358.882812 257.90625 359.601562 258.726562 C 359.636719 258.042969 359.875 257.292969 360.285156 256.574219 C 361.207031 255.003906 363.15625 253.257812 365.515625 251.753906 C 367.875 250.25 370.679688 248.917969 373.28125 248.132812 C 375.914062 247.347656 378.375 247.105469 380.324219 247.414062 C 381.691406 247.621094 382.820312 248.03125 383.675781 248.714844 C 383.4375 247.003906 382.957031 245.054688 382.238281 242.664062 C 381.382812 239.757812 380.1875 236.203125 378.613281 231.660156 C 377.042969 227.113281 375.160156 221.609375 373.28125 216.3125 C 371.398438 211.050781 369.550781 206.058594 368.082031 202.574219 C 366.679688 199.191406 365.652344 197.277344 364.730469 196.214844 C 363.945312 195.328125 363.15625 195.089844 362.097656 194.917969 C 360.730469 194.746094 358.984375 194.710938 357 194.984375 C 355.292969 195.226562 353.375 195.667969 351.394531 196.421875 C 349.203125 197.242188 346.878906 198.371094 344.726562 199.703125 C 342.570312 201.035156 340.585938 202.539062 338.980469 204.078125 C 337.167969 205.820312 335.832031 207.597656 334.808594 209 C 333.917969 210.195312 333.234375 211.117188 332.515625 211.628906 C 332.175781 211.871094 331.796875 212.007812 331.457031 212.074219 C 330.804688 212.175781 330.226562 211.9375 329.746094 211.492188 C 329.402344 211.152344 329.164062 210.707031 329.027344 210.160156 C 328.789062 209.339844 328.71875 208.246094 328.890625 206.949219 C 329.0625 205.339844 329.609375 203.359375 330.667969 201.34375 C 331.523438 199.738281 332.753906 198.0625 334.464844 196.457031 C 336.3125 194.746094 338.707031 193.140625 341.238281 191.773438 C 343.871094 190.371094 346.675781 189.277344 349.238281 188.628906 C 349.855469 188.457031 350.46875 188.355469 351.050781 188.253906 C 350.402344 185.109375 349.886719 182.03125 350.402344 179.296875 C 350.710938 177.691406 351.359375 176.222656 352.316406 174.957031 C 353.273438 173.660156 354.539062 172.566406 356.042969 171.710938 C 357.480469 170.890625 359.15625 170.273438 360.695312 169.933594 C 362.335938 169.589844 363.875 169.558594 365.003906 169.933594 C 365.210938 170 365.414062 170.070312 365.585938 170.171875 L 365.859375 170.308594 C 365.757812 168.632812 365.722656 166.855469 365.722656 165.113281 C 365.6875 161.96875 365.652344 158.925781 365.105469 156.605469 C 364.355469 153.355469 362.4375 151.441406 360.660156 149.664062 C 360.183594 149.1875 359.738281 148.742188 359.292969 148.265625 C 358.128906 147 357.105469 145.597656 356.214844 143.957031 C 355.324219 142.316406 354.609375 140.4375 353.957031 138.179688 C 353.375 136.097656 352.828125 133.671875 352.351562 131.3125 C 351.769531 128.644531 351.222656 126.082031 350.640625 124.304688 C 350.195312 123.007812 349.71875 122.050781 349.375 121.367188 C 349.136719 120.921875 348.964844 120.578125 348.863281 120.238281 C 348.417969 118.972656 348.65625 118.253906 350.058594 117.777344 C 350.949219 117.46875 352.933594 117.402344 355.222656 118.324219 C 356.695312 118.90625 358.371094 119.894531 360.011719 121.535156 C 361.753906 123.246094 363.5 125.671875 365.074219 128.304688 C 366.988281 131.515625 368.699219 135.039062 369.894531 137.976562 C 371.023438 140.675781 371.707031 142.898438 372.289062 145.359375 C 372.835938 147.75 373.28125 150.417969 373.859375 154.007812 C 374.410156 157.558594 375.125 162.070312 375.742188 166.617188 C 376.359375 171.230469 376.90625 175.914062 377.210938 179.808594 C 377.484375 183.773438 377.519531 187.023438 377.246094 189.515625 C 376.9375 192.21875 376.324219 194.132812 375.296875 195.328125 C 374.167969 196.695312 372.664062 197.140625 371.226562 197.140625 C 370.167969 197.140625 369.140625 196.933594 368.320312 196.695312 C 369.003906 197.890625 369.722656 199.464844 370.578125 201.511719 C 372.046875 205.066406 373.929688 210.09375 375.808594 215.355469 C 377.691406 220.621094 379.605469 226.15625 381.179688 230.734375 C 382.753906 235.28125 383.949219 238.871094 384.839844 241.84375 C 385.726562 244.851562 386.273438 247.210938 386.480469 249.328125 C 386.683594 251.550781 386.546875 253.464844 385.796875 255.207031 C 385.042969 256.984375 383.746094 258.453125 381.660156 259.753906 C 381.28125 259.992188 380.871094 260.199219 380.460938 260.4375 L 379.949219 260.777344 C 377.929688 262.179688 375.433594 263.207031 372.902344 263.820312 C 370.234375 264.46875 367.535156 264.707031 365.277344 264.433594 C 362.953125 264.160156 361.105469 263.34375 359.5 262.078125 C 357.960938 260.847656 356.625 259.242188 355.359375 257.222656 C 352.898438 253.394531 350.402344 248.097656 347.90625 242.800781 L 347.90625 242.765625 L 350.265625 241.671875 Z M 379.023438 258.316406 C 380.460938 257.222656 381.519531 255.925781 382.171875 254.695312 C 382.855469 253.394531 383.027344 252.199219 382.648438 251.414062 C 382.308594 250.660156 381.316406 250.183594 379.949219 250.011719 C 378.339844 249.773438 376.289062 249.976562 373.996094 250.660156 C 371.636719 251.378906 369.039062 252.574219 366.886719 253.976562 C 364.832031 255.277344 363.226562 256.710938 362.507812 257.90625 C 362.300781 258.285156 362.164062 258.625 362.164062 258.933594 C 362.164062 259.171875 362.199219 259.410156 362.335938 259.617188 C 362.507812 259.890625 362.78125 260.128906 363.15625 260.335938 C 363.945312 260.8125 365.105469 261.085938 366.578125 261.1875 C 368.628906 261.292969 371.160156 260.949219 373.621094 260.335938 C 375.570312 259.820312 377.453125 259.136719 379.023438 258.351562 Z M 356.660156 192.492188 C 358.574219 192.21875 360.285156 192.183594 361.753906 192.320312 C 361.34375 192.046875 360.867188 191.773438 360.285156 191.535156 C 359.054688 191.019531 357.445312 190.609375 355.53125 190.542969 C 353.890625 190.472656 352.007812 190.644531 349.886719 191.191406 C 347.527344 191.773438 344.894531 192.832031 342.46875 194.097656 C 340.109375 195.328125 337.917969 196.832031 336.242188 198.371094 C 334.773438 199.738281 333.714844 201.171875 332.960938 202.574219 C 332.039062 204.28125 331.628906 205.886719 331.457031 207.253906 C 331.355469 208.007812 331.386719 208.65625 331.457031 209.136719 C 331.796875 208.757812 332.207031 208.179688 332.722656 207.527344 C 333.816406 206.058594 335.21875 204.179688 337.167969 202.300781 C 338.910156 200.625 341.066406 199.019531 343.355469 197.582031 C 345.683594 196.148438 348.144531 194.917969 350.46875 194.0625 C 352.660156 193.277344 354.746094 192.765625 356.625 192.492188 Z M 353.648438 187.980469 C 354.335938 187.945312 354.984375 187.945312 355.601562 187.945312 C 357.824219 188.011719 359.667969 188.457031 361.140625 189.074219 C 361.070312 188.421875 361.070312 187.738281 361.035156 187.054688 C 361.035156 186.578125 361.003906 186.097656 360.96875 185.519531 L 360.898438 184.492188 C 360.761719 182.785156 360.59375 180.902344 361.242188 179.261719 C 361.6875 178.101562 362.4375 177.246094 363.191406 176.359375 C 363.671875 175.777344 364.183594 175.195312 364.457031 174.648438 C 364.558594 174.480469 364.628906 174.308594 364.660156 174.136719 C 364.796875 173.726562 364.832031 173.351562 364.765625 173.007812 C 364.730469 172.804688 364.59375 172.632812 364.386719 172.53125 L 364.183594 172.460938 C 363.535156 172.257812 362.4375 172.292969 361.242188 172.53125 C 359.941406 172.804688 358.539062 173.316406 357.308594 174 C 356.113281 174.683594 355.121094 175.539062 354.367188 176.53125 C 353.648438 177.488281 353.171875 178.578125 352.933594 179.777344 C 352.488281 182.101562 353 185.003906 353.648438 187.980469 Z M 366.679688 193.480469 C 366.78125 193.550781 366.851562 193.617188 366.953125 193.652344 C 367.261719 193.824219 367.707031 193.960938 368.421875 194.164062 C 369.175781 194.371094 370.167969 194.644531 371.125 194.644531 C 371.910156 194.644531 372.664062 194.4375 373.210938 193.753906 C 373.894531 192.933594 374.339844 191.464844 374.578125 189.3125 C 374.851562 186.953125 374.820312 183.910156 374.546875 180.082031 C 374.273438 176.1875 373.722656 171.574219 373.109375 167.0625 C 372.492188 162.480469 371.808594 158.039062 371.261719 154.519531 C 370.714844 151.03125 370.269531 148.433594 369.722656 146.042969 C 369.175781 143.71875 368.492188 141.597656 367.464844 139.070312 C 366.304688 136.234375 364.660156 132.816406 362.816406 129.738281 C 361.34375 127.277344 359.738281 125.023438 358.164062 123.484375 C 356.796875 122.152344 355.429688 121.332031 354.230469 120.851562 C 353.171875 120.441406 352.28125 120.273438 351.667969 120.273438 L 351.699219 120.304688 C 352.078125 121.058594 352.589844 122.082031 353.101562 123.585938 C 353.753906 125.535156 354.300781 128.167969 354.882812 130.867188 C 355.359375 133.15625 355.875 135.550781 356.453125 137.566406 C 357.070312 139.683594 357.71875 141.394531 358.507812 142.828125 C 359.292969 144.265625 360.183594 145.496094 361.207031 146.625 C 361.617188 147.101562 362.0625 147.511719 362.472656 147.957031 C 364.523438 150.007812 366.679688 152.160156 367.601562 156.160156 C 368.183594 158.6875 368.253906 161.933594 368.285156 165.214844 C 368.320312 167.882812 368.355469 170.582031 368.699219 172.941406 C 369.039062 175.332031 369.722656 177.417969 370.304688 179.296875 C 371.058594 181.585938 371.671875 183.605469 371.605469 185.585938 C 371.535156 187.328125 370.886719 188.96875 370.03125 190.304688 C 369.074219 191.808594 367.773438 192.96875 366.644531 193.515625 Z M 367.84375 180.050781 C 367.433594 178.820312 367.023438 177.488281 366.644531 176.015625 C 366.234375 176.769531 365.6875 177.417969 365.140625 178.066406 C 364.558594 178.75 363.945312 179.46875 363.671875 180.1875 C 363.261719 181.28125 363.398438 182.851562 363.5 184.289062 L 363.566406 185.382812 C 363.601562 185.929688 363.601562 186.507812 363.636719 187.054688 C 363.671875 188.117188 363.671875 189.039062 363.945312 189.925781 C 363.976562 190.097656 364.046875 190.234375 364.113281 190.40625 C 364.25 190.78125 364.457031 191.089844 364.695312 191.261719 C 364.832031 191.363281 365.003906 191.398438 365.242188 191.328125 L 365.414062 191.261719 C 366.167969 190.953125 367.160156 190.0625 367.910156 188.867188 C 368.558594 187.875 369.003906 186.679688 369.074219 185.449219 C 369.140625 183.910156 368.558594 182.132812 367.910156 180.050781 Z M 367.84375 180.050781 " fill-opacity="1" fill-rule="nonzero"/><path fill="#2b2a29" d="M 312.957031 246.527344 C 312.921875 243.074219 312.851562 239.65625 313.945312 235.761719 C 314.425781 233.984375 315.144531 232.171875 315.929688 230.121094 C 316.75 228.035156 317.640625 225.746094 318.460938 223.113281 C 317.605469 222.429688 316.683594 221.644531 315.757812 220.753906 C 314.117188 219.21875 312.441406 217.40625 311.039062 215.355469 C 309.605469 213.269531 308.476562 210.980469 307.621094 208.519531 C 306.800781 206.09375 306.285156 203.53125 306.148438 200.933594 C 305.980469 198.265625 306.21875 195.566406 306.765625 193.242188 C 307.3125 190.882812 308.203125 188.832031 309.363281 187.535156 L 309.742188 187.125 C 310.972656 185.929688 312.441406 185.449219 313.980469 185.550781 C 315.417969 185.65625 316.921875 186.339844 318.253906 187.535156 C 318.496094 187.738281 318.699219 187.945312 318.90625 188.148438 C 320.34375 189.621094 321.605469 191.738281 322.496094 194.335938 C 323.316406 196.660156 323.863281 199.429688 324.035156 202.539062 C 324.207031 205.546875 323.96875 208.828125 323.523438 212.144531 C 323.042969 215.628906 322.324219 219.082031 321.46875 222.15625 L 321.914062 222.5 C 324.445312 224.378906 325.847656 225.234375 327.285156 226.054688 L 325.984375 228.273438 C 324.582031 227.453125 323.144531 226.601562 320.683594 224.789062 C 319.929688 227.148438 319.109375 229.199219 318.394531 231.042969 C 317.640625 233.027344 316.921875 234.804688 316.476562 236.410156 C 315.484375 239.964844 315.554688 243.210938 315.589844 246.457031 L 312.988281 246.492188 Z M 319.214844 220.378906 C 319.898438 217.714844 320.511719 214.773438 320.921875 211.800781 C 321.332031 208.65625 321.539062 205.511719 321.402344 202.675781 C 321.265625 199.839844 320.753906 197.308594 320 195.191406 C 319.214844 192.933594 318.152344 191.191406 316.992188 189.960938 C 316.820312 189.789062 316.648438 189.621094 316.511719 189.484375 C 315.589844 188.664062 314.628906 188.21875 313.742188 188.148438 C 312.957031 188.082031 312.167969 188.355469 311.519531 189.003906 L 311.28125 189.242188 C 310.390625 190.234375 309.707031 191.875 309.261719 193.824219 C 308.78125 195.941406 308.578125 198.371094 308.714844 200.796875 C 308.851562 203.152344 309.332031 205.476562 310.046875 207.699219 C 310.800781 209.921875 311.859375 212.039062 313.125 213.921875 C 314.425781 215.800781 315.964844 217.476562 317.46875 218.910156 C 318.050781 219.457031 318.632812 219.96875 319.179688 220.414062 Z M 319.214844 220.378906 " fill-opacity="1" fill-rule="nonzero"/></svg>