<svg xmlns="http://www.w3.org/2000/svg" xmlns:xlink="http://www.w3.org/1999/xlink" width="1024" zoomAndPan="magnify" viewBox="0 0 768 576" height="768" preserveAspectRatio="xMidYMid meet" version="1.0"><path fill="#171717" d="M 278.472656 441.582031 C 277 443.246094 277.222656 445.429688 278.433594 447.351562 C 280.621094 450.785156 282.804688 454.210938 285.066406 457.570312 C 287.03125 460.511719 289.894531 462.472656 293.25 463.152344 C 302.5625 465.1875 311.914062 467.148438 321.261719 468.65625 C 323.789062 469.070312 326.917969 468.578125 329.144531 467.375 C 340.605469 461.339844 352.179688 455.382812 363.226562 448.597656 C 382.457031 436.835938 400.820312 423.789062 418.613281 409.914062 C 418.988281 409.574219 419.480469 409.308594 420.121094 408.859375 C 424.269531 420.207031 430.832031 454.820312 432.945312 466.464844 C 432.261719 461.191406 431.886719 455.832031 431.058594 450.59375 C 430.1875 445.277344 423.210938 407.949219 424.835938 406.667969 C 430.832031 401.957031 432.714844 395.359375 433.320312 388.269531 C 433.695312 383.445312 435.09375 379.222656 437.242188 374.847656 C 442.667969 363.988281 447.910156 353.019531 452.738281 341.855469 C 462.804688 318.480469 465.515625 294.238281 460.128906 269.242188 C 458.503906 261.871094 456.433594 254.667969 452.886719 247.9375 C 449.382812 241.113281 444.554688 235.476562 437.734375 231.671875 C 437.84375 231.386719 437.917969 231.105469 437.992188 230.800781 C 443.269531 231.59375 448.589844 232.3125 453.902344 233.253906 C 454.585938 233.386719 455.414062 234.6875 455.640625 235.628906 C 457.566406 242.398438 459.410156 249.203125 461.257812 255.949219 C 463.179688 263.152344 466.648438 269.507812 472.15625 274.558594 C 477.808594 279.722656 479.847656 285.832031 478.339844 293.351562 C 477.28125 298.519531 477.210938 303.757812 479.46875 308.695312 C 479.996094 309.808594 481.207031 310.566406 482.105469 311.488281 C 481.996094 310.359375 482.070312 309.207031 481.695312 308.113281 C 479.542969 302.195312 480.222656 296.238281 481.28125 290.242188 C 481.503906 288.941406 481.617188 287.605469 481.730469 286.300781 C 482.261719 281.0625 480.449219 277.066406 476.300781 273.726562 C 473.359375 271.371094 470.796875 268.507812 468.234375 265.753906 C 467.324219 264.753906 466.875 263.378906 465.96875 261.777344 C 471.925781 265.433594 477.582031 268.695312 482.976562 272.277344 C 490.023438 276.914062 492.097656 282.609375 489.574219 289.429688 C 488.8125 291.375 487.875 293.199219 487.046875 295.085938 C 486.253906 296.765625 485.578125 298.425781 484.898438 300.121094 C 484.632812 300.820312 484.59375 301.609375 484.746094 302.425781 C 487.007812 298.183594 489.421875 293.976562 491.492188 289.601562 C 494.550781 282.96875 492.964844 276.78125 487.085938 272.464844 C 484.519531 270.5625 481.578125 269.089844 478.867188 267.394531 C 474.417969 264.660156 469.964844 261.910156 465.632812 259.097656 C 465.027344 258.703125 464.6875 257.835938 464.386719 257.101562 C 464.085938 256.535156 463.933594 255.875 463.785156 255.234375 C 462.203125 248.769531 460.582031 242.28125 458.882812 235.476562 C 462.804688 237.757812 465.21875 240.964844 467.480469 244.433594 C 469.515625 247.636719 471.511719 250.859375 473.703125 253.972656 C 475.019531 255.914062 476.753906 257.59375 478.300781 259.382812 C 478.523438 259.136719 478.867188 258.890625 479.089844 258.609375 C 478.714844 258.082031 478.265625 257.535156 477.882812 256.949219 C 476 253.6875 473.703125 250.558594 472.304688 247.109375 C 469.441406 240.019531 464.800781 234.683594 458.28125 230.820312 C 457.527344 230.367188 456.921875 229.5 456.507812 228.691406 C 454.585938 225.316406 453.152344 221.601562 450.890625 218.507812 C 442.371094 207.046875 431.285156 202.070312 416.882812 204.785156 C 412.207031 205.652344 407.269531 205.484375 402.554688 204.972656 C 395.578125 204.203125 389.890625 200.5625 385.589844 195.078125 C 381.589844 190.007812 378.125 184.558594 374.203125 179.410156 C 370.585938 174.625 366.210938 170.398438 360.027344 169.722656 C 355.726562 169.234375 351.207031 169.308594 346.980469 170.136719 C 338.386719 171.816406 330.542969 170.476562 323.1875 165.800781 C 318.554688 162.878906 313.574219 160.5625 307.917969 160.261719 C 305.503906 160.148438 303.019531 160.035156 300.230469 161.84375 C 301.398438 162.257812 302.074219 162.710938 302.714844 162.652344 C 308.859375 161.84375 314.257812 163.972656 319.496094 166.839844 C 323.980469 169.289062 328.507812 171.703125 333.332031 173.324219 C 339.367188 175.378906 345.695312 174.472656 351.808594 173.625 C 359.765625 172.472656 365.988281 174.847656 370.8125 181.128906 C 374.28125 185.597656 377.636719 190.0625 381.101562 194.511719 C 389.964844 205.992188 401.726562 209.574219 415.753906 207.480469 C 421.332031 206.652344 426.988281 205.390625 432.644531 207.40625 C 440.558594 210.214844 446.070312 215.738281 450.214844 222.769531 C 451.269531 224.523438 452.140625 226.371094 452.855469 227.710938 C 442.148438 227.183594 431.363281 226.769531 420.578125 226.105469 C 411.457031 225.542969 402.707031 223.523438 395.015625 218.246094 C 390.910156 215.382812 387.777344 211.800781 385.554688 207.292969 C 382.425781 201.015625 379.445312 194.625 374.730469 189.269531 C 370.359375 184.238281 364.855469 181.355469 358.445312 180.015625 C 357.878906 179.882812 357.3125 179.976562 356.257812 179.976562 C 356.789062 180.523438 356.9375 180.75 357.203125 180.828125 C 367.871094 184.125 374.804688 191.515625 379.746094 201.167969 C 380.351562 202.355469 380.917969 203.582031 381.292969 204.824219 C 385.253906 217.359375 394.789062 223.695312 406.480469 227.675781 C 407.421875 227.976562 408.359375 228.238281 409.683594 228.632812 C 401.652344 232.613281 398.636719 240.097656 395.128906 247.144531 C 391.398438 254.632812 387.964844 262.246094 384.15625 269.691406 C 381.070312 275.855469 376.917969 281.324219 371.792969 286.035156 C 363.875 293.238281 354.296875 295.785156 344.039062 296.648438 C 342.15625 296.800781 340.269531 296.953125 338.160156 296.746094 C 339.402344 295.972656 340.609375 295.144531 341.929688 294.40625 C 348.492188 290.523438 355.203125 286.945312 361.535156 282.777344 C 368.777344 278.007812 374.203125 271.5625 375.976562 262.734375 C 376.617188 259.496094 376.804688 256.195312 377.105469 252.878906 C 377.410156 249.371094 378.878906 246.355469 381.140625 243.753906 C 381.898438 242.867188 382.652344 241.960938 383.328125 241.058594 C 386.121094 237.136719 385.96875 233.308594 382.652344 229.804688 C 378.691406 225.464844 374.65625 221.242188 370.546875 217.058594 C 368.511719 214.964844 365.984375 214.398438 363.308594 216.058594 C 359.652344 218.285156 356.257812 220.960938 352.789062 223.484375 C 350.523438 225.144531 348.335938 226.957031 346.039062 228.5 C 343.890625 229.914062 342.007812 229.613281 340.34375 227.558594 C 339.476562 226.425781 338.460938 225.425781 337.480469 224.410156 C 336.914062 223.730469 336.273438 222.582031 335.449219 222.203125 C 334.164062 221.660156 332.507812 222.84375 331.148438 222.808594 C 330.09375 222.808594 329.109375 222.394531 328.621094 221.394531 C 328.507812 221.074219 328.433594 220.714844 328.394531 220.394531 C 328.28125 220 328.171875 219.679688 327.90625 219.359375 C 327.792969 219.226562 325.039062 217.019531 325.339844 216.871094 C 325.339844 216.871094 325.339844 216.871094 325.339844 216.890625 C 323.835938 214.15625 321.800781 213.535156 318.929688 214.964844 C 317.347656 215.777344 315.765625 214.457031 315.539062 212.421875 C 315.460938 211.234375 315.539062 209.953125 315.652344 208.707031 C 316.214844 202.882812 314.332031 197.90625 310.1875 193.832031 C 310.035156 193.699219 309.921875 193.550781 309.769531 193.378906 C 309.320312 193.097656 308.863281 192.703125 308.453125 192.382812 C 307.847656 191.816406 307.246094 191.214844 306.640625 190.589844 C 306.1875 190.101562 305.847656 189.609375 305.546875 189.082031 C 302.492188 186.367188 300.152344 183.105469 299.136719 179.1875 C 298.121094 175.265625 297.589844 171.175781 296.308594 167.027344 C 295.929688 167.894531 295.40625 168.742188 295.210938 169.683594 C 294.273438 174.550781 295.210938 179.109375 297.894531 183.222656 C 299.925781 186.328125 302.1875 189.347656 304.679688 192.042969 C 309.617188 197.507812 311.957031 203.789062 311.578125 211.480469 C 306.789062 206.410156 300.679688 203.824219 295.027344 200.566406 C 289.976562 197.699219 288.164062 193.644531 289.445312 188.011719 C 290.050781 185.351562 291.03125 182.808594 291.898438 180.207031 C 292.121094 179.453125 292.386719 178.734375 292.839844 177.414062 C 291.933594 177.90625 291.40625 177.960938 291.214844 178.28125 C 288.992188 182.617188 286.957031 187.03125 286.617188 192.042969 C 286.351562 197.003906 288.164062 200.980469 292.347656 203.714844 C 295.175781 205.542969 298.269531 206.996094 301.128906 208.804688 C 303.960938 210.632812 306.863281 212.460938 309.3125 214.78125 C 314.328125 219.625 314.136719 225.507812 308.972656 230.183594 C 306.785156 232.273438 304.226562 234.046875 301.886719 235.96875 C 294.949219 241.472656 293.175781 248.769531 296.984375 256.726562 C 298.042969 258.890625 299.472656 260.777344 300.753906 262.851562 C 302.789062 266.039062 304.785156 269.28125 306.785156 272.46875 C 307.089844 272.917969 307.390625 273.371094 308.21875 273.578125 C 307.914062 272.691406 307.839844 271.730469 307.390625 270.902344 C 305.730469 267.792969 303.917969 264.71875 302.300781 261.550781 C 300.902344 258.664062 299.320312 255.78125 298.488281 252.6875 C 297.28125 248.222656 298.601562 244.128906 302.070312 240.980469 C 304.066406 239.152344 306.296875 237.550781 308.519531 235.929688 C 314.816406 231.347656 318.773438 225.769531 316.023438 217.777344 C 317.683594 217.285156 319.304688 217.058594 320.8125 216.457031 C 322.019531 215.929688 322.734375 216.191406 323 217.398438 C 323.449219 219.53125 324.277344 221.132812 326.84375 221.207031 C 327.070312 221.207031 327.449219 221.605469 327.523438 221.921875 C 328.503906 224.523438 330.613281 225.28125 332.953125 224.523438 C 334.835938 223.941406 335.515625 224.828125 336.347656 225.996094 C 337.0625 227.144531 337.625 228.316406 338.382812 229.390625 C 340.570312 232.351562 343.433594 233.105469 346.414062 231.144531 C 349.355469 229.144531 351.953125 226.695312 354.746094 224.449219 C 356.933594 222.734375 359.082031 220.871094 361.457031 219.359375 C 364.171875 217.589844 365.90625 217.738281 368.207031 219.925781 C 371.636719 223.207031 374.953125 226.488281 378.046875 230.070312 C 381.664062 234.480469 381.664062 238.117188 378.195312 242.660156 C 375.484375 246.132812 374.953125 250.183594 374.351562 254.273438 C 372.203125 268.789062 365 279.648438 351.726562 286.394531 C 345.28125 289.714844 338.832031 293.128906 332.464844 296.652344 C 327.257812 299.535156 323.300781 303.683594 321.792969 309.753906 C 320.8125 314.109375 321.335938 318.332031 322.734375 322.441406 C 323.226562 323.910156 322.960938 324.777344 321.71875 325.550781 C 318.324219 327.71875 315.082031 330.285156 311.539062 332.09375 C 302.113281 336.804688 299.472656 344.914062 299.546875 354.566406 C 299.585938 355.84375 299.773438 357.203125 300.148438 358.449219 C 301.207031 362.03125 300.148438 364.671875 297.285156 366.96875 C 291.214844 371.792969 286.429688 377.867188 282.207031 384.3125 C 278.058594 390.609375 275.71875 397.46875 275.644531 405.089844 C 275.457031 415.492188 276.550781 425.710938 279.1875 435.78125 C 279.753906 437.8125 280.09375 439.625 278.472656 441.582031 Z M 321.867188 335.488281 C 323.222656 335.601562 324.882812 335.789062 325.824219 336.578125 C 330.195312 340.464844 334.382812 344.609375 338.980469 348.984375 C 335.363281 350.796875 333.253906 348.679688 331.066406 347.476562 C 328.800781 346.230469 326.914062 344.386719 324.804688 342.800781 C 329.859375 350.871094 341.285156 355.617188 347.503906 362.632812 C 348.105469 363.652344 346.523438 364.667969 345.507812 364.515625 C 344.300781 364.367188 329.480469 356.828125 323.601562 354.566406 C 322.691406 354.148438 321.714844 353.847656 320.808594 353.507812 C 320.734375 353.660156 320.660156 353.847656 320.621094 353.996094 C 327.144531 358.746094 333.625 363.460938 340.335938 368.285156 C 342.523438 371.941406 339.660156 371.90625 338.871094 372.019531 C 337.660156 372.207031 334.683594 370.023438 333.625 369.570312 C 328.386719 367.417969 323.824219 364.742188 318.621094 362.59375 C 318.167969 362.402344 317.644531 362.445312 317.113281 362.367188 C 317.414062 363.3125 317.867188 363.835938 318.394531 364.253906 C 321.261719 366.476562 324.316406 368.515625 327.070312 370.886719 C 328.765625 372.359375 330.085938 374.320312 331.515625 376.167969 C 332.117188 376.957031 330.992188 377.636719 330.308594 377.789062 C 329.253906 378.089844 328.429688 377.113281 327.632812 376.621094 C 326.957031 376.167969 326.121094 375.828125 325.40625 375.410156 C 324.691406 374.882812 323.976562 374.359375 323.257812 373.792969 C 321.867188 372.734375 320.433594 371.640625 318.8125 370.925781 C 316.4375 369.796875 314.210938 368.515625 311.382812 367.003906 C 313.042969 372.585938 318.09375 374.996094 320.28125 379.445312 C 318.472656 380.199219 318.09375 379.371094 317.035156 378.992188 C 311.191406 376.882812 307.011719 371.527344 305.160156 365.421875 C 304.371094 362.859375 303.6875 360.144531 303.3125 357.503906 C 302.183594 350.078125 303.011719 343.023438 308.441406 337.332031 C 309.609375 336.125 311.683594 335.410156 313.417969 335.261719 C 316.207031 334.957031 319.078125 335.261719 321.867188 335.488281 Z M 324.316406 326.925781 C 325.261719 329.640625 328.046875 331.1875 328.046875 334.808594 C 324.46875 331.753906 320.734375 332.695312 316.589844 333.070312 C 319.378906 330.847656 321.71875 329 324.316406 326.925781 Z M 280.46875 444.222656 C 280.582031 443.917969 280.695312 443.734375 280.84375 443.46875 C 281.410156 443.769531 282.164062 443.996094 282.503906 444.449219 C 284.765625 447.84375 287.59375 450.480469 291.175781 452.40625 C 293.324219 453.574219 295.398438 453.5 296.792969 451.652344 C 298.488281 449.347656 299.84375 449.878906 301.65625 451.234375 C 301.808594 451.386719 302.183594 451.3125 303.015625 451.421875 C 299.542969 447.089844 294.191406 447.089844 290.722656 444.070312 C 291.476562 442 292.71875 441.207031 294.945312 441.773438 C 298.414062 442.601562 301.882812 443.316406 305.425781 443.695312 C 311.007812 444.222656 315.457031 446.710938 318.960938 451.089844 C 319.378906 451.652344 320.054688 451.988281 320.960938 452.707031 C 321.035156 451.839844 321.226562 451.421875 321.035156 451.238281 C 318.320312 447.691406 316.207031 443.472656 311.234375 442.226562 C 306.9375 441.097656 302.710938 439.703125 298.339844 438.761719 C 295.398438 438.117188 292.417969 437.816406 289.515625 437.96875 C 288.230469 438.003906 286.421875 439.171875 285.894531 440.304688 C 285.367188 441.28125 286.011719 443.09375 286.613281 444.300781 C 287.03125 445.132812 288.160156 445.808594 289.0625 446.261719 C 291.25 447.429688 293.511719 448.371094 295.851562 449.503906 C 294.566406 451.464844 293.097656 451.164062 291.550781 450.261719 C 287.480469 447.847656 284.539062 444.300781 283.371094 439.777344 C 281.632812 433.066406 279.9375 426.277344 278.960938 419.417969 C 277.863281 412.332031 277.601562 405.015625 279.5625 398.003906 C 283.335938 384.503906 292.984375 375.53125 302.941406 367.199219 C 303.84375 369.238281 304.296875 371.535156 305.65625 372.855469 C 308.746094 375.875 312.210938 378.472656 315.609375 381.113281 C 317.265625 382.394531 319.304688 382.996094 320.964844 381.113281 C 322.546875 379.226562 321.488281 377.570312 320.128906 376.023438 C 318.960938 374.703125 317.683594 373.535156 316.511719 372.328125 C 316.664062 372.136719 316.773438 371.988281 316.886719 371.796875 C 319.605469 373.644531 322.242188 375.609375 324.957031 377.453125 C 326.164062 378.246094 327.332031 379.226562 328.613281 379.527344 C 329.859375 379.828125 331.710938 379.71875 332.425781 378.960938 C 333.101562 378.246094 333.03125 376.359375 332.609375 375.230469 C 332.121094 373.875 331.070312 372.703125 330.011719 371.648438 C 328.996094 370.476562 327.789062 369.574219 326.691406 368.519531 C 326.808594 368.367188 326.917969 368.144531 327.03125 367.988281 C 329.328125 369.234375 331.554688 370.476562 333.785156 371.796875 C 335.289062 372.625 336.683594 373.875 338.304688 374.324219 C 339.4375 374.621094 341.285156 374.246094 341.960938 373.417969 C 342.644531 372.589844 342.753906 370.628906 342.261719 369.648438 C 341.621094 368.214844 340.191406 367.085938 338.910156 366.027344 C 337.0625 364.332031 334.984375 362.789062 332.992188 361.203125 C 333.785156 361.128906 334.269531 361.351562 334.761719 361.621094 C 337.625 363.242188 340.496094 364.898438 343.359375 366.554688 C 344.976562 367.421875 346.714844 367.914062 348.109375 366.253906 C 349.464844 364.597656 349.507812 362.636719 348.335938 360.902344 C 347.582031 359.769531 346.523438 358.789062 345.394531 357.886719 C 342.980469 355.921875 340.378906 354.039062 337.816406 352.078125 C 340.570312 350.15625 340.757812 348.949219 338.609375 346.386719 C 336.457031 343.785156 334.234375 341.257812 332.046875 338.65625 C 331.558594 338.050781 330.84375 336.996094 331.070312 336.46875 C 332.539062 332.777344 330.238281 330.210938 328.507812 327.421875 C 321.644531 316.730469 324.808594 304.234375 335.894531 298.03125 C 336.351562 297.765625 336.910156 297.5 337.480469 297.558594 C 340.835938 297.730469 344.191406 298.140625 347.582031 298.109375 C 363.34375 297.824219 375.335938 290.960938 382.949219 276.917969 C 384.835938 273.523438 386.570312 270.015625 388.226562 266.511719 C 392.339844 257.6875 396.21875 248.695312 400.515625 240.023438 C 402.03125 237.082031 404.441406 234.441406 406.894531 232.125 C 409.492188 229.65625 412.886719 228.863281 416.769531 230.238281 C 415.109375 231.351562 413.636719 232.238281 412.320312 233.292969 C 410.925781 234.332031 409.566406 235.425781 408.433594 236.746094 C 398.484375 248.167969 393.054688 261.480469 392.753906 276.558594 C 392.371094 302.59375 392.371094 328.625 392.222656 354.605469 C 392.222656 362.183594 392.222656 369.722656 392.144531 377.230469 C 392.144531 379.636719 391.394531 381.566406 389.207031 382.84375 C 379.253906 388.875 371.070312 396.792969 363.753906 405.617188 C 352.859375 418.773438 340.871094 430.953125 328.429688 442.679688 C 326.164062 444.832031 323.453125 446.5625 320.964844 448.371094 C 324.882812 448.675781 328.539062 447.242188 331.820312 444.527344 C 344.261719 434.199219 355.949219 423.109375 365.984375 410.367188 C 368.621094 407.050781 371.335938 403.769531 374.277344 400.789062 C 380.007812 394.90625 385.851562 389.101562 393.320312 385.367188 C 394.859375 384.578125 395.242188 383.746094 395.242188 382.164062 C 395.203125 373.871094 395.351562 365.574219 395.351562 357.277344 C 395.351562 337.671875 395.242188 318.046875 395.316406 298.425781 C 395.390625 288 395.242188 277.519531 396.292969 267.1875 C 397.351562 256.234375 402.214844 246.527344 410.097656 238.644531 C 419.066406 229.652344 430.492188 228.917969 440.632812 236.515625 C 442.859375 238.210938 444.859375 240.191406 446.703125 242.398438 C 453.605469 250.824219 456.542969 260.984375 458.28125 271.523438 C 461.109375 288.941406 459.488281 306.152344 455.566406 323.269531 C 451.496094 340.617188 444.105469 356.753906 436.5625 372.738281 C 435.957031 373.945312 435.390625 375.078125 434.902344 376.09375 C 436.035156 359.996094 437.09375 343.78125 438.449219 327.609375 C 439.316406 317.730469 440.558594 307.871094 441.914062 298.03125 C 442.445312 294.582031 443.914062 291.226562 444.820312 287.792969 C 445.011719 287.226562 444.59375 286.472656 444.480469 285.8125 C 443.839844 286.09375 443.011719 286.265625 442.671875 286.734375 C 441.914062 287.8125 441.273438 289.015625 440.789062 290.226562 C 437.660156 297.371094 436.5625 304.988281 435.960938 312.660156 C 435.359375 319.78125 435.433594 326.925781 434.679688 334.015625 C 432.71875 351.773438 430.492188 369.53125 428.417969 387.292969 C 427.664062 393.664062 425.929688 399.207031 420.238281 403.203125 C 401.957031 416.246094 384.082031 429.75 365.679688 442.679688 C 354.746094 450.332031 343.363281 457.570312 330.917969 462.699219 C 328.433594 463.753906 325.414062 464.28125 322.773438 464.132812 C 315.535156 463.753906 308.375 462.960938 301.210938 462.171875 C 296.195312 461.566406 291.558594 460.058594 288.394531 455.539062 C 285.746094 451.765625 283.109375 447.957031 280.46875 444.222656 Z M 280.46875 444.222656 " fill-opacity="1" fill-rule="evenodd"/><path fill="#171717" d="M 338.457031 135.84375 C 345.734375 139.277344 352.933594 142.839844 360.171875 146.101562 C 369.070312 150.023438 378.082031 153.527344 386.867188 157.542969 C 396.105469 161.804688 404.664062 167.253906 410.320312 176 C 412.769531 179.617188 414.617188 183.617188 416.730469 187.441406 C 416.578125 187.632812 416.425781 187.820312 416.316406 187.96875 C 414.992188 187.5 413.5625 187.140625 412.316406 186.480469 C 406.890625 183.785156 402.476562 180.015625 400.894531 173.851562 C 399.269531 167.664062 395.160156 164.292969 389.203125 163.011719 C 386.375 162.425781 383.476562 162.03125 380.609375 161.992188 C 371.824219 161.878906 363.074219 162.164062 354.25 161.957031 C 347.613281 161.824219 341.621094 159.636719 337.0625 154.433594 C 336.683594 153.980469 336.117188 153.714844 335.589844 153.359375 C 335.367188 153.53125 335.214844 153.679688 335.023438 153.828125 C 335.367188 154.585938 335.628906 155.488281 336.195312 156.148438 C 340.304688 161.464844 345.886719 164.160156 352.445312 164.386719 C 359.949219 164.6875 367.523438 164.292969 375.027344 164.367188 C 378.949219 164.386719 382.871094 164.460938 386.640625 164.96875 C 392.144531 165.648438 396.371094 168.457031 398.367188 173.753906 C 401.421875 181.710938 407.152344 186.519531 415.410156 188.535156 C 416.316406 188.761719 417.449219 189.496094 417.859375 190.269531 C 420.988281 196.472656 425.703125 200.148438 432.792969 200.488281 C 441.308594 200.882812 449.003906 203.449219 455.792969 208.992188 C 455.335938 208.480469 454.960938 207.917969 454.507812 207.445312 C 449.003906 202.148438 442.667969 198.414062 435.019531 197.339844 C 428.117188 196.378906 423.367188 193.132812 420.953125 186.519531 C 415.601562 171.777344 404.816406 162.027344 391.164062 155.394531 C 385.851562 152.832031 380.007812 151.300781 374.3125 149.585938 C 362.664062 146.027344 351.351562 141.574219 340.570312 135.921875 C 340.003906 135.597656 339.4375 135.371094 338.871094 135.109375 C 338.753906 135.375 338.605469 135.5625 338.457031 135.84375 Z M 338.457031 135.84375 " fill-opacity="1" fill-rule="evenodd"/><path fill="#171717" d="M 328.429688 111.148438 C 327.03125 113.863281 325.636719 116.523438 324.242188 119.21875 C 324.433594 119.332031 324.65625 119.445312 324.882812 119.558594 C 333.140625 110.699219 344.261719 110.699219 356.175781 110.867188 C 352.933594 111.1875 350.21875 111.359375 347.578125 111.828125 C 345.132812 112.300781 342.414062 112.507812 340.757812 114.84375 C 343.28125 114.503906 345.734375 113.902344 348.257812 113.753906 C 357.910156 113.242188 366.808594 115.710938 375.140625 119.824219 C 381.511719 122.988281 387.472656 126.871094 393.652344 130.398438 C 394.484375 130.886719 395.3125 131.320312 396.597656 131.320312 C 396.367188 130.925781 396.292969 130.398438 395.914062 130.132812 C 386.339844 122.574219 376.347656 115.789062 364.019531 112.113281 C 354.144531 109.191406 344.109375 108.152344 333.855469 109.019531 C 333.253906 109.078125 332.535156 109.019531 332.042969 108.8125 C 327.898438 107.058594 324.277344 108.265625 321.335938 110.699219 C 318.4375 113.109375 316.058594 116.035156 313.570312 118.839844 C 312.742188 119.746094 312.367188 121.011719 311.683594 122.253906 C 311.011719 121.992188 310.40625 121.859375 309.835938 121.632812 C 306.296875 120.140625 304.144531 120.859375 302.636719 124.195312 C 302.070312 125.347656 301.917969 126.664062 301.28125 127.703125 C 300.148438 129.378906 299.09375 131.1875 297.511719 132.339844 C 292.984375 135.636719 292.382812 136.863281 293.816406 142.101562 C 293.890625 142.574219 293.964844 143.046875 294.042969 143.515625 C 293.699219 143.554688 293.476562 143.667969 293.363281 143.609375 C 288.007812 142.609375 288.125 142.609375 286.613281 147.457031 C 286.273438 148.511719 284.917969 149.527344 283.785156 150.152344 C 281.449219 151.546875 278.960938 152.714844 279.335938 155.808594 C 279.710938 159.085938 281.898438 161.367188 285.289062 162.746094 C 285.144531 162.535156 284.953125 162.253906 284.765625 162.027344 C 281.109375 157.539062 281.519531 155.730469 286.421875 152.601562 C 287.820312 151.734375 289.289062 150.355469 289.742188 148.945312 C 290.417969 146.890625 291.476562 146.511719 293.4375 147.132812 C 294.265625 147.378906 295.097656 147.507812 295.847656 147.660156 C 296.113281 144.925781 296.152344 142.328125 296.71875 139.929688 C 297.019531 138.613281 298.070312 137.085938 299.242188 136.332031 C 302.183594 134.503906 303.917969 132.070312 304.9375 129.015625 C 305.273438 127.921875 305.65625 126.679688 306.40625 125.90625 C 307.085938 125.265625 308.367188 125.265625 309.347656 125 C 309.539062 125.792969 310.027344 126.714844 309.804688 127.433594 C 308.820312 130.394531 307.613281 133.277344 306.523438 136.21875 C 306.78125 136.332031 307.085938 136.445312 307.386719 136.558594 C 307.6875 135.878906 308.140625 135.257812 308.367188 134.578125 C 310.136719 130 312.667969 125.90625 316.132812 122.171875 C 319.039062 119.042969 321.5625 115.59375 324.433594 112.445312 C 325.261719 111.546875 326.617188 111 327.746094 110.320312 C 327.972656 110.621094 328.199219 110.886719 328.429688 111.148438 Z M 328.429688 111.148438 " fill-opacity="1" fill-rule="evenodd"/><path fill="#171717" d="M 296.757812 233.347656 C 296.53125 231.839844 296.382812 230.3125 296.078125 228.859375 C 294.492188 221.695312 290.875 215.476562 287.105469 209.347656 C 284.425781 205.089844 281.753906 200.75 279.828125 196.113281 C 276.472656 188.121094 278.128906 180.691406 284.125 174.414062 C 286.347656 172.039062 288.875 169.949219 291.175781 167.667969 C 283.558594 171.417969 276.695312 175.925781 274.660156 184.992188 C 273.492188 190.179688 274.359375 195.132812 276.925781 199.640625 C 279.375 203.9375 282.203125 208.046875 285.066406 212.082031 C 289.441406 218.210938 293.328125 224.449219 294.945312 231.953125 C 295.023438 232.535156 295.472656 233.0625 295.773438 233.648438 C 296.078125 233.554688 296.417969 233.460938 296.757812 233.347656 Z M 296.757812 233.347656 " fill-opacity="1" fill-rule="evenodd"/><path fill="#171717" d="M 388.148438 141.484375 C 389.09375 142.011719 389.996094 142.726562 391.015625 143.027344 C 394.410156 144.085938 397.800781 145.121094 401.195312 145.988281 C 408.171875 147.816406 412.503906 152.265625 414.765625 158.9375 C 415.40625 160.976562 416.011719 163.070312 416.464844 165.125 C 418.085938 172.417969 422.386719 177.453125 429.132812 180.296875 C 432.714844 181.808594 436.558594 182.691406 440.328125 183.863281 C 440.40625 183.5625 440.554688 183.335938 440.628906 183.03125 C 440.105469 182.824219 439.539062 182.578125 439.011719 182.371094 C 436.484375 181.46875 433.917969 180.75 431.585938 179.675781 C 425.285156 176.8125 422.386719 171.457031 420.988281 164.972656 C 420.347656 162.164062 419.671875 159.335938 418.460938 156.734375 C 415.601562 150.417969 410.773438 146.347656 403.910156 144.667969 C 399.042969 143.425781 394.21875 142.011719 389.355469 140.710938 C 389.09375 140.671875 388.753906 140.785156 388.449219 140.824219 C 388.296875 141.011719 388.222656 141.277344 388.148438 141.484375 Z M 388.148438 141.484375 " fill-opacity="1" fill-rule="evenodd"/><path fill="#171717" d="M 427.285156 169.722656 C 447.496094 179.863281 464.125 193.609375 469.097656 217.550781 C 471.246094 199.113281 448.171875 172.910156 427.285156 169.722656 Z M 427.285156 169.722656 " fill-opacity="1" fill-rule="evenodd"/><path fill="#171717" d="M 329.179688 294.671875 C 328.539062 292.503906 328.164062 290.261719 327.332031 288.222656 C 326.277344 285.792969 325.183594 283.339844 323.675781 281.210938 C 318.359375 273.953125 317.605469 266.035156 319.832031 257.589844 C 320.886719 253.367188 321.941406 249.125 323.183594 244.921875 C 324.65625 240.132812 324.960938 237.078125 324.316406 231.953125 C 324.203125 232.007812 324.015625 232.085938 324.015625 232.160156 C 324.050781 240.152344 320.511719 247.222656 318.398438 254.628906 C 317.492188 257.910156 316.773438 261.210938 316.023438 264.527344 C 314.929688 269.128906 316.289062 273.199219 318.773438 276.988281 C 320.738281 280.0625 322.917969 282.964844 324.734375 286.132812 C 326.277344 288.902344 327.445312 291.839844 328.804688 294.746094 C 328.917969 294.707031 329.03125 294.707031 329.179688 294.671875 Z M 329.179688 294.671875 " fill-opacity="1" fill-rule="evenodd"/><path fill="#171717" d="M 348.636719 233.421875 C 347.617188 236.609375 348.03125 239.753906 349.238281 242.8125 C 350.03125 244.960938 351.125 246.996094 352.03125 249.109375 C 353.386719 252.371094 352.859375 253.707031 349.691406 255.234375 C 347.734375 256.269531 345.621094 257.140625 343.773438 258.363281 C 337.066406 262.683594 334.613281 269.488281 337.027344 277.066406 C 337.816406 279.683594 339.214844 282.171875 340.339844 284.71875 C 340.570312 284.644531 340.796875 284.550781 341.019531 284.453125 C 340.757812 283.792969 340.453125 283.136719 340.265625 282.476562 C 339.472656 280.042969 338.382812 277.628906 338.082031 275.121094 C 337.136719 268.507812 340.265625 263.832031 345.734375 260.511719 C 347.429688 259.476562 349.277344 258.742188 351.011719 257.875 C 354.96875 255.875 355.839844 253.539062 354.101562 249.558594 C 353.726562 248.65625 353.308594 247.75 352.785156 246.882812 C 350.410156 242.699219 348.410156 238.417969 348.636719 233.421875 Z M 348.636719 233.421875 " fill-opacity="1" fill-rule="evenodd"/><path fill="#171717" d="M 381.777344 137.730469 C 371.183594 125.175781 361.601562 121.121094 342.261719 126.0625 C 345.804688 126.0625 350.519531 125.949219 355.273438 126.0625 C 360.246094 126.191406 365.074219 127.175781 369.371094 129.605469 C 373.59375 131.960938 377.441406 134.867188 381.777344 137.730469 Z M 381.777344 137.730469 " fill-opacity="1" fill-rule="evenodd"/><path fill="#171717" d="M 310.855469 143.613281 C 315.90625 133.714844 324.46875 136.542969 332.835938 137.5625 C 332.425781 136.941406 332.308594 136.488281 332.160156 136.449219 C 327.898438 135.753906 323.675781 134.621094 319.453125 134.507812 C 314.742188 134.414062 311.535156 138.089844 310.855469 143.613281 Z M 310.855469 143.613281 " fill-opacity="1" fill-rule="evenodd"/><path fill="#171717" d="M 314.25 132.640625 C 320.054688 133.28125 322.65625 127.703125 327.296875 125.96875 C 322.46875 127.210938 318.054688 129.265625 314.25 132.640625 Z M 314.25 132.640625 " fill-opacity="1" fill-rule="evenodd"/><path fill="#171717" d="M 301.621094 146.628906 C 300.070312 150.738281 298.601562 154.734375 297.132812 158.730469 C 301.355469 158.109375 302.070312 153.792969 301.621094 146.628906 Z M 301.621094 146.628906 " fill-opacity="1" fill-rule="evenodd"/><path fill="#171717" d="M 333.628906 323.796875 C 334.609375 333.601562 336.761719 342.421875 342.679688 349.921875 C 347.542969 356.070312 353.425781 360.671875 360.929688 363.496094 C 366.808594 365.722656 372.386719 368.816406 378.195312 371.492188 C 378.648438 371.71875 379.097656 371.984375 379.550781 372.210938 C 379.664062 372.023438 379.78125 371.910156 379.929688 371.757812 C 379.402344 371.15625 378.871094 370.398438 378.195312 370.023438 C 373.140625 367.082031 368.316406 363.578125 362.886719 361.5 C 347.957031 355.695312 339.285156 344.835938 335.441406 329.640625 C 335.066406 328.132812 334.609375 326.664062 334.234375 325.136719 C 334.082031 324.832031 333.933594 324.554688 333.628906 323.796875 Z M 333.628906 323.796875 " fill-opacity="1" fill-rule="evenodd"/></svg>