<svg xmlns="http://www.w3.org/2000/svg" xmlns:xlink="http://www.w3.org/1999/xlink" width="1024" zoomAndPan="magnify" viewBox="0 0 768 576" height="768" preserveAspectRatio="xMidYMid meet" version="1.0"><defs><clipPath id="ea18760a46"><path d="M 175.066406 134.171875 L 592.816406 134.171875 L 592.816406 441.671875 L 175.066406 441.671875 Z M 175.066406 134.171875 " clip-rule="nonzero"/></clipPath></defs><g clip-path="url(#ea18760a46)"><path fill="#000000" d="M 342.425781 441.671875 C 341.839844 438.734375 341.296875 438.253906 338.253906 438.253906 C 337.609375 438.253906 336.960938 438.441406 336.316406 438.523438 C 335.667969 438.609375 335.417969 438.691406 334.980469 438.710938 C 327.097656 438.921875 319.195312 439.046875 311.3125 439.316406 C 306.683594 439.460938 302.035156 439.816406 297.40625 440.148438 C 292.253906 440.496094 287.09375 440.578125 281.933594 440.402344 C 273.417969 440.144531 265.015625 439.046875 256.722656 437.109375 C 248.425781 435.171875 240.40625 432.433594 232.660156 428.894531 C 231.199219 428.226562 229.699219 427.601562 228.199219 426.996094 C 227.484375 426.746094 226.753906 426.558594 226.007812 426.433594 C 225.609375 426.328125 225.207031 426.296875 224.800781 426.339844 C 224.390625 426.378906 224 426.488281 223.632812 426.664062 C 223.261719 426.839844 222.933594 427.078125 222.644531 427.371094 C 222.359375 427.664062 222.132812 427.996094 221.964844 428.371094 C 221.324219 429.71875 220.792969 431.109375 220.378906 432.539062 C 219.753906 434.5 219.230469 436.5 218.605469 438.484375 C 218.433594 439.066406 218.175781 439.605469 217.835938 440.109375 C 217.75 440.292969 217.617188 440.433594 217.4375 440.53125 C 217.257812 440.625 217.066406 440.65625 216.867188 440.621094 C 216.664062 440.585938 216.496094 440.496094 216.359375 440.347656 C 216.21875 440.195312 216.140625 440.019531 216.125 439.816406 C 215.933594 439.183594 215.851562 438.539062 215.875 437.878906 C 215.875 435.792969 216.082031 433.707031 216.207031 431.519531 C 216.480469 426.746094 216.8125 421.949219 217.042969 417.15625 C 217.230469 413.675781 217.3125 410.191406 217.4375 406.730469 C 217.4375 406.335938 217.4375 405.941406 217.4375 405.523438 C 217.4375 405.105469 217.4375 404.398438 218.105469 404.335938 C 218.773438 404.273438 218.792969 404.917969 218.875 405.417969 L 219.066406 406.917969 C 219.210938 408.171875 219.273438 409.441406 219.503906 410.671875 C 219.894531 412.84375 220.699219 414.847656 221.921875 416.683594 C 223.144531 418.519531 224.679688 420.039062 226.53125 421.242188 C 229.671875 423.300781 233.015625 424.957031 236.558594 426.203125 C 246.691406 430.023438 257.117188 432.699219 267.835938 434.230469 C 275.175781 435.335938 282.578125 436.1875 289.980469 436.566406 C 297.96875 436.960938 305.953125 437.066406 313.941406 437.253906 C 319.113281 437.378906 324.367188 437.480469 329.414062 437.523438 C 331.5 437.523438 333.582031 437.355469 335.667969 437.167969 C 336.277344 437.085938 336.839844 436.875 337.359375 436.542969 C 340.261719 434.972656 342.828125 432.972656 345.054688 430.539062 C 347.285156 428.105469 349.058594 425.375 350.371094 422.347656 C 352.230469 418.066406 353.621094 413.640625 354.539062 409.066406 C 356.519531 400.488281 357.851562 391.808594 358.542969 383.027344 C 358.980469 377.628906 359.230469 372.230469 359.398438 366.828125 C 359.644531 360.757812 360.421875 354.753906 361.734375 348.816406 C 363.78125 339.316406 365.171875 329.71875 365.902344 320.027344 C 366.300781 314.941406 366.632812 309.855469 367.09375 304.765625 C 367.242188 303.335938 367.558594 301.949219 368.050781 300.597656 C 368.230469 299.921875 368.519531 299.300781 368.917969 298.730469 C 369.320312 298.160156 369.808594 297.679688 370.382812 297.28125 C 370.953125 296.886719 371.578125 296.601562 372.253906 296.429688 C 372.929688 296.257812 373.613281 296.210938 374.308594 296.28125 C 375.226562 296.28125 376.121094 296.40625 377.039062 296.492188 C 378.140625 296.609375 379.210938 296.46875 380.246094 296.078125 C 381.28125 295.683594 382.171875 295.078125 382.917969 294.261719 C 384.261719 292.875 385.457031 291.375 386.503906 289.757812 C 388.945312 285.878906 391.21875 281.855469 393.65625 277.976562 C 395.117188 275.621094 396.742188 273.351562 398.410156 271.121094 C 399.171875 270.171875 400.027344 269.316406 400.976562 268.554688 C 401.234375 268.25 401.558594 268.0625 401.945312 267.984375 C 402.335938 267.90625 402.707031 267.957031 403.0625 268.136719 C 403.382812 268.382812 403.59375 268.695312 403.699219 269.085938 C 403.800781 269.472656 403.777344 269.851562 403.625 270.222656 C 403.328125 271.351562 402.902344 272.425781 402.351562 273.453125 C 400.789062 276.269531 399.203125 279.105469 397.453125 281.792969 C 392.425781 289.445312 387.296875 297.03125 382.25 304.726562 C 378.378906 310.429688 374.945312 316.382812 371.949219 322.589844 C 370.511719 325.394531 369.523438 328.347656 368.988281 331.453125 C 368.75 332.820312 368.8125 334.171875 369.175781 335.511719 C 369.539062 336.851562 370.175781 338.046875 371.074219 339.101562 C 372.410156 340.472656 373.847656 341.726562 375.390625 342.855469 C 375.710938 343.011719 375.988281 343.226562 376.222656 343.5 C 376.453125 343.773438 376.621094 344.078125 376.722656 344.421875 C 376.824219 344.765625 376.855469 345.113281 376.8125 345.46875 C 376.769531 345.824219 376.65625 346.152344 376.476562 346.460938 C 373.640625 354.800781 370.492188 362.992188 368.363281 371.480469 C 367.527344 374.34375 367.347656 377.246094 367.820312 380.191406 C 367.996094 381.433594 368.371094 382.605469 368.957031 383.710938 C 369.539062 384.820312 370.296875 385.792969 371.222656 386.636719 C 371.449219 386.828125 371.660156 387.046875 371.847656 387.28125 C 371.9375 387.351562 372.011719 387.441406 372.0625 387.542969 C 372.113281 387.648438 372.140625 387.757812 372.140625 387.875 C 372.140625 387.992188 372.113281 388.101562 372.0625 388.207031 C 372.011719 388.3125 371.9375 388.398438 371.847656 388.46875 C 368.03125 391.160156 366.089844 395.203125 364.234375 399.226562 C 361.878906 404.3125 359.773438 409.527344 357.667969 414.714844 C 355.449219 420.253906 352.945312 425.660156 350.160156 430.9375 C 349.285156 432.582031 348.554688 434.3125 347.824219 436.042969 C 347.457031 436.960938 347.265625 437.910156 347.261719 438.898438 C 347.492188 438.691406 347.785156 438.523438 347.910156 438.273438 C 348.636719 436.941406 349.390625 435.625 349.992188 434.25 C 353.371094 426.683594 356.667969 419.074219 360.085938 411.527344 C 363.167969 404.46875 366.851562 397.742188 371.136719 391.347656 C 373.640625 387.445312 375.089844 383.183594 375.496094 378.566406 C 376.203125 373.355469 376.832031 368.144531 377.582031 362.953125 C 378.027344 360.621094 378.617188 358.328125 379.351562 356.074219 C 379.621094 355.25 380.023438 354.5 380.5625 353.820312 C 381.273438 352.925781 382.230469 353.132812 382.441406 354.21875 C 382.605469 355.167969 382.605469 356.121094 382.441406 357.074219 C 381.792969 361.242188 381.125 365.246094 380.355469 369.3125 C 378.6875 377.648438 376.832031 385.988281 375.226562 394.328125 C 374.042969 400.742188 373.257812 407.203125 372.867188 413.714844 C 372.449219 419.214844 372.390625 424.71875 372.703125 430.226562 C 372.703125 431.894531 373.035156 433.542969 373.203125 435.1875 L 373.554688 435.1875 C 373.746094 433.105469 373.996094 431.019531 374.140625 428.933594 C 374.953125 417.65625 375.664062 406.355469 377.226562 395.140625 C 378.726562 384.277344 380.332031 373.4375 382.648438 362.703125 C 383.113281 360.632812 383.746094 358.617188 384.546875 356.65625 C 384.84375 355.769531 385.328125 355 386 354.347656 C 386.667969 353.691406 387.449219 353.226562 388.339844 352.945312 C 387.839844 352.675781 387.484375 352.425781 387.109375 352.257812 C 385.023438 351.402344 382.773438 350.570312 380.644531 349.691406 C 379.839844 349.386719 379.097656 348.96875 378.414062 348.441406 C 378.261719 348.320312 378.132812 348.175781 378.039062 348.003906 C 377.941406 347.832031 377.878906 347.648438 377.851562 347.457031 C 377.828125 347.261719 377.839844 347.066406 377.890625 346.878906 C 377.941406 346.6875 378.027344 346.515625 378.144531 346.359375 C 378.402344 346.058594 378.726562 345.867188 379.113281 345.785156 C 379.5 345.703125 379.871094 345.75 380.230469 345.917969 C 384.109375 347.859375 388.027344 349.734375 391.863281 351.796875 C 398 355.199219 403.628906 359.292969 408.753906 364.078125 C 410.359375 365.539062 412.007812 366.953125 413.738281 368.246094 C 416.386719 370.226562 417.742188 370.125 419.765625 367.496094 C 421.375 365.417969 422.804688 363.21875 424.058594 360.910156 C 428.464844 352.707031 432.398438 344.285156 435.863281 335.640625 C 438.550781 329.035156 441.136719 322.402344 443.785156 315.796875 C 444.160156 314.792969 444.621094 313.835938 445.078125 312.875 C 445.25 312.507812 445.484375 312.1875 445.789062 311.917969 C 446.351562 311.375 446.996094 311.542969 447.164062 312.292969 C 447.246094 312.84375 447.246094 313.390625 447.164062 313.941406 C 446.773438 318.097656 445.976562 322.179688 444.765625 326.175781 C 441.265625 338.082031 436.078125 349.199219 429.210938 359.535156 C 426.269531 364.058594 422.953125 368.414062 419.847656 372.769531 C 416.722656 376.769531 414.519531 381.226562 413.238281 386.132812 C 412.675781 388.53125 412.175781 390.972656 411.777344 393.410156 C 410.726562 399.1875 410.15625 405.011719 410.066406 410.878906 C 410.042969 414.035156 410.464844 417.128906 411.339844 420.15625 C 411.914062 422.179688 412.863281 424.007812 414.183594 425.644531 C 415.507812 427.28125 417.09375 428.59375 418.953125 429.582031 C 422.421875 431.398438 426.058594 432.789062 429.855469 433.75 C 437.277344 435.875 444.839844 437.179688 452.542969 437.667969 C 462.027344 438.320312 471.453125 437.839844 480.820312 436.230469 C 485.890625 435.34375 490.671875 433.640625 495.164062 431.125 L 500.417969 428.164062 C 500.210938 427.914062 500.109375 427.625 500.109375 427.296875 C 500.109375 426.972656 500.210938 426.683594 500.417969 426.433594 C 502.582031 423.4375 504.480469 420.28125 506.113281 416.96875 C 508.199219 413.046875 510.28125 409.109375 512.367188 405.210938 C 513.183594 403.773438 514.074219 402.382812 515.035156 401.039062 C 517.519531 397.515625 520.082031 394.054688 524.710938 392.703125 C 524.363281 392.425781 524.0625 392.101562 523.816406 391.730469 C 523.570312 391.359375 523.386719 390.960938 523.269531 390.53125 C 523.152344 390.101562 523.101562 389.664062 523.125 389.21875 C 523.148438 388.773438 523.238281 388.34375 523.398438 387.925781 C 524.585938 381.109375 525.816406 374.3125 526.964844 367.476562 C 528.613281 357.574219 530.425781 347.671875 532.761719 337.894531 C 532.8125 337.492188 532.929688 337.109375 533.117188 336.746094 C 533.347656 336.480469 533.617188 336.265625 533.929688 336.101562 L 534.242188 336.289062 C 534.292969 336.816406 534.292969 337.34375 534.242188 337.871094 C 532.613281 345.378906 531.40625 352.964844 530.507812 360.574219 C 529.578125 366.96875 529.535156 373.371094 530.382812 379.777344 C 530.621094 381.425781 531.015625 383.039062 531.574219 384.613281 C 531.886719 385.582031 532.332031 386.488281 532.914062 387.328125 C 533.492188 388.167969 534.183594 388.90625 534.980469 389.542969 C 535.777344 390.179688 536.648438 390.691406 537.59375 391.070312 C 538.542969 391.453125 539.523438 391.691406 540.539062 391.785156 C 544.441406 392.246094 548.320312 392.101562 552.175781 391.347656 C 563.246094 389.511719 574.214844 387.175781 585.097656 384.445312 C 586.515625 384.089844 587.914062 383.613281 589.269531 383.152344 C 589.5625 383.09375 589.832031 382.984375 590.078125 382.824219 C 590.328125 382.660156 590.535156 382.460938 590.707031 382.214844 C 590.878906 381.972656 590.996094 381.707031 591.066406 381.421875 C 591.136719 381.132812 591.148438 380.839844 591.105469 380.546875 C 590.875 378.128906 590.644531 375.710938 590.332031 373.3125 C 588.957031 363.160156 587.457031 353.007812 586.164062 342.835938 C 584.578125 330.324219 583.203125 317.652344 581.035156 305.140625 C 579.964844 297.929688 578.246094 290.878906 575.882812 283.980469 C 575.28125 282.21875 574.585938 280.496094 573.796875 278.8125 C 573.148438 277.375 572.335938 276.042969 571.359375 274.808594 C 567.457031 270.0625 563.097656 265.785156 558.285156 261.96875 C 557.53125 261.382812 556.71875 260.839844 555.925781 260.300781 C 555.140625 259.734375 554.296875 259.28125 553.394531 258.933594 C 552.492188 258.589844 551.5625 258.363281 550.601562 258.261719 C 549.640625 258.15625 548.679688 258.175781 547.726562 258.320312 C 546.769531 258.464844 545.847656 258.726562 544.960938 259.109375 C 542.71875 260.042969 540.570312 261.15625 538.515625 262.445312 C 534.6875 264.890625 531.210938 267.757812 528.089844 271.054688 C 526.527344 272.703125 524.941406 274.351562 523.398438 276.019531 C 520.066406 279.582031 516.324219 282.65625 512.179688 285.234375 C 508.667969 287.347656 505.695312 290.050781 503.253906 293.34375 C 502.785156 294 502.230469 294.578125 501.585938 295.074219 C 501.367188 295.269531 501.117188 295.414062 500.835938 295.507812 C 500.550781 295.597656 500.265625 295.625 499.96875 295.59375 C 499.675781 295.5625 499.398438 295.472656 499.144531 295.324219 C 498.886719 295.175781 498.675781 294.980469 498.5 294.738281 C 497.730469 293.710938 497.222656 292.566406 496.980469 291.300781 C 496.738281 290.039062 496.789062 288.789062 497.125 287.546875 C 497.492188 286.722656 497.964844 285.964844 498.542969 285.273438 C 498.125 285.273438 497.75 285.273438 497.394531 285.398438 C 494.242188 286.046875 491.074219 286.136719 487.886719 285.671875 C 486.480469 285.4375 485.148438 284.984375 483.894531 284.304688 C 482.640625 283.625 481.53125 282.761719 480.570312 281.710938 C 477.199219 278.070312 474.894531 273.851562 473.644531 269.054688 C 472.019531 262.984375 471.558594 256.828125 472.269531 250.585938 C 472.703125 245.804688 473.628906 241.121094 475.042969 236.535156 C 475.273438 235.757812 475.558594 235 475.898438 234.261719 C 476.148438 233.675781 476.335938 232.863281 477.167969 233.011719 C 478.003906 233.15625 477.878906 234.011719 477.835938 234.617188 C 477.835938 236.449219 477.609375 238.261719 477.398438 240.054688 C 477.082031 243.5 477.25 246.917969 477.898438 250.3125 C 478.128906 251.710938 478.335938 253.105469 478.671875 254.484375 C 478.957031 255.757812 479.445312 256.949219 480.132812 258.054688 C 480.824219 259.164062 481.679688 260.128906 482.695312 260.945312 C 483.960938 262.003906 485.316406 262.925781 486.765625 263.710938 C 488.214844 264.496094 489.726562 265.132812 491.300781 265.617188 C 492.875 266.101562 494.484375 266.429688 496.125 266.59375 C 497.765625 266.757812 499.40625 266.757812 501.046875 266.59375 C 501.75 266.484375 502.445312 266.324219 503.128906 266.117188 L 503.128906 265.71875 L 500.148438 264.761719 C 497.355469 263.886719 494.519531 263.09375 491.808594 262.070312 C 487.976562 260.578125 484.640625 258.347656 481.800781 255.378906 C 480.726562 254.355469 479.878906 253.171875 479.25 251.832031 C 478.617188 250.492188 478.253906 249.082031 478.148438 247.601562 C 478.097656 246.949219 478.15625 246.300781 478.316406 245.664062 C 478.347656 245.484375 478.421875 245.324219 478.539062 245.179688 C 478.652344 245.039062 478.796875 244.933594 478.96875 244.867188 C 479.136719 244.800781 479.316406 244.78125 479.496094 244.808594 C 479.675781 244.835938 479.839844 244.90625 479.984375 245.019531 C 480.558594 245.347656 481.066406 245.757812 481.507812 246.25 C 482.804688 247.71875 484.300781 248.949219 485.992188 249.941406 C 487.6875 250.933594 489.492188 251.632812 491.410156 252.042969 C 493.914062 252.695312 496.394531 253.390625 498.855469 254.128906 C 500.046875 254.484375 501.179688 254.972656 502.257812 255.59375 C 503.335938 256.214844 504.328125 256.953125 505.230469 257.804688 C 506.136719 258.65625 506.929688 259.601562 507.617188 260.640625 C 508.300781 261.675781 508.855469 262.78125 509.28125 263.949219 C 510.054688 265.824219 510.636719 267.761719 511.367188 269.640625 C 511.8125 270.765625 512.367188 271.835938 513.035156 272.847656 C 513.183594 273.152344 513.390625 273.40625 513.65625 273.617188 C 513.917969 273.828125 514.214844 273.972656 514.542969 274.054688 C 514.867188 274.132812 515.199219 274.140625 515.527344 274.078125 C 515.859375 274.011719 516.160156 273.882812 516.433594 273.683594 L 516.832031 273.476562 C 521.035156 271.085938 524.898438 268.238281 528.421875 264.929688 C 531.945312 261.621094 535.035156 257.941406 537.683594 253.898438 C 537.851562 253.589844 538.046875 253.300781 538.265625 253.023438 C 538.359375 252.882812 538.484375 252.773438 538.632812 252.695312 C 538.78125 252.617188 538.941406 252.578125 539.109375 252.578125 C 539.28125 252.578125 539.4375 252.617188 539.589844 252.695312 C 539.738281 252.773438 539.859375 252.882812 539.953125 253.023438 C 540.035156 253.089844 540.105469 253.167969 540.164062 253.253906 C 540.492188 253.75 540.898438 254.171875 541.386719 254.519531 C 541.871094 254.867188 542.402344 255.117188 542.976562 255.269531 C 543.554688 255.421875 544.140625 255.464844 544.730469 255.402344 C 545.324219 255.335938 545.886719 255.171875 546.417969 254.898438 C 548.128906 254.324219 549.726562 253.519531 551.210938 252.488281 C 552.691406 251.457031 554 250.238281 555.136719 248.832031 C 557.101562 246.222656 558.601562 243.363281 559.628906 240.257812 C 560.65625 237.152344 561.160156 233.964844 561.140625 230.695312 C 561.035156 230.820312 560.890625 230.90625 560.828125 231.050781 C 560.5 231.695312 560.023438 232.207031 559.40625 232.582031 C 558.785156 232.957031 558.113281 233.144531 557.386719 233.136719 C 556.199219 233.230469 555.070312 233.527344 553.992188 234.035156 C 552.914062 234.542969 551.960938 235.222656 551.132812 236.074219 C 549.421875 237.636719 547.773438 239.304688 546.085938 240.890625 C 545.585938 241.398438 545.027344 241.835938 544.417969 242.203125 C 543.707031 242.601562 543.082031 242.203125 543.144531 241.347656 C 543.171875 240.789062 543.304688 240.253906 543.542969 239.742188 C 544.625 237.285156 545.75 234.867188 546.855469 232.425781 C 547.023438 232.070312 547.167969 231.71875 547.421875 231.113281 C 547.023438 231.320312 546.855469 231.382812 546.710938 231.488281 C 545.695312 232.183594 544.621094 232.765625 543.480469 233.230469 C 542.339844 233.699219 541.164062 234.039062 539.953125 234.253906 C 538.742188 234.472656 537.519531 234.554688 536.292969 234.511719 C 535.0625 234.46875 533.851562 234.292969 532.65625 233.988281 C 528.707031 233.054688 524.894531 231.710938 521.230469 229.964844 C 512.640625 226.027344 504.046875 222.105469 495.5 218.105469 C 493.492188 217.140625 491.546875 216.070312 489.660156 214.894531 C 487.757812 213.839844 486.144531 212.449219 484.824219 210.722656 C 484.132812 212.246094 483.488281 213.707031 482.738281 215.144531 C 480.8125 219.390625 479.28125 223.777344 478.148438 228.296875 C 478.007812 228.789062 477.9375 229.289062 477.941406 229.800781 C 477.941406 230.507812 477.710938 230.820312 477.003906 230.84375 C 469.371094 231.382812 461.910156 232.828125 454.628906 235.179688 C 449.207031 236.757812 443.695312 237.90625 438.09375 238.617188 C 434.382812 239.015625 430.628906 239.140625 426.917969 239.410156 C 423.996094 239.597656 421.078125 239.828125 418.179688 240.179688 L 426.792969 240.179688 C 427.355469 240.148438 427.90625 240.226562 428.4375 240.410156 C 428.855469 240.558594 429.417969 240.933594 429.503906 241.285156 C 429.515625 241.792969 429.332031 242.214844 428.960938 242.558594 C 428.328125 243.109375 427.632812 243.5625 426.875 243.914062 C 423.125 245.808594 419.710938 248.183594 416.632812 251.039062 C 413.550781 253.894531 410.925781 257.121094 408.753906 260.714844 C 408.324219 261.40625 407.832031 262.042969 407.273438 262.632812 C 406.378906 263.550781 405.5 263.300781 405.1875 262.050781 C 405.054688 261.363281 404.988281 260.667969 404.980469 259.964844 C 404.6875 255.273438 404.375 250.585938 404.082031 245.894531 C 404.09375 245.742188 404.09375 245.589844 404.082031 245.433594 C 403.6875 242.933594 402.769531 242.140625 400.207031 242.203125 C 398.121094 242.203125 396.035156 242.476562 393.949219 242.496094 C 387.140625 242.722656 380.570312 241.570312 374.246094 239.035156 C 371.804688 238.011719 369.59375 236.621094 367.613281 234.867188 C 366.535156 233.980469 365.722656 232.894531 365.175781 231.613281 C 365.082031 231.46875 365.007812 231.316406 364.957031 231.15625 C 364.902344 230.992188 364.867188 230.828125 364.855469 230.65625 C 364.839844 230.488281 364.847656 230.320312 364.875 230.148438 C 364.90625 229.980469 364.953125 229.820312 365.019531 229.664062 C 365.089844 229.507812 365.175781 229.359375 365.277344 229.226562 C 365.382812 229.089844 365.5 228.96875 365.632812 228.863281 C 365.765625 228.757812 365.910156 228.667969 366.066406 228.597656 C 366.222656 228.527344 366.382812 228.476562 366.550781 228.445312 C 367.238281 228.171875 368.011719 228.070312 368.738281 227.839844 C 369.46875 227.609375 370.574219 227.339844 371.472656 226.984375 C 372.144531 226.722656 372.710938 226.3125 373.171875 225.757812 C 373.628906 225.199219 373.925781 224.566406 374.058594 223.859375 C 374.46875 221.898438 374.46875 219.9375 374.058594 217.980469 C 373.015625 211.984375 372.613281 205.945312 372.847656 199.863281 C 372.871094 199.589844 372.871094 199.320312 372.847656 199.050781 C 372.0625 203.113281 371.703125 207.210938 371.761719 211.347656 C 371.917969 212.960938 372.195312 214.554688 372.597656 216.125 C 372.929688 217.75 373.453125 219.335938 373.722656 220.980469 C 373.890625 221.925781 373.890625 222.871094 373.722656 223.816406 C 373.574219 224.503906 373.253906 225.101562 372.761719 225.605469 C 372.265625 226.109375 371.675781 226.445312 370.992188 226.609375 C 369.699219 227.007812 368.34375 227.214844 367.007812 227.484375 C 366.695312 227.484375 366.40625 227.484375 366.089844 227.484375 C 363.507812 227.839844 363.441406 227.921875 362.753906 230.402344 C 362.339844 231.945312 361.921875 233.53125 361.378906 235.03125 C 360.964844 236.167969 360.425781 237.238281 359.753906 238.242188 C 359.398438 238.777344 359.171875 239.359375 359.078125 239.996094 C 358.980469 240.628906 359.027344 241.253906 359.210938 241.871094 C 359.523438 243.183594 359.898438 244.519531 360.085938 245.851562 C 360.203125 246.515625 360.210938 247.179688 360.109375 247.84375 C 360.007812 248.511719 359.796875 249.140625 359.484375 249.738281 C 359.171875 250.335938 358.769531 250.863281 358.28125 251.328125 C 357.789062 251.789062 357.238281 252.160156 356.625 252.441406 C 354.347656 253.710938 351.914062 254.5 349.328125 254.816406 C 344.464844 255.484375 339.601562 255.523438 334.730469 254.941406 C 332.0625 254.734375 329.390625 254.566406 326.640625 254.378906 C 326.640625 254.671875 326.640625 254.835938 326.765625 254.921875 C 327.289062 255.488281 327.695312 256.128906 327.976562 256.851562 C 328.257812 257.570312 328.394531 258.316406 328.390625 259.089844 C 328.390625 261.007812 328.601562 262.925781 328.640625 264.84375 C 328.851562 272.222656 329.042969 279.605469 329.226562 286.984375 C 329.308594 287.484375 329.308594 287.984375 329.226562 288.484375 C 329.078125 288.796875 328.832031 288.992188 328.496094 289.070312 C 328.347656 289.070312 328.015625 288.777344 327.910156 288.527344 C 327.75 288.160156 327.636719 287.777344 327.578125 287.378906 C 326.90625 284.660156 325.855469 282.097656 324.429688 279.6875 C 322.558594 276.410156 320.007812 273.796875 316.777344 271.847656 C 313.660156 270.046875 310.40625 268.539062 307.019531 267.324219 C 304.660156 266.40625 302.304688 265.492188 299.992188 264.511719 C 295.460938 262.53125 291.324219 259.933594 287.574219 256.714844 C 283.828125 253.496094 280.632812 249.800781 277.992188 245.621094 C 273.050781 238.015625 269.460938 229.816406 267.234375 221.023438 C 267.128906 220.667969 267.085938 220.3125 267.003906 219.980469 C 266.859375 219.503906 266.785156 219.019531 266.78125 218.519531 C 266.777344 218.023438 266.847656 217.535156 266.984375 217.058594 C 267.125 216.582031 267.328125 216.132812 267.597656 215.714844 C 267.867188 215.296875 268.191406 214.925781 268.566406 214.601562 C 270.398438 213.011719 271.789062 211.101562 272.738281 208.867188 C 272.996094 208.1875 273.203125 207.492188 273.363281 206.785156 C 273.449219 206.4375 273.449219 206.089844 273.363281 205.742188 C 273.15625 204.949219 272.675781 204.699219 272.027344 205.199219 C 271.242188 205.804688 270.546875 206.5 269.941406 207.285156 C 268.335938 209.429688 266.960938 211.515625 265.542969 213.601562 C 260.882812 220.890625 255.320312 227.417969 248.863281 233.175781 C 244.148438 237.347656 239.25 241.246094 234.265625 245.058594 C 228.699219 249.355469 222.964844 253.398438 217.3125 257.566406 C 216.375 258.257812 215.519531 259.027344 214.625 259.777344 C 210.726562 263.03125 207.402344 266.789062 204.652344 271.054688 C 201.90625 275.324219 199.855469 279.902344 198.503906 284.796875 C 196.066406 293.132812 194.144531 301.472656 192.519531 309.8125 C 188.351562 331.203125 183.71875 352.464844 178.363281 373.5625 C 177.695312 376.253906 177.132812 378.984375 176.566406 381.695312 C 176.433594 382.382812 176.371094 383.078125 176.378906 383.777344 C 176.378906 385.632812 177.132812 386.574219 178.964844 386.675781 C 180.894531 386.808594 182.816406 386.796875 184.742188 386.636719 C 189.914062 385.960938 195.109375 385.746094 200.320312 385.988281 C 205.445312 386.285156 210.441406 387.25 215.3125 388.886719 C 217.503906 389.574219 219.503906 390.621094 221.316406 392.035156 C 222.261719 392.808594 223.046875 393.71875 223.671875 394.765625 C 223.789062 394.953125 223.878906 395.152344 223.945312 395.363281 C 224.011719 395.574219 224.054688 395.789062 224.070312 396.007812 C 224.085938 396.226562 224.078125 396.449219 224.042969 396.664062 C 224.007812 396.882812 223.945312 397.09375 223.859375 397.296875 C 223.773438 397.5 223.667969 397.691406 223.535156 397.867188 C 223.40625 398.046875 223.257812 398.207031 223.085938 398.347656 C 222.917969 398.492188 222.734375 398.613281 222.539062 398.710938 C 222.34375 398.808594 222.136719 398.882812 221.921875 398.933594 C 221.699219 399.039062 221.46875 399.101562 221.226562 399.125 C 220.984375 399.148438 220.742188 399.128906 220.507812 399.070312 C 220.269531 399.007812 220.050781 398.910156 219.851562 398.769531 C 219.648438 398.632812 219.476562 398.464844 219.335938 398.269531 C 218.691406 397.445312 217.855469 396.921875 216.832031 396.703125 C 209.742188 394.648438 202.546875 393.050781 195.25 391.910156 C 193.394531 391.597656 191.539062 391.386719 189.683594 391.179688 C 188.785156 391.070312 187.878906 391.015625 186.972656 391.011719 C 182.949219 391.011719 181.21875 392.304688 180.257812 396.183594 C 179.757812 398.304688 179.425781 400.453125 179.257812 402.625 C 178.507812 409.558594 178.300781 416.507812 178.632812 423.472656 C 178.863281 427.308594 179.300781 431.125 179.613281 434.9375 C 179.78125 437.167969 179.90625 439.378906 180.050781 441.589844 L 178.839844 441.589844 C 178.589844 438.421875 178.445312 435.335938 178.089844 432.082031 C 177.160156 424.128906 176.992188 416.15625 177.589844 408.171875 C 177.921875 404.347656 178.339844 400.535156 178.839844 396.726562 C 179.042969 395.574219 179.402344 394.476562 179.925781 393.429688 C 180.320312 392.507812 180.917969 391.738281 181.71875 391.125 C 182.515625 390.511719 183.414062 390.136719 184.410156 389.992188 C 186.933594 389.59375 189.449219 389.632812 191.957031 390.117188 C 200.078125 391.230469 208.085938 392.898438 215.976562 395.121094 C 216.839844 395.21875 217.652344 395.476562 218.414062 395.886719 C 219.179688 396.296875 219.839844 396.832031 220.398438 397.496094 C 220.816406 398.121094 221.503906 397.765625 222.027344 397.496094 C 222.546875 397.226562 223.066406 396.539062 222.777344 395.847656 C 222.503906 395.054688 222.074219 394.363281 221.484375 393.765625 C 220.332031 392.792969 219.09375 391.945312 217.773438 391.222656 C 214.796875 389.761719 211.679688 388.757812 208.410156 388.21875 C 201.609375 386.863281 194.769531 386.621094 187.890625 387.488281 C 185.679688 387.738281 183.46875 387.925781 181.238281 388.050781 C 180.230469 388.089844 179.230469 388.015625 178.238281 387.824219 C 177.808594 387.777344 177.40625 387.652344 177.027344 387.453125 C 176.648438 387.253906 176.316406 386.992188 176.035156 386.664062 C 175.757812 386.339844 175.542969 385.976562 175.402344 385.570312 C 175.261719 385.167969 175.195312 384.75 175.214844 384.320312 C 175.199219 382.800781 175.351562 381.300781 175.671875 379.816406 C 177.214844 373.167969 178.882812 366.558594 180.46875 359.929688 C 184.125 344.792969 187.433594 329.597656 190.394531 314.335938 C 192.101562 304.621094 194.316406 295.023438 197.042969 285.546875 C 197.960938 282.5625 199.128906 279.625 200.257812 276.726562 C 201.789062 273.148438 203.746094 269.824219 206.125 266.742188 C 208.507812 263.664062 211.234375 260.933594 214.308594 258.546875 C 219.023438 254.753906 223.964844 251.210938 228.90625 247.625 C 234.496094 243.453125 240 239.285156 245.277344 234.84375 C 253.171875 228.15625 259.878906 220.4375 265.398438 211.683594 C 266.566406 209.808594 267.816406 207.953125 269.152344 206.160156 C 269.789062 205.332031 270.546875 204.636719 271.421875 204.074219 C 272.800781 203.15625 274.09375 203.761719 274.550781 205.386719 C 274.765625 206.398438 274.683594 207.386719 274.300781 208.347656 C 273.609375 210.316406 272.550781 212.070312 271.132812 213.601562 C 270.632812 214.238281 270.082031 214.828125 269.484375 215.371094 C 269.160156 215.621094 268.882812 215.914062 268.652344 216.25 C 268.421875 216.585938 268.25 216.953125 268.136719 217.34375 C 268.019531 217.734375 267.96875 218.136719 267.984375 218.542969 C 267.996094 218.949219 268.074219 219.347656 268.210938 219.730469 C 269.152344 222.835938 270.003906 225.984375 271.070312 229.007812 C 273.363281 235.585938 276.570312 241.6875 280.683594 247.3125 C 283.417969 251.148438 286.652344 254.507812 290.382812 257.390625 C 294.109375 260.269531 298.175781 262.554688 302.578125 264.238281 C 305.121094 265.21875 307.683594 266.179688 310.1875 267.21875 C 312 267.972656 313.792969 268.824219 315.546875 269.703125 C 318.171875 271.019531 320.480469 272.753906 322.476562 274.90625 C 324.472656 277.058594 326.027344 279.496094 327.140625 282.210938 C 327.3125 282.625 327.507812 283.027344 327.722656 283.417969 L 328.015625 283.417969 C 328.015625 282.878906 328.015625 282.355469 328.015625 281.8125 C 327.828125 275.144531 327.640625 268.492188 327.433594 261.820312 C 327.433594 260.757812 327.285156 259.738281 327.203125 258.632812 C 327.203125 258.171875 327.125 257.722656 326.96875 257.292969 C 326.8125 256.859375 326.585938 256.464844 326.292969 256.109375 C 326 255.753906 325.65625 255.457031 325.261719 255.222656 C 324.867188 254.984375 324.441406 254.820312 323.992188 254.734375 C 322.71875 254.441406 321.40625 254.316406 320.09375 254.148438 C 319.507812 254.148438 318.882812 254.148438 318.277344 254.148438 C 317.671875 254.148438 316.984375 254.148438 317.007812 253.441406 C 317.027344 252.730469 317.820312 252.878906 318.339844 252.792969 L 319.089844 252.792969 C 323.449219 253.003906 327.785156 253.191406 332.125 253.460938 C 336.980469 254.011719 341.84375 254.128906 346.71875 253.816406 C 349.019531 253.492188 351.292969 253.03125 353.539062 252.441406 C 354.421875 252.183594 355.246094 251.808594 356.019531 251.3125 C 356.511719 251.066406 356.945312 250.746094 357.328125 250.351562 C 357.710938 249.957031 358.019531 249.511719 358.25 249.015625 C 358.484375 248.519531 358.628906 247.996094 358.683594 247.453125 C 358.742188 246.90625 358.710938 246.367188 358.585938 245.832031 C 358.375 244.644531 358.085938 243.453125 357.792969 242.285156 C 357.523438 241.414062 357.46875 240.53125 357.628906 239.632812 C 357.792969 238.734375 358.152344 237.921875 358.710938 237.199219 C 359.324219 236.277344 359.769531 235.273438 360.042969 234.199219 C 360.601562 232.460938 361.101562 230.710938 361.546875 228.945312 C 361.605469 228.644531 361.710938 228.359375 361.859375 228.09375 C 362.007812 227.828125 362.195312 227.589844 362.421875 227.382812 C 362.644531 227.171875 362.898438 227.003906 363.175781 226.878906 C 363.453125 226.75 363.742188 226.667969 364.046875 226.628906 C 365.277344 226.402344 366.53125 226.234375 367.78125 226.003906 C 368.625 225.867188 369.449219 225.664062 370.261719 225.402344 C 370.605469 225.304688 370.925781 225.152344 371.210938 224.9375 C 371.5 224.722656 371.742188 224.46875 371.933594 224.164062 C 372.125 223.863281 372.257812 223.535156 372.328125 223.183594 C 372.402344 222.832031 372.40625 222.480469 372.347656 222.128906 C 372.261719 220.8125 372.019531 219.527344 371.617188 218.269531 C 370.105469 213.398438 369.800781 208.449219 370.699219 203.425781 C 371.261719 199.132812 371.886719 194.816406 372.285156 190.503906 C 372.535156 187.832031 372.429688 185.144531 372.429688 182.476562 C 372.371094 181.800781 372.238281 181.140625 372.035156 180.496094 C 371.191406 180.511719 370.496094 180.835938 369.949219 181.476562 C 368.199219 182.851562 366.488281 184.269531 364.777344 185.644531 C 361.167969 188.71875 357.246094 191.332031 353.019531 193.480469 C 348.789062 195.628906 344.367188 197.257812 339.753906 198.363281 C 338.972656 198.496094 338.230469 198.742188 337.527344 199.105469 C 336.824219 199.472656 336.191406 199.933594 335.632812 200.492188 C 335.070312 201.054688 334.609375 201.683594 334.246094 202.390625 C 333.882812 203.09375 333.632812 203.835938 333.5 204.617188 C 332.652344 207.953125 332.101562 211.335938 331.851562 214.769531 C 331.5625 219.773438 331.414062 224.773438 331.183594 229.757812 C 331.144531 231.375 330.976562 232.980469 330.683594 234.574219 C 330.164062 237.136719 328.601562 237.867188 326.203125 236.929688 C 324.636719 236.261719 323.308594 235.277344 322.21875 233.96875 C 320.671875 232.214844 319.421875 230.269531 318.464844 228.132812 C 317.609375 226.296875 316.839844 224.421875 316.027344 222.566406 C 315.082031 220.28125 313.808594 218.195312 312.210938 216.3125 C 311.308594 215.230469 310.234375 214.363281 308.988281 213.707031 C 307.742188 213.046875 306.417969 212.652344 305.015625 212.515625 C 302.957031 212.359375 300.980469 212.699219 299.09375 213.539062 C 296.445312 214.644531 293.882812 215.957031 291.234375 217.101562 C 288.960938 218.0625 286.667969 219.019531 284.308594 219.75 C 283.128906 220.0625 281.933594 220.136719 280.722656 219.980469 C 279.820312 219.898438 278.996094 219.59375 278.25 219.074219 C 277.507812 218.554688 276.941406 217.882812 276.554688 217.0625 C 275.785156 215.679688 275.367188 214.199219 275.300781 212.621094 C 275.136719 209.808594 275.03125 206.972656 274.925781 204.136719 C 274.832031 201.097656 274.394531 198.109375 273.613281 195.171875 C 273.09375 193.085938 272.675781 191.128906 272.214844 189.125 C 271.449219 185.554688 271.484375 181.988281 272.320312 178.429688 C 273.878906 171.425781 275.851562 164.539062 278.242188 157.773438 C 278.886719 155.890625 279.710938 154.089844 280.714844 152.371094 C 281.71875 150.652344 282.882812 149.050781 284.207031 147.566406 C 285.53125 146.082031 286.992188 144.746094 288.585938 143.554688 C 290.179688 142.363281 291.875 141.339844 293.671875 140.488281 C 298.949219 137.851562 304.507812 136.144531 310.355469 135.359375 C 316.171875 134.476562 322.015625 134.199219 327.890625 134.527344 C 332.753906 134.75 337.519531 135.554688 342.183594 136.941406 C 346.851562 138.328125 351.28125 140.253906 355.476562 142.71875 C 358.394531 144.339844 360.957031 146.402344 363.160156 148.90625 C 365.367188 151.410156 367.085938 154.214844 368.324219 157.3125 C 368.761719 158.4375 369.136719 159.585938 369.511719 160.753906 C 370.742188 164.546875 372.011719 168.320312 373.160156 172.136719 C 374.097656 175.324219 374.953125 178.554688 375.683594 181.808594 C 376.011719 184.257812 375.914062 186.691406 375.390625 189.105469 C 374.890625 193.273438 374.328125 197.320312 374.015625 201.445312 C 373.804688 206.664062 374.160156 211.839844 375.078125 216.976562 C 375.351562 218.726562 375.492188 220.484375 375.496094 222.253906 C 375.523438 222.621094 375.519531 222.988281 375.480469 223.355469 C 375.441406 223.726562 375.367188 224.085938 375.261719 224.441406 C 375.15625 224.792969 375.019531 225.136719 374.851562 225.464844 C 374.679688 225.792969 374.484375 226.105469 374.257812 226.394531 C 374.03125 226.6875 373.777344 226.957031 373.503906 227.203125 C 373.226562 227.449219 372.929688 227.667969 372.613281 227.859375 C 372.296875 228.050781 371.964844 228.210938 371.621094 228.339844 C 371.273438 228.46875 370.917969 228.566406 370.554688 228.632812 C 369.636719 228.902344 368.675781 229.070312 367.757812 229.320312 C 366.027344 229.800781 365.675781 230.445312 366.78125 231.90625 C 367.527344 232.921875 368.390625 233.832031 369.367188 234.636719 C 372.871094 237.34375 376.796875 239.113281 381.148438 239.953125 C 386.863281 241.222656 392.640625 241.589844 398.472656 241.058594 C 399.539062 240.953125 400.601562 240.953125 401.664062 241.058594 C 402.050781 241.070312 402.421875 241.144531 402.78125 241.28125 C 403.140625 241.421875 403.46875 241.613281 403.761719 241.859375 C 404.058594 242.109375 404.304688 242.398438 404.503906 242.726562 C 404.699219 243.058594 404.839844 243.410156 404.917969 243.789062 C 405.242188 244.957031 405.453125 246.144531 405.542969 247.351562 C 405.8125 251.6875 406.023438 256.027344 406.273438 260.363281 C 406.273438 260.695312 406.273438 261.027344 406.417969 261.757812 C 406.941406 261.050781 407.273438 260.632812 407.566406 260.195312 C 408.878906 258.402344 410.128906 256.546875 411.464844 254.773438 C 414.5 250.777344 418.183594 247.511719 422.515625 244.976562 C 423.894531 244.140625 425.3125 243.351562 426.6875 242.515625 C 427.171875 242.253906 427.554688 241.886719 427.835938 241.410156 C 427.015625 241.328125 426.195312 241.285156 425.375 241.285156 L 412.027344 241.910156 C 411.125 241.984375 410.222656 241.984375 409.316406 241.910156 C 408.980469 241.808594 408.753906 241.59375 408.628906 241.265625 C 408.660156 240.90625 408.835938 240.644531 409.152344 240.472656 C 410.054688 240.148438 410.980469 239.898438 411.925781 239.722656 C 417.414062 238.816406 422.9375 238.292969 428.5 238.160156 C 437.539062 237.796875 446.398438 236.359375 455.085938 233.84375 C 459.695312 232.550781 464.386719 231.507812 469.078125 230.527344 C 471.539062 230.007812 474.082031 229.863281 476.605469 229.550781 C 477.316406 227.027344 478.046875 224.460938 478.796875 221.898438 C 479.742188 218.800781 480.960938 215.8125 482.445312 212.933594 C 483.757812 210.246094 483.570312 209.640625 481.320312 207.765625 C 479.402344 206.179688 477.460938 204.636719 475.667969 202.925781 C 474.554688 201.886719 473.609375 200.714844 472.832031 199.402344 C 472.65625 199.164062 472.511719 198.910156 472.398438 198.636719 C 472.285156 198.367188 472.203125 198.082031 472.15625 197.792969 C 472.105469 197.5 472.09375 197.207031 472.113281 196.914062 C 472.132812 196.617188 472.1875 196.332031 472.277344 196.046875 C 472.363281 195.765625 472.484375 195.5 472.636719 195.246094 C 472.785156 194.992188 472.964844 194.757812 473.171875 194.546875 C 473.375 194.335938 473.605469 194.148438 473.855469 193.992188 C 474.101562 193.832031 474.367188 193.703125 474.648438 193.609375 C 474.820312 193.503906 475 193.414062 475.1875 193.335938 C 476.421875 192.929688 477.535156 192.300781 478.519531 191.449219 C 479.503906 190.601562 480.292969 189.597656 480.882812 188.4375 C 482.640625 185.480469 484.730469 182.777344 487.152344 180.332031 C 489.578125 177.886719 492.261719 175.773438 495.207031 173.992188 C 500.4375 170.835938 506.082031 168.863281 512.136719 168.070312 C 516.21875 167.507812 520.316406 167.300781 524.433594 167.449219 C 528.550781 167.601562 532.621094 168.105469 536.648438 168.96875 C 540.679688 169.828125 544.601562 171.027344 548.421875 172.574219 C 552.238281 174.117188 555.894531 175.980469 559.390625 178.160156 C 563.257812 180.433594 566.566406 183.347656 569.316406 186.894531 C 570.75 188.714844 571.882812 190.703125 572.714844 192.863281 C 573.546875 195.023438 574.039062 197.261719 574.195312 199.570312 C 574.324219 202.019531 574.011719 204.410156 573.253906 206.742188 C 571.929688 211.246094 569.914062 215.414062 567.207031 219.25 C 565.714844 221.382812 563.894531 223.183594 561.746094 224.648438 C 560.585938 225.449219 559.320312 226.003906 557.945312 226.3125 C 556.574219 226.621094 555.191406 226.667969 553.800781 226.441406 C 552.257812 226.214844 550.695312 226.066406 549.128906 225.921875 C 548.617188 225.863281 548.117188 225.917969 547.628906 226.082031 C 547.140625 226.246094 546.710938 226.503906 546.335938 226.859375 C 542.707031 230.320312 538.265625 230.800781 533.59375 230.070312 C 526.867188 228.925781 520.472656 226.785156 514.410156 223.648438 C 507.738281 220.292969 501.171875 216.6875 494.558594 213.226562 C 492.476562 212.183594 490.558594 211.265625 488.535156 210.347656 C 487.683594 209.875 486.792969 209.785156 485.863281 210.078125 C 486.214844 210.59375 486.621094 211.066406 487.074219 211.496094 C 488.691406 212.785156 490.386719 213.957031 492.164062 215.019531 C 495.4375 216.832031 498.792969 218.5 502.191406 220.0625 C 509.351562 223.371094 516.53125 226.617188 523.730469 229.800781 C 527.144531 231.375 530.703125 232.480469 534.410156 233.113281 C 536.457031 233.453125 538.488281 233.386719 540.507812 232.914062 C 542.53125 232.441406 544.382812 231.597656 546.066406 230.382812 C 546.582031 229.976562 547.140625 229.628906 547.734375 229.339844 C 548.648438 228.964844 549.234375 229.507812 548.984375 230.464844 C 548.816406 231.054688 548.585938 231.617188 548.296875 232.15625 C 547.316406 234.238281 546.210938 236.324219 545.3125 238.410156 C 545.0625 238.9375 544.914062 239.492188 544.875 240.078125 C 545.136719 239.921875 545.378906 239.738281 545.605469 239.535156 C 547.230469 238.011719 548.796875 236.429688 550.445312 234.949219 C 551.328125 234.0625 552.339844 233.359375 553.484375 232.847656 C 554.625 232.332031 555.824219 232.039062 557.074219 231.96875 C 557.410156 231.96875 557.734375 231.917969 558.050781 231.808594 C 558.367188 231.699219 558.65625 231.542969 558.921875 231.335938 C 559.183594 231.128906 559.40625 230.886719 559.585938 230.605469 C 559.765625 230.324219 559.894531 230.019531 559.972656 229.695312 L 560.660156 227.609375 C 560.808594 227.132812 560.910156 226.546875 561.558594 226.589844 C 562.203125 226.628906 562.371094 227.296875 562.390625 227.839844 C 562.484375 229.5 562.484375 231.160156 562.390625 232.824219 C 562.082031 236.84375 561.082031 240.6875 559.390625 244.351562 C 558.363281 246.738281 556.953125 248.871094 555.160156 250.75 C 553.363281 252.628906 551.300781 254.136719 548.964844 255.273438 C 547.859375 255.769531 546.71875 256.160156 545.542969 256.441406 C 545.027344 256.589844 544.5 256.664062 543.964844 256.660156 C 543.429688 256.652344 542.90625 256.574219 542.390625 256.414062 C 541.878906 256.257812 541.398438 256.03125 540.953125 255.734375 C 540.503906 255.4375 540.109375 255.082031 539.765625 254.671875 L 539.265625 254.210938 C 539.039062 254.503906 538.808594 254.773438 538.621094 255.046875 C 534.34375 261.695312 528.910156 267.199219 522.3125 271.558594 C 521.042969 272.371094 519.8125 273.265625 518.539062 274.101562 C 518.082031 274.414062 517.609375 274.699219 517.121094 274.953125 C 516.71875 275.210938 516.28125 275.375 515.808594 275.449219 C 515.335938 275.527344 514.867188 275.507812 514.40625 275.394531 C 513.941406 275.28125 513.519531 275.078125 513.136719 274.792969 C 512.753906 274.507812 512.441406 274.160156 512.199219 273.746094 C 511.566406 272.832031 511.039062 271.859375 510.617188 270.828125 C 510.054688 269.492188 509.636719 268.074219 509.09375 266.65625 C 508.617188 265.328125 508.070312 264.027344 507.445312 262.757812 C 506.644531 261.125 505.566406 259.703125 504.203125 258.492188 C 502.84375 257.285156 501.304688 256.378906 499.585938 255.777344 C 496.875 254.835938 494.101562 254.046875 491.246094 253.316406 C 489.199219 252.886719 487.273438 252.148438 485.464844 251.097656 C 483.660156 250.050781 482.0625 248.746094 480.671875 247.1875 C 480.320312 246.820312 479.9375 246.484375 479.527344 246.1875 C 479.316406 247.671875 479.5 249.113281 480.066406 250.5 C 480.699219 252.113281 481.652344 253.5 482.925781 254.671875 C 486.199219 257.953125 490.042969 260.300781 494.457031 261.71875 C 496.542969 262.40625 498.625 262.925781 500.542969 263.550781 C 501.503906 263.84375 502.484375 264.136719 503.421875 264.511719 C 504.359375 264.886719 504.777344 265.09375 504.757812 265.949219 C 504.734375 266.804688 503.921875 267.15625 503.214844 267.386719 C 502.53125 267.585938 501.835938 267.726562 501.128906 267.804688 C 498.519531 268.054688 495.933594 267.914062 493.367188 267.386719 C 490.800781 266.855469 488.371094 265.960938 486.074219 264.699219 C 485.40625 264.34375 484.761719 263.925781 484.113281 263.53125 C 483.148438 262.964844 482.265625 262.296875 481.453125 261.527344 C 480.644531 260.761719 479.929688 259.910156 479.316406 258.976562 C 478.703125 258.042969 478.203125 257.054688 477.8125 256.007812 C 477.425781 254.960938 477.164062 253.882812 477.023438 252.773438 C 476.351562 249.289062 476.003906 245.773438 475.980469 242.222656 C 476.074219 240.695312 476.074219 239.167969 475.980469 237.636719 C 475.835938 238.035156 475.667969 238.410156 475.542969 238.785156 C 473.601562 245.546875 472.824219 252.441406 473.207031 259.464844 C 473.460938 265.273438 474.984375 270.730469 477.773438 275.832031 C 478.890625 277.835938 480.28125 279.628906 481.945312 281.210938 C 482.957031 282.179688 484.105469 282.945312 485.386719 283.507812 C 486.671875 284.070312 488.011719 284.394531 489.410156 284.480469 C 493.285156 284.738281 497.074219 284.28125 500.773438 283.105469 C 504.75 282.070312 508.316406 280.234375 511.472656 277.601562 C 511.605469 277.441406 511.773438 277.332031 511.972656 277.269531 C 512.242188 277.269531 512.640625 277.269531 512.785156 277.394531 C 512.972656 277.636719 513.007812 277.902344 512.890625 278.1875 C 512.546875 278.6875 512.125 279.105469 511.617188 279.4375 C 510.117188 280.375 508.574219 281.25 507.03125 282.085938 C 505.070312 283.148438 503.046875 284.167969 501.085938 285.148438 C 497.980469 286.796875 497.417969 288.152344 498.375 291.570312 C 498.53125 292.160156 498.742188 292.730469 499 293.28125 C 499.566406 294.324219 500.167969 294.425781 501.085938 293.65625 C 501.511719 293.289062 501.886719 292.878906 502.214844 292.425781 C 504.679688 289.023438 507.71875 286.242188 511.324219 284.085938 C 516.3125 280.914062 520.746094 277.097656 524.628906 272.640625 C 527.96875 268.882812 531.667969 265.519531 535.722656 262.550781 C 538.207031 260.699219 540.875 259.171875 543.730469 257.964844 C 544.792969 257.476562 545.902344 257.136719 547.054688 256.945312 C 548.210938 256.757812 549.371094 256.726562 550.535156 256.851562 C 551.699219 256.976562 552.824219 257.253906 553.914062 257.683594 C 555.003906 258.113281 556.015625 258.679688 556.949219 259.382812 C 558.722656 260.554688 560.398438 261.855469 561.976562 263.28125 C 565.414062 266.636719 568.75 270.097656 572.023438 273.601562 C 573.652344 275.566406 574.902344 277.75 575.777344 280.144531 C 578.113281 285.984375 579.851562 291.996094 580.992188 298.179688 C 582.847656 307.332031 584.140625 316.585938 585.285156 325.863281 C 586.433594 335.140625 587.371094 344.230469 588.664062 353.402344 C 589.601562 360.511719 590.75 367.582031 591.773438 374.6875 C 592.039062 376.488281 592.214844 378.292969 592.292969 380.109375 C 592.347656 380.34375 592.375 380.582031 592.375 380.824219 C 592.378906 381.066406 592.355469 381.304688 592.308594 381.539062 C 592.261719 381.777344 592.191406 382.003906 592.09375 382.226562 C 592 382.449219 591.882812 382.65625 591.742188 382.855469 C 591.601562 383.050781 591.445312 383.230469 591.265625 383.394531 C 591.089844 383.554688 590.894531 383.699219 590.6875 383.824219 C 590.480469 383.945312 590.261719 384.046875 590.035156 384.121094 C 589.804688 384.199219 589.570312 384.25 589.332031 384.277344 C 585.996094 385.300781 582.640625 386.238281 579.238281 387.011719 C 573.191406 388.386719 567.105469 389.59375 561.015625 390.886719 C 560.71875 390.933594 560.445312 391.042969 560.203125 391.222656 C 561.847656 391.347656 563.496094 391.410156 565.144531 391.597656 C 566.503906 391.738281 567.84375 391.972656 569.167969 392.304688 C 570.609375 392.605469 571.910156 393.207031 573.074219 394.105469 C 574.238281 395.007812 575.144531 396.117188 575.800781 397.433594 C 577.058594 399.910156 578.144531 402.460938 579.050781 405.085938 C 582.054688 413.882812 584.371094 422.886719 586.578125 431.914062 C 586.808594 433.003906 586.960938 434.101562 587.039062 435.210938 C 587.039062 435.730469 587.039062 436.335938 586.390625 436.417969 C 585.886719 436.445312 585.449219 436.285156 585.078125 435.9375 C 584.546875 435.292969 584.089844 434.597656 583.703125 433.855469 C 581.976562 430.246094 580.589844 426.515625 579.53125 422.660156 C 578.09375 418.03125 576.78125 413.359375 575.238281 408.753906 C 574.359375 406.335938 573.351562 403.972656 572.210938 401.664062 C 571.558594 400.328125 570.664062 399.179688 569.53125 398.21875 C 568.394531 397.257812 567.113281 396.566406 565.6875 396.140625 C 562.980469 395.238281 560.199219 394.773438 557.34375 394.746094 C 552.558594 394.632812 547.859375 395.222656 543.25 396.515625 C 542.425781 396.75 541.617188 397.035156 540.832031 397.371094 C 540.414062 397.527344 540.015625 397.722656 539.632812 397.949219 C 539.25 398.175781 538.890625 398.433594 538.550781 398.722656 C 538.214844 399.011719 537.90625 399.332031 537.621094 399.675781 C 537.339844 400.019531 537.089844 400.382812 536.871094 400.773438 C 536.652344 401.160156 536.46875 401.5625 536.320312 401.980469 C 536.175781 402.402344 536.0625 402.832031 535.992188 403.269531 C 535.917969 403.707031 535.882812 404.152344 535.886719 404.59375 C 535.890625 405.039062 535.933594 405.480469 536.015625 405.917969 C 536.296875 408.230469 536.8125 410.488281 537.558594 412.695312 C 538.726562 416.257812 540.164062 419.699219 541.414062 423.117188 C 542.375 425.890625 543.25 428.683594 544.125 431.457031 C 544.285156 431.996094 544.363281 432.542969 544.355469 433.105469 C 544.355469 434.292969 543.5625 434.730469 542.519531 434.125 C 541.957031 433.785156 541.449219 433.375 540.996094 432.894531 C 538.484375 430.402344 536.558594 427.519531 535.222656 424.242188 C 532.933594 418.605469 531.3125 412.78125 530.363281 406.773438 C 529.820312 403.6875 529.363281 400.519531 528.820312 397.496094 C 528.648438 396.269531 528.175781 395.171875 527.402344 394.203125 C 527.222656 393.949219 526.992188 393.769531 526.703125 393.660156 C 526.414062 393.550781 526.117188 393.527344 525.816406 393.597656 C 524.074219 393.839844 522.539062 394.53125 521.210938 395.683594 C 520.082031 396.625 519.066406 397.671875 518.164062 398.832031 C 516.449219 401.085938 514.871094 403.433594 513.429688 405.878906 C 510.886719 410.296875 508.574219 414.839844 506.132812 419.386719 C 507.378906 420.828125 508.15625 422.488281 508.46875 424.367188 C 509.464844 427.703125 509.800781 431.101562 509.46875 434.5625 C 509.4375 434.964844 509.375 435.359375 509.28125 435.75 C 509.09375 436.335938 508.949219 436.980469 508.15625 436.980469 C 507.363281 436.980469 507.195312 436.480469 507.007812 435.9375 C 506.765625 435.253906 506.554688 434.558594 506.382812 433.855469 C 506.070312 432.6875 505.800781 431.5 505.425781 430.351562 C 504.570312 427.808594 503.945312 427.558594 501.546875 428.832031 C 499.835938 429.707031 498.167969 430.664062 496.519531 431.625 C 490.585938 434.980469 484.234375 437.066406 477.460938 437.878906 C 470.992188 438.742188 464.492188 439.101562 457.964844 438.960938 C 445.984375 438.773438 434.339844 436.691406 423.039062 432.707031 C 421.664062 432.207031 420.328125 431.617188 419.035156 430.9375 C 417.890625 430.382812 416.824219 429.707031 415.835938 428.914062 C 414.84375 428.121094 413.957031 427.226562 413.167969 426.234375 C 412.378906 425.238281 411.710938 424.167969 411.160156 423.023438 C 410.613281 421.878906 410.199219 420.6875 409.921875 419.449219 C 409.789062 418.777344 409.550781 418.144531 409.214844 417.550781 C 409.214844 419.636719 409.046875 421.824219 408.921875 423.953125 C 408.734375 427.246094 408.546875 430.519531 408.316406 433.792969 C 408.269531 434.449219 408.136719 435.089844 407.921875 435.710938 C 407.738281 436.0625 407.453125 436.277344 407.066406 436.355469 C 406.855469 436.355469 406.441406 435.980469 406.378906 435.710938 C 406.160156 434.769531 406.03125 433.816406 405.980469 432.855469 C 405.621094 425.191406 405.871094 417.546875 406.730469 409.921875 C 407.628906 401.9375 408.585938 393.972656 409.441406 385.96875 C 409.882812 382.695312 409.882812 379.421875 409.441406 376.148438 C 409.117188 373.878906 408.183594 371.890625 406.648438 370.1875 C 402.3125 365.53125 397.917969 360.921875 393.46875 356.363281 C 392.582031 355.507812 391.582031 354.8125 390.46875 354.28125 C 390.207031 354.113281 389.921875 354.003906 389.617188 353.945312 C 389.308594 353.890625 389.003906 353.894531 388.699219 353.960938 C 388.398438 354.023438 388.117188 354.144531 387.859375 354.320312 C 387.601562 354.492188 387.386719 354.710938 387.214844 354.96875 C 386.425781 355.902344 385.828125 356.941406 385.421875 358.09375 C 384.515625 361.039062 383.785156 364.027344 383.230469 367.058594 C 381.542969 377.066406 379.875 387.09375 378.476562 397.140625 C 377.558594 403.792969 377.101562 410.503906 376.390625 417.199219 C 375.851562 423.140625 375.414062 429.082031 374.890625 435.023438 C 374.851562 435.679688 374.726562 436.316406 374.515625 436.941406 C 374.351562 437.300781 374.089844 437.558594 373.722656 437.710938 C 373.203125 437.878906 372.828125 437.480469 372.722656 437.003906 C 372.351562 435.628906 372.066406 434.242188 371.867188 432.832031 C 371.273438 426.070312 371.273438 419.308594 371.867188 412.546875 C 372.5625 403.464844 373.839844 394.46875 375.703125 385.550781 C 375.703125 385.257812 375.703125 384.945312 375.828125 384.65625 C 375.953125 384.363281 375.828125 384.507812 375.640625 384.238281 C 374.484375 388.027344 372.710938 391.5 370.324219 394.660156 C 366.421875 400.941406 363.015625 407.480469 360.105469 414.277344 C 357.230469 420.65625 354.457031 427.121094 351.597656 433.542969 C 350.910156 435.105469 350.117188 436.648438 349.304688 438.148438 C 348.960938 438.773438 348.523438 439.320312 347.992188 439.796875 C 347.585938 440.105469 347.132812 440.203125 346.636719 440.089844 C 346.28125 439.921875 346.03125 439.335938 345.886719 438.898438 C 345.800781 438.492188 345.835938 438.097656 345.988281 437.710938 C 346.511719 435.972656 347.132812 434.269531 347.847656 432.605469 C 349.304688 429.433594 351.078125 426.347656 352.476562 423.222656 C 355.3125 416.757812 357.917969 410.171875 360.816406 403.6875 C 362.296875 400.269531 363.964844 396.914062 365.714844 393.617188 C 366.910156 391.238281 368.53125 389.195312 370.574219 387.488281 C 370.574219 387.363281 370.574219 387.238281 370.449219 387.175781 C 369.636719 386.339844 368.933594 385.414062 368.34375 384.40625 C 367.757812 383.398438 367.296875 382.332031 366.96875 381.210938 C 366.640625 380.09375 366.453125 378.949219 366.402344 377.78125 C 366.351562 376.613281 366.441406 375.457031 366.675781 374.3125 C 367.457031 369.664062 368.664062 365.125 370.304688 360.699219 C 371.847656 356.050781 373.515625 351.445312 375.140625 346.816406 L 375.539062 345.691406 C 375.976562 344.378906 375.933594 344.417969 374.871094 343.605469 C 373.507812 342.566406 372.207031 341.457031 370.972656 340.269531 C 369.332031 338.652344 368.324219 336.707031 367.945312 334.433594 C 367.6875 332.613281 367.785156 330.8125 368.238281 329.035156 C 369.007812 326.035156 370.113281 323.164062 371.554688 320.421875 C 375.046875 313.511719 379 306.875 383.417969 300.515625 C 387.445312 294.511719 391.511719 288.527344 395.472656 282.480469 C 397.558594 279.355469 399.351562 276.082031 401.226562 272.847656 C 401.714844 271.96875 402.117188 271.050781 402.4375 270.097656 C 402.605469 269.660156 402.605469 269.222656 402.4375 268.785156 C 401.863281 269.164062 401.328125 269.585938 400.832031 270.054688 C 399.742188 271.246094 398.730469 272.503906 397.808594 273.828125 C 395.035156 278.226562 392.550781 282.398438 389.988281 286.421875 C 388.777344 288.402344 387.570312 290.402344 386.234375 292.28125 C 385.371094 293.460938 384.398438 294.546875 383.316406 295.53125 C 382.53125 296.269531 381.628906 296.820312 380.613281 297.183594 C 379.597656 297.546875 378.550781 297.691406 377.476562 297.617188 L 374.453125 297.449219 C 373.878906 297.351562 373.308594 297.359375 372.738281 297.472656 C 372.164062 297.589844 371.632812 297.800781 371.144531 298.113281 C 370.652344 298.425781 370.234375 298.816406 369.886719 299.285156 C 369.539062 299.75 369.289062 300.265625 369.136719 300.828125 C 368.324219 303.292969 367.898438 305.820312 367.863281 308.414062 C 367.335938 320.316406 366.03125 332.128906 363.945312 343.855469 C 363.089844 348.316406 362.128906 352.777344 361.441406 357.261719 C 361.007812 360.367188 360.726562 363.488281 360.609375 366.621094 C 360.335938 371.355469 360.335938 376.128906 359.941406 380.859375 C 359.097656 392.789062 357.09375 404.519531 353.933594 416.050781 C 352.449219 421.773438 349.765625 426.867188 345.886719 431.332031 C 344.203125 433.242188 342.289062 434.890625 340.152344 436.273438 L 339.589844 436.710938 C 339.589844 436.835938 339.734375 436.960938 339.796875 436.980469 C 342.550781 437.566406 343.238281 438.378906 343.613281 441.589844 Z M 373.703125 190.148438 C 373.703125 189.542969 373.933594 188.960938 374.035156 188.375 C 374.496094 186.304688 374.582031 184.222656 374.285156 182.121094 C 373.554688 178.933594 372.722656 175.742188 371.785156 172.613281 C 370.65625 168.777344 369.238281 165.046875 368.15625 161.210938 C 367.699219 159.449219 367.074219 157.75 366.289062 156.109375 C 365.5 154.46875 364.566406 152.917969 363.476562 151.460938 C 362.390625 150 361.175781 148.65625 359.828125 147.433594 C 358.484375 146.207031 357.035156 145.125 355.476562 144.179688 C 351 141.46875 346.242188 139.390625 341.207031 137.949219 C 336.175781 136.507812 331.042969 135.746094 325.804688 135.671875 C 320.203125 135.484375 314.644531 135.871094 309.125 136.839844 C 303.695312 137.703125 298.539062 139.390625 293.652344 141.90625 C 291.996094 142.730469 290.4375 143.707031 288.976562 144.832031 C 287.511719 145.960938 286.171875 147.222656 284.957031 148.613281 C 283.742188 150.003906 282.671875 151.5 281.75 153.101562 C 280.824219 154.703125 280.066406 156.375 279.472656 158.125 C 277.234375 164.515625 275.335938 171.007812 273.78125 177.597656 C 272.726562 181.898438 272.726562 186.199219 273.78125 190.503906 C 274.425781 193.085938 275.09375 195.691406 275.59375 198.320312 C 276.128906 201.871094 276.375 205.445312 276.324219 209.035156 C 276.273438 211.226562 276.558594 213.375 277.179688 215.476562 C 277.320312 215.984375 277.546875 216.449219 277.851562 216.878906 C 278.15625 217.304688 278.523438 217.671875 278.957031 217.972656 C 279.386719 218.269531 279.855469 218.488281 280.363281 218.628906 C 280.871094 218.765625 281.386719 218.8125 281.914062 218.769531 C 283.808594 218.683594 285.605469 218.226562 287.3125 217.394531 C 289.710938 216.332031 292.046875 215.121094 294.445312 214.058594 C 296.410156 213.128906 298.433594 212.34375 300.511719 211.703125 C 301.089844 211.515625 301.683594 211.375 302.285156 211.277344 C 302.886719 211.183594 303.492188 211.136719 304.101562 211.132812 C 304.710938 211.132812 305.316406 211.179688 305.917969 211.273438 C 306.519531 211.367188 307.109375 211.507812 307.691406 211.691406 C 308.269531 211.878906 308.832031 212.109375 309.375 212.382812 C 309.921875 212.65625 310.441406 212.96875 310.9375 213.324219 C 311.429688 213.679688 311.894531 214.070312 312.328125 214.496094 C 312.761719 214.925781 313.160156 215.382812 313.523438 215.875 C 315.015625 217.792969 316.226562 219.878906 317.152344 222.128906 C 317.984375 224.023438 318.695312 225.984375 319.675781 227.796875 C 320.746094 229.667969 321.941406 231.453125 323.261719 233.15625 C 324.140625 234.316406 325.25 235.171875 326.597656 235.71875 C 328.390625 236.449219 329.203125 236.09375 329.558594 234.21875 C 329.804688 232.882812 329.941406 231.535156 329.976562 230.175781 C 330.246094 224.878906 330.394531 219.5625 330.726562 214.269531 C 330.984375 210.9375 331.511719 207.652344 332.3125 204.40625 C 332.476562 203.496094 332.773438 202.628906 333.207031 201.808594 C 333.636719 200.988281 334.183594 200.253906 334.847656 199.605469 C 335.507812 198.953125 336.25 198.421875 337.078125 198 C 337.90625 197.582031 338.777344 197.300781 339.691406 197.152344 C 344.058594 196.101562 348.246094 194.566406 352.257812 192.550781 C 356.269531 190.53125 359.996094 188.085938 363.441406 185.207031 C 365.257812 183.726562 367.03125 182.226562 368.84375 180.789062 C 369.484375 180.246094 370.179688 179.789062 370.929688 179.410156 C 371.042969 179.328125 371.167969 179.257812 371.300781 179.207031 C 371.433594 179.15625 371.570312 179.121094 371.710938 179.105469 C 371.855469 179.085938 371.996094 179.089844 372.136719 179.109375 C 372.277344 179.128906 372.414062 179.164062 372.546875 179.21875 C 372.675781 179.273438 372.800781 179.34375 372.914062 179.429688 C 373.027344 179.515625 373.128906 179.613281 373.21875 179.726562 C 373.304688 179.835938 373.378906 179.957031 373.4375 180.089844 C 373.492188 180.21875 373.535156 180.355469 373.554688 180.496094 C 373.785156 181.222656 373.910156 181.964844 373.933594 182.726562 C 373.785156 185.207031 373.765625 187.667969 373.765625 190.148438 Z M 484.71875 209.429688 C 485.074219 208.640625 485.90625 208.492188 486.804688 208.617188 C 487.605469 208.710938 488.382812 208.898438 489.140625 209.179688 C 490.847656 209.910156 492.558594 210.683594 494.207031 211.558594 C 498.90625 214.046875 503.582031 216.546875 508.238281 219.0625 C 514.328125 222.527344 520.714844 225.308594 527.402344 227.402344 C 530.980469 228.621094 534.65625 229.175781 538.433594 229.070312 C 539.558594 229.042969 540.644531 228.824219 541.695312 228.414062 C 542.746094 228.007812 543.695312 227.433594 544.542969 226.691406 C 544.960938 226.269531 545.425781 225.902344 545.941406 225.597656 C 546.453125 225.292969 546.996094 225.058594 547.570312 224.890625 C 548.140625 224.726562 548.726562 224.632812 549.324219 224.617188 C 549.917969 224.601562 550.507812 224.660156 551.089844 224.796875 C 551.527344 224.796875 551.988281 224.921875 552.425781 225.027344 C 553.4375 225.285156 554.464844 225.398438 555.511719 225.367188 C 556.554688 225.335938 557.578125 225.164062 558.574219 224.851562 C 559.570312 224.535156 560.503906 224.089844 561.375 223.515625 C 562.25 222.9375 563.023438 222.253906 563.707031 221.460938 C 564.757812 220.363281 565.714844 219.1875 566.582031 217.9375 C 568.929688 214.488281 570.71875 210.773438 571.941406 206.785156 C 572.410156 205.390625 572.71875 203.960938 572.867188 202.5 C 573.011719 201.035156 572.996094 199.574219 572.816406 198.113281 C 572.636719 196.65625 572.296875 195.234375 571.796875 193.851562 C 571.296875 192.46875 570.648438 191.15625 569.855469 189.917969 C 567.367188 185.964844 564.171875 182.707031 560.265625 180.140625 C 554.140625 175.988281 547.488281 173.019531 540.308594 171.238281 C 535.308594 169.78125 530.207031 168.929688 525.003906 168.691406 C 519.800781 168.449219 514.644531 168.828125 509.53125 169.820312 C 506.726562 170.351562 504.003906 171.167969 501.371094 172.265625 C 498.734375 173.359375 496.238281 174.714844 493.882812 176.332031 C 491.527344 177.945312 489.363281 179.785156 487.390625 181.851562 C 485.417969 183.914062 483.679688 186.160156 482.175781 188.585938 C 481.777344 189.230469 481.339844 189.855469 480.945312 190.503906 C 479.949219 192.125 478.558594 193.265625 476.773438 193.921875 C 476.253906 194.113281 475.746094 194.335938 475.25 194.589844 C 474.792969 194.707031 474.394531 194.929688 474.054688 195.261719 C 473.71875 195.59375 473.484375 195.988281 473.359375 196.441406 C 473.230469 196.898438 473.226562 197.355469 473.347656 197.8125 C 473.464844 198.273438 473.691406 198.671875 474.019531 199.007812 C 474.746094 200.164062 475.609375 201.207031 476.605469 202.136719 C 478.335938 203.738281 480.257812 205.199219 482.027344 206.761719 C 482.945312 207.535156 483.820312 208.492188 484.71875 209.429688 Z M 542.726562 432.875 L 543.144531 432.625 C 542.519531 430.539062 541.976562 428.578125 541.269531 426.597656 C 539.953125 422.972656 538.515625 419.429688 537.097656 415.820312 C 535.769531 412.570312 534.914062 409.199219 534.535156 405.710938 C 534.402344 404.75 534.425781 403.792969 534.605469 402.839844 C 534.785156 401.886719 535.109375 400.984375 535.582031 400.136719 C 536.054688 399.289062 536.648438 398.539062 537.363281 397.882812 C 538.078125 397.226562 538.882812 396.703125 539.765625 396.308594 C 540.632812 395.886719 541.53125 395.546875 542.457031 395.285156 C 547.757812 393.792969 553.160156 393.203125 558.660156 393.515625 C 561.460938 393.636719 564.171875 394.199219 566.792969 395.203125 C 568.09375 395.671875 569.265625 396.359375 570.304688 397.269531 C 571.34375 398.179688 572.183594 399.25 572.816406 400.476562 C 574.027344 402.753906 575.070312 405.101562 575.945312 407.523438 C 577.695312 412.695312 579.21875 417.949219 580.824219 423.140625 C 581.835938 426.695312 583.164062 430.125 584.808594 433.4375 C 584.984375 433.746094 585.183594 434.039062 585.414062 434.3125 C 585.472656 433.605469 585.410156 432.914062 585.222656 432.226562 C 583.140625 424.429688 581.054688 416.613281 578.800781 408.859375 C 577.78125 405.578125 576.570312 402.367188 575.175781 399.226562 C 574.839844 398.398438 574.402344 397.632812 573.859375 396.925781 C 573.316406 396.21875 572.6875 395.597656 571.976562 395.0625 C 571.261719 394.527344 570.492188 394.101562 569.660156 393.777344 C 568.828125 393.453125 567.96875 393.246094 567.082031 393.160156 C 563.625 392.621094 560.152344 392.449219 556.65625 392.640625 C 554.195312 392.765625 551.714844 392.972656 549.253906 393.054688 C 542.769531 393.222656 536.304688 393.328125 529.839844 393.472656 L 528.296875 393.472656 C 529.347656 395.066406 529.964844 396.808594 530.15625 398.707031 C 530.59375 401.3125 530.96875 403.898438 531.40625 406.503906 C 532.320312 412.222656 533.828125 417.78125 535.929688 423.179688 C 537.1875 426.425781 539.023438 429.304688 541.433594 431.8125 C 541.894531 432.226562 542.332031 432.5 542.726562 432.9375 Z M 217.144531 437.855469 L 217.4375 437.855469 C 217.5625 437.609375 217.667969 437.351562 217.75 437.085938 C 218.335938 435 218.855469 433.082031 219.503906 431.125 C 219.894531 429.8125 220.421875 428.5625 221.085938 427.371094 C 221.328125 426.933594 221.632812 426.546875 222 426.210938 C 222.367188 425.875 222.777344 425.601562 223.234375 425.398438 C 223.6875 425.191406 224.164062 425.066406 224.660156 425.015625 C 225.15625 424.960938 225.644531 424.992188 226.132812 425.097656 C 227.238281 425.269531 228.308594 425.570312 229.34375 425.996094 C 231.429688 426.808594 233.304688 427.746094 235.308594 428.578125 C 247.195312 433.808594 259.605469 437.070312 272.527344 438.359375 C 279.832031 439.109375 287.152344 439.316406 294.484375 438.984375 L 301.867188 438.484375 C 301.617188 438.285156 301.332031 438.179688 301.011719 438.167969 L 291.628906 437.710938 C 283.582031 437.292969 275.613281 436.441406 267.648438 435.273438 C 257.261719 433.773438 247.140625 431.214844 237.289062 427.601562 C 233.34375 426.261719 229.617188 424.46875 226.113281 422.222656 C 224.484375 421.171875 223.070312 419.882812 221.871094 418.363281 C 220.671875 416.84375 219.75 415.167969 219.105469 413.339844 C 218.972656 413.019531 218.820312 412.707031 218.648438 412.402344 C 218.125 421.136719 217.625 429.496094 217.144531 437.855469 Z M 446.058594 314.855469 L 445.601562 314.710938 C 445.183594 315.710938 444.765625 316.796875 444.371094 317.734375 C 439.992188 329.097656 435.527344 340.417969 430.398438 351.464844 C 428.460938 355.632812 426.332031 359.804688 424.144531 363.972656 C 423.011719 365.957031 421.664062 367.777344 420.097656 369.4375 C 419.933594 369.660156 419.75 369.863281 419.546875 370.046875 C 419.339844 370.230469 419.117188 370.390625 418.878906 370.527344 C 418.640625 370.664062 418.390625 370.777344 418.128906 370.859375 C 417.867188 370.945312 417.597656 371 417.324219 371.03125 C 417.050781 371.058594 416.773438 371.058594 416.5 371.03125 C 416.226562 371 415.960938 370.941406 415.695312 370.859375 C 415.433594 370.773438 415.183594 370.660156 414.945312 370.523438 C 414.707031 370.386719 414.484375 370.226562 414.28125 370.039062 C 412.800781 369.058594 411.464844 367.957031 410.109375 366.789062 C 409.378906 366.203125 408.714844 365.578125 408.023438 364.972656 C 408.199219 365.566406 408.484375 366.101562 408.878906 366.578125 C 410.898438 369.09375 412.109375 371.949219 412.507812 375.148438 C 412.714844 377.234375 412.507812 379.566406 412.652344 381.796875 L 412.652344 383.464844 C 414.660156 378.542969 417.363281 374.042969 420.765625 369.957031 C 424.527344 365.046875 428.003906 359.9375 431.191406 354.632812 C 437.03125 344.871094 441.371094 334.484375 444.203125 323.46875 C 444.953125 320.589844 445.453125 317.671875 446.058594 314.753906 Z M 528.464844 366.496094 C 528.464844 366.953125 528.214844 367.414062 528.152344 367.871094 C 527.234375 373.398438 526.359375 378.921875 525.421875 384.550781 C 525.148438 386.175781 524.753906 387.800781 524.441406 389.429688 C 524.320312 389.75 524.300781 390.074219 524.382812 390.40625 C 524.46875 390.742188 524.640625 391.019531 524.898438 391.242188 C 525.710938 391.976562 526.664062 392.378906 527.757812 392.453125 C 530.21875 392.453125 532.699219 392.453125 535.179688 392.453125 L 536.617188 392.453125 C 536.617188 392.304688 536.617188 392.222656 536.617188 392.203125 L 535.953125 391.824219 C 534.570312 391.101562 533.382812 390.140625 532.382812 388.945312 C 531.378906 387.75 530.644531 386.410156 530.175781 384.925781 C 529.6875 383.382812 529.320312 381.8125 529.070312 380.214844 C 528.433594 375.625 528.234375 371.019531 528.464844 366.390625 Z M 396.242188 357.15625 L 396.054688 357.40625 C 398.828125 360.347656 401.625 363.265625 404.398438 366.203125 C 405.585938 367.457031 406.773438 368.683594 407.878906 370 C 409.351562 371.691406 410.234375 373.652344 410.527344 375.878906 C 410.757812 377.960938 410.820312 380.046875 410.902344 382.132812 C 410.902344 383.339844 410.902344 384.550781 410.902344 385.945312 C 411.046875 385.167969 411.152344 384.382812 411.214844 383.589844 C 411.371094 380.769531 411.371094 377.949219 411.214844 375.128906 C 410.878906 372.871094 410.136719 370.753906 408.992188 368.78125 C 407.84375 366.808594 406.375 365.117188 404.585938 363.703125 C 402.1875 361.617188 399.515625 359.699219 396.953125 357.71875 C 396.730469 357.511719 396.496094 357.324219 396.242188 357.15625 Z M 501.421875 427.328125 L 501.546875 427.558594 L 502.085938 427.390625 C 504.171875 426.703125 505.277344 427.101562 506.257812 429.226562 C 506.71875 430.332031 507.007812 431.519531 507.363281 432.667969 L 507.988281 434.9375 C 508.324219 432.578125 508.316406 430.222656 507.960938 427.863281 C 507.605469 425.507812 506.921875 423.25 505.902344 421.097656 Z M 376.453125 381.007812 L 376.601562 381.007812 C 376.996094 379.296875 377.414062 377.585938 377.789062 375.855469 C 378.914062 370.4375 380.042969 364.996094 381.105469 359.554688 C 381.460938 358.175781 381.523438 356.789062 381.292969 355.382812 C 380.992188 355.664062 380.777344 355.996094 380.644531 356.386719 C 380.148438 357.703125 379.753906 359.050781 379.457031 360.429688 C 378.6875 364.953125 377.996094 369.5 377.371094 374.042969 C 376.996094 376.398438 376.746094 378.710938 376.453125 381.007812 Z M 408.296875 408.398438 C 407.148438 415.847656 406.816406 423.332031 407.296875 430.851562 C 407.628906 423.203125 407.960938 415.820312 408.296875 408.398438 Z M 385.816406 350.027344 C 384.609375 349.441406 383.585938 348.859375 382.480469 348.402344 C 381.375 347.941406 380.542969 347.066406 379.164062 347.128906 C 379.414062 348.128906 380.125 348.359375 380.769531 348.589844 L 385.335938 350.152344 C 385.335938 350.152344 385.527344 350.007812 385.816406 349.921875 Z M 408.421875 406.105469 L 408.421875 406.941406 Z M 410.507812 388.050781 L 410.507812 387.511719 Z M 410.507812 388.050781 " fill-opacity="1" fill-rule="nonzero"/></g></svg>