<svg xmlns="http://www.w3.org/2000/svg" xmlns:xlink="http://www.w3.org/1999/xlink" width="1024" zoomAndPan="magnify" viewBox="0 0 768 576" height="768" preserveAspectRatio="xMidYMid meet" version="1.0"><path fill="#000000" d="M 433.28125 117.816406 C 431.890625 118.953125 430.367188 119.871094 428.710938 120.570312 C 432.484375 120.324219 435.558594 117.367188 437.261719 114.179688 C 435.914062 115.394531 434.683594 116.695312 433.28125 117.816406 Z M 433.28125 117.816406 " fill-opacity="1" fill-rule="nonzero"/><path fill="#000000" d="M 442.628906 108.394531 C 443.632812 107.792969 444.703125 107.355469 445.839844 107.074219 C 440.773438 106.289062 436.742188 110.949219 434.28125 114.8125 C 437.230469 112.839844 439.605469 110.199219 442.628906 108.394531 Z M 442.628906 108.394531 " fill-opacity="1" fill-rule="nonzero"/><path fill="#000000" d="M 444.324219 106.382812 C 443.128906 106.367188 441.980469 106.585938 440.875 107.035156 C 439.769531 107.484375 438.796875 108.128906 437.949219 108.96875 C 440.503906 107.566406 443.613281 106.199219 446.546875 107.074219 C 445.878906 106.613281 445.136719 106.378906 444.324219 106.382812 Z M 444.324219 106.382812 " fill-opacity="1" fill-rule="nonzero"/><path fill="#000000" d="M 501.78125 316.421875 C 496.3125 293.9375 453.960938 282.890625 433.738281 279.066406 C 433.925781 272.542969 435.765625 266.242188 436.820312 259.910156 C 435.542969 257.667969 436.972656 255.375 437.335938 252.945312 C 439.023438 242.84375 443.054688 233.433594 444.300781 223.269531 C 445.316406 228.53125 446.082031 233.886719 447.566406 239.042969 C 449.183594 245.753906 458.183594 251.449219 463.183594 244.5625 C 470.789062 231.945312 472.957031 217.191406 475.140625 202.90625 C 475.140625 198.59375 477.445312 195.8125 480.074219 192.695312 C 482.042969 190.039062 487.960938 190.273438 487.3125 185.890625 C 487.058594 184.382812 486.464844 183.023438 485.53125 181.8125 C 485.777344 180.726562 485.832031 179.628906 485.695312 178.523438 C 485.558594 177.417969 485.242188 176.367188 484.742188 175.371094 C 485.785156 174.011719 486.832031 171.988281 485.648438 170.371094 C 485.316406 169.855469 484.878906 169.457031 484.339844 169.164062 C 483.800781 168.875 483.226562 168.734375 482.613281 168.738281 C 482.546875 168.484375 482.453125 168.242188 482.328125 168.007812 C 482.203125 167.777344 482.050781 167.5625 481.875 167.371094 C 481.699219 167.175781 481.503906 167.003906 481.285156 166.855469 C 481.070312 166.707031 480.835938 166.585938 480.589844 166.496094 C 480.34375 166.40625 480.089844 166.34375 479.832031 166.3125 C 479.570312 166.28125 479.308594 166.28125 479.046875 166.316406 C 478.785156 166.347656 478.535156 166.410156 478.289062 166.503906 C 478.042969 166.597656 477.8125 166.71875 477.59375 166.867188 C 476.664062 161.347656 472.863281 167.808594 471.199219 169.375 C 469.832031 171.144531 467.75 172.285156 466.464844 174.171875 C 464.628906 179.042969 463.253906 185.007812 465.140625 190.046875 C 464.351562 197.933594 462.773438 205.761719 459.53125 213.003906 C 458.820312 206.527344 457.316406 200.210938 456.09375 193.816406 C 456.621094 186.457031 457.402344 177.902344 452.730469 171.585938 C 449.03125 164.792969 434.914062 167.367188 436.339844 158.453125 C 436.425781 156.089844 436.859375 153.003906 439.613281 152.625 C 441.308594 152.359375 443.234375 153.273438 444.914062 153.714844 C 448.859375 154.675781 451.453125 151.246094 450.507812 147.59375 C 450.191406 145.480469 453.417969 144.441406 451.792969 142.414062 C 452.746094 144.21875 450.554688 144.644531 449.949219 145.945312 C 448.742188 147.855469 450.300781 150.875 447.667969 151.796875 C 447.066406 151.976562 446.457031 152.027344 445.832031 151.957031 C 445.210938 151.890625 444.625 151.703125 444.078125 151.394531 C 435.464844 147.617188 433.320312 155.71875 434.519531 162.609375 C 434.445312 162.546875 434.378906 162.484375 434.3125 162.414062 C 435.101562 164.890625 435.101562 167.726562 436.292969 170.195312 C 436.957031 171.09375 436.59375 171.882812 435.457031 172.066406 C 428.5625 172.46875 426.71875 164.722656 424.839844 159.582031 C 425.257812 161.828125 425.738281 164.039062 426.148438 166.269531 C 421.898438 162.136719 420.203125 155.488281 414.484375 152.863281 C 415.941406 150.230469 415.640625 147.183594 415.46875 144.363281 C 417.992188 141.742188 418.417969 137.792969 418.339844 134.332031 C 419.917969 135.828125 424.042969 139.0625 425.511719 136.089844 C 421.691406 138.761719 417.179688 130.9375 416.582031 127.628906 C 415.167969 121.035156 423.300781 123.21875 424.328125 127.808594 C 424.328125 127.613281 424.273438 127.40625 424.230469 127.21875 C 429.359375 131.4375 432.121094 130.617188 431.742188 123.714844 C 433.691406 120.480469 438.511719 119.589844 438.375 115.183594 C 437.835938 116.261719 437.132812 117.222656 436.269531 118.066406 C 435.402344 118.90625 434.421875 119.582031 433.328125 120.089844 C 430.867188 121.367188 430.960938 124.605469 428.746094 126.066406 C 429.785156 125.886719 430.601562 125.359375 431.199219 124.488281 C 430.746094 126.191406 431.519531 129.378906 428.832031 129.023438 C 426.316406 128.234375 423.996094 126.703125 422.921875 124.292969 C 420.816406 120.941406 414.804688 121.515625 414.804688 125.835938 C 414.855469 128.304688 415.570312 130.554688 416.960938 132.59375 C 416.707031 136.355469 416.644531 140.371094 414.859375 143.753906 C 409.875 142.035156 406.515625 137.160156 405.933594 132.035156 C 405.363281 127.878906 406.027344 123.699219 405.996094 119.511719 C 408.140625 117.257812 407.761719 112.53125 404.511719 111.4375 C 405.390625 109.632812 406.433594 107.925781 407.640625 106.320312 C 408.84375 104.714844 410.1875 103.234375 411.675781 101.886719 C 413.160156 100.535156 414.761719 99.335938 416.472656 98.289062 C 418.1875 97.246094 419.984375 96.367188 421.867188 95.664062 C 430.753906 92.839844 445.183594 96.335938 448.046875 106.097656 C 446.761719 104.523438 445.367188 103.050781 443.867188 101.683594 C 458.609375 120.890625 444.65625 124.140625 454.972656 133.453125 C 456.84375 135.914062 451.917969 135.820312 451.558594 137.289062 C 452.023438 138.722656 453.75 139.921875 452.195312 141.324219 C 454.476562 140.71875 453.191406 138.21875 452.15625 137.050781 C 460.574219 135.867188 454.609375 131.847656 452.859375 127.585938 C 453.363281 119.140625 454.917969 115.082031 449.113281 107.484375 C 449.285156 94.386719 428.515625 89.046875 418.570312 94.386719 C 416.710938 95.28125 414.960938 96.34375 413.3125 97.582031 C 411.664062 98.816406 410.152344 100.199219 408.773438 101.730469 C 407.394531 103.261719 406.179688 104.910156 405.125 106.679688 C 404.066406 108.449219 403.195312 110.300781 402.5 112.242188 C 393.894531 114.210938 392.097656 124.195312 386.070312 129.117188 C 382.257812 130.988281 376.746094 128.171875 376.605469 123.761719 C 376.609375 123.613281 376.585938 123.472656 376.53125 123.332031 C 376.476562 123.195312 376.398438 123.074219 376.292969 122.96875 C 376.1875 122.863281 376.066406 122.785156 375.929688 122.730469 C 375.792969 122.675781 375.648438 122.648438 375.5 122.65625 C 375.351562 122.660156 375.210938 122.695312 375.078125 122.761719 C 374.945312 122.824219 374.828125 122.914062 374.730469 123.027344 C 374.636719 123.140625 374.566406 123.265625 374.519531 123.40625 C 374.476562 123.550781 374.464844 123.695312 374.480469 123.839844 C 374.285156 132.351562 379.214844 136.347656 387.355469 133.488281 C 384.847656 138.21875 377.433594 135.671875 373.363281 134.386719 C 370.089844 133.535156 369.417969 129.882812 367.683594 129.574219 C 365.726562 130.222656 367.460938 132.878906 367.917969 134.125 C 371.722656 141.402344 381.960938 142.167969 388.316406 138.003906 C 383 140.007812 376.359375 139.984375 371.917969 136.019531 C 378.757812 138.929688 387.574219 138.117188 393.304688 133.273438 C 391.296875 134.433594 389.152344 135.203125 386.867188 135.585938 C 390.808594 131.640625 390.921875 125.75 393.730469 121.207031 C 395.410156 117.40625 405.664062 107.894531 405.71875 116.695312 C 405.609375 115.746094 405.242188 114.90625 404.613281 114.179688 C 405.988281 120.070312 402.53125 126.222656 403.746094 132.320312 C 403.957031 134.113281 404.480469 135.808594 405.324219 137.40625 C 406.167969 139.003906 407.269531 140.398438 408.628906 141.585938 C 405.75 149 397.808594 153.949219 389.910156 153.644531 C 394.566406 152.277344 399.605469 149.699219 401.742188 145.117188 C 392.484375 155.109375 380.097656 154.785156 371.988281 143.660156 C 375.695312 145.589844 380.707031 146.027344 384.207031 143.445312 C 377.542969 144.652344 368.621094 143.445312 367.871094 135.308594 C 367.980469 137.199219 368.410156 139.011719 369.164062 140.75 C 368.730469 140.496094 368.296875 140.238281 367.871094 139.960938 C 371.445312 144.691406 374.601562 150.085938 380.167969 152.894531 C 377.292969 152.613281 374.730469 151.5625 372.484375 149.738281 C 375.027344 153.21875 379.585938 154.574219 383.75 154.535156 C 393.625 158.476562 406.082031 152.957031 409.585938 142.878906 C 409.78125 147.476562 406.792969 152.808594 401.757812 152.855469 C 401.53125 152.839844 401.324219 152.902344 401.144531 153.042969 C 400.960938 153.183594 400.847656 153.363281 400.804688 153.589844 C 400.6875 155.230469 403.125 154.785156 404.15625 154.875 C 403.878906 155.039062 403.605469 155.222656 403.367188 155.402344 C 398.636719 159.875 397.421875 159.296875 391.25 159.816406 C 374.554688 166.324219 357.378906 172.167969 341.195312 180.324219 C 336.113281 182.402344 332.089844 186.550781 333.441406 192.386719 C 334.15625 202.09375 336.078125 211.558594 339.199219 220.777344 C 341.144531 228.230469 345.699219 239.042969 346.003906 246.667969 C 344.699219 247.757812 343.550781 248.996094 342.5625 250.382812 C 341.570312 251.765625 340.773438 253.253906 340.167969 254.84375 C 339.5625 256.433594 339.167969 258.074219 338.980469 259.765625 C 338.796875 261.460938 338.832031 263.148438 339.078125 264.832031 C 339.253906 266.886719 341.699219 267.195312 341.011719 269.417969 C 341.128906 270.878906 342.820312 271.273438 343.976562 271.1875 C 344.238281 273.503906 347.078125 273.664062 348.84375 273.292969 C 351.0625 273.246094 353.144531 276.390625 355.828125 273.773438 C 360.914062 271.089844 362.011719 264.617188 363.460938 259.5 C 364.480469 252.15625 360.308594 245.894531 359.132812 239.035156 C 355.746094 230.683594 354.847656 221.324219 354.21875 212.371094 C 354.597656 185.660156 348.308594 198.375 374.253906 190.835938 C 383.875 187.988281 387.054688 183.5625 387.773438 196.773438 C 388.261719 204.972656 390.613281 213.332031 391.402344 221.402344 C 391.71875 229.964844 396.132812 238.449219 395.714844 246.960938 C 395.457031 260.902344 382.21875 268.765625 376.957031 280.640625 C 369.1875 300.355469 382.109375 301.609375 373.707031 313.464844 C 368.921875 320.144531 362.515625 325.65625 358.484375 332.933594 C 346.25 363.574219 333.511719 357.382812 317.820312 379.464844 C 309.308594 392.183594 302.792969 407.347656 292.460938 418.351562 C 288.683594 416.261719 285.363281 421.03125 281.550781 420.429688 C 278.066406 419.453125 274.777344 416.929688 270.824219 417.820312 C 263.417969 420.328125 266.089844 430.730469 266.667969 436.660156 C 266.949219 439.5625 270.058594 441.394531 270.019531 444.246094 C 267.234375 454.910156 266.667969 466.488281 272.558594 476.429688 C 275.035156 482.023438 286.214844 487.28125 287.175781 478.007812 C 287.324219 470.351562 285.511719 465.304688 291.910156 459.414062 C 291.671875 462.757812 295.214844 464.839844 296.949219 461.296875 C 298.699219 458.023438 298.589844 453.933594 298.714844 450.335938 C 297.847656 448.183594 300.058594 447.835938 300.789062 445.976562 C 300.875 445.707031 300.9375 445.4375 300.96875 445.160156 C 301 444.882812 301.003906 444.605469 300.980469 444.324219 C 300.953125 444.046875 300.902344 443.773438 300.824219 443.507812 C 300.746094 443.238281 300.640625 442.980469 300.511719 442.734375 C 300.378906 442.488281 300.226562 442.253906 300.050781 442.039062 C 299.871094 441.824219 299.675781 441.625 299.457031 441.449219 C 299.242188 441.273438 299.011719 441.117188 298.761719 440.988281 C 298.515625 440.859375 298.257812 440.753906 297.992188 440.675781 C 313.378906 420.328125 332.289062 402.78125 350.910156 385.316406 C 356.140625 380.527344 364.148438 379.992188 368.722656 374.390625 C 372.019531 370.308594 373.667969 365.285156 377.605469 361.773438 C 387.953125 352.554688 398.902344 343.699219 407.335938 332.523438 C 415.421875 323.457031 410.539062 319.71875 424.359375 322.839844 C 440.199219 324.464844 455.910156 319.277344 471.632812 323.550781 C 461.226562 331.128906 456.542969 343.3125 453.996094 355.449219 C 451.542969 363.96875 448.542969 374.375 445.363281 382.59375 C 443.730469 387.199219 443.109375 392.355469 439.683594 396 C 434.480469 389.824219 432.972656 402.394531 428.507812 403.980469 C 424.707031 406.71875 418.914062 410.039062 421.898438 415.542969 C 424.335938 421.582031 429.1875 426.503906 435.703125 427.820312 C 436.820312 428.183594 437.746094 428.390625 438.234375 429.359375 C 442.136719 436.550781 449.378906 441.371094 456.808594 444.207031 C 462.679688 446.109375 469.132812 449.632812 475.394531 447.6875 C 481.011719 444.632812 478.550781 437.085938 473.582031 434.886719 C 469.351562 432.585938 466.605469 430.195312 466.15625 425.109375 C 465.367188 420.921875 462.949219 417.0625 462.640625 412.71875 C 464.066406 414.128906 464.546875 417.015625 466.8125 417.449219 C 469.019531 417.199219 469.503906 414.105469 468.925781 412.394531 C 467.957031 409.949219 465.242188 408.847656 462.8125 408.832031 C 462.882812 406.867188 462.144531 404.335938 459.800781 404.234375 C 463.144531 382.980469 478.9375 364.691406 489.820312 346.507812 C 495.265625 337.507812 504.808594 327.902344 501.78125 316.421875 Z M 389.28125 129.355469 C 388.945312 130.367188 388.53125 131.347656 388.042969 132.296875 C 384.445312 132.476562 379.539062 134.1875 377.683594 129.867188 C 381.351562 132.753906 387.378906 132.335938 389.707031 127.972656 C 389.585938 128.441406 389.445312 128.902344 389.28125 129.355469 Z M 484.222656 177.980469 C 484.484375 178.945312 484.644531 179.925781 484.703125 180.921875 C 483.691406 179.976562 482.1875 180.558594 481.160156 180.613281 C 478.691406 179.589844 477.144531 183.617188 474.683594 183.214844 C 471.292969 182.71875 483.273438 170.613281 484.222656 177.980469 Z M 480.910156 180.835938 L 479.535156 181.347656 C 479.882812 180.921875 480.328125 180.753906 480.871094 180.835938 Z M 482.953125 170.582031 C 485.050781 170.78125 484.957031 173.128906 484.0625 174.589844 C 480.300781 172.113281 476.246094 176.425781 473.984375 179.109375 C 474.109375 174.855469 479.210938 171.554688 482.914062 170.542969 Z M 479.347656 167.980469 C 480.222656 167.460938 481.019531 168.160156 481.585938 168.894531 C 478.472656 169.824219 476.136719 172.507812 473.984375 174.496094 C 468.304688 173.925781 477.785156 168.714844 479.308594 167.941406 Z M 473.863281 168.707031 C 474.410156 167.996094 475.480469 166.523438 476.050781 165.859375 C 478.179688 167.546875 474.15625 168.507812 473.082031 169.738281 C 473.304688 169.34375 473.574219 169.011719 473.824219 168.667969 Z M 441.214844 167.246094 C 456.25 170.84375 454.214844 186.171875 455.121094 198.320312 C 455.675781 203.367188 457.179688 210.550781 458.074219 215.597656 C 453.710938 220.179688 450.351562 226.355469 451.761719 232.84375 C 452.90625 214.863281 467.703125 221.339844 465.769531 185.621094 C 465.714844 185.929688 465.660156 186.222656 465.613281 186.527344 C 466.238281 181.710938 466.402344 175.488281 470.742188 172.445312 C 469.953125 174.34375 471.890625 175.929688 473.699219 175.433594 C 472.507812 177.011719 473.605469 178.917969 473.121094 180.273438 C 471.238281 182.59375 472.800781 185.597656 475.835938 184.46875 C 475.726562 187.5 479.203125 186.835938 481.050781 186.207031 C 481.273438 186.628906 481.59375 186.957031 482.007812 187.195312 C 482.421875 187.429688 482.867188 187.539062 483.347656 187.515625 C 482.625 187.214844 482.050781 186.742188 481.617188 186.09375 C 482.382812 185.96875 483.136719 186.007812 483.882812 186.214844 C 482.050781 185.0625 479.789062 186.09375 477.847656 185.765625 C 474.410156 184.242188 483.992188 180.472656 484.394531 183.445312 C 488.195312 188.753906 480.851562 188.390625 478.875 191.875 C 476.175781 195.90625 474.929688 197.828125 474.179688 202.726562 C 471.8125 213.695312 470.015625 224.910156 465.574219 235.265625 C 464.839844 236.90625 463.632812 239.152344 462.898438 240.785156 C 459.972656 248.949219 451.34375 245.25 449.570312 238.417969 C 447.683594 231.90625 446.625 225.164062 445.105469 218.5625 C 447.9375 214.089844 452.410156 210.351562 453.394531 204.824219 C 453.613281 202.945312 453.714844 201.0625 453.691406 199.171875 C 453.671875 197.28125 453.53125 195.402344 453.269531 193.527344 C 453.011719 191.65625 452.632812 189.808594 452.136719 187.984375 C 451.640625 186.160156 451.03125 184.375 450.304688 182.628906 C 449.582031 180.882812 448.75 179.1875 447.808594 177.546875 C 446.871094 175.90625 445.828125 174.332031 444.6875 172.824219 C 443.546875 171.320312 442.316406 169.890625 440.992188 168.539062 C 439.667969 167.1875 438.265625 165.925781 436.78125 164.753906 C 438.183594 165.683594 439.648438 166.503906 441.175781 167.207031 Z M 414.308594 144.148438 C 414.199219 146.773438 414.378906 149.835938 413.007812 152.097656 C 412.230469 151.761719 411.441406 151.730469 410.640625 152.003906 C 412.785156 149.90625 413.503906 146.75 413.226562 143.910156 C 413.582031 144.011719 413.945312 144.089844 414.308594 144.148438 Z M 410.363281 146.878906 C 410.597656 145.554688 410.660156 144.226562 410.554688 142.886719 C 413.503906 144.765625 410.414062 150.527344 407.761719 151.894531 C 409.140625 150.484375 410.019531 148.8125 410.394531 146.878906 Z M 387.90625 188.082031 L 387.472656 186.765625 C 391.636719 185.804688 396.457031 184.800781 400.300781 187.238281 C 390.429688 180.007812 377.558594 188.539062 367.066406 190.210938 C 363.574219 191.457031 352.867188 191.503906 352.59375 195.8125 C 352.695312 206.355469 350.769531 216.882812 353.648438 227.253906 C 356.875 241.148438 365.804688 253.796875 359.171875 268.332031 C 351.085938 281.839844 357.042969 262.527344 358.964844 258.5625 C 355.628906 262.394531 354.351562 267.984375 354.476562 272.753906 C 348.796875 273.992188 351.03125 266.722656 350.917969 263.394531 C 349.871094 266.117188 348.191406 269 349.113281 272.070312 C 343.09375 272.984375 346.628906 266.878906 345.863281 263.394531 C 345.128906 265.570312 344.152344 267.636719 343.96875 269.964844 C 343.542969 269.863281 342.753906 269.75 342.628906 269.347656 C 342.753906 266.539062 342.492188 263.765625 341.839844 261.027344 C 341.304688 262.855469 341.042969 264.722656 341.050781 266.628906 C 338.84375 260.359375 342.472656 252.582031 346.527344 247.519531 C 347.488281 243.230469 345.738281 238.371094 344.839844 234.113281 C 341.683594 218.734375 333.488281 201.71875 336.707031 186.101562 C 348.378906 177.78125 362.460938 172.609375 375.726562 167.175781 C 375.222656 167.539062 374.734375 167.902344 374.246094 168.273438 C 378.875 166.417969 383.300781 163.957031 387.960938 162.261719 C 392.625 160.566406 397.957031 160.890625 402.390625 158.320312 L 401.847656 158.4375 C 403.511719 157.261719 405.046875 155.851562 406.996094 155.179688 C 411.5625 155.914062 414.972656 160.433594 416.027344 164.722656 C 414.128906 164.484375 412.285156 164.007812 410.507812 163.296875 C 417.320312 165.726562 416.816406 166.222656 416.816406 173.453125 C 416.816406 177.664062 417.542969 182.863281 414.71875 186.355469 C 413.128906 188.007812 411.398438 189.496094 409.527344 190.820312 C 407.65625 192.140625 405.675781 193.277344 403.585938 194.222656 C 401.496094 195.167969 399.339844 195.90625 397.109375 196.441406 C 394.878906 196.972656 392.621094 197.292969 390.328125 197.394531 C 388.773438 195.34375 389.34375 190.8125 387.90625 188.082031 Z M 391.0625 207.007812 C 390.546875 203.828125 389.832031 200.691406 388.917969 197.601562 C 400.03125 200.3125 420.722656 191.789062 419.230469 178.121094 C 419.300781 169.210938 418.441406 155.921875 407.273438 154.527344 C 416.414062 149.566406 419.230469 163.453125 424.800781 167.832031 C 428.058594 170.371094 433.019531 176.015625 437.113281 171.964844 C 438.335938 169.746094 436.324219 167.476562 436.476562 165.15625 C 448.683594 177.65625 458.214844 200.808594 444.84375 215.582031 C 441.777344 219.523438 443.984375 224.996094 442.097656 229.414062 C 433.988281 226.789062 425.273438 228.121094 416.921875 226.929688 C 409.496094 225.792969 401.453125 226.015625 394.042969 225.628906 C 393.414062 219.375 392.429688 213.175781 391.09375 207.03125 Z M 394.921875 231.039062 C 394.605469 229.601562 394.382812 228.144531 394.1875 226.675781 C 401.703125 227.464844 409.269531 227.464844 416.761719 228.539062 C 424.839844 229.601562 433.191406 228.285156 441.214844 229.785156 C 437.917969 238.984375 435.507812 248.410156 433.980469 258.0625 C 422.9375 251.753906 411.152344 243.457031 397.816406 245.738281 C 397.347656 240.785156 395.976562 235.910156 394.953125 231.0625 Z M 291.191406 457.464844 C 283.648438 465.011719 285.03125 468.085938 284.984375 477.730469 C 284.195312 484.507812 276.210938 478.765625 274.609375 475.230469 C 268.875 465.351562 269.941406 454.800781 272.363281 444.214844 C 272.621094 440.984375 269.355469 439.105469 268.820312 436.171875 C 268.386719 431.171875 265.578125 422.199219 271.242188 419.613281 C 275.546875 418.445312 279.460938 422.964844 283.792969 421.742188 C 286.464844 421.117188 288.949219 418.292969 291.773438 419.21875 C 291.355469 419.5625 290.929688 419.894531 290.488281 420.203125 L 291.105469 419.105469 C 275.546875 438.324219 305.996094 437.75 291.191406 457.464844 Z M 295.617188 442.015625 C 295.5625 441.921875 295.503906 441.828125 295.441406 441.738281 L 295.742188 441.804688 C 295.695312 441.859375 295.695312 441.929688 295.617188 442 Z M 294.519531 460.980469 C 294.558594 460.980469 294.574219 460.980469 294.566406 461.023438 Z M 297.128906 450.296875 C 296.191406 453.726562 296.34375 457.8125 294.402344 460.847656 C 292.414062 457.371094 295.59375 452.285156 297.21875 449.320312 C 297.214844 449.640625 297.183594 449.960938 297.128906 450.28125 Z M 297.707031 442.605469 C 299.285156 444.183594 299.070312 445.566406 296.679688 445.289062 C 296.375 444.328125 296.207031 441.582031 297.707031 442.589844 Z M 301.925781 433.316406 C 299.140625 435.40625 298.257812 440.507812 294.644531 440.636719 C 292.042969 437.324219 288.445312 434.601562 287.632812 430.382812 C 286.988281 426.441406 288.949219 420.832031 292.925781 420.265625 L 293.390625 419.714844 C 296.300781 423.949219 300.671875 426.8125 304.835938 429.683594 C 303.914062 430.90625 302.9375 432.125 301.925781 433.300781 Z M 411.570312 322.800781 C 404.125 334.394531 394.328125 344.316406 383.8125 353.148438 C 376.570312 358.28125 371.328125 365.363281 366.894531 372.863281 C 362.335938 378.144531 354.523438 378.683594 349.46875 383.507812 C 340.570312 391.828125 331.980469 400.464844 323.304688 409.011719 C 316.765625 414.613281 311.875 423.757812 305.640625 428.625 C 288.484375 416.457031 295.007812 420.621094 304.0625 405.820312 C 311.296875 394.945312 316.929688 382.871094 325.835938 373.21875 C 332.523438 365.78125 342.351562 362.375 348.710938 354.574219 C 355.597656 347.097656 357.828125 337.027344 363.753906 329 C 369.015625 321.800781 376.375 315.671875 378.828125 306.746094 C 387.867188 315.546875 400.804688 318.472656 412.683594 320.894531 C 412.328125 321.523438 411.949219 322.164062 411.5625 322.785156 Z M 436.8125 395.511719 C 439.234375 395.765625 438.960938 397.554688 437.144531 398.722656 C 437.289062 397.71875 436.023438 396.023438 436.8125 395.496094 Z M 463.183594 421.347656 C 464.925781 425.21875 464.1875 430.21875 467.5625 433.378906 C 470.417969 436 475.488281 437.417969 476.445312 441.402344 C 476.230469 452.441406 454.789062 440.558594 449.710938 438.105469 C 446.367188 435.589844 442.683594 432.511719 440.601562 428.949219 C 438.421875 424.3125 431.773438 425.792969 428.65625 421.960938 C 426.117188 419.1875 422.566406 415.007812 423.246094 411.085938 C 423.621094 410.167969 424.210938 409.425781 425.019531 408.855469 C 427.507812 407.265625 429.722656 405.355469 431.660156 403.128906 C 433.59375 400.898438 435.175781 398.441406 436.402344 395.757812 C 436.015625 412.402344 441.460938 406.796875 453.566406 409.273438 C 457.78125 411.386719 453.300781 413.855469 454.476562 417.160156 C 456.125 420.847656 461.417969 418.632812 461.464844 415.085938 C 461.832031 417.222656 462.40625 419.304688 463.183594 421.332031 Z M 457.101562 412.765625 C 460.335938 405.738281 462.207031 414.074219 458.925781 416.84375 C 455.609375 418.53125 455.777344 414.691406 457.101562 412.75 Z M 463.199219 409.839844 C 465.683594 410.574219 468.507812 412.996094 466.765625 415.636719 C 465.34375 413.601562 462.191406 412.425781 462.820312 409.722656 C 462.921875 409.746094 463.082031 409.777344 463.199219 409.824219 Z M 459.769531 406.203125 C 461.078125 406.363281 461.132812 408.253906 461.15625 409.121094 C 459.4375 407.703125 457.402344 409.636719 456.351562 410.984375 C 456.148438 410.511719 455.886719 410.078125 455.5625 409.675781 C 455.242188 409.277344 454.871094 408.925781 454.457031 408.625 C 454.039062 408.324219 453.589844 408.082031 453.109375 407.902344 C 452.628906 407.722656 452.132812 407.609375 451.621094 407.5625 C 454.261719 406.671875 456.980469 406.222656 459.769531 406.203125 Z M 458.65625 400.875 C 458.5 404.421875 458.230469 404.46875 454.824219 405.078125 C 452.828125 405.148438 451.242188 406.976562 449.570312 407.324219 C 445.886719 406.773438 439.644531 408.253906 438.101562 404.171875 C 435.300781 397.902344 444.238281 397.183594 446.152344 386.246094 C 449.742188 390.25 455.113281 391.875 460.148438 393.199219 C 459.480469 395.722656 458.96875 398.28125 458.617188 400.867188 Z M 499.601562 324.519531 C 498.578125 329.597656 495.058594 334.132812 492.316406 338.457031 C 487.992188 345.085938 483.265625 352.335938 479.054688 358.960938 C 474.746094 365.875 470.179688 372.726562 466.632812 380.101562 C 464.34375 382.964844 463.261719 391.789062 459.972656 391.78125 C 454.726562 389.960938 443.25 387.902344 448.25 380.644531 C 451.1875 373.546875 453.222656 366.144531 455.570312 358.847656 C 458.371094 349.023438 460.15625 338.273438 467.453125 330.65625 C 471.925781 325.074219 474.234375 323.480469 481.390625 324.511719 C 471.851562 323.992188 462.703125 320.097656 453.039062 320.386719 C 443.574219 320.726562 434.109375 322.234375 424.640625 320.851562 C 408.960938 317.589844 388.546875 315.988281 378.511719 302.042969 C 373.519531 289.679688 380.222656 276.808594 388.523438 267.582031 C 401.347656 254.003906 392.292969 244.710938 403.011719 246.976562 C 408.8125 247.410156 414.175781 249.757812 419.324219 252.308594 C 443.582031 264.355469 432.863281 254.460938 432.453125 278.828125 C 428.285156 278.125 424.089844 277.511719 419.871094 277.164062 C 415.738281 274.75 411.191406 272.511719 406.34375 272.234375 C 410.363281 273.0625 414.03125 275.003906 417.574219 276.96875 C 411.636719 276.769531 405.601562 276.28125 399.699219 277.140625 C 406.089844 276.574219 412.582031 277.304688 418.964844 277.8125 C 440.601562 280.546875 504.777344 295.128906 499.5625 324.511719 Z M 499.601562 324.519531 " fill-opacity="1" fill-rule="nonzero"/><path fill="#000000" d="M 406.492188 262.257812 C 408.902344 263.234375 411.230469 264.382812 413.472656 265.699219 C 409.679688 262.324219 404.300781 259.578125 399.117188 259.980469 C 401.71875 260.175781 404.101562 261.304688 406.492188 262.257812 Z M 406.492188 262.257812 " fill-opacity="1" fill-rule="nonzero"/><path fill="#000000" d="M 405.269531 257.667969 C 407.976562 259.847656 410.40625 262.402344 413.472656 264.082031 C 410.695312 260.660156 407.203125 255.941406 402.429688 255.878906 C 403.5 256.28125 404.445312 256.878906 405.269531 257.667969 Z M 405.269531 257.667969 " fill-opacity="1" fill-rule="nonzero"/></svg>